<svg xmlns="http://www.w3.org/2000/svg" width="222" height="282" fill="none" viewBox="0 0 222 282">
  <path fill="#5C5C5C" fill-opacity=".74" fill-rule="evenodd" d="M108.533 195.462c44.912 0 81.341 19.312 81.341 43.135 0 23.823-36.429 43.135-81.341 43.135-44.922 0-81.34-19.312-81.34-43.135 0-23.823 36.418-43.135 81.34-43.135Z" clip-rule="evenodd"/>
  <path fill="#FFCA28" fill-rule="evenodd" d="m155.148 171.835-9.081 20.995.134 25.805 20.536-12.294-7.306-34.692-2.384-.98a1.887 1.887 0 0 0-1.899 1.166Z" clip-rule="evenodd"/>
  <path fill="#C99131" fill-rule="evenodd" d="m146.108 192.747-.041.083.134 26.032 20.536-12.283-.567-2.395-20.062-11.437Z" clip-rule="evenodd"/>
  <path fill="#DCA82D" fill-rule="evenodd" d="m168.213 181.971-8.307-9.929c-.434-.527-1.084-.733-1.745-.62a1.868 1.868 0 0 0-1.465 1.146l-9.019 21.026.123 25.381 20.537-12.283-.124-24.721Z" clip-rule="evenodd"/>
  <path fill="#FFCA28" fill-rule="evenodd" d="m221.804 214.083-20.536 12.262-34.396-19.395v-22.625l1.341-.816 53.591 30.574Z" clip-rule="evenodd"/>
  <path fill="#C99131" fill-rule="evenodd" d="m221.206 215.321-19.742 12.717-34.592-19.736v-23.977l54.334 30.996Z" clip-rule="evenodd"/>
  <path fill="#DCA82D" fill-rule="evenodd" d="m173.116 171.216 17.286 38.552c.526 1.167.474 2.849-.155 3.757-.64.909-1.579.692-2.147-.444l-20.247-39.976c-1.352-2.663 3.859-4.996 5.263-1.889Z" clip-rule="evenodd"/>
  <path fill="#F6C126" fill-rule="evenodd" d="m172.093 170.411 11.744 25.867-1.166-.104-12.58-25.877c.671-.185 1.393-.175 2.002.114Z" clip-rule="evenodd"/>
  <path fill="#DCA82D" fill-rule="evenodd" d="M196.119 217.045c-5.79.723-12.322.134-20.888-1.899l-3.426-7.391 5.697-8.154 21.228 2.446 3.601 6.111-6.212 8.887Z" clip-rule="evenodd"/>
  <path fill="#C99131" fill-rule="evenodd" d="m175.232 215.146-4.902-10.332 6.161-8.815 1.052.392 6.068 6.73-8.379 12.025Z" clip-rule="evenodd"/>
  <path fill="#F6C126" fill-rule="evenodd" d="m176.469 196.03 21.166 1.971 4.675 10.198c-5.697.619-12.642.083-20.97-1.899l-4.871-10.27Z" clip-rule="evenodd"/>
  <path fill="#C99131" fill-rule="evenodd" d="M187.387 214.423c.557.733 2.064.671 3.344-.134 1.279-.795 1.868-2.033 1.3-2.766-.568-.723-2.064-.661-3.354.134-1.28.805-1.857 2.044-1.29 2.766Z" clip-rule="evenodd"/>
  <path fill="#BBBEBE" fill-rule="evenodd" d="m149.74 193.676 45.263 36.179 6.254-2.849.237-.847-43.209-53.581-1.186.578-7.359 20.52Z" clip-rule="evenodd"/>
  <path fill="#4F5252" fill-rule="evenodd" d="m201.516 226.19-43.23-53.612-1.186.578-7.121 19.849 45.17 36.086 6.367-2.901Z" clip-rule="evenodd"/>
  <path fill="#7C8081" fill-rule="evenodd" d="m157.007 173.404-7.028 19.602 45.17 36.085 4.953-2.261-43.095-53.426Z" clip-rule="evenodd"/>
  <path fill="#FBD745" fill-rule="evenodd" d="M130.732 178.07c3.901 5.852 9.102 8.794 14.964 12.747v-6.926c-1.208 1.022-4.046-1.104-5.552-2.848-.805-.919 1.455-3.221 3.209-6.142.97-1.641 1.713-3.561 2.343-4.789v-6.772a63.046 63.046 0 0 0-1.755-.805c-2.693-1.176.465 3.417-.557 4.728-3.488 2.487-6.532 6.296-8.204 10.858-.558.888-5.862-2.178-4.448-.051Zm14.964 12.747a87.717 87.717 0 0 1 5.015 3.603l5.82-1.683 3.396-8.928-2.952-10.198c-4.52-5.564-5.831-7.638-11.279-10.271v6.772c.361-.702.681-1.177 1.001-1.218 1.393-.227 5.056 1.92 4.705 3.705-.887 4.552-2.321 7.009-5.552 11.127l-.154.165v6.926Z" clip-rule="evenodd"/>
  <path fill="#FFCA28" fill-rule="evenodd" d="M130.371 177.967c3.89 5.831 9.36 8.567 15.325 12.396v-6.472c-1.208 1.022-4.046-1.104-5.553-2.849-.804-.918 1.456-3.22 3.21-6.141.97-1.641 1.713-3.561 2.343-4.789v-6.875c-.485-.268-.991-.526-1.528-.805-3.034-1.538-.103 2.756-1.125 4.077-3.488 2.477-6.078 6.596-7.75 11.148-.547.888-6.336-1.817-4.922.31Zm15.325 12.396a66.367 66.367 0 0 1 5.139 3.602l5.882-1.713 3.354-8.825-2.972-10.27c-4.097-4.604-5.975-6.968-11.403-9.92v6.875c.361-.702.681-1.177 1.001-1.218 1.393-.227 5.056 1.919 4.705 3.705-.887 4.552-2.322 7.009-5.552 11.127l-.154.165v6.472Z" clip-rule="evenodd"/>
  <path fill="#000" fill-rule="evenodd" d="M143.013 164.094c.237.908.443 1.889.031 2.415-3.488 2.477-6.079 6.596-7.751 11.148-.402.64-3.539-.599-4.705-.527l15.108 12.036v-5.275c-1.208 1.022-4.046-1.104-5.552-2.849-.805-.918 1.455-3.22 3.209-6.141.97-1.641 1.713-3.561 2.343-4.789v-5.11c-.96-.485-1.889-.826-2.683-.908Zm2.683 25.072 2.827 2.26c2.168 1.941 4.789-1.713 3.447-3.262l-3.777-3.901c3.127-4.614 5.459-12.128 4.407-13.728-.681-1.043-3.942-4.015-6.904-5.533v5.11c.361-.702.681-1.177 1.001-1.218 1.393-.228 5.057 1.919 4.706 3.705-.888 4.552-2.322 7.009-5.552 11.127l-.155.165v5.275Z" clip-rule="evenodd"/>
  <path fill="#FAEE35" fill-rule="evenodd" d="M130.37 177.966c4.995 7.484 12.766 11.169 20.661 17.31l.185-1.424-15.273-13.77-4.685-2.941c-.919-.186-1.558-.186-.888.825Z" clip-rule="evenodd"/>
  <path fill="#FBD745" fill-rule="evenodd" d="m151.207 193.841.278-.061-.144 1.176.237.186-.547.134.176-1.435Z" clip-rule="evenodd"/>
  <path fill="#FFCA28" fill-rule="evenodd" d="m202.805 249.022-.134-23.823-53.776-30.656-1.352.785.124 22.244 55.138 31.45Zm-42.745-75.628 50.268 28.674c.887.506 1.61 1.652 1.61 2.539 0 .888-.723 1.198-1.61.692l-51.61-29.448c-2.084-1.198-1.021-3.809 1.342-2.457Z" clip-rule="evenodd"/>
  <path fill="#FFCA28" fill-rule="evenodd" d="m208.801 202.471-9.072 21.005.135 25.608 20.526-12.283-7.296-34.506-2.384-.991a1.92 1.92 0 0 0-1.909 1.167Z" clip-rule="evenodd"/>
  <path fill="#C99131" fill-rule="evenodd" d="m201.557 250.467-.217-24.525-55.273-31.45.134 24.37 55.356 31.605Z" clip-rule="evenodd"/>
  <path fill="#C99131" fill-rule="evenodd" d="m199.781 223.362-.052.114.135 25.608 14.757-8.825-.052-8.464-14.788-8.433Z" clip-rule="evenodd"/>
  <path fill="#DCA82D" fill-rule="evenodd" d="m221.876 212.534-8.307-9.847c-.444-.526-1.084-.733-1.755-.619a1.863 1.863 0 0 0-1.465 1.146l-9.02 21.025.135 26.166L222 238.122l-.124-25.588Z" clip-rule="evenodd"/>
  <path fill="#A3272C" fill-rule="evenodd" d="M148.936 60.256c-1.682 6.306-24.871 18.868-33.116 21.16-3.53-.826-8.648-9.156-5.965-10.921 2.456-2.26 19.69-13.274 27.378-18.807 6.13-2.611 10.526 3.087 11.703 8.568Z" clip-rule="evenodd"/>
  <path fill="#AE6B2D" fill-rule="evenodd" d="M5.542 236.677v-10.26l19.237-11.178-.021 4.737c-6.605 3.84-9.391 7.515-9.556 11.086l-9.66 5.615Z" clip-rule="evenodd"/>
  <path fill="#8D462E" fill-rule="evenodd" d="M5.542 236.677v-10.26L0 223.217v10.26l5.542 3.2Z" clip-rule="evenodd"/>
  <path fill="#FFCA28" fill-rule="evenodd" d="M24.778 215.239 5.542 226.417 0 223.217l19.226-11.178 5.552 3.2Z" clip-rule="evenodd"/>
  <path fill="#AE6B2D" fill-rule="evenodd" d="M31.858 251.995v-10.26l19.236-11.179-.02 4.728c-6.605 3.85-9.392 7.524-9.557 11.096l-9.66 5.615Z" clip-rule="evenodd"/>
  <path fill="#8D462E" fill-rule="evenodd" d="M31.858 251.995v-10.26l-5.542-3.2v10.26l5.542 3.2Z" clip-rule="evenodd"/>
  <path fill="#FFCA28" fill-rule="evenodd" d="m51.094 230.556-19.236 11.179-5.542-3.2 19.226-11.178 5.552 3.199Z" clip-rule="evenodd"/>
  <path fill="#8D462E" fill-rule="evenodd" d="M88.204 220.141v-4.789l-5.542-3.2v4.79l5.542 3.199Z" clip-rule="evenodd"/>
  <path fill="#AE6B2D" fill-rule="evenodd" d="M97.924 214.557v-10.59l-19.236 11.158v4.862c6.13-3.499 8.4-2.797 9.443.217l9.793-5.647Z" clip-rule="evenodd"/>
  <path fill="#8D462E" fill-rule="evenodd" d="M78.689 219.987v-4.862l-5.542-3.127v4.789l5.542 3.2Z" clip-rule="evenodd"/>
  <path fill="#FFCA28" fill-rule="evenodd" d="m97.925 204.019-19.236 11.106-5.542-3.127 19.226-11.169 5.552 3.19Z" clip-rule="evenodd"/>
  <path fill="#AE6B2D" fill-rule="evenodd" d="m97.904 204.225-66.057 37.644-31.63-18.528-.186-5.377 66.16-28.293 31.734 8.691-.02 5.863Z" clip-rule="evenodd"/>
  <path fill="#CD9C29" fill-rule="evenodd" d="m97.925 198.363-66.078 38.098L.031 217.964l66.16-38.036 31.734 18.435Z" clip-rule="evenodd"/>
  <path fill="#8D462E" fill-rule="evenodd" d="M31.847 236.461v5.408L.031 223.341v-5.377l31.816 18.497Z" clip-rule="evenodd"/>
  <path fill="#AE6B2D" fill-rule="evenodd" d="m97.77 198.311-.021-152.33-31.806-18.24-4.757 2.53 8.183 147.768 23.323 23.214 5.078-2.942Z" clip-rule="evenodd"/>
  <path fill="#8D462E" fill-rule="evenodd" d="m92.692 201.253.362-152.589-31.868-18.393-.268 152.619 31.774 18.363Z" clip-rule="evenodd"/>
  <path fill="#CD9C29" fill-rule="evenodd" d="m93.053 48.664 4.696-2.684L65.85 27.587l-4.664 2.684 31.867 18.393Z" clip-rule="evenodd"/>
  <path fill="#AE6B2D" fill-rule="evenodd" d="m37.007 233.756-.02-152.34L5.18 63.186l-4.757 2.52 8.184 147.778 23.323 23.214 5.077-2.942Z" clip-rule="evenodd"/>
  <path fill="#8D462E" fill-rule="evenodd" d="m31.93 236.698.36-152.588L.423 65.706.155 218.325l31.775 18.373Z" clip-rule="evenodd"/>
  <path fill="#CD9C29" fill-rule="evenodd" d="m32.291 84.11 4.696-2.695L5.098 63.032.423 65.706l31.868 18.403Z" clip-rule="evenodd"/>
  <path fill="#CF3134" fill-rule="evenodd" d="M97.378 34.038c2.466-8.928 16.697-2.942 22.714 2.168.278.35 17.688 7.09 26.841 19.023 4.066 6.771-6.068 11.086-12.889 7.194-10.671-2.425-19.277-7.008-22.435-8.05-5.294-1.766-18.555-11.489-14.231-20.335Z" clip-rule="evenodd"/>
  <path fill="#D4CB75" fill-rule="evenodd" d="M114.983 221.153c-.526-.072-2.301 3.881-.753 6.72.413.753-.01 3.571 7.833 6.348 2.188.774 4.324.444 8.792 2.59 1.063.506.083 2.013.846 2.56 2.137 1.528 4.015 2.343 4.975 2.983 1.816 1.208 7.585 1.136 8.968-1.331.732-1.321-.166-7.607-.166-7.607l-30.495-12.263Z" clip-rule="evenodd"/>
  <path fill="#120C08" fill-rule="evenodd" d="M145.675 221.287c.547-1.238-1.569-3.416-1.569-3.416s-.33 1.992-.495 3.086c-.186 1.084-3.509 3.396-9.154.681-3.88-1.868-3.178-6.214-3.178-6.214.082-.619-1.342.32-1.342 1.456 0 3.21-1.259 4.304-2.559 4.583-4.84-.217-7.142-2.065-8.721-1.992-1.269.051-3.56 1.032-4.179 2.756-.857 2.405.423 5.357 1.826 7.173 1.136 1.497 3.571 3.117 5.398 3.417 9.721 1.569 14.85 6.977 17.997 7.029 4.036.052 5.078-.929 5.604-2.704 1.053-3.561.103-7.102-.805-9.538.238-2.642.846-5.553 1.177-6.317Z" clip-rule="evenodd"/>
  <path fill="#120C08" fill-rule="evenodd" d="M145.675 221.287c.547-1.238-1.569-3.416-1.569-3.416s-.33 1.992-.495 3.086c-.186 1.084-3.509 3.396-9.154.681-3.88-1.868-3.178-6.214-3.178-6.214.082-.619-1.342.32-1.342 1.456 0 3.21-1.259 4.304-2.559 4.583-4.84-.217-7.142-2.065-8.721-1.992-1.269.051-3.56 1.032-4.179 2.756-.857 2.405.423 5.357 1.826 7.173 1.136 1.497 3.571 3.117 5.398 3.417 9.721 1.569 14.85 6.977 17.997 7.029 4.036.052 5.078-.929 5.604-2.704 1.053-3.561.103-7.102-.805-9.538.238-2.642.846-5.553 1.177-6.317Z" clip-rule="evenodd"/>
  <path fill="#C7703B" fill-rule="evenodd" d="M145.675 221.287c.547-1.238-1.569-3.416-1.569-3.416s-.33 1.992-.495 3.086c-.186 1.084-3.509 3.396-9.154.681-3.88-1.868-3.178-6.214-3.178-6.214.082-.619-1.342.32-1.342 1.456 0 3.21-1.259 4.304-2.559 4.583-4.84-.217-3.932-2.756-8.576-2.736-2.229.011-3.705 1.776-4.324 3.5-.857 2.405.423 5.357 1.826 7.173 1.136 1.497 3.571 3.117 5.398 3.417 9.721 1.569 14.85 6.977 17.997 7.029 4.036.052 5.078-.929 5.604-2.704 1.053-3.561.103-7.102-.805-9.538.238-2.642.846-5.553 1.177-6.317Z" clip-rule="evenodd"/>
  <path fill="#FFCA28" d="m121.486 223.878.165.392.361-.082c.496-1.115 1.104-1.858 1.796-2.312.681-.434 1.455-.589 2.301-.506l.258-.248-.309-.31c-.96-.092-1.848.083-2.622.578-.763.496-1.424 1.311-1.95 2.488Z"/>
  <path fill="#FFCA28" d="m123.012 224.673.217.351.351-.134c.33-1.167.825-1.992 1.444-2.54.609-.526 1.352-.794 2.209-.836l.216-.278-.35-.258c-.97.041-1.817.34-2.508.949-.692.589-1.218 1.487-1.579 2.746Z"/>
  <path fill="#FFCA28" d="m124.808 225.654.299.299.299-.227c.021-1.208.289-2.137.743-2.828.455-.671 1.105-1.115 1.92-1.363l.144-.34-.412-.155c-.919.289-1.662.794-2.178 1.569-.506.743-.794 1.754-.815 3.045Z"/>
  <path fill="#FFCA28" d="m126.728 226.634.382.165.207-.33c-.444-1.125-.547-2.085-.382-2.89.165-.795.609-1.456 1.259-2.003l.01-.351h-.444c-.743.62-1.238 1.373-1.434 2.271-.186.888-.072 1.93.402 3.138Z"/>
  <path fill="#045D45" fill-rule="evenodd" d="M132.682 145.989c-1.259 7.174 2.301 26.527 2.146 33.804 5.945 10.363 11.208 43.352 12.539 49.525 1.579 7.462-19.226 5.574-21.486-2.158-1.145-18.476-9.112-22.904-13.075-44.311-3.602-19.478-7.709-40.049-7.864-43.105-.299-5.233 3.932-7.751 3.88-13.542 0 0 7.957-15.472 20.568-13.955 8.132 16.143 6.615 31.368 3.292 33.742Z" clip-rule="evenodd"/>
  <path fill="#A3272C" fill-rule="evenodd" d="M79.329 44.009c-.857.743-7.09 7.618-8.793 15.297-1.228 5.657 3.323 14.833 4.025 15.999 2.26 3.757 16.078 44.776 22.177 42.939 2.56 12.634 27.781 1.321 32.838-9.723 7.564-3.757-5.335-37.335-6.574-42.124-1.238-4.8-6.697-29.51-16.295-34.826-2.208-1.228-5.614-2.322-7.554-1.104C92.177 34.77 80.392 43.09 79.33 44.009Z" clip-rule="evenodd"/>
  <path fill="#CF3134" fill-rule="evenodd" d="M77.502 54.682c8.844-2.735 16.16 9.764 15.85 19.013-.133.413-.907 20.881-6.016 35.022-3.498 7.081-11.671-.568-12.074-8.412-3.705-10.302-2.363-21.057-2.58-24.855-4.107-7.505-4.964-19.643 4.82-20.768Z" clip-rule="evenodd"/>
  <path fill="#0A795B" fill-rule="evenodd" d="M71.135 57.035c5.202-4.985 29.061-6.926 40.557 16.216 2.89-.34 1.528-.723 3.695-2.59-9.35-19.365-32.673-27.158-40.444-21.811-2.745 2.931-2.352 4.46-3.808 8.185Z" clip-rule="evenodd"/>
  <path fill="#0A795B" fill-rule="evenodd" d="M91.042 35.762c16.429-3.953 20.278 11.055 23.766 34.176 2.529-.165 1.476.196 3.953-1.817-1.713-15.235-2.529-37.809-20.01-37.417-1.713.042-4.293 1.435-7.71 5.058Z" clip-rule="evenodd"/>
  <path fill="#EEAB82" fill-rule="evenodd" d="M54.82 18.741c1.32 1.806 1.568 5.11 2.404 7.174.588 1.445.712 1.91 1.981 2.694 1.93 1.218 2.797 2.931 3.54 4.923.898 2.395 3.024 4.14 5.015 5.77 1.559 1.28 3.096 2.983 5.202 2.963 5.252-.073 8.328-4.274 11.083-8.051 2.735-3.716-2.26-9.693-3.189-13.45-1.682-6.781-8.369-13.305-15.913-11.56-3.374.784-8.111 3.272-10.103 6.193-.691 1.001-.02 3.344-.02 3.344Z" clip-rule="evenodd"/>
  <path fill="#EEAB82" fill-rule="evenodd" d="M74.747 37.042s2.962 6.792 5.696 9.475c1.043.681 6.368.65 9.309-1.28 4.664-3.065 8.256-9.227 4.076-11.963-2.25-1.476-5.84-1.982-10.154-11.25-1.352-2.922-8.927 15.018-8.927 15.018Z" clip-rule="evenodd"/>
  <path fill="#46270E" fill-rule="evenodd" d="M69.741.863C61.558.905 49.97 9.637 49.246 16.295c-.402 3.819 5.346 5.656 5.346 5.656 2.301.733 3.395-1.58 7.172 2.343 1.001 1.032 3.065 1.476 3.984 2.323 17.11 15.73 20.846 1.383 20.65.381-1.724-8.36 1.114-8.143-.29-12.892C83.973 6.912 81.239.771 69.742.863Z" clip-rule="evenodd"/>
  <path fill="#EEAB82" fill-rule="evenodd" d="M71.662 29.569c.588 2.518 1.424 4.676.32 4.944-1.115.248-3.344-.98-3.953-3.51-.578-2.518-1.476-4.727-.547-5.387 1.744-1.25 3.581 1.414 4.18 3.953Z" clip-rule="evenodd"/>
  <path fill="#46270E" fill-rule="evenodd" d="M67.172 27.546c.103 2.198 4.324 6.668 6.636 9.392 1 1.167 2.445 2.313 3.322 3.52 1.62 2.199 3.179 2.034-1.878 7.009-2.497 2.446-11.517-6.41-9.473-9.858 1.31-2.219 1.754-2.724.918-5.749-.371-1.352-.485-7.297.475-4.314Z" clip-rule="evenodd"/>
  <path fill="#D4CB75" fill-rule="evenodd" d="M73.849 232.848c-.526-.072-2.302 3.881-.754 6.719.413.754-.02 3.572 7.833 6.348 2.188.774 4.314.444 8.793 2.591 1.063.506.082 2.013.846 2.56 2.136 1.528 4.014 2.343 4.974 2.983 1.816 1.208 7.585 1.135 8.968-1.332.733-1.321-.165-7.607-.165-7.607l-30.495-12.262Z" clip-rule="evenodd"/>
  <path fill="#120C08" fill-rule="evenodd" d="M104.54 232.982c.547-1.239-1.568-3.417-1.568-3.417s-.331 1.993-.506 3.087c-.176 1.084-3.499 3.396-9.143.681-3.87-1.868-3.179-6.224-3.179-6.224.082-.609-1.331.33-1.331 1.466 0 3.21-1.27 4.304-2.57 4.593-4.84-.227-7.141-2.075-8.72-1.992-1.26.041-3.56 1.022-4.18 2.756-.856 2.394.423 5.346 1.827 7.163 1.135 1.497 3.57 3.117 5.397 3.417 9.722 1.569 14.85 6.977 17.998 7.029 4.035.051 5.077-.929 5.604-2.705 1.052-3.561.092-7.101-.805-9.537.237-2.642.846-5.553 1.176-6.317Z" clip-rule="evenodd"/>
  <path fill="#120C08" fill-rule="evenodd" d="M104.54 232.982c.547-1.239-1.568-3.417-1.568-3.417s-.331 1.993-.506 3.087c-.176 1.084-3.499 3.396-9.143.681-3.87-1.868-3.179-6.224-3.179-6.224.082-.609-1.331.33-1.331 1.466 0 3.21-1.27 4.304-2.57 4.593-4.84-.227-7.141-2.075-8.72-1.992-1.26.041-3.56 1.022-4.18 2.756-.856 2.394.423 5.346 1.827 7.163 1.135 1.497 3.57 3.117 5.397 3.417 9.722 1.569 14.85 6.977 17.998 7.029 4.035.051 5.077-.929 5.604-2.705 1.052-3.561.092-7.101-.805-9.537.237-2.642.846-5.553 1.176-6.317Z" clip-rule="evenodd"/>
  <path fill="#C7703B" fill-rule="evenodd" d="M104.54 232.982c.547-1.239-1.568-3.417-1.568-3.417s-.331 1.993-.506 3.087c-.176 1.084-3.499 3.396-9.143.681-3.87-1.868-3.179-6.224-3.179-6.224.082-.609-1.331.33-1.331 1.466 0 3.21-1.27 4.304-2.57 4.593-4.84-.227-3.932-2.766-8.576-2.746-2.229.011-3.704 1.776-4.324 3.51-.856 2.394.423 5.346 1.827 7.163 1.135 1.497 3.57 3.117 5.397 3.417 9.722 1.569 14.85 6.977 17.998 7.029 4.035.051 5.077-.929 5.604-2.705 1.052-3.561.092-7.101-.805-9.537.237-2.642.846-5.553 1.176-6.317Z" clip-rule="evenodd"/>
  <path fill="#FFCA28" d="m80.35 235.583.155.382.382-.082c.485-1.115 1.094-1.858 1.785-2.313.681-.433 1.455-.588 2.301-.505l.258-.248-.31-.31c-.959-.093-1.847.083-2.62.578-.764.496-1.425 1.311-1.95 2.498Z"/>
  <path fill="#FFCA28" d="m81.878 236.357.217.361.35-.134c.33-1.166.816-1.992 1.445-2.539.61-.526 1.352-.795 2.209-.836l.216-.279-.35-.258c-.97.042-1.817.341-2.519.95-.68.588-1.217 1.486-1.568 2.735Z"/>
  <path fill="#FFCA28" d="m83.674 237.348.299.3.3-.228c.02-1.207.278-2.136.742-2.817.454-.671 1.104-1.115 1.92-1.373l.144-.341-.413-.155c-.918.289-1.661.795-2.177 1.569-.516.743-.795 1.755-.815 3.045Z"/>
  <path fill="#FFCA28" d="m85.593 238.329.382.165.206-.33c-.444-1.126-.547-2.086-.382-2.891.165-.794.609-1.445 1.26-1.992v-.361h-.434c-.743.619-1.239 1.373-1.435 2.271-.186.887-.072 1.93.403 3.138Z"/>
  <path fill="#0A795B" fill-rule="evenodd" d="M111.588 151.553c-.475 10.301-3.695 18.352-6.264 29.675-2.054 8.382 2.941 51.909.867 63.088-2.013 3.22-13.974.474-19.835-6.658-2.043-8.01-5.263-50.722-4.231-60.91.856-3.22 1.878-20.396 2.177-26.785.774-16.835 3.819-29.675 6.058-33.515 0 0 13.725-1.538 26.181.96 10.929 20.169-3.725 33.144-4.953 34.145Z" clip-rule="evenodd"/>
  <path fill="#045D45" fill-rule="evenodd" d="M90.36 116.448c5.975 5.213 31.001 6.947 39.03-4.201-.093-1.3.279-3.654.186-4.954-9.092 6.616-28.38 11.354-38.504 5.615a1472.19 1472.19 0 0 1-.712 3.54Zm4.376 71.066c.072-7.917 1.073-15.844 4.087-23.771-6.275-1.373-11.187-3.582-14.85-7.896-2.096 10.074-5.46 23.245-1.91 25.835 4.613 3.273 7.874 5.141 12.673 5.832Z" clip-rule="evenodd"/>
  <path fill="#0A795B" fill-rule="evenodd" d="M97.1 164.052c-6.626-2.312-10.362-4.428-13.582-7.524-.887 2.023-1.775 4.046-2.672 6.079 3.663 3.654 7.873 6.668 13.58 7.928 1.26-1.962 2.23-4.078 2.673-6.483Z" clip-rule="evenodd"/>
  <path fill="#045D45" fill-rule="evenodd" d="M84.571 164.249c.361-.372.207-1.187-.33-1.827-.537-.63-1.26-.836-1.62-.465-.351.372-.207 1.187.33 1.817.537.64 1.259.846 1.62.475Zm9.453 5.037c.351-.372.207-1.187-.33-1.817-.537-.64-1.259-.846-1.61-.464-.36.371-.216 1.187.32 1.816.537.63 1.27.836 1.62.465Zm-5.098-49.741c-4.943 17.609-7.183 31.925-4.768 33.164 5.913 3.478 8.813 4.81 14.386 5.14 1.414-4.769 1.961-11.684 3.199-16.928-10.227-3.303-9.246-13.336-7.864-19.26-2.456-.331-2.796-1.095-4.953-2.116Z" clip-rule="evenodd"/>
  <path fill="#D6926A" fill-rule="evenodd" d="M39.462 111.174c-2.002-1.002-6.068-1.456-7.502-1.549-1.847-.113-2.776.207-4.634.083.558 1.28.217 2.116 3.52 2.033 2.26.743 7.925 5.75 9.122 2.818.29-1.847 2.085-2.333-.506-3.385Z" clip-rule="evenodd"/>
  <path fill="#F1AE84" fill-rule="evenodd" d="M43.52 116.706c.206-1.125-.134-5.625-2.322-5.605-2.931.486-6.502.289-6.966.351-.805.135-5.758 1.342-6.522 1.549-1.063.289-1.187 1.796-.072 3.034.123.919.68 2.096 1.64 2.395.217.867.351 1.528 1.62 2.291.248.589.186 1.6.857 1.776 1.878 1.022 3.87-.145 6.708-1.187 2.724-1.001 4.479-1.621 5.057-4.604Z" clip-rule="evenodd"/>
  <path fill="#A3272C" fill-rule="evenodd" d="M41.682 110.358c-2.364 1.146-1.435 8.64 1.806 9.021 2.662-.35 4.313-.774 6.986-1.125 2.415-2.425.444-9.527-3.292-9.702-2.662.877-2.828.929-5.5 1.806Z" clip-rule="evenodd"/>
  <path fill="#CF3134" fill-rule="evenodd" d="M87.193 109.016c-3.406 5.564-29.205 11.003-37.76 10.859-3.148-1.796-5.697-11.23-2.611-12.159 2.993-1.476 22.641-7.133 31.589-10.25 6.615-.764 9.215 5.956 8.782 11.55Z" clip-rule="evenodd"/>
  <path fill="#045D45" fill-rule="evenodd" d="M114.911 113.96c-.681-11.509 2.9-28.158-3.22-40.71 2.199-2.724 4.655-2.94 6.853-5.666 4.757 10.322 6.285 29.387 11.032 39.708-1.755 7.308-8.886 4.883-14.665 6.668Z" clip-rule="evenodd"/>
</svg>
