<svg xmlns="http://www.w3.org/2000/svg" width="529" height="392" fill="none" viewBox="0 0 529 392">
  <path fill="#39919C" d="M389.164 346.57c13.725-6.177-24.706-14.25-24.706-16.471 0-15.6-80.198-23.625-181.337-23.625C81.987 306.474 0 319.121 0 334.722c0 12.208 50.207 22.606 120.504 26.551 2.559 15.144 63.68 27.258 138.721 27.258 76.667 0 173.219 10.732 184.841-6.961 203.824.989-18.53-35-54.902-35ZM51.329 371.81c-18.148 0-32.86 2.993-32.86 6.685 0 3.695 14.712 6.687 32.86 6.687 18.15 0 32.86-2.992 32.86-6.687 0-3.692-14.71-6.685-32.86-6.685m312.749-57.938c11.291 0 20.448-1.861 20.448-4.158 0-2.3-9.157-4.163-20.448-4.163-11.293 0-20.45 1.863-20.45 4.163 0 2.297 9.157 4.158 20.45 4.158Z"/>
  <path fill="#A0DFE3" d="M358.364 169.551c.368 87.873-69.427 159.412-155.89 159.786-86.461.372-156.848-70.562-157.215-158.433C44.89 83.03 114.683 11.492 201.143 11.121c86.464-.374 156.852 70.558 157.22 158.43Z"/>
  <path fill="#BBE8EA" d="M358.359 168.881c-.333-40.496-15.784-80.876-46.313-111.644-30.532-30.769-70.394-46.124-110.241-46.121L358.359 168.88"/>
  <path fill="#7FD4DD" d="M87.293 61.746C29.802 124.36 31.326 222.5 91.577 283.215c60.251 60.718 156.824 61.431 217.942 2.472L87.293 61.747Z"/>
  <path fill="#fff" d="m236.957 32.566 15.337 3.91-15.303 4.044-3.847 15.587-3.976-15.553-15.336-3.91 15.3-4.043 3.847-15.585 3.978 15.55Zm23.352 21.853 6.047 1.541-6.033 1.595-1.519 6.146-1.569-6.132-6.047-1.544 6.035-1.592 1.519-6.146 1.567 6.132m-44.204-2.952 6.045 1.54-6.033 1.595-1.515 6.145-1.569-6.13-6.044-1.543 6.032-1.595 1.516-6.143 1.568 6.13Zm-39.847 1.356 3.849-15.585 3.978 15.55 15.334 3.911-15.302 4.044-3.846 15.585-3.98-15.55-15.335-3.912 15.302-4.043m21.504-23.729 1.515-6.145 1.569 6.132 6.047 1.54-6.031 1.594-1.52 6.145-1.567-6.13-6.047-1.542 6.034-1.594m-2.905 44.925 1.516-6.146 1.569 6.132 6.046 1.54-6.03 1.594-1.521 6.146-1.566-6.132-6.047-1.54 6.033-1.594"/>
  <path fill="#D37147" d="m249.447 114.938 5.464-2.611-5.952 1.028c.072.424.199.952.488 1.583l5.464-2.611-5.952 1.028 5.946-1.028h-6.032c0 .273.016.603.086 1.028l5.946-1.028h-6.032 6.02l-5.979-.714c-.023.19-.041.42-.041.714h6.02l-5.979-.714 5.945.709-5.798-1.508a5.727 5.727 0 0 0-.147.799l5.945.709-5.798-1.508 5.715 1.487-5.595-1.9a5.546 5.546 0 0 0-.12.413l5.715 1.487-5.595-1.9 5.364 1.822-5.218-2.221c-.034.085-.079.195-.146.399l5.364 1.822-5.218-2.221 4.157 1.769-4.051-2.01c-.013.03-.038.08-.106.241l4.157 1.769-4.051-2.01 1.389.688-1.38-.706-.009.018 1.389.688-1.38-.706c0 .002-.038.078-.097.186-.11.215-.293.557-.519.993-.429.817-1.023 1.972-1.732 3.433-2.481 5.122-6.376 14.02-10.028 26.405-3.651 12.385-7.065 28.266-8.6 47.368l.002-.025-5.11 60.453 12.044 1.051 5.112-60.469v-.009c1.917-23.842 6.889-42.258 11.344-54.717 2.229-6.23 4.327-10.967 5.855-14.157a107.03 107.03 0 0 1 1.825-3.637c.219-.422.391-.746.537-1.026.039-.071.075-.142.111-.215a4.45 4.45 0 0 0 .09-.182c.025-.05.052-.105.084-.176l.083-.186c.048-.115.106-.253.199-.526.045-.14.099-.312.165-.59a5.784 5.784 0 0 0 .135-.899c.007-.071.012-.147.014-.227l.007-.264a6.556 6.556 0 0 0-.086-1.033 6.333 6.333 0 0 0-.49-1.586l-10.94 5.23"/>
  <path fill="#fff" d="M229.38 147.048c1.005-40.443 31.797-52.858 31.797-52.858l6.234 29.308c-13.861 4.61-16.621 23.55-16.621 23.55h-21.41Z"/>
  <path fill="#D2D0CE" d="m255.065 373.068-18.974 4.096v4.606h32.237v-8.702h-13.263"/>
  <path fill="#fff" d="M319.54 112.322c-1.933 31.967-11.672 110.309-11.672 110.309-22.695 0-63.129-57.259-63.129-89.49 0-32.231 16.707-36.86 24.599-39.59h41.127c6.381 2.271 9.075 9.312 9.075 18.771"/>
  <path fill="#84B8BB" d="m261.69 96.595-.149-.7a25.197 25.197 0 0 1 3.561-2.345h4.236c-2.089.723-4.796 1.579-7.648 3.045Z"/>
  <path fill="#D3D2D2" d="M259.037 98.133a27.712 27.712 0 0 1 2.504-2.238l.149.7c-.876.45-1.766.96-2.653 1.538Z"/>
  <path fill="#D3D2D2" d="M256.54 126.314h-8.144c0-10.29 3.7-21.191 10.641-28.181a29.685 29.685 0 0 1 2.654-1.538c2.851-1.466 5.559-2.322 7.647-3.045h2.182c-12.593 4.782-13.937 14.336-14.98 32.764Zm38.943 0h-8.144c0-12.966 5.877-26.903 16.707-32.764h6.419c-12.593 4.782-13.938 14.336-14.982 32.764"/>
  <path fill="#283B58" d="m244.739 239.106 5.036 62.707 5.29 70.587s8.059 5.801 13.347 0l6.045-41.975-2.267-28.612 9.321-62.707h-36.772Z"/>
  <path fill="#2E7780" d="M268.329 373.137v-.069h-.594c.23-.202.456-.425.677-.668l6.011-41.739.034.429-6.045 41.978-.083.069"/>
  <path fill="#AEABAA" d="m264.337 375.464-.039-.657a7.395 7.395 0 0 0 3.437-1.739h.594v.069c-.463.371-2.748 2.168-3.992 2.327Z"/>
  <path fill="#84B8BB" d="m279.223 255.158-.085-.087 2.273-15.3h.1l-2.288 15.387Z"/>
  <path fill="#69AFB7" d="m272.224 302.249-.034-.436 6.948-46.742.085.087-6.999 47.091Z"/>
  <path fill="#213149" d="m264.298 374.807-4.195-72.584 3.021-62.452h18.287l-2.273 15.3-6.948 46.742.034.436-.034.231 2.233 28.181-6.011 41.739a8.496 8.496 0 0 1-.677.668 7.395 7.395 0 0 1-3.437 1.739"/>
  <path fill="#283B58" d="M313.495 239.771h-68.756V126.314h53.643l-6.462 48.132 21.575 26.623v38.702Z"/>
  <path fill="#2D4364" d="M248.395 152.689c1.217 0 2.202 17.658 2.202 39.441 0 21.785-.985 39.446-2.202 39.446-1.215 0-2.204-17.661-2.204-39.446 0-21.783.989-39.441 2.204-39.441Z"/>
  <path fill="#D2D0CE" d="M302.876 373.068h-11.547l-4.785 4.096v4.606h21.324v-4.606l-4.992-4.096Z"/>
  <path fill="#283B58" d="m313.495 239.771-1.761 62.579-8.564 70.718s-6.298 5.501-11.586-.301l-6.045-41.982 2.267-28.607-11.08-62.407h36.769"/>
  <path fill="#AEABAA" d="M306.021 377.387h-17.63c0-.794 3.947-1.439 8.815-1.439 4.868 0 8.815.645 8.815 1.439Z"/>
  <path fill="#283B58" d="M261.446 93.55c-10.831 5.861-16.707 19.798-16.707 32.764h8.143c1.26-20.732 6.884-27.981 19.477-32.764h-10.913m38.104 0c-15.185 4.78-16.709 19.798-16.709 32.764h8.49c-.502-19.282 5.252-27.018 19.134-32.764H299.55Z"/>
  <path fill="#213149" d="M268.328 171.024c-9.598 0-17.382-9.645-17.382-21.539 0 .069.009.137.012.206h34.746c0-.069.006-.137.006-.206 0 11.894-7.783 21.539-17.382 21.539Zm17.382-21.539c0-8.163-3.664-9.446-9.068-9.446 5.404 0 9.068 1.283 9.068 9.446Zm-17.382-9.177c1.908 0 3.742-.108 5.46-.186-1.718.078-3.552.186-5.46.186Zm-5.464-.186Zm-2.85-.083h.005-.005Zm16.621 0h.005-.005Zm-25.689 9.446c0-8.163 3.665-9.446 9.068-9.446-5.403 0-9.068 1.283-9.068 9.446Zm17.382-9.177c-1.908 0-3.746-.108-5.464-.186 1.718.078 3.556.186 5.464.186Zm5.46-.186Zm2.854-.083h-.002.002Zm-16.621 0h-.002.002Z"/>
  <path fill="#1C293E" d="M285.704 149.691h-34.746c-.003-.068-.012-.137-.012-.206 0-8.163 3.665-9.446 9.068-9.446h.007c.901 0 1.852.037 2.843.083 1.718.078 3.556.186 5.464.186 1.908 0 3.742-.108 5.46-.186a62.257 62.257 0 0 1 2.847-.083h.007c5.404 0 9.068 1.283 9.068 9.446 0 .069-.006.138-.006.206"/>
  <path fill="#D37147" d="M314.129 115.064c.035.065.046.089.055.11a.803.803 0 0 0 .033.063l.032.059c.037.073.113.214.227.446.434.858 1.425 2.908 2.671 6.06 1.869 4.728 4.31 11.926 6.281 21.262 1.969 9.335 3.471 20.804 3.471 34.09 0 4.61-.183 9.441-.587 14.476l6.022.501 3.034-5.313-50.199-29.576-6.061 10.63 58.472 34.449.778-9.69a191.79 191.79 0 0 0 .629-15.477c-.002-20.802-3.439-37.557-6.921-49.201-1.743-5.822-3.496-10.367-4.844-13.512a81.305 81.305 0 0 0-1.659-3.645 56.881 56.881 0 0 0-.499-.998c-.062-.117-.111-.214-.146-.277a.855.855 0 0 0-.037-.07l-.002-.005-3.14 1.707 3.149-1.691-.009-.016-3.14 1.707 3.149-1.691-4.79 2.57 4.806-2.537-.016-.033-4.79 2.57 4.806-2.537-5.134 2.71 5.153-2.677-.019-.033-5.134 2.71 5.153-2.677-.095-.178-.002-.005-10.572 5.958 5.285-2.978-5.41 2.739Z"/>
  <path fill="#FAB920" d="M276.938 144.175s11.839 4.224 8.095 11.4c-3.742 7.176-7.646-1.914-7.646-1.914l-.449-9.486Z"/>
  <path fill="#AF8116" d="M281.346 153.457c.264-.672 2.951-2.008 2.951-2.008s-2.308-4.853-7.359-7.274c2.734 2.896 3.787 7.841 4.408 9.282"/>
  <path fill="#EFCD90" d="m209.537 362.321-52.884-26.216-14.226 16.11 17.201 8.527 2.11-1.191.204 2.339 22.05 10.93v.002l3.457-.525-.964 1.758 19.315 9.576 3.737-21.31"/>
  <path fill="#B99E6E" d="m158.182 336.86-14.228 16.112 1.03.512 14.228-16.115-1.03-.509Zm2.562 1.271-14.225 16.11 1.027.512 14.225-16.113-1.027-.509m2.564 1.269-14.225 16.112 1.027.51 14.226-16.11-1.028-.512m2.561 1.271-14.224 16.113 1.029.511 14.225-16.114-1.03-.51m2.564 1.272-14.224 16.112 1.028.509 14.225-16.112-1.029-.509Zm2.563 1.271-14.223 16.11 1.029.512 14.226-16.112-1.032-.51m2.564 1.269-14.224 16.115.292.144 2.11-1.191 12.853-14.556-1.031-.512Zm2.563 1.272-14.225 16.114 1.03.509 14.226-16.114-1.031-.509m31.563 15.648-3.737 21.312-1.03-.509 3.737-21.312 1.03.509Zm-2.563-1.269-3.735 21.31-1.032-.509 3.739-21.313 1.028.512Zm-2.561-1.274-3.739 21.313-1.027-.512 3.737-21.31 1.029.509m-2.565-1.269-3.737 21.31-1.03-.507 3.737-21.314 1.03.511Zm-2.564-1.271-3.737 21.312-1.028-.509 3.735-21.312 1.03.509Zm-2.566-1.271-3.734 21.31-1.03-.51 3.737-21.31 1.027.51Zm-2.56-1.272-3.737 21.31-.949-.468 3.654-21.351 1.032.509m-5.166-2.558-3.962 21.197-.949-.47 3.881-21.237 1.03.51m-1.257-.622-4.909 20.724-.95-.468 4.828-20.77 1.031.514Zm-7.746-3.84-14 16.22.949.471 14.082-16.183-1.031-.508Zm2.02.996-13.052 16.698.95.47 13.132-16.654-1.03-.514m1.432.714-10.975 17.719.949.472 11.055-17.681-1.029-.51m3.157 1.561-6.985 19.705-.95-.472 6.906-19.741 1.029.508"/>
  <path fill="#B99E6E" d="m182.707 349.02-9.069 18.666.951.471 9.147-18.627-1.029-.51Zm7.034 3.488-3.499 19.972-1.151.175 3.623-20.656 1.027.509Z"/>
  <path fill="#2E6156" d="m205.801 383.631.171-.978c-.07.636-.171.978-.171.978Z"/>
  <path fill="#AF8244" d="M205.972 382.653c.135-1.225.163-3.54-.851-6.613l2.185-12.473 1.852.918-3.186 18.168m-1.621-8.608a26.279 26.279 0 0 0-1.238-2.441l1.631-9.308 1.535.762-1.928 10.987m-2.109-3.862a33.86 33.86 0 0 0-1.332-1.898l1.273-7.258 1.533.759-1.474 8.397Zm-2.249-3.059a40.164 40.164 0 0 0-1.387-1.602l1.012-5.767 1.535.76-1.16 6.609m-2.33-2.602c-.45-.464-.922-.932-1.421-1.407l.811-4.631 1.535.76-.925 5.278m-2.383-2.297a60.228 60.228 0 0 0-1.449-1.262l.657-3.75 1.538.759-.746 4.253Zm-2.425-2.068a67.765 67.765 0 0 0-1.465-1.15l.537-3.066 1.533.762-.605 3.454Z"/>
  <path fill="#896534" d="M205.121 376.04a22.35 22.35 0 0 0-.77-1.995l1.928-10.987 1.028.509-2.186 12.473m-2.008-4.436a27.868 27.868 0 0 0-.871-1.421l1.474-8.397 1.028.51-1.631 9.308m-2.203-3.319a37.909 37.909 0 0 0-.917-1.161l1.161-6.609 1.029.512-1.273 7.258m-2.303-2.763a44.96 44.96 0 0 0-.944-1l.926-5.278 1.029.511-1.011 5.767m-2.365-2.407a57.439 57.439 0 0 0-.962-.89l.745-4.253 1.028.512-.811 4.631Zm-2.411-2.152a50.59 50.59 0 0 0-.976-.806l.606-3.454 1.027.51-.657 3.75"/>
  <path fill="#AF8244" d="M190.419 358.278a83.226 83.226 0 0 0-1.5-1.074l.445-2.534 1.54.764-.485 2.844"/>
  <path fill="#896534" d="M191.39 359.007a87.668 87.668 0 0 0-.971-.729l.485-2.844 1.023.507-.537 3.066"/>
  <path fill="#AF8244" d="M187.922 356.517a86.429 86.429 0 0 0-1.576-1.039l.394-2.109 1.595.792-.413 2.356m-2.567-1.668c-.137-.085-.278-.174-.417-.259l.448-1.891.332.165-.363 1.985m-1.409-.865a72.338 72.338 0 0 0-.496-.296l.588-1.657.325.161-.417 1.792Zm-1.483-.874a17.641 17.641 0 0 0-.378-.218l.722-1.471.21.103-.554 1.586Zm-1.365-.778-.428-.237.827-1.324.29.145-.689 1.416Zm-1.419-.781-.76-.406.937-1.189.62.308-.797 1.287Zm-1.761-.931-.385-.2c-.26-.129-.518-.257-.776-.383l.983-1.129 1.092.541-.914 1.171m-2.178-1.086c-.344-.167-.687-.337-1.028-.502l.997-1.132 1.01.501-.979 1.133Zm-2.064-1.007-1.55-.742 1.021-1.154 1.532.76-1.003 1.136Zm-2.597-1.233c-.528-.245-1.05-.484-1.57-.718l1.075-1.216 1.532.759-1.037 1.175Zm-2.635-1.188a74.552 74.552 0 0 0-1.603-.682l1.178-1.336 1.534.76-1.109 1.258m-2.693-1.125a57.911 57.911 0 0 0-1.652-.626l1.357-1.538 1.534.762-1.239 1.402Zm-2.781-1.026a47.891 47.891 0 0 0-1.722-.546l1.644-1.863 1.534.762-1.456 1.647m-2.908-.879a33.163 33.163 0 0 0-1.83-.426l2.096-2.376 1.536.762-1.802 2.04m-3.103-.658a25.379 25.379 0 0 0-1.996-.237l2.805-3.176 1.532.76-2.341 2.653"/>
  <path fill="#2E6156" d="m151.245 342.227 3.964-4.488h.001l-3.963 4.486-.002.002Z"/>
  <path fill="#AF8244" d="m151.247 342.225 3.963-4.486 1.528.757-3.2 3.623-.231-.002c-.693 0-1.38.037-2.06.108"/>
  <path fill="#896534" d="M154.963 342.181a23.66 23.66 0 0 0-1.425-.062l3.2-3.623 1.03.509-2.805 3.176Zm3.269.469a26.713 26.713 0 0 0-1.274-.232l2.342-2.653 1.027.509-2.095 2.376m3.015.759a38.59 38.59 0 0 0-1.185-.333l1.801-2.04 1.028.51-1.644 1.863m2.853.946a70.274 70.274 0 0 0-1.13-.4l1.457-1.647 1.029.509-1.356 1.538Zm2.74 1.069a104.19 104.19 0 0 0-1.09-.443l1.239-1.402 1.03.509-1.179 1.336m2.669 1.152c-.357-.158-.712-.317-1.065-.47l1.109-1.258 1.031.512-1.075 1.216Zm2.617 1.209-1.047-.491 1.037-1.175 1.03.512-1.02 1.154m2.586 1.247-1.036-.505 1.003-1.136 1.03.509-.997 1.132Zm11.634 6.446c-.326-.209-.655-.418-.991-.629l.363-1.985 1.022.505-.394 2.109m-1.408-.888a86.402 86.402 0 0 0-.992-.606l.416-1.792 1.024.507-.448 1.891m-8.181-4.553-1.017-.503.979-1.133 1.021.507-.983 1.129m2.162 1.108c-.33-.174-.663-.351-1.001-.525l.914-1.171 1.024.507-.937 1.189Zm1.751.95c-.327-.181-.656-.362-.991-.544l.797-1.287 1.021.507-.827 1.324Zm2.78 1.593a73.708 73.708 0 0 0-.987-.578l.554-1.586 1.021.507-.588 1.657Zm-1.365-.796c-.326-.186-.653-.372-.987-.56l.689-1.416 1.02.505-.722 1.471m6.834 4.312a77.78 77.78 0 0 0-.998-.687l.414-2.356 1.029.509-.445 2.534"/>
  <path fill="#751727" d="M287.219 132.207c-1.073-.535-1.522-1.852-.996-2.949a2.157 2.157 0 0 1 2.899-1.012c1.077.535 1.522 1.854.996 2.947a2.154 2.154 0 0 1-2.899 1.014Zm2.466-5.131c-1.714-.85-3.78-.127-4.616 1.613-.833 1.739-.124 3.841 1.59 4.688 1.714.849 3.777.129 4.613-1.615.838-1.74.124-3.837-1.587-4.686"/>
  <path fill="#B6B3B3" d="m191.169 338.822-4.989-2.474 98.51-205.305 4.99 2.472-98.511 205.307"/>
  <path fill="#F4F3F3" d="m191.169 338.822-1.463-.728 98.509-205.302 1.465.723-98.511 205.307"/>
  <path fill="#898687" d="m187.713 337.108-1.533-.76 98.51-205.305 1.533.758-98.51 205.307"/>
  <path fill="#CE2650" d="m155.161 337.713 1.674-3.488 10.184.73 37.025 18.354 6.835 7.711-1.675 3.488-54.043-26.795"/>
  <path fill="#B32742" d="m155.162 337.713.912-1.897 54.042 26.792-.912 1.9-54.042-26.795"/>
  <path fill="#EF2C5E" d="M203.074 353.307c-.277.581-4.583.551-18.901-6.547-14.32-7.098-16.652-10.832-16.371-11.417.28-.583 2.839 1.469 17.157 8.566 14.32 7.098 18.398 8.81 18.115 9.398"/>
  <path fill="#EF2C5E" d="m192.343 351.099-16.406-8.133 2.571-5.36 16.409 8.132-2.574 5.361"/>
  <path fill="#CE2650" d="m192.343 351.099-16.406-8.133 1.391-2.9 16.408 8.135-1.393 2.898"/>
  <path fill="#B32742" d="m191.433 344.013-9.443-4.684a2.108 2.108 0 0 0-2.831.994l13.251 6.567c.511-1.069.077-2.356-.977-2.877"/>
  <path fill="#B32742" d="m190.735 343.666-8.046-3.988 2.107-4.393 8.046 3.991-2.107 4.39Zm98.943-207.434-7.093-3.513 1.057-2.192 7.088 3.511-1.052 2.194"/>
  <path fill="#FAB920" d="m292.107 179.104-17.96-11.494 7.149-14.527 20.135 7.075-9.324 18.946"/>
  <path fill="#FAB920" d="M281.296 153.083s1.156-7.027-6.218-10.595c-7.37-3.569-15.431 13.227-14.551 16.821.879 3.596 4.306 8.893 13.62 8.301 9.317-.597 7.149-14.527 7.149-14.527"/>
  <path fill="#fff" d="M343.72 147.046c-1.006-40.442-31.797-52.858-31.797-52.858l-6.234 29.31c13.862 4.609 16.626 23.548 16.626 23.548h21.405Z"/>
  <path fill="#2D4364" d="M264.887 93.55c1.215-.004-14.011 8.748-13.941 23.55l-2.425 27.472c-2.562.011-2.197 2.207-2.33-26.203-.068-14.804 17.477-24.812 18.696-24.819m38.282 0c1.22-.004-14.008 8.748-13.938 23.55l-2.43 19.013c-2.563.009-2.323-5.703-2.323-17.744 0-14.804 17.474-24.812 18.691-24.819Z"/>
  <path fill="#D37147" d="M294.72 94.19c-5.661 4.703-22.605 17.623-25.849 13.59-3.245-4.034-1.791-8.888 3.87-13.59h21.979Zm-32.217-37.367c0 4.123-2.739 7.468-6.123 7.468-3.382 0-6.124-3.345-6.124-7.468 0-4.123 2.742-7.466 6.124-7.466 3.384 0 6.123 3.343 6.123 7.466Zm54.085 0c0 4.123-2.745 7.468-6.124 7.468-3.384 0-6.123-3.345-6.123-7.468 0-4.123 2.739-7.466 6.123-7.466 3.379 0 6.124 3.343 6.124 7.466Z"/>
  <path fill="#D37147" d="m288.652 97.415-13.051-.87h-.016c.034-.93.021-8.82-.006-15.764l13.096-.055c.059 15.64.002 16.374-.023 16.689"/>
  <path fill="#AE5C39" d="M284.41 93.02c-2.429 0-6.178-.79-7.914-5.248 2.048.84 4.17 1.298 6.345 1.298 1.96 0 3.877-.371 5.733-1.057-.235 2.54-.763 4.773-1.901 4.773 0 0-.935.234-2.263.234"/>
  <path fill="#D37147" d="M313.251 41.667c0 20.156-13.614 47.405-30.41 47.405-16.797 0-30.409-27.249-30.409-47.405 0-20.155 13.612-25.586 30.409-25.586 16.796 0 30.41 5.43 30.41 25.586Z"/>
  <path fill="#1C100D" d="M304.428 37.002c2.489 9.068 7.137 13.35 3.34 29.19.057.608 5.087-11.783 6.429-29.19h-9.769"/>
  <path fill="#1C100D" d="M257.923 66.215c-.106 1.156-13.183-33.248-1.305-53.185 1.931 6.226 5.751 6.226 5.751 6.226S268.944-4.2 296.868.665c-4.816 4.094 0 7.68 0 7.68s7.424-9.231 30.021 4.59c0 0 2.436 17.23-13.429 25.9-15.865 8.67-27.705-2.08-34.129-6.177 0 0-14.806-.887-20.782 13.228-1.991 4.703-.71 12.02-.626 20.33"/>
  <path fill="#D2D0CE" d="M274.543 75.304c0 3.64 3.716 6.588 8.298 6.588 4.586 0 8.302-2.949 8.302-6.588h-16.6Z"/>
  <path fill="#AE5C39" d="m281.558 72.214 7.27-.917-1.978-17.455 4.155 17.753-9.447.62"/>
  <path fill="#1C100D" d="M286.284 47.294c.105-.515 2.975-1.412 2.975-1.412l12.895 4.472s-16.18-1.531-15.87-3.06Zm-7.736 0c-.103-.515-2.977-1.412-2.977-1.412l-12.895 4.472s16.184-1.531 15.872-3.06Zm15.669 9.996c0 2.603-.717 4.715-1.604 4.715-.884 0-1.606-2.112-1.606-4.716 0-2.603.722-4.715 1.606-4.715.887 0 1.604 2.112 1.604 4.715Zm-19.49 0c0 2.603-.719 4.715-1.601 4.715-.887 0-1.606-2.112-1.606-4.716 0-2.603.719-4.715 1.606-4.715.882 0 1.601 2.112 1.601 4.715Z"/>
  <path fill="#FAB920" d="M240.637 246.523s3.418-6.91-4.532-7.725c-7.95-.814-.391 5.836-.391 5.836s.745 4.991 3.035 5.299c.955.131 1.888-3.41 1.888-3.41"/>
  <path fill="#FAB920" d="m220.762 219.767-.544 21.565 15.853 2.008 5.372-20.952-20.681-2.621Z"/>
  <path fill="#FAB920" d="M236.071 243.34s.131 5.742-2.619 13.877c-.985 4.59-10.633 6.43-13.09 3.69-2.454-2.736-5.796-12.025-.144-19.575 5.651-7.55 15.853 2.008 15.853 2.008Z"/>
  <path fill="#22575F" d="M104.201 336.706c-39.942 0-72.321-2.96-72.321-6.612 0-3.648 32.379-6.606 72.321-6.606.746 0 1.49 0 2.23.002v7.518h55.706v-4.87c9.034 1.104 14.385 2.474 14.385 3.956 0 1.641-6.538 3.142-17.362 4.299l-2.326-.168-.203.422c-13.176 1.267-31.793 2.059-52.43 2.059"/>
  <path fill="#83172D" d="m156.632 334.647.203-.422 2.326.168c-.819.087-1.662.172-2.529.254"/>
  <path fill="#306673" d="M122.087 331.008h40.051v-40.702h-40.051v40.702Z"/>
  <path fill="#338793" d="M120.18 331.008h40.044v-40.702H120.18v40.702Z"/>
  <path fill="#24808C" d="M153.563 295.422a.993.993 0 0 1-.529-.154 1.025 1.025 0 0 1-.318-1.398.983.983 0 0 1 1.373-.319c.468.296.612.92.318 1.393a.983.983 0 0 1-.844.478m1.924-1.637a.559.559 0 0 1-.308-.089.602.602 0 0 1-.189-.822.589.589 0 0 1 .811-.19.603.603 0 0 1 .187.821.588.588 0 0 1-.501.28m-2.955-1.099a.382.382 0 0 1-.2-.06.387.387 0 0 1-.118-.525.38.38 0 0 1 .321-.179c.068 0 .136.018.197.057a.39.39 0 0 1 .119.528.376.376 0 0 1-.319.179Zm-2.306 6.653a.977.977 0 0 1-.528-.156 1.024 1.024 0 0 1-.317-1.398 1 1 0 0 1 .848-.475c.18 0 .362.048.527.154.467.298.61.922.317 1.397a.996.996 0 0 1-.847.478m1.927-1.636a.598.598 0 0 1-.312-.09.61.61 0 0 1-.187-.824.583.583 0 0 1 .812-.188.602.602 0 0 1 .186.822.587.587 0 0 1-.499.28m-2.955-1.102a.384.384 0 0 1-.321-.585.38.38 0 0 1 .32-.179c.068 0 .137.018.2.06.175.11.224.346.118.525a.375.375 0 0 1-.317.179m8.423-.296a.734.734 0 0 1-.725-.679.74.74 0 0 1 .665-.808c.023-.002.045-.002.067-.002.375 0 .694.291.729.679a.743.743 0 0 1-.667.808c-.023.002-.046.002-.069.002m.6-1.891a.435.435 0 0 1-.428-.399.432.432 0 0 1 .393-.475c.014-.003.027-.003.04-.003a.44.44 0 0 1 .033.875c-.013.002-.025.002-.038.002m-2.122.656a.277.277 0 0 1-.274-.257.279.279 0 0 1 .251-.304h.024c.139 0 .262.108.277.256a.284.284 0 0 1-.254.305h-.024m-.717 6.545a.735.735 0 0 1-.725-.679.743.743 0 0 1 .664-.81c.022-.002.043-.002.065-.002.377 0 .699.291.732.681a.74.74 0 0 1-.667.808l-.069.002m.605-1.891a.436.436 0 0 1-.43-.399.437.437 0 0 1 .391-.477c.014-.003.026-.003.039-.003.221 0 .409.173.429.402a.435.435 0 0 1-.388.475l-.041.002Zm-2.124.657a.28.28 0 0 1-.022-.561c.008-.003.016-.003.024-.003.141 0 .264.111.273.258a.276.276 0 0 1-.25.303c-.008.003-.017.003-.025.003Zm5.681.475a.736.736 0 0 1-.637-.37.756.756 0 0 1 .261-1.021.74.74 0 0 1 .373-.103.735.735 0 0 1 .684.479v.533a.718.718 0 0 1-.681.482Zm-1.669-.179a.423.423 0 0 1-.369-.216.44.44 0 0 1 .371-.663c.147 0 .29.078.372.216a.445.445 0 0 1-.155.601.43.43 0 0 1-.219.062Zm1.635 1.443a.272.272 0 0 1-.238-.14.278.278 0 0 1 .099-.384.272.272 0 0 1 .377.101.283.283 0 0 1-.238.423Zm.578-8.231a.738.738 0 0 1-.733-.707.737.737 0 0 1 .692-.785c.01-.002.02-.002.03-.002.05 0 .099.007.148.016v1.462c-.032.004-.067.011-.098.013l-.039.003Zm-1.537-.973a.433.433 0 0 1-.432-.416.434.434 0 0 1 .407-.461h.023c.228 0 .421.181.434.415a.44.44 0 0 1-.409.462h-.023m.726 2.028a.278.278 0 0 1-.278-.267.28.28 0 0 1 .261-.296h.014a.282.282 0 0 1 .016.563h-.013m-3.317 3.222a.58.58 0 0 1-.266-.062.627.627 0 0 1-.284-.833.612.612 0 0 1 .819-.289.63.63 0 0 1 .285.833.612.612 0 0 1-.554.351m-.859-1.37a.368.368 0 0 1-.325-.528.36.36 0 0 1 .482-.169.37.37 0 0 1 .167.491.365.365 0 0 1-.324.206Zm-.334 1.763a.233.233 0 0 1-.102-.023.237.237 0 0 1-.108-.313.23.23 0 0 1 .31-.11.236.236 0 0 1-.1.446Zm-2.056 5.925a.738.738 0 0 1-.727-.682.74.74 0 0 1 .666-.807c.022-.003.044-.003.066-.003.374 0 .694.292.728.68a.738.738 0 0 1-.733.812m.597-1.891a.433.433 0 0 1-.426-.402.435.435 0 0 1 .393-.475c.013-.002.026-.002.039-.002.219 0 .407.172.428.399a.44.44 0 0 1-.393.478l-.041.002Zm-2.121.656a.282.282 0 0 1-.022-.563h.024c.139 0 .262.11.276.257a.28.28 0 0 1-.252.304l-.026.002m6.32.978a.738.738 0 0 1-.731-.682.747.747 0 0 1 .664-.81l.065-.002c.378 0 .699.291.736.682a.743.743 0 0 1-.734.812m.599-1.893a.44.44 0 0 1-.041-.877c.013-.002.026-.002.039-.002a.438.438 0 0 1 .041.876l-.039.003Zm-2.122.656a.28.28 0 0 1-.278-.258.28.28 0 0 1 .254-.303c.008-.002.016-.002.024-.002.14 0 .263.11.272.257a.277.277 0 0 1-.249.304c-.008.002-.015.002-.023.002m-.676 2.472a.593.593 0 0 1-.267-.062.626.626 0 0 1-.285-.831.616.616 0 0 1 .554-.351c.089 0 .179.018.265.062a.626.626 0 0 1 .286.83.612.612 0 0 1-.553.352m-.859-1.371a.368.368 0 0 1-.327-.525.362.362 0 0 1 .484-.172.368.368 0 0 1 .165.491.355.355 0 0 1-.322.206m-.337 1.765a.256.256 0 0 1-.1-.023.236.236 0 0 1-.108-.312.228.228 0 0 1 .31-.113.235.235 0 0 1 .107.313.23.23 0 0 1-.209.135Zm-4.555-11.29a.747.747 0 0 1-.066-1.492c.021-.002.042-.002.063-.002.378 0 .7.291.733.681a.744.744 0 0 1-.667.81c-.021.003-.042.003-.063.003m.598-1.894a.43.43 0 0 1-.428-.399.432.432 0 0 1 .392-.475c.013-.002.026-.002.038-.002.221 0 .409.172.429.399a.437.437 0 0 1-.392.475.255.255 0 0 1-.039.002Zm-1.299 10.967a.729.729 0 0 1-.465-.167v-1.154a.728.728 0 0 1 .4-.168c.023-.002.045-.002.067-.002.378 0 .698.291.732.679a.745.745 0 0 1-.668.81c-.022.002-.044.002-.066.002Zm.599-1.891a.439.439 0 0 1-.038-.876l.04-.002a.44.44 0 0 1 .038.876l-.04.002Zm4.108 6.718a.995.995 0 0 1-.529-.154 1.025 1.025 0 0 1-.318-1.398.992.992 0 0 1 1.373-.321c.468.296.612.922.318 1.397a.985.985 0 0 1-.844.476Zm1.926-1.637a.565.565 0 0 1-.31-.089.602.602 0 0 1-.189-.822.589.589 0 0 1 .5-.28c.106 0 .214.03.311.092a.603.603 0 0 1 .187.822.59.59 0 0 1-.499.277m-2.956-1.099a.382.382 0 0 1-.201-.06.385.385 0 0 1-.118-.523.374.374 0 0 1 .518-.122.385.385 0 0 1 .119.524.373.373 0 0 1-.318.181m-2.307 6.653a.977.977 0 0 1-.528-.156 1.02 1.02 0 0 1-.317-1.395.994.994 0 0 1 .846-.478c.181 0 .364.051.529.154.467.298.61.925.317 1.397a.996.996 0 0 1-.847.478m1.926-1.636a.592.592 0 0 1-.311-.09.608.608 0 0 1-.187-.822.583.583 0 0 1 .812-.19.602.602 0 0 1 .186.822.589.589 0 0 1-.5.28m-2.954-1.102a.378.378 0 0 1-.2-.057.385.385 0 0 1-.121-.526.376.376 0 0 1 .32-.181c.068 0 .137.021.2.06a.388.388 0 0 1 .118.525.37.37 0 0 1-.317.179m8.427-.294a.737.737 0 0 1-.729-.679.74.74 0 0 1 .665-.81c.022-.002.043-.005.065-.005a.74.74 0 0 1 .731.682.744.744 0 0 1-.667.81l-.065.002m.597-1.891a.436.436 0 0 1-.429-.401.438.438 0 0 1 .393-.478l.038-.002c.22 0 .41.172.43.402a.443.443 0 0 1-.432.479Zm-2.123.654a.276.276 0 0 1-.274-.255.28.28 0 0 1 .251-.306h.027c.138 0 .259.111.274.256a.284.284 0 0 1-.254.305h-.024m-1.107 6.291a.74.74 0 0 1-.732-.68.744.744 0 0 1 .665-.81c.022-.002.044-.002.065-.002.378 0 .698.291.731.679a.744.744 0 0 1-.664.81c-.022.003-.044.003-.065.003Zm.599-1.891a.441.441 0 0 1-.038-.879h.035a.441.441 0 0 1 .04.879h-.037m-2.122.656a.275.275 0 0 1-.277-.258.277.277 0 0 1 .248-.303h.029c.142 0 .262.11.273.255a.28.28 0 0 1-.25.304c-.008.002-.016.002-.023.002m6.074.73a.73.73 0 0 1-.636-.37.757.757 0 0 1 .261-1.021.738.738 0 0 1 1.007.266c.018.037.035.076.05.113v.53a.721.721 0 0 1-.682.482Zm-1.667-.179a.423.423 0 0 1-.37-.218.438.438 0 0 1 .37-.661c.147 0 .291.078.373.218a.446.446 0 0 1-.155.601.445.445 0 0 1-.218.06Zm1.633 1.443a.268.268 0 0 1-.237-.138.28.28 0 0 1 .238-.423.27.27 0 0 1 .238.138.284.284 0 0 1-.101.386.265.265 0 0 1-.138.037Zm.577-8.234a.734.734 0 0 1-.731-.704.738.738 0 0 1 .692-.785l.034-.002c.048 0 .096.006.144.016v1.459a.378.378 0 0 1-.098.016h-.041Zm-1.537-.968a.433.433 0 0 1-.43-.416.435.435 0 0 1 .407-.463h.024c.228 0 .42.181.433.415a.437.437 0 0 1-.409.462c-.008.002-.017.002-.025.002m.725 2.024a.276.276 0 0 1-.275-.265.28.28 0 0 1 .261-.296h.011a.28.28 0 0 1 .281.267.277.277 0 0 1-.262.294h-.016m-3.312 3.224a.584.584 0 0 1-.268-.062.627.627 0 0 1-.284-.833.615.615 0 0 1 .553-.351.62.62 0 0 1 .266.062.63.63 0 0 1 .285.833.61.61 0 0 1-.552.351Zm-.862-1.37a.366.366 0 0 1-.324-.525.36.36 0 0 1 .482-.173.37.37 0 0 1-.158.698Zm-.335 1.763a.225.225 0 0 1-.1-.023.237.237 0 0 1-.108-.313.231.231 0 0 1 .31-.111.237.237 0 0 1 .108.313.235.235 0 0 1-.21.134Zm-3.473 5.567a.737.737 0 0 1-.727-.677.743.743 0 0 1 .667-.81c.022-.003.043-.003.065-.003.375 0 .696.292.729.68a.738.738 0 0 1-.665.808c-.023.002-.046.002-.069.002m.603-1.891a.436.436 0 0 1-.432-.399.443.443 0 0 1 .393-.478h.036a.438.438 0 0 1 .044.875c-.013.002-.027.002-.041.002m-2.122.656a.281.281 0 0 1-.026-.561l.023-.002c.145 0 .266.11.276.257a.276.276 0 0 1-.248.306h-.025m8.402 1.914a.736.736 0 0 1-.73-.679.743.743 0 0 1 .666-.81c.021-.003.043-.003.064-.003.376 0 .698.292.731.68a.742.742 0 0 1-.665.81c-.022.002-.044.002-.066.002m.598-1.893a.433.433 0 0 1-.43-.399.436.436 0 0 1 .394-.475c.013-.003.027-.003.04-.003.22 0 .408.172.428.4a.438.438 0 0 1-.393.477h-.039m-2.122.658a.28.28 0 0 1-.276-.257.28.28 0 0 1 .25-.304c.01-.002.019-.002.028-.002.143 0 .263.111.274.255a.282.282 0 0 1-.25.306c-.009.002-.018.002-.026.002m-1.707 1.504a.62.62 0 0 1-.553-.893.605.605 0 0 1 .816-.292c.305.15.435.521.285.831a.608.608 0 0 1-.548.354m-.864-1.373a.352.352 0 0 1-.156-.036.367.367 0 0 1-.166-.489.354.354 0 0 1 .479-.172.377.377 0 0 1 .17.491.36.36 0 0 1-.327.206m-.334 1.763a.235.235 0 0 1-.206-.336.226.226 0 0 1 .306-.11.235.235 0 0 1 .106.312.228.228 0 0 1-.206.134m-1.844 2.637a.745.745 0 0 1-.728-.638.75.75 0 0 1 .729-.856.74.74 0 0 1 .726.64.74.74 0 0 1-.727.854Zm1.591.208a.431.431 0 0 1-.425-.374.435.435 0 0 1 .363-.498c.021-.004.042-.004.063-.004.21 0 .396.156.424.374a.434.434 0 0 1-.364.498c-.02.004-.041.004-.061.004Zm-.921-2.265a.276.276 0 0 1-.272-.241.283.283 0 0 1 .235-.32c.013-.002.026-.002.038-.002.136 0 .254.099.275.239a.285.285 0 0 1-.235.32c-.014.002-.028.004-.041.004m-3.502-.486a.433.433 0 0 1-.426-.374.436.436 0 0 1 .43-.503c.208 0 .395.156.426.377a.437.437 0 0 1-.43.5m-.679-2.41v-.269a.277.277 0 0 1 0 .269Zm0 4.831v-.957a.63.63 0 0 1 0 .957Zm.653-1.049a.381.381 0 0 1-.139-.027.372.372 0 0 1-.193-.48.36.36 0 0 1 .472-.2.365.365 0 0 1 .193.48.358.358 0 0 1-.333.227Zm.51-12.364a.746.746 0 0 1-.063-1.49c.022-.002.044-.002.066-.002.376 0 .697.291.73.679a.743.743 0 0 1-.667.81c-.022.003-.044.003-.066.003Zm.601-1.891a.435.435 0 0 1-.428-.402.431.431 0 0 1 .392-.475c.013-.002.027-.002.04-.002.219 0 .407.172.427.399a.442.442 0 0 1-.392.477l-.039.003m-1.129 9.42a.733.733 0 0 1-.635-.374v-.746a.722.722 0 0 1 .57-.369c.022-.003.044-.003.066-.003.375 0 .697.292.73.68a.74.74 0 0 1-.731.812m.595-1.893a.44.44 0 0 1-.033-.877l.036-.002c.222 0 .412.172.429.399a.435.435 0 0 1-.391.477c-.014.003-.027.003-.041.003m4.347 11.446a.987.987 0 0 1-.845-.475 1.022 1.022 0 0 1 .317-1.397.96.96 0 0 1 .526-.154c.332 0 .657.168.846.475.292.475.15 1.099-.313 1.398a1.003 1.003 0 0 1-.531.153Zm-1.927-1.636a.59.59 0 0 1-.498-.278.605.605 0 0 1 .187-.823.58.58 0 0 1 .806.188.597.597 0 0 1-.186.824.564.564 0 0 1-.309.089Zm2.956-1.101a.373.373 0 0 1-.317-.177.387.387 0 0 1 .12-.528.372.372 0 0 1 .515.122.382.382 0 0 1-.318.583m-6.193 5.016c-.021 0-.043 0-.064-.002a.742.742 0 0 1-.349-.126v-1.235a.738.738 0 0 1 .478-.126.745.745 0 0 1-.065 1.489Zm-.413-1.934v-.794c.16.078.264.247.245.436a.44.44 0 0 1-.245.358Zm1.941.7c-.008 0-.016 0-.024-.003a.282.282 0 0 1-.255-.306.286.286 0 0 1 .28-.255h.022a.279.279 0 0 1 .249.306.274.274 0 0 1-.272.258m-1.941-2.238v-1.202c.166.045.311.16.392.332a.624.624 0 0 1-.392.87Zm.702-1.347a.355.355 0 0 1-.322-.209.368.368 0 0 1 .166-.489.361.361 0 0 1 .483.17.374.374 0 0 1-.327.528m.335 1.76a.223.223 0 0 1-.205-.131.237.237 0 0 1 .207-.338c.085 0 .167.051.209.133a.236.236 0 0 1-.211.336Zm7.924-3.3a.614.614 0 0 1-.553-.353.627.627 0 0 1 .285-.831.605.605 0 0 1 .818.289.628.628 0 0 1-.284.833.613.613 0 0 1-.266.062m.861-1.372a.363.363 0 0 1-.325-.207.37.37 0 0 1 .326-.528c.134 0 .262.078.325.209a.37.37 0 0 1-.171.491.376.376 0 0 1-.155.035m.337 1.765a.238.238 0 0 1-.211-.134.24.24 0 0 1 .107-.315.261.261 0 0 1 .102-.023c.086 0 .17.048.209.134a.237.237 0 0 1-.108.315.27.27 0 0 1-.099.023Zm-3.29 7.187a.993.993 0 0 1-.846-.475 1.025 1.025 0 0 1 .318-1.398.992.992 0 0 1 1.374.322 1.024 1.024 0 0 1-.317 1.397.99.99 0 0 1-.529.154m-1.924-1.636a.593.593 0 0 1-.502-.278.608.608 0 0 1 .188-.824.589.589 0 0 1 .812.191c.17.28.086.647-.186.821a.575.575 0 0 1-.312.09Zm2.953-1.102a.368.368 0 0 1-.317-.179.38.38 0 0 1 .319-.583c.125 0 .246.065.318.179a.387.387 0 0 1-.119.526.381.381 0 0 1-.201.057Zm1.956.592a1.011 1.011 0 0 1-.97-1.255 1 1 0 0 1 1.204-.744c.535.134.863.682.731 1.226a.996.996 0 0 1-.965.773Zm-.486-2.671a.595.595 0 0 1-.571-.737.59.59 0 0 1 .569-.456.597.597 0 0 1 .57.739.586.586 0 0 1-.568.454Zm2.466 1.248a.384.384 0 0 1-.142-.4.362.362 0 0 1 .142-.211v.611m-1.704 6.082a.976.976 0 0 1-.527-.156 1.021 1.021 0 0 1-.319-1.398.994.994 0 0 1 .847-.475c.181 0 .364.051.527.156.468.296.611.921.317 1.398a.99.99 0 0 1-.845.475m-2.26-.661a.563.563 0 0 1-.309-.09.605.605 0 0 1-.186-.823.59.59 0 0 1 .499-.278c.106 0 .213.027.309.089a.595.595 0 0 1 .184.822.579.579 0 0 1-.497.28Zm2.282-2.322a.376.376 0 0 1-.2-.06.384.384 0 0 1 .204-.705.37.37 0 0 1 .198.058c.173.112.23.349.119.525a.379.379 0 0 1-.321.182m-7.062 2.118c-.021 0-.042 0-.064-.003a.742.742 0 0 1-.665-.81.739.739 0 0 1 .796-.677c.404.037.7.397.665.808a.74.74 0 0 1-.732.682m-.599-1.891-.036-.003a.436.436 0 0 1-.392-.477.432.432 0 0 1 .43-.399h.037a.438.438 0 0 1 .391.477.433.433 0 0 1-.43.402Zm2.123.656-.024-.002a.281.281 0 0 1-.249-.306.28.28 0 0 1 .278-.258.285.285 0 0 1 .274.306.283.283 0 0 1-.279.26m-4.614-.328v-.428a.278.278 0 0 1 .095.239.273.273 0 0 1-.095.189m.494 2.54a.609.609 0 0 1-.494-.257v-.736a.631.631 0 0 1 .224-.191.612.612 0 0 1 .82.289.628.628 0 0 1-.285.833.598.598 0 0 1-.265.062m.865-1.37a.368.368 0 0 1-.006-.734.37.37 0 0 1 .161.698.373.373 0 0 1-.155.036m.556 1.561h-.45a.234.234 0 0 1 .127-.244.23.23 0 0 1 .306.108.21.21 0 0 1 .017.136"/>
  <path fill="#DF8320" d="M108.345 331.008h40.047v-40.702h-40.047v40.702Z"/>
  <path fill="#FAB920" d="M106.431 331.008h40.048v-40.702h-40.048v40.702Z"/>
  <path fill="#F79623" d="M107.048 292.321a.986.986 0 0 1-.617-.222v-1.582a.983.983 0 0 1 .507-.211h.225c.496.058.884.48.884 1.003 0 .56-.448 1.012-.999 1.012m4.569 3.553a.991.991 0 0 1-.527-.154 1.028 1.028 0 0 1-.318-1.398c.191-.307.517-.477.849-.477.18 0 .363.05.526.156.468.296.61.923.317 1.395a.997.997 0 0 1-.847.478m1.929-1.637a.58.58 0 0 1-.309-.089.6.6 0 0 1 .309-1.104c.107 0 .215.03.312.092a.604.604 0 0 1 .186.821.58.58 0 0 1-.498.28m-2.957-1.101a.38.38 0 0 1-.315-.583.366.366 0 0 1 .514-.122c.175.113.23.347.12.526a.374.374 0 0 1-.319.179m8.426-.294a.739.739 0 0 1-.73-.679.747.747 0 0 1 .666-.813l.063-.002c.377 0 .7.294.734.682a.74.74 0 0 1-.733.812m-1.523-1.237a.274.274 0 0 1-.274-.255.277.277 0 0 1 .249-.304c.009-.002.018-.002.026-.002.144 0 .264.111.276.255a.283.283 0 0 1-.25.306h-.027Zm-.714 6.547a.748.748 0 0 1-.06-1.491l.066-.003c.377 0 .697.294.73.682a.747.747 0 0 1-.669.81l-.067.002Zm.602-1.893a.433.433 0 0 1-.429-.399.436.436 0 0 1 .389-.477h.038a.438.438 0 0 1 .041.874.255.255 0 0 1-.039.002Zm-2.126.656a.277.277 0 0 1-.272-.255.276.276 0 0 1 .25-.306l.024-.002c.141 0 .263.111.278.26a.28.28 0 0 1-.255.303h-.025m5.679.475a.72.72 0 0 1-.629-.367.748.748 0 0 1 .259-1.021.712.712 0 0 1 .372-.103c.252 0 .498.133.635.369a.751.751 0 0 1-.266 1.019.708.708 0 0 1-.371.103m-1.666-.178a.441.441 0 0 1-.216-.82.428.428 0 0 1 .589.159.442.442 0 0 1-.154.601.446.446 0 0 1-.219.06Zm1.636 1.443a.283.283 0 0 1-.239-.138.283.283 0 0 1 .098-.384.25.25 0 0 1 .139-.039c.095 0 .187.051.238.138a.279.279 0 0 1-.1.384.254.254 0 0 1-.136.039Zm2.909-6.07a.747.747 0 0 1-.065-1.492c.022-.002.044-.002.066-.002.377 0 .697.292.731.679a.742.742 0 0 1-.732.815m.598-1.893a.432.432 0 0 1-.425-.386h.844a.428.428 0 0 1-.381.384c-.013.002-.026.002-.038.002Zm-2.126.656a.275.275 0 0 1-.271-.255.282.282 0 0 1 .249-.308h.021c.142 0 .266.11.281.255a.282.282 0 0 1-.255.306l-.025.002m-1.613.131a.283.283 0 0 1-.28-.267.283.283 0 0 1 .262-.296h.012a.282.282 0 0 1 .018.563h-.012m1.056 2.722a.62.62 0 0 1-.266-.062.632.632 0 0 1-.284-.833.613.613 0 0 1 .82-.292.635.635 0 0 1 .286.836.624.624 0 0 1-.556.351m-.86-1.373a.35.35 0 0 1-.157-.036.367.367 0 0 1-.167-.487.358.358 0 0 1 .325-.209.365.365 0 0 1-.001.732Zm-.333 1.765a.222.222 0 0 1-.1-.023.24.24 0 0 1-.107-.315.23.23 0 0 1 .207-.133c.034 0 .069.009.101.025a.24.24 0 0 1 .11.313.235.235 0 0 1-.211.133m-3.182.11a.598.598 0 0 1-.265-.062.633.633 0 0 1-.286-.833.618.618 0 0 1 .554-.353c.089 0 .18.021.267.062a.63.63 0 0 1 .283.833.613.613 0 0 1-.553.353Zm-.859-1.372a.37.37 0 0 1-.326-.526.358.358 0 0 1 .484-.172c.177.09.252.308.166.489a.357.357 0 0 1-.324.209Zm-.337 1.762a.228.228 0 0 1-.1-.023.239.239 0 0 1-.107-.312.23.23 0 0 1 .209-.134c.034 0 .069.007.102.026a.236.236 0 0 1 .106.312.234.234 0 0 1-.21.131m-5.829 4.28a.974.974 0 0 1-.529-.156 1.021 1.021 0 0 1-.316-1.397.996.996 0 0 1 .846-.475c.18 0 .363.05.527.156.468.296.611.922.318 1.395a.995.995 0 0 1-.846.477m1.926-1.636a.583.583 0 0 1-.312-.092.6.6 0 0 1-.186-.819.575.575 0 0 1 .807-.191.596.596 0 0 1 .187.822.585.585 0 0 1-.496.28Zm-2.957-1.102a.37.37 0 0 1-.199-.057.387.387 0 0 1-.12-.525.373.373 0 0 1 .516-.122c.179.112.23.347.124.526a.376.376 0 0 1-.321.178Zm-1.954.593a.997.997 0 0 1-.911-.611v-.805a.993.993 0 0 1 .917-.613c.447 0 .853.31.964.773.13.542-.196 1.09-.732 1.226-.08.018-.16.03-.238.03m.487-2.672a.6.6 0 0 1-.138-1.177.59.59 0 0 1 .709.438.6.6 0 0 1-.571.739m-.754 7.328c-.232 0-.461-.085-.644-.239v-1.551c.036-.028.067-.058.107-.08a.976.976 0 0 1 .529-.157c.331 0 .655.168.845.476a1.022 1.022 0 0 1-.317 1.397.968.968 0 0 1-.52.154m2.248-.659a.576.576 0 0 1-.495-.28.598.598 0 0 1 .183-.821.578.578 0 0 1 .312-.092c.195 0 .386.099.499.28a.602.602 0 0 1-.187.821.583.583 0 0 1-.312.092m-2.279-2.324a.375.375 0 0 1-.32-.177.388.388 0 0 1 .118-.528.381.381 0 0 1 .201-.057.383.383 0 0 1 .201.704.38.38 0 0 1-.2.058Zm7.063 2.12a.74.74 0 0 1-.731-.682.743.743 0 0 1 .665-.81c.021-.002.043-.002.065-.002.376 0 .697.291.731.679a.747.747 0 0 1-.665.813l-.065.002Zm.598-1.893a.433.433 0 0 1-.431-.4.437.437 0 0 1 .393-.477h.039c.221 0 .41.172.428.397a.44.44 0 0 1-.393.48h-.036m-2.123.656a.275.275 0 0 1-.276-.255.283.283 0 0 1 .25-.308h.023c.146 0 .267.108.279.255.01.156-.1.292-.25.306-.009.002-.018.002-.026.002m10.53 1.875a.74.74 0 0 1-.73-.682.741.741 0 0 1 .734-.812c.374 0 .697.294.731.682a.747.747 0 0 1-.735.812m.602-1.893a.44.44 0 0 1-.042-.877l.038-.002a.44.44 0 0 1 .434.401.437.437 0 0 1-.392.475c-.013.003-.025.003-.038.003Zm-2.125.656a.273.273 0 0 1-.272-.255.275.275 0 0 1 .248-.306c.007-.002.014-.002.021-.002.143 0 .265.11.277.257a.275.275 0 0 1-.25.306h-.024m-3.24.819a.736.736 0 0 1-.728-.679.745.745 0 0 1 .664-.81c.023-.002.045-.002.067-.002a.74.74 0 0 1 .734.679.746.746 0 0 1-.669.81c-.023.002-.045.002-.068.002Zm.604-1.891a.44.44 0 0 1-.434-.399.437.437 0 0 1 .392-.477c.013-.003.025-.003.037-.003.222 0 .412.172.435.4a.438.438 0 0 1-.392.477c-.013.002-.026.002-.038.002Zm-2.126.657a.28.28 0 0 1-.022-.561h.027c.14 0 .26.108.27.255a.276.276 0 0 1-.249.303c-.009 0-.017.003-.026.003m1.23 3.912a.583.583 0 0 1-.267-.062.626.626 0 0 1 .27-1.184c.089 0 .179.021.265.062a.631.631 0 0 1 .287.833.614.614 0 0 1-.555.351m-.86-1.37a.367.367 0 0 1-.001-.732c.053 0 .108.012.159.037a.369.369 0 0 1 .167.489.36.36 0 0 1-.325.206m-.338 1.765a.246.246 0 0 1-.098-.023.24.24 0 0 1-.107-.315.226.226 0 0 1 .207-.133.233.233 0 0 1 .21.338.24.24 0 0 1-.212.133m22.959-8.892a.998.998 0 0 1-.529-.154 1.023 1.023 0 0 1-.317-1.398.983.983 0 0 1 1.375-.319c.467.296.61.92.317 1.393a.99.99 0 0 1-.846.478m1.923-1.637a.568.568 0 0 1-.31-.089.608.608 0 0 1-.187-.822.584.584 0 0 1 .809-.19.597.597 0 0 1-.312 1.101Zm-2.954-1.099a.382.382 0 0 1 .001-.764c.067 0 .135.018.197.057a.39.39 0 0 1 .122.528.379.379 0 0 1-.32.179m-2.307 6.653a.98.98 0 0 1-.528-.156 1.024 1.024 0 0 1-.314-1.398.992.992 0 0 1 1.374-.321c.464.298.606.922.317 1.397a.998.998 0 0 1-.849.478Zm1.928-1.636a.592.592 0 0 1-.311-.09.61.61 0 0 1-.186-.824.582.582 0 0 1 .807-.188.605.605 0 0 1 .187.822.582.582 0 0 1-.497.28m-2.956-1.102a.347.347 0 0 1-.199-.06.38.38 0 0 1-.119-.525.377.377 0 0 1 .319-.179.34.34 0 0 1 .196.06.382.382 0 0 1-.197.704Zm8.423-.296a.737.737 0 0 1-.728-.679.742.742 0 0 1 .666-.808c.023-.002.045-.002.068-.002.376 0 .695.291.728.679a.742.742 0 0 1-.665.808c-.024.002-.047.002-.069.002Zm.602-1.891a.44.44 0 0 1-.039-.874c.014-.003.027-.003.04-.003.22 0 .409.173.427.4a.435.435 0 0 1-.391.475c-.013.002-.025.002-.037.002m-2.12.656a.284.284 0 0 1-.281-.257.284.284 0 0 1 .252-.304h.025c.143 0 .266.108.277.256a.28.28 0 0 1-.249.305h-.024m-.717 6.545a.735.735 0 0 1-.727-.679.745.745 0 0 1 .665-.81c.022-.002.044-.002.065-.002.377 0 .697.291.731.681a.74.74 0 0 1-.665.808l-.069.002m.599-1.891a.43.43 0 0 1-.426-.399.435.435 0 0 1 .391-.477c.014-.003.026-.003.039-.003.221 0 .411.173.429.402a.44.44 0 0 1-.392.475l-.041.002Zm-2.124.657a.276.276 0 0 1-.27-.258.274.274 0 0 1 .249-.303c.008-.003.016-.003.024-.003.142 0 .262.111.277.258a.279.279 0 0 1-.254.303c-.009.003-.017.003-.026.003Zm5.683.475a.733.733 0 0 1-.635-.37.752.752 0 0 1 .261-1.021.725.725 0 0 1 1.055.376v.533a.758.758 0 0 1-.311.381.724.724 0 0 1-.37.101Zm-1.67-.179a.433.433 0 0 1-.371-.216.442.442 0 0 1 .374-.663.44.44 0 0 1-.003.879Zm1.637 1.443a.28.28 0 0 1-.241-.14.285.285 0 0 1 .098-.384.284.284 0 0 1 .139-.039c.096 0 .19.05.242.14a.283.283 0 0 1-.238.423Zm.574-8.231a.742.742 0 0 1-.732-.707.741.741 0 0 1 .696-.785c.01-.002.02-.002.03-.002.05 0 .098.007.146.016v1.462c-.032.004-.065.011-.101.013l-.039.003m-1.536-.973a.44.44 0 0 1-.024-.877h.023c.23 0 .422.181.432.415a.438.438 0 0 1-.409.462h-.022Zm.729 2.028a.281.281 0 0 1-.279-.267.28.28 0 0 1 .262-.296h.014a.28.28 0 0 1 .276.267.278.278 0 0 1-.26.296h-.013Zm-3.316 3.222a.576.576 0 0 1-.266-.062.63.63 0 0 1-.284-.833.609.609 0 0 1 .815-.289.63.63 0 0 1 .288.833.613.613 0 0 1-.553.351Zm-.861-1.37a.334.334 0 0 1-.156-.037.373.373 0 0 1-.169-.491.365.365 0 0 1 .326-.206.369.369 0 0 1 .326.528.368.368 0 0 1-.327.206m-.334 1.763a.225.225 0 0 1-.1-.023.235.235 0 0 1-.107-.313.226.226 0 0 1 .306-.11.238.238 0 0 1 .11.312.233.233 0 0 1-.209.134m-2.056 5.925a.739.739 0 0 1-.729-.682.74.74 0 0 1 .666-.807c.022-.003.044-.003.066-.003a.74.74 0 0 1 .73.68.738.738 0 0 1-.733.812Zm.6-1.891a.439.439 0 0 1-.43-.402.436.436 0 0 1 .392-.475c.013-.002.026-.002.039-.002a.44.44 0 0 1 .04.877l-.041.002Zm-2.12.656a.285.285 0 0 1-.279-.257.284.284 0 0 1 .256-.306h.024c.14 0 .261.11.273.257.016.155-.1.29-.249.304l-.025.002m6.318.978a.74.74 0 0 1-.732-.682.744.744 0 0 1 .666-.81l.065-.002c.377 0 .698.291.731.682a.739.739 0 0 1-.73.812m.596-1.893a.434.434 0 0 1-.429-.402.44.44 0 0 1 .392-.475c.013-.002.026-.002.039-.002.222 0 .41.174.429.399a.436.436 0 0 1-.392.477l-.039.003Zm-2.117.656a.278.278 0 0 1-.279-.258.279.279 0 0 1 .25-.303c.008-.002.016-.002.025-.002a.282.282 0 0 1 .028.561c-.008.002-.016.002-.024.002m-.679 2.472a.592.592 0 0 1-.266-.062.628.628 0 0 1-.285-.831.61.61 0 0 1 .819-.289.625.625 0 0 1 .287.83.618.618 0 0 1-.555.352Zm-.859-1.371a.361.361 0 0 1-.159-.036.371.371 0 0 1-.167-.489.357.357 0 0 1 .479-.172.367.367 0 0 1-.153.697m-.336 1.765a.25.25 0 0 1-.099-.023.236.236 0 0 1-.108-.312.228.228 0 0 1 .31-.113.238.238 0 0 1-.103.448m-13.414-11.917a.983.983 0 0 1-.528-.154 1.025 1.025 0 0 1-.319-1.397.997.997 0 0 1 1.375-.324c.47.298.61.925.318 1.398a.995.995 0 0 1-.846.477m1.926-1.636a.581.581 0 0 1-.313-.09.604.604 0 0 1-.186-.821.588.588 0 0 1 .812-.188.602.602 0 0 1 .186.819.586.586 0 0 1-.499.28Zm-2.954-1.102a.382.382 0 0 1-.202-.057.385.385 0 0 1-.118-.526.378.378 0 0 1 .318-.179.384.384 0 0 1 .319.583.368.368 0 0 1-.317.179m-2.309 6.653a.971.971 0 0 1-.528-.154 1.022 1.022 0 0 1-.316-1.397.988.988 0 0 1 1.374-.319c.468.296.61.92.317 1.395a.993.993 0 0 1-.847.475m1.928-1.634a.583.583 0 0 1-.313-.092.604.604 0 0 1-.186-.821.591.591 0 0 1 .81-.191.6.6 0 0 1 .185.824.58.58 0 0 1-.496.28m-2.958-1.101a.364.364 0 0 1-.197-.058.389.389 0 0 1-.12-.528.382.382 0 0 1 .319-.179.386.386 0 0 1 .319.586.383.383 0 0 1-.321.179m8.426-.294a.74.74 0 0 1-.729-.682.741.741 0 0 1 .668-.807c.023-.003.045-.003.067-.003a.74.74 0 0 1 .73.679.748.748 0 0 1-.672.811l-.064.002m.605-1.893a.44.44 0 0 1-.043-.877h.037a.44.44 0 0 1 .042.877h-.036Zm-2.126.656a.276.276 0 0 1-.275-.258.276.276 0 0 1 .25-.303l.026-.002c.141 0 .262.11.272.257a.277.277 0 0 1-.25.306h-.023Zm-.714 6.545a.739.739 0 0 1-.729-.679.74.74 0 0 1 .734-.813c.374 0 .694.292.727.679a.743.743 0 0 1-.666.811c-.022.002-.044.002-.066.002m.598-1.891a.436.436 0 0 1-.428-.399.439.439 0 0 1 .39-.478l.038-.002c.223 0 .414.172.432.399a.436.436 0 0 1-.393.478l-.039.002Zm-2.12.656a.281.281 0 0 1-.026-.561c.008-.002.016-.002.024-.002.143 0 .267.11.277.257a.28.28 0 0 1-.251.304c-.008.002-.016.002-.024.002m5.677.475a.729.729 0 0 1-.634-.369.753.753 0 0 1 .262-1.021.737.737 0 0 1 .372-.104c.252 0 .496.133.634.37a.754.754 0 0 1-.262 1.021.733.733 0 0 1-.372.103Zm-1.664-.179a.444.444 0 0 1-.222-.819.437.437 0 0 1 .594.156.443.443 0 0 1-.372.663m1.631 1.444a.282.282 0 0 1 0-.564c.095 0 .187.051.241.138a.29.29 0 0 1-.1.387.288.288 0 0 1-.141.039Zm2.912-6.072a.74.74 0 0 1-.732-.682.744.744 0 0 1 .665-.81c.022-.002.043-.002.064-.002a.74.74 0 0 1 .732.681.744.744 0 0 1-.665.81c-.021.003-.043.003-.064.003Zm.593-1.894a.428.428 0 0 1-.426-.399.434.434 0 0 1 .392-.475c.013-.002.026-.002.038-.002.22 0 .41.172.429.399a.434.434 0 0 1-.395.475c-.013.002-.025.002-.038.002Zm-2.119.659a.28.28 0 0 1-.275-.26.28.28 0 0 1 .248-.303h.026c.144 0 .265.11.277.255a.284.284 0 0 1-.252.306l-.024.002m-.808-.927a.736.736 0 0 1-.732-.705.742.742 0 0 1 .693-.787h.037c.389 0 .714.308.736.707a.743.743 0 0 1-.693.785h-.041Zm-1.54-.971a.432.432 0 0 1-.428-.415.436.436 0 0 1 .408-.462c.007-.002.014-.002.021-.002.23 0 .419.181.432.42a.434.434 0 0 1-.409.459h-.024m.726 2.029a.28.28 0 0 1-.274-.267.284.284 0 0 1 .261-.297h.015c.15 0 .268.118.275.267a.28.28 0 0 1-.262.297h-.015m1.061 2.719a.583.583 0 0 1-.267-.062.63.63 0 0 1-.283-.833.617.617 0 0 1 .552-.351.62.62 0 0 1 .267.062.63.63 0 0 1 .285.833.612.612 0 0 1-.554.351Zm-.859-1.37a.368.368 0 0 1 .003-.734c.052 0 .105.011.155.036.178.09.253.308.166.492a.361.361 0 0 1-.324.206m-.336 1.763a.229.229 0 0 1-.101-.023.236.236 0 0 1-.107-.313.229.229 0 0 1 .309-.111.237.237 0 0 1 .109.313.232.232 0 0 1-.21.134Zm-3.177.11a.62.62 0 0 1-.266-.062.628.628 0 0 1-.285-.831.612.612 0 0 1 .819-.291.628.628 0 0 1 .285.833.615.615 0 0 1-.553.351m-.861-1.373a.383.383 0 0 1-.157-.034.37.37 0 0 1-.167-.491.36.36 0 0 1 .324-.207.372.372 0 0 1 .327.528.362.362 0 0 1-.327.204Zm-.334 1.765a.233.233 0 0 1-.207-.336.228.228 0 0 1 .308-.11.235.235 0 0 1-.101.446m-2.057 5.925a.74.74 0 0 1-.729-.681.745.745 0 0 1 .669-.808c.022-.002.044-.005.066-.005.375 0 .695.294.73.682a.746.746 0 0 1-.67.81c-.022.002-.044.002-.066.002m.601-1.891a.433.433 0 0 1-.428-.399.43.43 0 0 1 .388-.477l.039-.002a.44.44 0 0 1 .041.876c-.014.002-.027.002-.04.002m-2.122.655a.281.281 0 0 1-.023-.562h.023c.14 0 .264.109.279.258a.287.287 0 0 1-.255.304h-.024m10.532 1.874a.738.738 0 0 1-.73-.679.745.745 0 0 1 .665-.81c.022-.002.044-.002.066-.002.377 0 .697.291.73.679a.742.742 0 0 1-.664.81c-.023.002-.045.002-.067.002Zm.596-1.891a.433.433 0 0 1-.427-.401.438.438 0 0 1 .393-.475l.04-.002a.43.43 0 0 1 .426.399.434.434 0 0 1-.392.477l-.04.002Zm-2.118.657a.282.282 0 0 1-.028-.561c.009-.003.017-.003.025-.003.145 0 .267.111.277.256a.284.284 0 0 1-.25.308h-.024Zm-2.691.339a.739.739 0 0 1-.731-.681.742.742 0 0 1 .666-.81c.023-.003.045-.003.067-.003a.74.74 0 0 1 .729.68.743.743 0 0 1-.666.81c-.022.002-.043.004-.065.004m.597-1.893a.442.442 0 0 1-.037-.879h.039c.22 0 .408.172.429.402a.436.436 0 0 1-.394.475c-.012.002-.025.002-.037.002Zm-2.121.656a.281.281 0 0 1-.026-.561c.009-.002.017-.002.026-.002.143 0 .264.111.275.255a.277.277 0 0 1-.251.306c-.008.002-.016.002-.024.002m-.674 2.472a.587.587 0 0 1-.268-.062.628.628 0 0 1-.285-.831.616.616 0 0 1 .554-.353c.089 0 .18.021.265.062a.628.628 0 0 1 .286.833.609.609 0 0 1-.552.351m-.864-1.37a.344.344 0 0 1-.157-.037.368.368 0 0 1-.165-.489.36.36 0 0 1 .482-.172c.178.09.253.308.168.491a.368.368 0 0 1-.328.207m-.332 1.762a.232.232 0 0 1-.207-.335.23.23 0 0 1 .307-.111.236.236 0 0 1 .108.313.228.228 0 0 1-.208.133Zm-15.888 4.547a.991.991 0 0 1-.527-.154 1.028 1.028 0 0 1-.318-1.398.998.998 0 0 1 .848-.475c.181 0 .363.051.527.156.468.294.61.921.317 1.396a1 1 0 0 1-.847.475m1.93-1.637a.565.565 0 0 1-.31-.089.6.6 0 0 1 .309-1.104c.107 0 .215.03.312.092a.605.605 0 0 1 .186.821.579.579 0 0 1-.497.28m-2.958-1.101a.38.38 0 0 1-.315-.583.368.368 0 0 1 .514-.119c.175.11.23.346.12.523a.378.378 0 0 1-.319.179m-.177-1.905a.749.749 0 0 1-.392-.112.763.763 0 0 1-.234-1.038.738.738 0 0 1 .627-.351c.134 0 .27.037.392.115a.76.76 0 0 1 .234 1.035.734.734 0 0 1-.627.351m1.426-1.212a.433.433 0 0 1-.232-.066.45.45 0 0 1-.137-.608.436.436 0 0 1 .371-.209c.079 0 .159.023.232.069a.448.448 0 0 1 .138.608.44.44 0 0 1-.372.206Zm-2.188-.814a.286.286 0 0 1-.237-.435.281.281 0 0 1 .237-.133c.051 0 .102.016.149.046.13.08.17.255.087.388a.275.275 0 0 1-.236.134m7.13 8.947a.743.743 0 0 1-.732-.679.751.751 0 0 1 .67-.812l.066-.003c.377 0 .697.294.73.682a.746.746 0 0 1-.669.81l-.065.002Zm.6-1.893a.431.431 0 0 1-.429-.399.439.439 0 0 1 .389-.478l.035-.002a.442.442 0 0 1 .044.879h-.039Zm-2.124.656a.276.276 0 0 1-.274-.255.276.276 0 0 1 .25-.306h.024c.141 0 .263.111.278.256a.28.28 0 0 1-.255.305h-.023Zm5.678.475a.72.72 0 0 1-.63-.367.748.748 0 0 1 .259-1.021.732.732 0 0 1 1.007.266.753.753 0 0 1-.266 1.021.721.721 0 0 1-.37.101Zm-1.666-.179a.43.43 0 0 1-.372-.215.441.441 0 0 1 .373-.663c.148 0 .292.078.371.218a.443.443 0 0 1-.154.601.423.423 0 0 1-.218.059m1.633 1.446a.276.276 0 0 1-.237-.14.287.287 0 0 1 .098-.386.265.265 0 0 1 .138-.039c.095 0 .188.05.239.142a.28.28 0 0 1-.238.423m.012-4.757a.586.586 0 0 1-.267-.062.628.628 0 0 1-.286-.833.616.616 0 0 1 .82-.287.627.627 0 0 1 .287.831.613.613 0 0 1-.554.351Zm-.862-1.37a.358.358 0 0 1-.157-.037.37.37 0 0 1-.166-.491.364.364 0 0 1 .483-.17.37.37 0 0 1-.16.698m-.335 1.765a.22.22 0 0 1-.099-.023.237.237 0 0 1-.106-.315.227.227 0 0 1 .206-.134c.035 0 .069.007.102.026a.234.234 0 0 1 .108.312.233.233 0 0 1-.211.134m-5.385-3.482a.61.61 0 0 1-.268-.062.628.628 0 0 1-.285-.83.611.611 0 0 1 .821-.292.63.63 0 0 1 .285.833.61.61 0 0 1-.553.351m-.861-1.37a.349.349 0 0 1-.156-.036.371.371 0 0 1-.17-.491.36.36 0 0 1 .484-.17.368.368 0 0 1-.158.697Zm-.335 1.763a.222.222 0 0 1-.1-.023.237.237 0 0 1 .103-.449c.034 0 .067.007.1.023.114.06.162.201.107.315a.232.232 0 0 1-.21.134Zm8.715-.645a.627.627 0 0 1-.363-1.127.607.607 0 0 1 .855.136.63.63 0 0 1-.131.872.61.61 0 0 1-.361.119m-1.375-.007a.361.361 0 0 1-.293-.149.378.378 0 0 1 .081-.514.365.365 0 0 1 .212-.069c.112 0 .221.051.29.149a.37.37 0 0 1-.075.512.36.36 0 0 1-.215.071m1.491 1.058a.228.228 0 0 1-.188-.097.237.237 0 0 1 .052-.326.228.228 0 0 1 .322.051.238.238 0 0 1-.051.328.227.227 0 0 1-.135.044m-4.614 3.091a.598.598 0 0 1-.265-.062.633.633 0 0 1-.286-.833.617.617 0 0 1 .821-.289.626.626 0 0 1-.27 1.184m-.858-1.372a.37.37 0 0 1-.327-.526.36.36 0 0 1 .484-.169.369.369 0 0 1 .166.488.354.354 0 0 1-.323.207Zm-.337 1.762a.229.229 0 0 1-.101-.023.239.239 0 0 1-.107-.312.229.229 0 0 1 .208-.134c.035 0 .07.007.103.023a.238.238 0 0 1 .106.313.231.231 0 0 1-.209.133Zm-7.92-3.302a.584.584 0 0 1-.268-.062.627.627 0 0 1-.284-.833.614.614 0 0 1 .819-.289.631.631 0 0 1 .286.833.613.613 0 0 1-.553.351Zm-.864-1.37a.334.334 0 0 1-.156-.037.37.37 0 0 1-.168-.489.356.356 0 0 1 .325-.206c.053 0 .107.011.159.034.178.09.253.31.166.491a.36.36 0 0 1-.326.207m-.334 1.762a.21.21 0 0 1-.1-.023.236.236 0 0 1 .103-.446.232.232 0 0 1 .205.336.228.228 0 0 1-.208.133Zm3.288 7.19a.99.99 0 0 1-.529-.154 1.022 1.022 0 0 1-.316-1.397.991.991 0 0 1 1.373-.321c.468.298.611.922.318 1.397a.991.991 0 0 1-.846.475m1.925-1.636a.58.58 0 0 1-.311-.092.602.602 0 0 1-.186-.821.593.593 0 0 1 .499-.28.596.596 0 0 1 .495.913.581.581 0 0 1-.497.28m-2.958-1.102a.365.365 0 0 1-.197-.057.385.385 0 0 1-.12-.523.378.378 0 0 1 .319-.181c.068 0 .136.018.197.057.179.112.23.346.124.525a.384.384 0 0 1-.323.179Zm-1.949.59a.999.999 0 0 1-.914-.608v-.805a.997.997 0 0 1 .678-.586.999.999 0 0 1 1.203.746c.13.544-.196 1.09-.732 1.226a1.06 1.06 0 0 1-.235.027m.484-2.669a.588.588 0 0 1-.57-.454.596.596 0 0 1 .572-.737c.262 0 .502.182.569.452a.602.602 0 0 1-.571.739m-.754 7.328c-.232 0-.461-.083-.644-.237v-1.553c.036-.028.067-.055.107-.083a.991.991 0 0 1 .527-.154c.332 0 .657.168.847.475.294.475.151 1.1-.317 1.398a.968.968 0 0 1-.52.154m2.56-.751a.403.403 0 0 0 .032-.156.364.364 0 0 0-.174-.314.358.358 0 0 0-.194-.057h-.006a.376.376 0 0 0-.362.463.6.6 0 0 1 .08-.945.58.58 0 0 1 .811.188.602.602 0 0 1-.187.821m-2.593-2.23a.375.375 0 0 1-.318-.179.386.386 0 0 1 .118-.526.374.374 0 0 1 .519.12.383.383 0 0 1-.319.585Zm7.065 2.116a.738.738 0 0 1-.731-.677.739.739 0 0 1 .734-.815c.374 0 .693.294.727.679a.742.742 0 0 1-.665.81c-.022.003-.044.003-.065.003m.596-1.891a.431.431 0 0 1-.429-.4.438.438 0 0 1 .393-.477h.039c.221 0 .41.172.428.399a.435.435 0 0 1-.393.475c-.013.003-.026.003-.038.003Zm-2.124.656a.275.275 0 0 1-.273-.258.28.28 0 0 1 .25-.303h.025c.144 0 .265.108.277.255.01.154-.1.29-.25.304l-.029.002m10.532 1.875a.738.738 0 0 1-.729-.679.743.743 0 0 1 .666-.81c.023-.003.044-.003.066-.003.375 0 .699.292.733.679a.749.749 0 0 1-.67.811c-.022.002-.044.002-.066.002Zm.6-1.893a.437.437 0 0 1-.43-.4.436.436 0 0 1 .391-.475c.014-.002.027-.002.04-.002a.439.439 0 0 1 .04.874c-.014.003-.027.003-.041.003m-2.122.658a.275.275 0 0 1-.272-.26.274.274 0 0 1 .248-.303h.024c.141 0 .262.11.274.257a.276.276 0 0 1-.25.304l-.024.002Zm-2.139 5.703a.737.737 0 0 1-.727-.679.74.74 0 0 1 .663-.81c.023-.003.045-.003.067-.003.377 0 .697.292.73.682a.742.742 0 0 1-.665.808l-.068.002m.6-1.891a.435.435 0 0 1-.43-.402.439.439 0 0 1 .393-.475c.014-.002.027-.002.041-.002.22 0 .407.172.428.399a.441.441 0 0 1-.394.478c-.013.002-.025.002-.038.002Zm-2.121.654a.276.276 0 0 1-.277-.257.283.283 0 0 1 .249-.304h.027c.144 0 .26.108.275.258a.278.278 0 0 1-.249.303h-.025Zm.971-4.128a.74.74 0 0 1-.729-.682.74.74 0 0 1 .665-.808c.023-.002.046-.002.069-.002.375 0 .694.291.727.677a.745.745 0 0 1-.668.812l-.064.003Zm.599-1.891a.437.437 0 0 1-.43-.402.436.436 0 0 1 .393-.475c.013-.002.025-.002.037-.002.219 0 .411.17.43.399a.439.439 0 0 1-.391.477l-.039.003m-2.126.654a.277.277 0 0 1-.272-.256.28.28 0 0 1 .249-.305h.024c.141 0 .264.108.279.255a.283.283 0 0 1-.255.306h-.025Zm-.67 2.473a.61.61 0 0 1-.265-.061.624.624 0 0 1-.286-.833.606.606 0 0 1 .816-.292.628.628 0 0 1 .284.835.605.605 0 0 1-.549.351Zm-.862-1.372a.338.338 0 0 1-.157-.037.369.369 0 0 1-.167-.488.355.355 0 0 1 .48-.17.363.363 0 0 1 .166.491.354.354 0 0 1-.322.204m-.336 1.765a.26.26 0 0 1-.1-.023.246.246 0 0 1-.11-.315.238.238 0 0 1 .21-.131c.034 0 .068.007.101.023a.235.235 0 0 1 .106.313.233.233 0 0 1-.207.133m-5.178 1.714a.974.974 0 0 1-.529-.156 1.019 1.019 0 0 1-.316-1.395.993.993 0 0 1 .846-.477c.181 0 .363.05.527.156.468.298.611.922.318 1.395a.995.995 0 0 1-.846.477Zm1.927-1.636a.586.586 0 0 1-.313-.092.6.6 0 0 1-.186-.819.59.59 0 0 1 .499-.282.596.596 0 0 1 .495.913c-.11.181-.3.28-.495.28Z"/>
  <path fill="#F79623" d="M109.295 314.411a.366.366 0 0 1-.198-.057.393.393 0 0 1-.176-.326.375.375 0 0 1 .372-.378h.006c.066 0 .133.018.194.057.115.071.174.19.174.314a.387.387 0 0 1-.033.156l-.017.055a.383.383 0 0 1-.322.179m-2.221 5.246a1 1 0 0 1-.643-.236v-1.551c.036-.028.067-.058.107-.083a.98.98 0 0 1 .529-.154c.331 0 .655.168.845.473a1.022 1.022 0 0 1-.317 1.398.95.95 0 0 1-.521.153m2.249-.656a.578.578 0 0 1-.495-.28.598.598 0 0 1 .183-.821.586.586 0 0 1 .811.188.602.602 0 0 1-.187.821.583.583 0 0 1-.312.092m-2.279-2.325a.373.373 0 0 1-.32-.179.383.383 0 0 1 .118-.523.37.37 0 0 1 .519.12.384.384 0 0 1-.117.525.378.378 0 0 1-.2.057m7.063 2.121a.738.738 0 0 1-.731-.682.742.742 0 0 1 .665-.81c.022-.002.044-.002.066-.002.376 0 .696.291.73.679a.748.748 0 0 1-.665.813l-.065.002m.594-1.896a.43.43 0 0 1-.427-.399.438.438 0 0 1 .393-.475l.04-.002c.22 0 .409.172.427.399a.435.435 0 0 1-.393.477h-.04m-2.118.659a.276.276 0 0 1-.277-.255.281.281 0 0 1 .25-.306l.026-.002c.144 0 .264.112.276.257.01.154-.1.292-.25.306h-.025m17.77 2.4a.74.74 0 0 1-.732-.681.743.743 0 0 1 .666-.81c.022-.003.044-.003.066-.003a.74.74 0 0 1 .73.682.74.74 0 0 1-.73.812m.595-1.893a.433.433 0 0 1-.428-.399.44.44 0 0 1 .393-.478c.013-.002.026-.002.04-.002.221 0 .408.172.427.4a.436.436 0 0 1-.392.477c-.014.002-.027.002-.04.002m-2.119.656a.278.278 0 0 1-.277-.257.28.28 0 0 1 .25-.304c.008-.002.016-.002.024-.002a.28.28 0 0 1 .279.258c.009.154-.101.292-.251.303-.009.002-.017.002-.025.002Zm-12.126 1.051a.61.61 0 0 1-.265-.061.623.623 0 0 1-.286-.831.605.605 0 0 1 .816-.292c.305.15.435.521.284.831a.608.608 0 0 1-.549.353m-.862-1.372a.338.338 0 0 1-.157-.037.369.369 0 0 1-.167-.488.355.355 0 0 1 .48-.17.359.359 0 0 1 .166.486.35.35 0 0 1-.322.209Zm-.336 1.763a.228.228 0 0 1-.1-.023.243.243 0 0 1-.11-.313.24.24 0 0 1 .21-.133.235.235 0 0 1 .207.338.23.23 0 0 1-.207.131m24.313-11.699a.998.998 0 0 1-.529-.154 1.023 1.023 0 0 1-.317-1.398.992.992 0 0 1 1.375-.321c.467.296.61.922.317 1.397a.992.992 0 0 1-.846.476Zm1.924-1.637a.573.573 0 0 1-.311-.089.608.608 0 0 1-.187-.822.584.584 0 0 1 .809-.188c.279.172.36.542.187.822a.583.583 0 0 1-.498.277m-2.954-1.099a.382.382 0 0 1-.201-.06.384.384 0 0 1-.118-.523.372.372 0 0 1 .516-.122.385.385 0 0 1 .122.524.374.374 0 0 1-.319.181m-2.308 6.653a.98.98 0 0 1-.528-.156 1.02 1.02 0 0 1-.314-1.395.987.987 0 0 1 1.374-.324c.464.298.606.925.317 1.397a.998.998 0 0 1-.849.478m1.927-1.636a.589.589 0 0 1-.31-.09.607.607 0 0 1-.186-.822.584.584 0 0 1 .498-.282c.106 0 .213.03.309.092a.605.605 0 0 1 .187.822.583.583 0 0 1-.498.28Zm-2.956-1.102a.38.38 0 0 1-.317-.583.374.374 0 0 1 .318-.181.382.382 0 0 1-.001.764m8.428-.294a.739.739 0 0 1-.732-.679.742.742 0 0 1 .666-.81c.022-.002.043-.005.065-.005.377 0 .698.292.731.682a.743.743 0 0 1-.665.81l-.065.002Zm.598-1.891a.44.44 0 0 1-.039-.879l.037-.002c.221 0 .412.172.43.402a.438.438 0 0 1-.391.477c-.013.002-.025.002-.037.002Zm-2.121.654a.283.283 0 0 1-.28-.255.286.286 0 0 1 .252-.306h.028c.142 0 .263.111.274.256a.28.28 0 0 1-.249.305h-.025Zm-1.111 6.291a.74.74 0 0 1-.732-.68.748.748 0 0 1 .671-.81c.022-.002.043-.002.065-.002.375 0 .696.291.73.679a.745.745 0 0 1-.669.81c-.022.003-.043.003-.065.003m.603-1.891a.436.436 0 0 1-.432-.4.436.436 0 0 1 .393-.479h.035c.219 0 .412.172.431.399a.44.44 0 0 1-.391.48h-.036m-2.126.656a.277.277 0 0 1-.275-.258.274.274 0 0 1 .251-.303h.028a.28.28 0 0 1 .272.255.278.278 0 0 1-.254.304c-.007.002-.015.002-.022.002m6.075.73a.729.729 0 0 1-.634-.37.754.754 0 0 1 .261-1.021.738.738 0 0 1 1.006.266.92.92 0 0 1 .049.113v.53a.745.745 0 0 1-.311.381.728.728 0 0 1-.371.101Zm-1.667-.179a.44.44 0 0 1 0-.879c.148 0 .293.078.371.218a.44.44 0 0 1-.154.601.444.444 0 0 1-.217.06m1.635 1.443a.278.278 0 0 1-.241-.138.287.287 0 0 1 .098-.386.282.282 0 0 1 .381.101.285.285 0 0 1-.1.386.265.265 0 0 1-.138.037Zm.573-8.234a.74.74 0 0 1-.731-.704.742.742 0 0 1 .696-.785l.034-.002c.048 0 .096.006.142.016v1.459a.368.368 0 0 1-.101.016h-.04Zm-1.537-.968a.44.44 0 0 1-.022-.879h.024c.23 0 .421.181.431.415a.435.435 0 0 1-.409.462c-.007.002-.016.002-.024.002m.728 2.024a.279.279 0 0 1-.276-.265.28.28 0 0 1 .262-.296h.012a.28.28 0 0 1 .278.267.274.274 0 0 1-.26.294h-.016m-3.312 3.224a.58.58 0 0 1-.267-.062.63.63 0 0 1-.284-.833.612.612 0 0 1 .549-.351c.09 0 .18.021.266.062a.63.63 0 0 1 .288.833.612.612 0 0 1-.552.351Zm-.863-1.37a.328.328 0 0 1-.155-.037.37.37 0 0 1-.169-.488.365.365 0 0 1 .325-.209.368.368 0 0 1-.001.734Zm-.334 1.763a.22.22 0 0 1-.099-.023.235.235 0 0 1-.107-.313.227.227 0 0 1 .306-.111.235.235 0 0 1-.1.447Zm-3.472 5.567a.736.736 0 0 1-.727-.677.744.744 0 0 1 .666-.81c.022-.003.043-.003.065-.003.377 0 .698.292.731.68a.74.74 0 0 1-.666.808c-.023.002-.046.002-.069.002Zm.599-1.891a.434.434 0 0 1-.427-.399.438.438 0 0 1 .393-.478h.036c.222 0 .412.17.432.4a.437.437 0 0 1-.393.475.282.282 0 0 1-.041.002Zm-2.122.656a.277.277 0 0 1-.273-.255.279.279 0 0 1 .251-.306l.022-.002c.141 0 .265.11.28.257a.281.281 0 0 1-.255.306h-.025m8.403 1.914a.74.74 0 0 1-.731-.679.746.746 0 0 1 .67-.81c.022-.003.043-.003.065-.003a.74.74 0 0 1 .731.68.743.743 0 0 1-.669.81c-.022.002-.044.002-.066.002m.602-1.893a.432.432 0 0 1-.43-.399.432.432 0 0 1 .394-.475c.013-.003.026-.003.039-.003.217 0 .404.172.426.4a.438.438 0 0 1-.39.477h-.039Zm-2.125.658a.276.276 0 0 1-.273-.257.277.277 0 0 1 .251-.304c.009-.002.018-.002.027-.002a.282.282 0 0 1 .021.561c-.009.002-.017.002-.026.002m-1.708 1.504a.626.626 0 0 1-.554-.893.61.61 0 0 1 .819-.292.626.626 0 0 1-.265 1.185m-.863-1.373a.365.365 0 0 1-.159-.036.368.368 0 0 1 .319-.661.37.37 0 0 1 .165.491.359.359 0 0 1-.325.206m-.334 1.763a.229.229 0 0 1-.101-.023.235.235 0 0 1 .103-.446.22.22 0 0 1 .099.023.236.236 0 0 1 .109.312.234.234 0 0 1-.21.134m-1.846 2.637a.741.741 0 0 1-.723-.638.742.742 0 0 1 .726-.856c.36 0 .675.268.729.64a.741.741 0 0 1-.732.854Zm1.597.208a.436.436 0 0 1-.43-.374.437.437 0 0 1 .364-.498c.022-.004.043-.004.063-.004.212 0 .395.156.427.374a.437.437 0 0 1-.362.498c-.021.004-.042.004-.062.004Zm-.927-2.265a.28.28 0 0 1-.272-.241.286.286 0 0 1 .235-.32c.012-.002.025-.002.038-.002.136 0 .257.099.275.239a.277.277 0 0 1-.236.32.271.271 0 0 1-.04.004m-5.094-.695a.737.737 0 0 1-.722-.638.744.744 0 0 1 .725-.854.74.74 0 0 1 .728.638.742.742 0 0 1-.731.854m1.592.209a.435.435 0 0 1-.425-.374.438.438 0 0 1 .429-.503c.212 0 .394.156.426.377a.432.432 0 0 1-.43.5Zm-.916-2.265a.277.277 0 0 1-.274-.242.277.277 0 0 1 .232-.317c.014-.002.028-.005.041-.005.137 0 .253.102.272.242a.275.275 0 0 1-.23.317.192.192 0 0 1-.041.005m-.154 4.83a.613.613 0 0 1-.235-.048.624.624 0 0 1-.328-.814.61.61 0 0 1 .799-.338.627.627 0 0 1 .334.815.621.621 0 0 1-.57.385Zm1.049-1.193a.381.381 0 0 1-.139-.027.374.374 0 0 1-.194-.48.357.357 0 0 1 .47-.2.368.368 0 0 1 .194.48.355.355 0 0 1-.331.227Zm-1.882-.365a.237.237 0 0 1-.213-.324.229.229 0 0 1 .3-.129.238.238 0 0 1 .129.308.239.239 0 0 1-.216.145m-9.801-8.709a.974.974 0 0 1-.529-.156 1.022 1.022 0 0 1-.316-1.397.99.99 0 0 1 1.374-.322c.468.299.61.923.317 1.398a.995.995 0 0 1-.846.477Zm1.927-1.636a.586.586 0 0 1-.313-.092.604.604 0 0 1-.186-.821.589.589 0 0 1 .5-.28.594.594 0 0 1 .495.911.58.58 0 0 1-.496.282Zm-2.957-1.101a.384.384 0 0 1-.318-.583.372.372 0 0 1 .514-.122.38.38 0 0 1-.196.705m2.731-1.015a.988.988 0 0 1-.819-.434 1.024 1.024 0 0 1 .25-1.411.982.982 0 0 1 1.386.255c.313.459.202 1.09-.248 1.409a.975.975 0 0 1-.569.181Zm2.241-.766a.582.582 0 0 1-.481-.257.602.602 0 0 1 .146-.829.573.573 0 0 1 .816.149.6.6 0 0 1-.147.829.573.573 0 0 1-.334.108m-2.374-2.212a.38.38 0 0 1-.311-.163.387.387 0 0 1 .096-.531.37.37 0 0 1 .522.095.383.383 0 0 1-.307.599Zm5.826 3.699a.738.738 0 0 1-.728-.679.747.747 0 0 1 .668-.813l.066-.002a.75.75 0 0 1 .059 1.492l-.065.002m.603-1.893a.442.442 0 0 1-.434-.4.436.436 0 0 1 .394-.475c.013-.002.026-.002.04-.002a.44.44 0 0 1 .43.399.437.437 0 0 1-.391.475c-.013.003-.026.003-.039.003m-2.124.656a.276.276 0 0 1-.274-.255.278.278 0 0 1 .25-.306h.026c.14 0 .262.11.272.255a.277.277 0 0 1-.25.306h-.024Zm-.716 6.545a.737.737 0 0 1-.726-.679.74.74 0 0 1 .733-.813c.375 0 .695.292.728.679a.743.743 0 0 1-.666.811c-.023.002-.046.002-.069.002m.6-1.891a.435.435 0 0 1-.427-.399.437.437 0 0 1 .39-.476c.014-.002.028-.002.041-.002a.43.43 0 0 1 .429.4.436.436 0 0 1-.393.475c-.013.002-.027.002-.04.002m-2.12.656a.279.279 0 0 1-.277-.255.284.284 0 0 1 .252-.306l.024-.002c.143 0 .267.11.277.255a.283.283 0 0 1-.251.308h-.025m5.678.475a.734.734 0 0 1-.634-.369.75.75 0 0 1 .262-1.019.73.73 0 0 1 1.006.264.755.755 0 0 1-.262 1.021.73.73 0 0 1-.372.103m-1.664-.179a.443.443 0 0 1-.222-.819.436.436 0 0 1 .594.158.44.44 0 0 1-.372.661m1.632 1.444a.28.28 0 0 1-.138-.522.253.253 0 0 1 .139-.039c.094 0 .185.048.239.138a.286.286 0 0 1-.1.384.265.265 0 0 1-.14.039Zm2.909-6.072a.739.739 0 0 1-.73-.68.74.74 0 0 1 .665-.81c.023-.002.045-.002.067-.002.375 0 .695.291.729.679a.744.744 0 0 1-.665.81c-.022.003-.044.003-.066.003m.595-1.891a.433.433 0 0 1-.426-.402.433.433 0 0 1 .392-.475c.014-.002.027-.002.04-.002.219 0 .408.172.427.399a.438.438 0 0 1-.395.477c-.012 0-.025.003-.038.003m-2.118.656a.28.28 0 0 1-.276-.258.282.282 0 0 1 .248-.305h.025c.144 0 .266.11.278.255a.283.283 0 0 1-.252.306l-.023.002m-.56 2.852a.59.59 0 0 1-.269-.064.628.628 0 0 1-.283-.831.617.617 0 0 1 .553-.353c.09 0 .18.021.266.062a.63.63 0 0 1 .285.833.61.61 0 0 1-.552.353Zm-.861-1.372a.368.368 0 0 1-.325-.525.364.364 0 0 1 .483-.173c.178.09.253.308.166.491a.36.36 0 0 1-.324.207m-.336 1.763a.232.232 0 0 1-.101-.023.236.236 0 0 1 .103-.447.22.22 0 0 1 .099.023.24.24 0 0 1 .109.315.233.233 0 0 1-.21.132m-3.176.11a.62.62 0 0 1-.267-.062.629.629 0 0 1-.285-.833.612.612 0 0 1 .819-.29.63.63 0 0 1 .285.834.61.61 0 0 1-.552.351Zm-.862-1.37a.358.358 0 0 1-.157-.037.368.368 0 0 1-.167-.489.359.359 0 0 1 .324-.209.37.37 0 0 1 .327.526.364.364 0 0 1-.327.209Zm-.335 1.762a.222.222 0 0 1-.1-.023.235.235 0 0 1 .103-.446.22.22 0 0 1 .099.023.238.238 0 0 1 .108.315.232.232 0 0 1-.21.131m-2.059 5.925a.738.738 0 0 1-.726-.679.745.745 0 0 1 .669-.81c.021-.002.043-.002.065-.002a.74.74 0 0 1 .731.679.743.743 0 0 1-.739.812m.604-1.893a.432.432 0 0 1-.428-.399.43.43 0 0 1 .388-.475c.013-.002.025-.002.037-.002a.44.44 0 0 1 .043.876h-.04m-2.122.659a.283.283 0 0 1-.277-.258.28.28 0 0 1 .254-.303c.008-.003.016-.003.024-.003.14 0 .263.111.278.256a.286.286 0 0 1-.255.305c-.008.003-.016.003-.024.003m-.915 4.509a.736.736 0 0 1-.728-.681.738.738 0 0 1 .664-.808c.022-.003.044-.003.066-.003.376 0 .696.292.73.68a.742.742 0 0 1-.666.81c-.022.002-.044.002-.066.002m.6-1.891a.433.433 0 0 1-.43-.401.434.434 0 0 1 .391-.476c.013-.002.025-.002.038-.002a.44.44 0 0 1 .038.877l-.037.002Zm-2.125.654a.277.277 0 0 1-.274-.255.281.281 0 0 1 .25-.306h.024c.141 0 .265.108.279.255a.284.284 0 0 1-.255.306h-.024Zm13.142-2.944a.744.744 0 0 1-.734-.682.744.744 0 0 1 .67-.807c.022-.003.044-.003.066-.003.377 0 .697.292.73.68a.743.743 0 0 1-.732.812Zm.596-1.893a.433.433 0 0 1-.427-.4.434.434 0 0 1 .388-.477l.036-.002a.44.44 0 0 1 .043.876c-.013.003-.027.003-.04.003m-2.122.656a.276.276 0 0 1-.274-.255.274.274 0 0 1 .25-.304c.009-.002.018-.002.027-.002.14 0 .26.11.272.255a.278.278 0 0 1-.251.306h-.024Zm-2.857 1.886a.739.739 0 0 1-.731-.681.74.74 0 0 1 .666-.808c.023-.002.045-.005.067-.005a.74.74 0 0 1 .729.682.747.747 0 0 1-.666.81c-.022.002-.043.002-.065.002m.596-1.893a.435.435 0 0 1-.428-.399.44.44 0 0 1 .392-.478l.04-.002c.22 0 .407.175.428.402a.435.435 0 0 1-.394.475c-.013.002-.026.002-.038.002m-2.123.656a.28.28 0 0 1-.023-.561c.008-.002.016-.002.024-.002.144 0 .266.11.277.258a.278.278 0 0 1-.251.303l-.027.002Zm-.671 2.472a.587.587 0 0 1-.268-.062.628.628 0 0 1-.285-.831.616.616 0 0 1 .554-.353c.089 0 .18.021.265.062a.629.629 0 0 1 .286.833.61.61 0 0 1-.552.351m-.861-1.37a.367.367 0 0 1-.16-.037.367.367 0 0 1-.165-.489.362.362 0 0 1 .482-.172c.178.09.253.308.168.491a.362.362 0 0 1-.325.207m-.334 1.762a.231.231 0 0 1-.208-.335.229.229 0 0 1 .307-.111.237.237 0 0 1 .108.313.226.226 0 0 1-.207.133Zm-17.228 3.824a.628.628 0 0 1-.266-1.187.615.615 0 0 1 .265-.062c.228 0 .446.131.554.354a.627.627 0 0 1-.288.833.609.609 0 0 1-.265.062Zm.861-1.373a.358.358 0 0 1-.323-.206.37.37 0 0 1 .167-.489.347.347 0 0 1 .156-.037c.134 0 .265.076.328.207a.372.372 0 0 1-.172.489.346.346 0 0 1-.156.036Zm.339 1.763a.235.235 0 0 1-.21-.131.239.239 0 0 1 .106-.315.234.234 0 0 1 .31.11.234.234 0 0 1-.206.336m28.745 3.063a.987.987 0 0 1-.845-.475 1.021 1.021 0 0 1 .316-1.397.965.965 0 0 1 .527-.154c.332 0 .657.168.847.475a1.024 1.024 0 0 1-.318 1.398.99.99 0 0 1-.527.153Zm-1.928-1.636a.582.582 0 0 1-.496-.278.6.6 0 0 1 .187-.823.583.583 0 0 1 .808.188.608.608 0 0 1-.186.824.58.58 0 0 1-.313.089Zm2.958-1.101a.378.378 0 0 1-.321-.177.392.392 0 0 1 .124-.528.362.362 0 0 1 .196-.057c.125 0 .247.064.319.179a.385.385 0 0 1-.118.525.374.374 0 0 1-.2.058Zm-6.192 5.016c-.022 0-.043 0-.065-.002a.743.743 0 0 1-.666-.81.74.74 0 0 1 .798-.677c.403.036.7.397.665.81a.74.74 0 0 1-.732.679m-.596-1.893h-.039a.436.436 0 0 1-.392-.477.431.431 0 0 1 .467-.397c.238.02.412.234.392.475a.431.431 0 0 1-.428.399m2.119.659c-.008 0-.016 0-.024-.003a.28.28 0 0 1-.249-.306.278.278 0 0 1 .278-.255h.024a.283.283 0 0 1 .249.306.28.28 0 0 1-.278.258m-5.677.472a.725.725 0 0 1-.371-.101.754.754 0 0 1-.262-1.023.73.73 0 0 1 1.007-.264.754.754 0 0 1 .262 1.021.738.738 0 0 1-.636.367Zm1.665-.179a.424.424 0 0 1-.219-.059.45.45 0 0 1-.155-.602.44.44 0 0 1 .595-.156.44.44 0 0 1 .15.602.423.423 0 0 1-.371.215Zm-1.631 1.444a.285.285 0 0 1-.14-.037.287.287 0 0 1-.098-.386.278.278 0 0 1 .381-.099c.13.078.174.248.095.384a.272.272 0 0 1-.238.138m-.015-4.753a.627.627 0 0 1-.263-1.186.606.606 0 0 1 .814.291.622.622 0 0 1-.551.895m.865-1.37a.356.356 0 0 1-.324-.209.372.372 0 0 1 .166-.491.363.363 0 0 1 .483.172.378.378 0 0 1-.169.491.38.38 0 0 1-.156.037Zm.333 1.763a.228.228 0 0 1-.206-.134.237.237 0 0 1 .209-.338c.084 0 .164.051.204.136a.23.23 0 0 1-.106.31.233.233 0 0 1-.101.026m2.364.408a.612.612 0 0 1-.552-.351.631.631 0 0 1 .284-.835.61.61 0 0 1 .819.293.629.629 0 0 1-.284.831.62.62 0 0 1-.267.062Zm.861-1.37a.367.367 0 0 1 .002-.734c.133 0 .26.075.323.206a.37.37 0 0 1-.325.528m.335 1.76a.224.224 0 0 1-.207-.131.233.233 0 0 1 .106-.313.232.232 0 0 1 .101-.025c.086 0 .169.051.208.133a.234.234 0 0 1-.208.336m7.922-3.3a.625.625 0 0 1-.266-1.184.611.611 0 0 1 .818.289.632.632 0 0 1-.287.833.615.615 0 0 1-.265.062m.862-1.372a.364.364 0 0 1-.328-.207.373.373 0 0 1 .327-.528c.135 0 .264.078.323.209a.37.37 0 0 1-.166.491.377.377 0 0 1-.156.035m.336 1.765a.231.231 0 0 1-.206-.134.237.237 0 0 1 .105-.315.229.229 0 0 1 .308.111.24.24 0 0 1-.109.315.265.265 0 0 1-.098.023m-3.287 7.187a.987.987 0 0 1-.845-.475 1.027 1.027 0 0 1 .311-1.398.985.985 0 0 1 .53-.153c.333 0 .659.167.846.475.293.472.15 1.099-.313 1.397a.99.99 0 0 1-.529.154Zm-1.928-1.636a.59.59 0 0 1-.5-.278.61.61 0 0 1 .188-.824.58.58 0 0 1 .808.191c.175.28.09.647-.186.821a.569.569 0 0 1-.31.09Zm2.955-1.102a.37.37 0 0 1-.317-.179.384.384 0 0 1 .119-.525.373.373 0 0 1 .516.121.383.383 0 0 1-.12.526.369.369 0 0 1-.198.057Zm1.953.592a1.017 1.017 0 0 1-.971-1.255 1.005 1.005 0 0 1 1.209-.744c.535.134.864.682.732 1.226a1.006 1.006 0 0 1-.97.773m-.481-2.671a.591.591 0 0 1-.572-.737.586.586 0 0 1 .708-.438.601.601 0 0 1 .433.721.593.593 0 0 1-.569.454m2.463 1.248a.393.393 0 0 1-.145-.4.375.375 0 0 1 .145-.211v.611m-1.707 6.082a.983.983 0 0 1-.529-.156 1.026 1.026 0 0 1-.312-1.398.983.983 0 0 1 1.374-.319c.468.296.606.921.312 1.398a.99.99 0 0 1-.845.475Zm-2.255-.661a.566.566 0 0 1-.309-.09.6.6 0 0 1-.187-.823.585.585 0 0 1 .809-.189.606.606 0 0 1 .186.822.59.59 0 0 1-.499.28Zm2.282-2.322a.37.37 0 0 1-.198-.06.378.378 0 0 1-.119-.523.369.369 0 0 1 .515-.124.38.38 0 0 1 .118.525.373.373 0 0 1-.316.182m-7.061 2.118c-.021 0-.043 0-.065-.003a.745.745 0 0 1-.669-.81.739.739 0 0 1 .729-.681c.022 0 .044.002.067.004a.745.745 0 0 1 .67.808.74.74 0 0 1-.732.682m-.602-1.891-.036-.003a.44.44 0 0 1-.395-.477.436.436 0 0 1 .434-.399h.038a.445.445 0 0 1 .394.477.442.442 0 0 1-.435.402Zm2.125.656-.023-.002a.28.28 0 0 1-.251-.306.281.281 0 0 1 .274-.258c.008 0 .016 0 .024.003a.277.277 0 0 1 .251.303.279.279 0 0 1-.275.26Zm-10.533 1.873c-.022 0-.043 0-.065-.003a.742.742 0 0 1-.666-.81.736.736 0 0 1 .732-.679.744.744 0 0 1 .73.812.74.74 0 0 1-.731.68m-.6-1.894h-.036a.437.437 0 0 1-.392-.477.432.432 0 0 1 .43-.399h.037a.443.443 0 0 1 .394.477.434.434 0 0 1-.433.399Zm2.123.657h-.025a.283.283 0 0 1-.249-.304.278.278 0 0 1 .302-.255c.151.012.263.15.25.304a.28.28 0 0 1-.278.255m2.691.339c-.021 0-.043 0-.064-.002a.743.743 0 0 1-.666-.808.738.738 0 0 1 .796-.679.744.744 0 0 1 .666.81.742.742 0 0 1-.732.679m-.597-1.891c-.013 0-.025 0-.038-.002a.433.433 0 0 1-.391-.477.431.431 0 0 1 .428-.399h.039a.441.441 0 0 1-.038.878m2.12.657c-.008 0-.016 0-.024-.003a.281.281 0 0 1-.249-.305.276.276 0 0 1 .271-.256c.009 0 .017 0 .026.003a.277.277 0 0 1 .254.303.28.28 0 0 1-.278.258m.676 2.471a.615.615 0 0 1-.554-.351.63.63 0 0 1 .286-.833.616.616 0 0 1 .82.289.63.63 0 0 1-.285.833.607.607 0 0 1-.267.062Zm.862-1.37a.368.368 0 0 1-.16-.697.359.359 0 0 1 .484.172.368.368 0 0 1-.324.525Zm.557 1.561h-.447a.233.233 0 0 1 .122-.244.231.231 0 0 1 .31.108c.021.046.023.09.015.136m-24.534-6.768a.991.991 0 0 1-.846-.472 1.024 1.024 0 0 1 .318-1.398.981.981 0 0 1 1.369.319 1.02 1.02 0 0 1-.312 1.398.98.98 0 0 1-.529.153m-1.928-1.634a.581.581 0 0 1-.496-.28.606.606 0 0 1 .184-.823.58.58 0 0 1 .808.19.597.597 0 0 1-.496.913m2.958-1.101a.377.377 0 0 1-.319-.179.385.385 0 0 1 .12-.526.375.375 0 0 1 .518.12.382.382 0 0 1-.319.585m2.305 6.653a.993.993 0 0 1-.846-.478 1.024 1.024 0 0 1 .317-1.397.99.99 0 0 1 1.375.323c.292.475.15 1.1-.317 1.396a.983.983 0 0 1-.529.156m-1.927-1.637a.586.586 0 0 1-.499-.28.605.605 0 0 1 .187-.821.583.583 0 0 1 .812.188.609.609 0 0 1-.187.824.598.598 0 0 1-.313.089m2.958-1.101a.373.373 0 0 1-.32-.179.385.385 0 0 1 .119-.526.374.374 0 0 1 .518.122.388.388 0 0 1-.117.525.38.38 0 0 1-.2.058m-8.427-.296c-.022 0-.045 0-.069-.003a.74.74 0 0 1-.664-.807.737.737 0 0 1 .796-.677.741.741 0 0 1 .665.81.732.732 0 0 1-.728.677m-.599-1.889-.038-.002a.438.438 0 0 1-.393-.477.432.432 0 0 1 .427-.4c.013 0 .027 0 .041.003.237.02.415.234.391.475a.432.432 0 0 1-.428.401Zm2.125.654h-.024a.279.279 0 0 1-.254-.303.28.28 0 0 1 .302-.256c.151.012.267.15.25.304a.278.278 0 0 1-.274.255m.711 6.547a.743.743 0 0 1-.736-.812.741.741 0 0 1 .8-.677c.4.034.701.399.666.808a.74.74 0 0 1-.73.681Zm-.602-1.893-.04-.002a.44.44 0 0 1 .044-.877l.036.003a.44.44 0 0 1-.04.876Zm2.125.656h-.025a.278.278 0 0 1-.251-.305.276.276 0 0 1 .274-.256h.024a.282.282 0 0 1-.022.561Zm-5.294.361v-1.262a.752.752 0 0 1 .249 1.007.717.717 0 0 1-.249.255Zm1.281-.065a.427.427 0 0 1-.219-.059.446.446 0 0 1-.154-.601.43.43 0 0 1 .371-.218.443.443 0 0 1 .375.663.43.43 0 0 1-.373.215m-.674-7.758c-.009 0-.016-.003-.025-.003a.436.436 0 0 1-.408-.461.438.438 0 0 1 .456-.413.433.433 0 0 1 .407.461.435.435 0 0 1-.43.416Zm-.607 1.994v-.501a.28.28 0 0 1 .159.269.283.283 0 0 1-.159.232Zm3.196 3.256a.625.625 0 0 1-.002-1.248c.228 0 .446.131.555.353a.632.632 0 0 1-.287.833.606.606 0 0 1-.266.062Zm.857-1.372a.355.355 0 0 1-.321-.209.369.369 0 0 1 .166-.489.346.346 0 0 1 .156-.036c.134 0 .264.078.328.208a.37.37 0 0 1-.329.526m.339 1.765a.232.232 0 0 1-.208-.136.238.238 0 0 1 .106-.313.23.23 0 0 1 .31.111.233.233 0 0 1-.106.312.237.237 0 0 1-.102.026m1.882 3.628h-.852c-.003-.025-.01-.048-.008-.074a.431.431 0 0 1 .428-.399h.04a.434.434 0 0 1 .392.473m-4.911 0h-.63a.445.445 0 0 1-.115-.333.439.439 0 0 1 .472-.397.437.437 0 0 1 .392.475.46.46 0 0 1-.119.255m20.43-4.333a.985.985 0 0 1-.846-.477 1.021 1.021 0 0 1 .317-1.395.97.97 0 0 1 .528-.157c.332 0 .658.17.847.475a1.033 1.033 0 0 1-.317 1.4.987.987 0 0 1-.529.154m-1.927-1.636a.585.585 0 0 1-.497-.28.605.605 0 0 1 .187-.822.584.584 0 0 1 .806.189.596.596 0 0 1-.496.913m2.955-1.102a.368.368 0 0 1-.316-.179.385.385 0 0 1 .12-.525.372.372 0 0 1 .515.119.384.384 0 0 1-.319.585Zm-2.731-1.012a.978.978 0 0 1-.566-.181 1.029 1.029 0 0 1-.251-1.411.996.996 0 0 1 .823-.436c.196 0 .395.059.567.181.453.319.564.95.25 1.411a1.001 1.001 0 0 1-.823.436Zm-2.24-.768a.586.586 0 0 1-.335-.106.604.604 0 0 1-.146-.828.581.581 0 0 1 .816-.152c.268.188.333.56.146.829a.578.578 0 0 1-.481.257Zm2.374-2.21a.37.37 0 0 1-.214-.069.384.384 0 0 1 .219-.696c.074 0 .148.021.213.067.169.122.209.36.091.532a.373.373 0 0 1-.309.166m-5.828 3.697c-.022 0-.044 0-.066-.003a.742.742 0 0 1-.665-.81.74.74 0 0 1 .795-.677c.404.037.702.4.666.808a.739.739 0 0 1-.73.682m-.6-1.891-.036-.003a.44.44 0 0 1 .037-.876.437.437 0 0 1 .43.477.436.436 0 0 1-.431.402Zm2.124.656-.024-.002a.285.285 0 0 1-.252-.306.277.277 0 0 1 .278-.255h.025a.281.281 0 0 1 .25.305.277.277 0 0 1-.277.258m.711 6.545a.738.738 0 0 1-.732-.812.738.738 0 0 1 .731-.682l.065.002c.404.037.705.4.666.81a.74.74 0 0 1-.73.682m-.596-1.893c-.014 0-.028 0-.041-.003a.434.434 0 0 1-.392-.477.436.436 0 0 1 .43-.397h.037a.437.437 0 0 1 .393.477.433.433 0 0 1-.427.4m2.123.656h-.025a.286.286 0 0 1-.255-.306.282.282 0 0 1 .302-.255.278.278 0 0 1 .25.306.274.274 0 0 1-.272.255m-5.681.475a.721.721 0 0 1-.374-.103.754.754 0 0 1-.259-1.019.73.73 0 0 1 1.005-.269.756.756 0 0 1 .263 1.022.728.728 0 0 1-.635.369m1.666-.179a.408.408 0 0 1-.216-.06.442.442 0 0 1 .217-.819.44.44 0 0 1-.001.879m-1.631 1.446a.283.283 0 0 1 .001-.564c.048 0 .095.012.139.037a.29.29 0 0 1 .1.387.282.282 0 0 1-.24.14m-2.913-6.075c-.021 0-.043 0-.065-.002a.74.74 0 0 1-.665-.81.737.737 0 0 1 .731-.679.743.743 0 0 1 .73.812.738.738 0 0 1-.731.679Zm-.595-1.893h-.04a.44.44 0 0 1-.394-.475.436.436 0 0 1 .43-.402.436.436 0 0 1 .432.478.433.433 0 0 1-.428.399Zm2.122.659c-.007 0-.016 0-.024-.003a.28.28 0 0 1-.253-.303.283.283 0 0 1 .277-.258c.009 0 .017 0 .025.003.15.011.264.149.249.303a.276.276 0 0 1-.274.258Zm.556 2.852a.606.606 0 0 1-.551-.351.629.629 0 0 1 .283-.833.61.61 0 0 1 .821.289c.147.31.02.684-.285.833a.61.61 0 0 1-.268.062m.863-1.372a.365.365 0 0 1-.155-.695.33.33 0 0 1 .155-.037c.133 0 .261.076.324.206a.37.37 0 0 1-.167.489.351.351 0 0 1-.157.037Zm.335 1.762a.232.232 0 0 1-.209-.131.242.242 0 0 1 .106-.315.234.234 0 0 1 .311.111.234.234 0 0 1-.208.335m3.177.113a.61.61 0 0 1-.551-.354.631.631 0 0 1 .286-.833.608.608 0 0 1 .815.292c.151.31.02.681-.285.833a.615.615 0 0 1-.265.062m.862-1.373a.354.354 0 0 1-.323-.206.368.368 0 0 1 .167-.489.354.354 0 0 1 .478.17.368.368 0 0 1-.166.489.346.346 0 0 1-.156.036Zm.335 1.763a.227.227 0 0 1-.207-.133.237.237 0 0 1 .109-.313.222.222 0 0 1 .1-.023c.084 0 .166.048.208.133a.238.238 0 0 1-.111.313.22.22 0 0 1-.099.023Zm2.783 5.113h-1.461a.738.738 0 0 1 .796-.677.742.742 0 0 1 .665.677Zm-1.326-1.079c-.013 0-.027 0-.04-.002a.436.436 0 0 1-.392-.477.43.43 0 0 1 .428-.397h.038c.24.02.413.234.393.477a.43.43 0 0 1-.427.399m2.12.657c-.008 0-.017 0-.025-.003a.28.28 0 0 1-.25-.303.28.28 0 0 1 .278-.258.06.06 0 0 1 .023.003.28.28 0 0 1 .25.305.28.28 0 0 1-.276.256m-10.302.422h-.464a.755.755 0 0 1 .302-.037c.056.005.11.016.162.037m-.831-.441c-.012 0-.026 0-.039-.002a.438.438 0 0 1-.391-.475.434.434 0 0 1 .431-.399h.041a.442.442 0 0 1 .391.477.436.436 0 0 1-.433.399m2.391.441h-.531a.35.35 0 0 1-.013-.09.285.285 0 0 1 .279-.257l.024.002a.275.275 0 0 1 .25.303l-.009.042m3.128 0h-1.413a.738.738 0 0 1 .707-.939l.065.002a.744.744 0 0 1 .641.937m-1.304-1.338c-.012 0-.025 0-.037-.002a.437.437 0 0 1-.393-.475.432.432 0 0 1 .427-.402l.04.002a.438.438 0 0 1 .394.478.437.437 0 0 1-.431.399Zm2.125.656h-.024a.284.284 0 0 1-.254-.306.286.286 0 0 1 .278-.257l.025.002a.278.278 0 0 1 .249.306.276.276 0 0 1-.274.255m1.885.682h-.702a.357.357 0 0 1 .351-.315.357.357 0 0 1 .351.315Z"/>
  <path fill="#F14F43" d="M97.554 218.002h6.78v-6.46h-6.78v6.46Z"/>
  <path fill="#B73B31" d="M104.226 218.002h-2.638v-6.46h2.638v6.46Z"/>
  <path fill="#F35E4F" d="M97.667 218.002h1.326v-6.46h-1.326v6.46Z"/>
  <path fill="#2D4364" d="M108.863 223.96c.069-.365.109-.739.109-1.122v-1.15c0-3.335-2.66-6.036-5.942-6.036h-4.17c-3.28 0-5.943 2.701-5.943 6.036v1.15c0 .383.04.757.107 1.122h15.839Z"/>
  <path fill="#1C293D" d="M108.863 223.96c.069-.365.109-.739.109-1.122v-1.774l-16.055-.574v2.348c0 .383.04.757.107 1.122h15.839Z"/>
  <path fill="#3E6A95" d="M105.377 216.795c.489.776-1.516 1.742-4.474 2.153-2.963.415-5.766.117-6.252-.661-.493-.776 1.511-1.742 4.473-2.153 2.961-.413 5.762-.117 6.253.661Z"/>
  <path fill="#6482A8" d="M104.674 216.68c.124.196-2.565-.121-5.14.235-2.57.358-4.048 1.257-4.174 1.057-.124-.195 1.256-1.179 3.824-1.537 2.575-.358 5.367.048 5.49.245"/>
  <path fill="#6482A8" d="M103.813 217.472c0 .294-.302.53-.666.53-.369 0-.668-.236-.668-.53 0-.291.299-.528.668-.528.364 0 .666.237.666.528Z"/>
  <path fill="#2D4364" d="M111.094 226.707c0 .658-.521 1.193-1.166 1.193H91.967a1.18 1.18 0 0 1-1.171-1.193v-3.98c0-.656.521-1.188 1.17-1.188h17.962c.645 0 1.166.532 1.166 1.188v3.98Z"/>
  <path fill="#1C293D" d="M110.204 221.575v4.902a1.04 1.04 0 0 1-1.035 1.049H92.721a1.04 1.04 0 0 1-1.035-1.049v-4.902c-.512.129-.89.595-.89 1.152v3.98a1.18 1.18 0 0 0 1.17 1.193h17.962c.645 0 1.166-.535 1.166-1.193v-3.98c0-.557-.38-1.023-.89-1.152"/>
  <path fill="#1C293D" d="M93.558 222.268a.351.351 0 0 0-.35.354v5.09h.7v-5.09a.352.352 0 0 0-.35-.354Zm1.9 0a.351.351 0 0 0-.35.354v5.09h.699v-5.09a.351.351 0 0 0-.35-.354Zm1.899 0a.351.351 0 0 0-.35.354v5.09h.7v-5.09a.351.351 0 0 0-.35-.354Zm1.901 0a.352.352 0 0 0-.35.354v5.09h.701v-5.09a.353.353 0 0 0-.351-.354Zm1.9 0a.35.35 0 0 0-.348.354v5.09h.698v-5.09a.351.351 0 0 0-.35-.354m1.9 0a.35.35 0 0 0-.348.354v5.09h.693v-5.09a.348.348 0 0 0-.345-.354Z"/>
  <path fill="#3E6A95" d="M94.533 227.232h-.44v-5.404h.44v5.404Zm1.899 0h-.438v-5.404h.438v5.404Zm1.896 0h-.434v-5.404h.434v5.404Zm1.899 0h-.432v-5.404h.432v5.404Zm1.902 0h-.433v-5.404h.433v5.404Zm1.899 0h-.433v-5.404h.433v5.404Zm-11.397 0-.438-.422v-4.982h.438v5.404Z"/>
  <path fill="#1C293D" d="M104.96 222.268a.348.348 0 0 0-.349.354v5.09h.694v-5.09a.347.347 0 0 0-.345-.354Zm1.899 0a.348.348 0 0 0-.349.354v5.09h.694v-5.09a.348.348 0 0 0-.345-.354Zm1.895 0a.35.35 0 0 0-.348.354v5.09h.7v-5.09a.35.35 0 0 0-.352-.354Z"/>
  <path fill="#3E6A95" d="M105.929 227.232h-.432v-5.404h.432v5.404Zm1.902 0h-.435v-5.404h.435v5.404Zm1.898 0h-.432v-5.404h.432v5.404Z"/>
  <path fill="#B73B31" d="M103.911 210.989a.547.547 0 0 1-.542.553h-4.844a.549.549 0 0 1-.547-.553.55.55 0 0 1 .547-.553h4.844c.301 0 .542.248.542.553Z"/>
  <path fill="#70CFCB" d="M119.562 239.439c0-10.451-8.335-12.271-18.615-12.271-10.285 0-18.62 1.82-18.62 12.271 0 4.998 1.91 11.068 5.027 16.038l-3.418 67.256c0 4.571 3.643 8.275 8.144 8.275h17.729c4.501 0 8.146-3.704 8.146-8.275l-3.419-67.256c3.116-4.97 5.026-11.04 5.026-16.038"/>
  <path fill="#9ADDDA" d="M115.801 240.965c-.547-13.056-30.949 4.091-25.7 12.798l-2.727 67.228c0 3.649 2.907 6.607 6.498 6.607h14.144c3.591 0 6.499-2.958 6.499-6.607l-2.726-67.228c2.485-3.966 4.012-8.808 4.012-12.798"/>
  <path fill="#9ADDDA" d="M86.013 247.654c1.994 2.564 4.187-5.388 10.33-9.14 6.15-3.755 15.382-4.087 13.381-6.653-1.991-2.563-14.532-5.159-20.677-1.409-6.15 3.752-5.027 14.637-3.034 17.202Z"/>
  <path fill="#BAE8E5" d="M98.653 229.644c.392.617-4.192.808-7.907 3.259-3.72 2.453-5.166 6.24-5.56 5.625-.394-.615.808-4.65 4.525-7.103 3.718-2.451 8.547-2.396 8.942-1.781m7.523 9.021c.928.613-5.623 4.195-9.602 10.44-3.972 6.248-3.864 12.802-4.799 12.187-.93-.61-1.537-7.345 2.436-13.592 3.978-6.247 11.035-9.647 11.965-9.035Z"/>
  <path fill="#BAE8E5" d="M98.81 232.559c.291 1.005-.272 2.056-1.256 2.352a1.854 1.854 0 0 1-2.314-1.276 1.896 1.896 0 0 1 1.256-2.352 1.854 1.854 0 0 1 2.313 1.276Z"/>
  <path fill="#fff" d="M113.915 315.664H87.979l1.54-43.579h22.292l2.104 43.579"/>
  <path fill="#F14F43" d="M112.65 314.636H89.246l1.643-41.523h20.116l1.645 41.523Z"/>
  <path fill="#C23E34" d="M108.145 295.229c0 4.039-3.224 7.316-7.198 7.316-3.978 0-7.202-3.277-7.202-7.316v-11.851c0-4.041 3.224-7.316 7.202-7.316 3.974 0 7.198 3.275 7.198 7.316v11.851Z"/>
  <path fill="#7F271F" d="M105.875 294.788c0 2.768-2.206 5.01-4.928 5.01-2.723 0-4.933-2.242-4.933-5.01v-10.969c0-2.766 2.21-5.01 4.933-5.01 2.722 0 4.928 2.244 4.928 5.01v10.969Zm1.905 10.625H94.109v-1.92h13.671v1.92Zm0 3.528H94.109v-1.924h13.671v1.924Zm0 3.527H94.109v-1.923h13.671v1.923Z"/>
  <path fill="#CE2650" d="M88.87 325.998c0 4.271-10.63 7.734-23.748 7.734-13.113 0-23.746-3.463-23.746-7.734 0 0-7.028-47.246-6.81-48.167 5.307-2.324 19.13-2.643 30.556-2.643 14.872 0 27.908.041 30.779 3.564 0 0-7.03 46.711-7.03 47.246"/>
  <path fill="#EF2C5E" d="m38.324 288.027 5.248 37.124c0 3.293 8.194 5.962 18.302 5.962 0 0-7.937-55.124-23.55-43.086Z"/>
  <path fill="#B32742" d="m94.534 287.846 1.366-9.094c-2.87-3.523-15.906-3.564-30.778-3.564-11.427 0-25.249.319-30.557 2.643-.063.264-.365-1.7.428 3.975 0 0 44.788 13.567 59.541 6.04"/>
  <path fill="#FAB920" d="M98.312 275.674h-3.188c.34 3.335.524 8.998.524 10.722 0 15.075-15.37 27.295-30.185 27.295-14.813 0-30.18-12.22-30.18-27.295 0-1.724.182-7.387.517-10.722h-3.184a34.899 34.899 0 0 0-.93 8.007c0 18.985 15.121 34.372 33.777 34.372 18.654 0 33.778-15.387 33.778-34.372a34.96 34.96 0 0 0-.93-8.007"/>
  <path fill="#F89E23" d="M33.404 275.674c-.272 3.58-.419 8.326-.419 9.923 0 16.225 16.537 29.374 32.478 29.374 15.941 0 32.478-13.149 32.478-29.374 0-1.597-.143-6.343-.42-9.923h-2.397c.34 3.335.524 8.998.524 10.722 0 15.075-15.37 27.295-30.185 27.295-14.813 0-30.18-12.22-30.18-27.295 0-1.724.183-7.387.518-10.722h-2.397"/>
  <path fill="#7F271F" d="M80.708 309.505c0 .622 6.724 8.005-14.557 9.235-18.832 0-14.086-7.64-14.086-8.262 0-.622 6.751-.163 14.62-.163 7.871 0 14.023-1.43 14.023-.81"/>
  <path fill="#601D16" d="M52.72 312.929a3.769 3.769 0 0 1 3.194-1.783c2.006 0 3.643 1.014 3.771 3.022l.055.005c.257-1.873 1.833-2.74 3.747-2.74 1.98 0 3.6.973 3.766 2.942h.032c.166-1.969 1.79-2.942 3.77-2.942 1.76 0 3.235.647 3.66 2.301l.138-.02c.129-2.013 1.766-3.029 3.775-3.029 1.013 0 1.929.406 2.61 1.064.48-1.122-.882-2.134-.882-2.306 0-.374-5.993.487-13.67.487-7.676 0-14.259-.276-14.259.096 0 .202-1.34 1.629.294 2.903"/>
  <path fill="#EF2C5E" d="M99.94 276.716c0 4.273-15.593 7.734-34.83 7.734s-34.83-3.461-34.83-7.734c0 0 0-4.971.245-5.891 6.01-2.324 21.65-2.643 34.586-2.643 16.83 0 31.581.039 34.829 3.563v4.971"/>
  <path fill="#D62753" d="M99.94 271.05c0 4.654-15.593 8.431-34.83 8.431s-34.83-3.777-34.83-8.431c0-4.658 15.593-8.433 34.83-8.433s34.83 3.775 34.83 8.433Z"/>
  <path fill="#B32742" d="M96.174 270.91c0 3.81-13.91 6.896-31.064 6.896-17.157 0-31.063-3.086-31.063-6.896 0-3.812 13.906-6.9 31.064-6.9 17.152 0 31.063 3.088 31.063 6.9Z"/>
  <path fill="#70CFCB" d="M94.728 271.746c0 3.348-13.26 6.06-29.618 6.06-16.358 0-29.62-2.712-29.62-6.06 0-3.349 13.262-6.063 29.62-6.063s29.618 2.714 29.618 6.063Z"/>
  <path fill="#5DAAA8" d="M75.546 276.319c-19.154 0-34.68-3.181-34.68-7.1 0-.363.136-.718.388-1.067-3.62 1.007-5.763 2.249-5.763 3.594 0 3.348 13.261 6.06 29.62 6.06 8.348 0 15.885-.704 21.272-1.845-3.41.23-7.05.358-10.837.358"/>
  <path fill="#9ADDDA" d="M69.546 266.499c-3.639 0-7.049.198-9.997.542a94.625 94.625 0 0 1 5.605-.161c11.15 0 20.191 1.85 20.191 4.133 0 1.538-4.106 2.878-10.194 3.59 8.423-.496 14.586-2.084 14.586-3.971 0-2.281-9.037-4.133-20.19-4.133"/>
  <path fill="#BAE8E5" d="M63.617 267.943c0 .799-.634 1.443-1.418 1.443a1.43 1.43 0 0 1-1.422-1.443c0-.796.634-1.444 1.422-1.444.784 0 1.418.648 1.418 1.444Z"/>
  <path fill="#DBF2E6" d="M62.821 266.974c.17.28-.11.774-.633 1.107-.522.33-1.086.371-1.256.091-.174-.28.11-.773.634-1.106.522-.33 1.084-.374 1.255-.092Z"/>
  <path fill="#BAE8E5" d="M67.961 265.995c0 .796-.636 1.443-1.423 1.443-.783 0-1.42-.647-1.42-1.443 0-.799.637-1.446 1.42-1.446.787 0 1.423.647 1.423 1.446Z"/>
  <path fill="#DBF2E6" d="M67.165 265.026c.17.278-.113.774-.634 1.104-.523.33-1.084.372-1.258.094-.171-.28.114-.776.634-1.108.522-.331 1.084-.372 1.258-.09"/>
  <path fill="#BAE8E5" d="M71.88 272.494c0 .796-.64 1.443-1.423 1.443a1.433 1.433 0 0 1-1.422-1.443c0-.797.636-1.444 1.422-1.444.784 0 1.423.647 1.423 1.444Z"/>
  <path fill="#DBF2E6" d="M71.084 271.525c.17.278-.116.774-.64 1.104-.518.33-1.08.372-1.254.094-.17-.28.114-.776.634-1.108.522-.331 1.086-.372 1.26-.09"/>
  <path fill="#BAE8E5" d="M81.935 269.802a1.43 1.43 0 0 1-1.418 1.443 1.433 1.433 0 0 1-1.422-1.443c0-.799.638-1.444 1.422-1.444a1.43 1.43 0 0 1 1.418 1.444Z"/>
  <path fill="#DBF2E6" d="M81.138 268.831c.176.28-.11.776-.634 1.108-.521.329-1.085.37-1.255.09-.17-.278.11-.773.635-1.104.522-.33 1.083-.372 1.254-.094"/>
  <path fill="#BAE8E5" d="M85.778 266.502c0 .796-.638 1.441-1.422 1.441a1.432 1.432 0 0 1-1.423-1.441c0-.801.638-1.448 1.423-1.448.784 0 1.422.647 1.422 1.448Z"/>
  <path fill="#DBF2E6" d="M84.977 265.529c.174.28-.111.775-.633 1.108-.523.331-1.086.37-1.257.09-.17-.278.113-.774.634-1.104.525-.331 1.087-.372 1.256-.094"/>
  <path fill="#BAE8E5" d="M78.343 274.034c0 .798-.638 1.443-1.421 1.443a1.432 1.432 0 0 1-1.423-1.443c0-.797.637-1.444 1.423-1.444.783 0 1.42.647 1.42 1.444Z"/>
  <path fill="#DBF2E6" d="M77.547 273.065c.17.28-.114.776-.633 1.106-.524.328-1.086.372-1.26.092-.17-.28.115-.776.637-1.106.52-.331 1.082-.372 1.256-.092Z"/>
  <path fill="#BAE8E5" d="M87.464 274.646c-.078.494-.774.792-1.546.663-.774-.126-1.338-.631-1.263-1.124.08-.496.774-.794 1.55-.666.772.127 1.339.634 1.259 1.127Z"/>
  <path fill="#DBF2E6" d="M86.77 273.914c.144.202-.185.464-.731.583-.552.119-1.112.055-1.252-.147-.143-.202.185-.463.735-.583.548-.119 1.105-.055 1.248.147"/>
  <path fill="#BAE8E5" d="M88.479 273.568c0 .5-.638.906-1.423.906-.784 0-1.421-.406-1.421-.906 0-.503.637-.909 1.421-.909.785 0 1.423.406 1.423.909Z"/>
  <path fill="#DBF2E6" d="M87.676 272.957c.174.177-.11.487-.632.696-.522.208-1.086.231-1.256.057-.17-.177.112-.487.633-.693.524-.209 1.086-.236 1.255-.06Z"/>
  <path fill="#BAE8E5" d="M90.475 274.033c0 .503-.638.907-1.423.907-.784 0-1.42-.404-1.42-.907 0-.5.636-.906 1.42-.906.785 0 1.423.406 1.423.906Z"/>
  <path fill="#DBF2E6" d="M89.675 273.425c.173.177-.11.487-.634.696-.523.206-1.085.234-1.254.057-.172-.177.11-.486.632-.695.523-.209 1.086-.232 1.256-.058Z"/>
  <path fill="#BAE8E5" d="M91.16 272.659c0 .502-.635.909-1.423.909-.783 0-1.417-.407-1.417-.909 0-.5.634-.909 1.417-.909.788 0 1.422.409 1.422.909Z"/>
  <path fill="#DBF2E6" d="M90.363 272.048c.17.177-.11.489-.635.698-.521.207-1.085.234-1.253.057-.174-.176.11-.486.634-.695.52-.209 1.085-.234 1.254-.06"/>
  <path fill="#BAE8E5" d="M93.665 272.494c0 .5-.636.906-1.42.906-.785 0-1.418-.406-1.418-.906 0-.503.633-.909 1.418-.909.784 0 1.42.406 1.42.909Z"/>
  <path fill="#DBF2E6" d="M92.87 271.883c.17.177-.115.489-.633.696-.522.208-1.085.234-1.256.057-.173-.174.11-.487.634-.695.52-.207 1.085-.232 1.255-.058Z"/>
  <path fill="#BAE8E5" d="M84.779 271.339c0 .501-.639.907-1.422.907-.784 0-1.422-.406-1.422-.907 0-.502.638-.908 1.422-.908.783 0 1.422.406 1.422.908Z"/>
  <path fill="#DBF2E6" d="M83.983 270.729c.17.177-.115.486-.635.695-.521.207-1.085.234-1.26.058-.17-.175.116-.487.64-.696.52-.206 1.08-.232 1.255-.057Z"/>
  <path fill="#BAE8E5" d="M78.022 270.552c0 .503-.636.907-1.423.907-.783 0-1.422-.404-1.422-.907 0-.502.639-.909 1.422-.909.787 0 1.423.407 1.423.909Z"/>
  <path fill="#DBF2E6" d="M77.225 269.942c.17.176-.114.489-.637.693-.52.209-1.08.236-1.255.06-.171-.175.116-.487.633-.694.524-.208 1.086-.234 1.26-.059Z"/>
  <path fill="#BAE8E5" d="M82.362 261.371c0 .796-.638 1.443-1.421 1.443a1.433 1.433 0 0 1-1.422-1.443c0-.799.637-1.446 1.421-1.446s1.422.647 1.422 1.446Z"/>
  <path fill="#DBF2E6" d="M81.568 260.4c.169.277-.115.775-.638 1.106-.52.33-1.082.372-1.257.092-.17-.28.116-.776.638-1.106.518-.331 1.082-.372 1.257-.092Z"/>
  <path fill="#BAE8E5" d="M87.802 259.925c0 .798-.634 1.445-1.419 1.445a1.432 1.432 0 0 1-1.422-1.445 1.43 1.43 0 0 1 1.422-1.444 1.43 1.43 0 0 1 1.419 1.444Z"/>
  <path fill="#DBF2E6" d="M87.005 258.956c.17.278-.11.774-.635 1.106-.522.331-1.084.37-1.255.092-.169-.28.11-.775.634-1.106.523-.33 1.087-.372 1.257-.092Z"/>
  <path fill="#BAE8E5" d="M69.323 269.793c0 .573-.455 1.037-1.02 1.037a1.03 1.03 0 0 1-1.023-1.037c0-.574.46-1.038 1.022-1.038.566 0 1.021.464 1.021 1.038Z"/>
  <path fill="#DBF2E6" d="M68.755 269.095c.122.202-.084.558-.46.796-.372.237-.781.269-.902.065-.123-.198.08-.556.457-.792.374-.239.778-.271.905-.069Z"/>
  <path fill="#BAE8E5" d="M72.552 264.01c0 .798-.637 1.445-1.422 1.445-.784 0-1.418-.647-1.418-1.445a1.43 1.43 0 0 1 1.418-1.444c.785 0 1.422.647 1.422 1.444Z"/>
  <path fill="#DBF2E6" d="M71.757 263.041c.17.278-.116.776-.633 1.104-.523.333-1.085.374-1.26.094-.171-.28.114-.776.638-1.106.518-.331 1.08-.372 1.255-.092"/>
  <path fill="#BAE8E5" d="M76.922 261.74c0 .796-.634 1.443-1.42 1.443a1.432 1.432 0 0 1-1.42-1.443 1.43 1.43 0 0 1 1.42-1.443c.786 0 1.42.647 1.42 1.443Z"/>
  <path fill="#DBF2E6" d="M76.125 260.772c.17.277-.111.773-.634 1.103-.523.331-1.087.372-1.256.094-.174-.28.112-.775.635-1.108.522-.33 1.086-.372 1.255-.089"/>
  <path fill="#BAE8E5" d="M90.795 268.358c0 .797-.637 1.444-1.423 1.444a1.434 1.434 0 0 1-1.42-1.444c0-.798.637-1.443 1.42-1.443.786 0 1.423.645 1.423 1.443Z"/>
  <path fill="#DBF2E6" d="M89.996 267.388c.173.28-.112.775-.634 1.106-.52.33-1.085.371-1.257.092-.17-.28.111-.774.634-1.107.523-.328 1.086-.371 1.257-.091Z"/>
  <path fill="#BAE8E5" d="M92.216 262.155a1.43 1.43 0 0 1-1.42 1.442 1.433 1.433 0 0 1-1.423-1.442c0-.798.638-1.445 1.423-1.445.784 0 1.42.647 1.42 1.445Z"/>
  <path fill="#DBF2E6" d="M91.418 261.185c.174.28-.111.775-.635 1.106-.521.33-1.085.372-1.255.092-.17-.28.111-.776.633-1.107.523-.33 1.085-.374 1.257-.091Z"/>
  <path fill="#BAE8E5" d="M83.358 257.038a1.43 1.43 0 0 1-1.422 1.443c-.783 0-1.417-.647-1.417-1.443 0-.799.634-1.446 1.417-1.446.789 0 1.422.647 1.422 1.446Z"/>
  <path fill="#DBF2E6" d="M82.56 256.067c.172.28-.11.776-.633 1.106-.523.333-1.084.372-1.256.092-.174-.28.11-.776.635-1.106.523-.328 1.085-.372 1.255-.092Z"/>
  <path fill="#BAE8E5" d="M93.989 268.962c0 .798-.64 1.446-1.423 1.446-.787 0-1.418-.648-1.418-1.446a1.43 1.43 0 0 1 1.418-1.444c.783 0 1.423.648 1.423 1.444Z"/>
  <path fill="#DBF2E6" d="M93.192 267.993c.168.28-.113.774-.636 1.104-.523.333-1.084.374-1.253.094-.175-.28.11-.775.632-1.106.523-.33 1.086-.372 1.257-.092"/>
  <path fill="#BAE8E5" d="M90.475 271.245c0 .799-.638 1.446-1.423 1.446a1.434 1.434 0 0 1-1.42-1.446c0-.796.636-1.443 1.42-1.443.785 0 1.423.647 1.423 1.443Z"/>
  <path fill="#DBF2E6" d="M89.675 270.277c.173.28-.11.773-.634 1.104-.523.332-1.085.374-1.254.094-.172-.28.11-.774.632-1.106.523-.331 1.086-.372 1.256-.092"/>
</svg>
