<svg xmlns="http://www.w3.org/2000/svg" width="639" height="695" fill="none" viewBox="0 0 639 695">
  <path fill="#797979" fill-opacity=".6" d="m368.051 694.968-99.345-.027-14.176-34.85c-25.171-3.628-49.608-9.424-72.467-17.385l-52.394 18.927L59.22 620.96l16.93-15.837.973.561-13.599 12.721 70.449 40.673 52.396-18.927c22.858 7.961 47.294 13.756 72.467 17.383l14.174 34.852 99.347.027-4.306 2.555Zm138.663-33.308-52.56-18.954c-21.714 7.592-44.884 13.212-68.822 16.841l.805-2.04c25.179-3.602 49.551-9.397 72.321-17.359l52.56 18.955 65.697-38.177.037.032-70.038 40.702ZM82.071 580.483c-8.965-10.235-15.82-20.916-20.546-31.826l-60.261-8.124-.372-57.542 4.318-.581.359 55.568 60.26 8.124c4.603 10.62 11.222 21.025 19.842 31.013l-3.6 3.368Zm494.908-32.311c.313-.698.616-1.399.911-2.099l60.216-8.099-4.304 2.558-56.823 7.64Zm-495.2-123.61-23.788-21.971 4.342-2.525 22.5 20.784a144.831 144.831 0 0 0-3.053 3.712Z"/>
  <path fill="#F3647C" d="m579.78 400.005-70.449-40.673-52.394 18.927c-22.859-7.961-47.296-13.757-72.421-17.358l-14.222-34.877-99.345-.027-13.782 34.906c-25.179 3.601-49.503 9.424-72.273 17.385l-52.562-18.954-70.037 40.7 32.897 30.384c-13.67 13.214-23.643 27.323-29.778 41.917l-60.217 8.099.372 57.544 60.26 8.124c6.3 14.54 16.385 28.678 30.204 41.892l-32.509 30.411 70.449 40.673 52.396-18.927c22.858 7.961 47.294 13.756 72.467 17.383l14.174 34.852 99.347.027 13.78-34.906c25.179-3.601 49.551-9.397 72.321-17.359l52.56 18.955 70.037-40.7-32.894-30.384c13.67-13.214 23.594-27.35 29.729-41.946l60.216-8.098-.368-57.543-60.216-8.099c-6.346-14.567-16.431-28.705-30.249-41.917l32.507-30.411Z"/>
  <path fill="#F25366" d="M579.78 400.005v-20.572l-32.507 30.411v20.572l32.507-30.411ZM62.295 379.462v20.572l32.897 30.383v-20.571l-32.897-30.384Z"/>
  <path fill="#F57590" d="m579.78 379.432-70.449-40.674-52.394 18.929c-22.859-7.961-47.296-13.757-72.421-17.358l-14.222-34.877-99.345-.027-13.782 34.904c-25.179 3.603-49.503 9.426-72.273 17.387l-52.562-18.956-70.037 40.701 32.897 30.384c-13.67 13.215-23.643 27.323-29.778 41.918l-60.217 8.1.372 57.543 60.26 8.123c6.3 14.543 16.385 28.676 30.204 41.893l-32.509 30.411 70.449 40.673 52.396-18.928c22.858 7.962 47.294 13.755 72.467 17.384l14.174 34.852 99.347.027 13.78-34.906c25.179-3.603 49.551-9.395 72.321-17.359l52.56 18.957 70.037-40.702-32.894-30.384c13.67-13.215 23.594-27.35 29.729-41.948l60.216-8.097-.368-57.543-60.216-8.098c-6.346-14.57-16.431-28.705-30.249-41.918l32.507-30.411Z"/>
  <path fill="#F25366" d="M133.973 659.078v-20.572l52.396-18.927v20.572l-52.396 18.927Zm139.037 12.736v20.572l-14.174-34.85v-20.574l14.174 34.852Zm99.347 20.599v-20.572l13.78-34.906v20.572l-13.78 34.906Zm138.661-33.31v-20.57l-52.56-18.956v20.571l52.56 18.955Zm66.872-113.03v-20.574l60.216-8.096v20.571l-60.216 8.099Zm-512.061.029V525.53l-60.26-8.124v20.572l60.26 8.124Z"/>
  <path fill="#F3647C" d="M63.524 597.833v20.572l70.449 40.673v-20.572l-70.449-40.673Zm517.531 20.57v-20.572l-70.037 40.702v20.57l70.037-40.7Z"/>
  <path fill="#fff" d="m495.431 385.869.482-.836c-47.966-27.689-110.515-41.713-173.065-41.717-63.197.004-126.401 13.738-174.56 41.719-47.693 27.707-71.711 64.142-71.715 100.775.004 36.942 24.441 73.753 72.848 101.694 47.966 27.688 110.517 41.711 173.065 41.715 63.199-.004 126.401-13.738 174.56-41.719 47.691-27.705 71.713-64.14 71.715-100.771-.004-36.944-24.439-73.757-72.848-101.696l-.482.836-.483.836c48.044 27.745 71.887 63.987 71.883 100.024.002 35.732-23.43 71.591-70.754 99.101-47.757 27.76-110.671 41.463-173.591 41.459-62.262.002-124.522-13.985-172.1-41.457-48.04-27.745-71.885-63.987-71.883-100.022-.002-35.734 23.43-71.593 70.755-99.105 47.758-27.76 110.671-41.463 173.59-41.459 62.262-.002 124.524 13.985 172.1 41.459l.483-.836Z"/>
  <path fill="#F46D82" d="M502.39 440.422c-1.953 0-3.91-.432-5.406-1.295l-59.407-34.298 4.152-2.412 47.072 27.176c3.1 1.789 6.032 2.637 8.629 2.638 2.112 0 4.001-.559 5.584-1.627l5.832-3.364.004-.001.033-.016-.004-.004c2.301-1.322 4.024-3.642 4.931-6.824l7.732 4.462c2.986 1.725 3.003 4.526.04 6.247l-13.813 8.027c-1.48.861-3.427 1.291-5.379 1.291Z"/>
  <path fill="#0F1724" d="M496.24 68.143 383.933 3.303C378.46.142 373.521-.064 370.004 2.13l-5.859 3.38 2.368.432c-1.187 2.185-1.876 4.981-1.886 8.36l-.888 313.498c-.036 12.209 8.554 27.086 19.179 33.221l112.308 64.84c3.029 1.751 5.887 2.569 8.44 2.61l-.658 2.134 5.838-3.365.004-.002.033-.016-.004-.004c3.476-1.997 5.634-6.27 5.653-12.358l.888-313.497c.78-15.346-8.556-27.088-19.18-33.221Z"/>
  <path fill="#233146" d="M489.815 71.872 377.508 7.032c-10.626-6.134-19.273-1.207-19.306 11l-.889 313.498c-.035 12.211 8.553 27.087 19.18 33.221l112.309 64.842c10.624 6.134 19.269 1.206 19.303-11.003l.89-313.497c.778-15.344-8.556-27.086-19.18-33.221Z"/>
  <path fill="#0F1724" d="M489.06 75.073 378.23 11.084c-9.289-5.361-16.865-1.046-16.894 9.627l-.884 311.767c-.03 10.671 7.497 23.706 16.782 29.067l110.834 63.989c9.285 5.362 16.872 1.05 16.903-9.621l.884-311.766c0-13.03-7.508-23.712-16.795-29.074Z"/>
  <path fill="#496BBD" d="m488.801 78.594-14.004-8.085c-.857-.496-1.561-.143-1.679.776-.76 5.832-5.448 7.965-11.095 4.703l-56.839-32.816c-5.647-3.26-10.308-10.79-11.032-17.48-.113-1.051-.801-2.207-1.671-2.707-2.675-1.546-8.407-4.854-14-8.085-7.877-4.547-14.276-.9-14.303 8.148l-.879 310.373c-.025 9.038 6.335 20.063 14.209 24.61l110.319 63.694c7.876 4.545 14.274.887 14.301-8.151l.88-310.373c.025-9.048-6.332-20.062-14.207-24.607Z"/>
  <path fill="#F03E53" d="m440.607 238.442-37.754-21.795c-1.473-.852-2.679-.176-2.685 1.518-.004 1.695 1.195 3.772 2.669 4.623l37.753 21.797c1.474.851 2.681.162 2.686-1.532.006-1.695-1.194-3.758-2.669-4.611Zm19.42 11.214-9.903-5.717c-1.474-.851-2.671-.17-2.675 1.525-.006 1.694 1.183 3.763 2.658 4.614l9.905 5.719c1.472.851 2.669.158 2.673-1.536.005-1.695-1.183-3.754-2.658-4.605Z"/>
  <path fill="#F57590" d="m454.374 262.411-46.005-26.559c-.847-.49-1.529-.102-1.533.872-.002.962.676 2.135 1.523 2.625l46.004 26.559c.835.484 1.519.095 1.522-.867.002-.972-.677-2.146-1.511-2.63Zm-.04 13.857-8.471-4.892c-.838-.483-1.517-.093-1.521.88-.002.961.674 2.135 1.511 2.617l8.471 4.893c.836.482 1.517.092 1.523-.869.002-.973-.676-2.146-1.513-2.629Zm-14.809-8.55-31.197-18.011c-.845-.488-1.528-.1-1.53.873-.004.961.675 2.134 1.522 2.625l31.197 18.008c.845.491 1.528.103 1.53-.859.002-.974-.675-2.148-1.522-2.636Zm18.52 3.76-33.958-19.607c-.834-.481-1.517-.093-1.521.868-.002.961.675 2.135 1.511 2.617l33.958 19.605c.848.491 1.529.101 1.531-.86.004-.962-.674-2.135-1.521-2.623Zm-40.211-23.216-13.188-7.614c-.834-.482-1.517-.094-1.521.867-.002.961.676 2.134 1.511 2.619l13.188 7.614c.837.482 1.519.092 1.521-.869.004-.961-.674-2.135-1.511-2.617Z"/>
  <path fill="#C6D4EF" d="M433.339 102.923a14.45 14.45 0 0 0-1.158-.594c-2.804-1.307-5.684-2.33-8.185-2.222-2.15.097-4.047 1.081-4.985 3.164-.506 1.117-.751 2.516-.651 4.091.02.191.029.39.06.612a3.83 3.83 0 0 0-.587-.419c-.812-.469-1.661-.534-2.344-.311-1.562.543-2.093 2.596-2.359 4.621-.309 2.409-.264 5.024-.033 7.745.124 1.359.317 2.735.554 4.136.093.571.197 1.135.301 1.712-1.748-.672-3.149 2.156-1.692 5.861 1.333 3.405 2.489 7.118 4.004 7.992l.236.112c.197.068.386.091.554.068a45.206 45.206 0 0 0 5.581 12.153l-.027 8.737-22.469-.009c-2.271.071-3.806 1.762-4.109 4.525l-1.914 17.863s13.461 14.669 38.571 29.166c22.127 12.776 38.619 15.399 38.619 15.399l-1.818-20.043c-.274-3.084-1.783-6.517-4.028-9.21l-22.156-25.731.025-8.748c2.434-.882 4.389-2.824 5.641-5.674.168.218.357.409.554.573l.236.16c1.515.874 2.686-1.498 4.037-3.352 1.451-1.977.133-6.314-1.569-7.73.195-3.005.122-6.178-.1-9.411-.222-3.184-.367-7.48-2.577-10.889a7.037 7.037 0 0 0-.367-.498c.336-.301.568-.731.655-1.357.278-1.933-1.004-4.286-2.687-5.788a13.36 13.36 0 0 0-2.169-1.555l-.517-.286a3.98 3.98 0 0 0 .127-1.032c-.023-2.193-1.411-4.81-3.154-6.456a11.007 11.007 0 0 0-2.04-1.54 8.174 8.174 0 0 0-1.872-.801l-.083-.423c-.239-.799-.832-1.671-1.366-2.316a9.811 9.811 0 0 0-2.739-2.295Z"/>
  <path fill="#F03E53" d="M456.526 301.677c-9.69-5.597-17.578-1.102-17.611 10.044-.031 11.138 7.805 24.709 17.497 30.304 9.7 5.601 17.581 1.103 17.611-10.036.033-11.145-7.797-24.711-17.497-30.312Z"/>
  <path fill="#fff" d="M456.485 316.576c-5.348-3.086-7.922-2.814-9.381-2.273-1.465.53-2.139 2.534-1.882 3.836.152.765.619 1.84.982 2.606.197.411.5.751.815.932l.338.129 3.568.674c.421.079.708-.212.708-.718l.008-2.218c0-.442.205-.743.554-.735 1.573.041 4.279 1.565 4.279 1.565s2.712 1.602 4.275 3.374c.345.392.556.934.554 1.374l-.006 2.22c-.002.503.274 1.121.695 1.526l3.568 3.449.334.257c.313.179.616.193.811.006.368-.344.841-.875.998-1.461.27-1-.4-3.779-1.849-5.991-1.457-2.223-4.015-5.46-9.369-8.552Z"/>
  <path fill="#81A1DA" d="M407.597 273.348c-9.702-5.599-17.588-1.104-17.619 10.042-.033 11.138 7.803 24.708 17.503 30.309 9.692 5.597 17.578 1.102 17.611-10.038.033-11.144-7.805-24.716-17.495-30.313Z"/>
  <path fill="#fff" d="m402.293 280.024-.139-.07c-.6-.252-1.424-.542-1.951-.492-.899.087-1.903 1.745-1.723 4.007.181 2.264.907 6.016 4.676 12.547 3.769 6.535 6.664 9.048 8.54 10.343l.463.293c1.722.996 3.407.925 3.885.253.313-.419.477-1.278.558-1.922.066-.463-.168-1.089-.563-1.546l-3.37-3.868-.456-.384c-.268-.154-.532-.187-.733-.073l-1.372.781c-.193.11-.46.087-.73-.067l-.305-.238c-1.644-1.611-3.574-4.908-3.574-4.908s-1.884-3.315-2.461-5.535c-.127-.496-.009-.89.265-1.046l1.366-.785c.317-.174.392-.686.201-1.251l-1.66-4.842c-.176-.51-.529-.973-.917-1.197Z"/>
  <path fill="#233146" d="m442.518 55.204-19.609-11.321c-.553-.32-.995-.068-.997.569 0 .625.438 1.384.992 1.702l19.608 11.322c.545.312.994.067.996-.556.002-.637-.446-1.401-.99-1.716Zm7.035 3.472c-1.025-.592-1.853-.12-1.857 1.058-.004 1.164.821 2.592 1.845 3.182 1.014.585 1.853.12 1.857-1.046.004-1.177-.832-2.609-1.845-3.194Z"/>
  <path fill="#0F1724" d="M449.549 59.158c-.793-.459-1.434-.094-1.436.819-.004.901.633 2.003 1.427 2.463.783.451 1.424.086 1.426-.815.004-.913-.633-2.015-1.417-2.467Z"/>
  <path fill="#233146" d="M449.545 60.42c-.187-.11-.334-.024-.336.192 0 .204.145.457.334.565.18.103.327.02.327-.185a.717.717 0 0 0-.325-.571Z"/>
  <path fill="#5979C5" d="m363.77 167.349.201-70.7.127-45.4 30.463-23.187c1.417 6.02 5.634 12.23 10.623 15.11l56.839 32.816c1.797 1.039 3.497 1.529 5.004 1.529 3.229 0 5.572-2.256 6.091-6.232.081-.635.444-1.002.944-1.002.222 0 .471.073.735.226l9.216 5.321-43.88 33.397a9.684 9.684 0 0 0-.734-.469 8.174 8.174 0 0 0-1.872-.801l-.083-.423c-.239-.799-.832-1.671-1.366-2.316a9.811 9.811 0 0 0-2.739-2.295 14.787 14.787 0 0 0-1.158-.594c-2.669-1.243-5.406-2.229-7.82-2.229-.124 0-.245.002-.365.007-2.15.097-4.047 1.081-4.985 3.164-.506 1.117-.751 2.516-.651 4.091.02.191.029.39.06.612a3.83 3.83 0 0 0-.587-.419 3.101 3.101 0 0 0-1.547-.434c-.282 0-.55.043-.797.124-1.562.542-2.093 2.595-2.359 4.62-.309 2.409-.264 5.024-.033 7.745.124 1.359.317 2.735.554 4.136.093.571.197 1.135.301 1.712a1.44 1.44 0 0 0-.511-.098c-1.384 0-2.351 2.267-1.425 5.267l-48.246 36.722Z"/>
  <path fill="#CBD8F1" d="M412.016 130.626c-.926-2.999.041-5.267 1.425-5.267.166 0 .335.033.511.099-.104-.577-.208-1.141-.301-1.712a54.555 54.555 0 0 1-.554-4.136c-.232-2.721-.276-5.336.033-7.745.266-2.025.797-4.078 2.358-4.62a2.53 2.53 0 0 1 .797-.124c.496 0 1.029.135 1.548.434.199.116.396.253.587.419-.031-.222-.04-.421-.06-.612-.1-1.575.145-2.974.651-4.091.938-2.083 2.835-3.067 4.985-3.164a8.72 8.72 0 0 1 .365-.007c2.414 0 5.151.986 7.82 2.229.382.175.77.372 1.158.594a9.825 9.825 0 0 1 2.739 2.295c.534.645 1.127 1.517 1.366 2.316l.083.423a8.174 8.174 0 0 1 1.872.801c.245.141.488.297.734.469l-28.117 21.399Z"/>
  <path fill="#242C3A" d="m363.546 245.919.072-25.111-.07 25.109-.002.002Zm139.358-106.067.017-6.24-.017 6.238"/>
  <path fill="#5979C5" d="m363.548 245.917.07-25.109 39.237-29.863c4.091 3.51 9.59 7.878 16.428 12.553l-16.957 12.904a2.056 2.056 0 0 0-.676-.122c-.843 0-1.436.641-1.48 1.764l-36.624 27.875m86.455-65.801-6.697-7.776.025-8.749c2.433-.882 4.389-2.824 5.641-5.674.168.218.357.409.554.573l.235.16c.224.127.441.187.649.187 1.216 0 2.237-1.957 3.389-3.539.637-.867.741-2.189.513-3.519l48.663-37.04-.052 18.871-.017 6.24-52.903 40.266Z"/>
  <path fill="#F1475F" d="M400.17 218.044c.044-1.123.637-1.764 1.48-1.764.211 0 .438.039.676.122l-2.156 1.642Z"/>
  <path fill="#CBD8F1" d="M419.283 203.498c-6.838-4.675-12.337-9.042-16.428-12.553l51.455-39.164c.228 1.33.124 2.652-.513 3.519-1.152 1.582-2.173 3.539-3.389 3.539-.208 0-.425-.06-.648-.187l-.236-.16a3.637 3.637 0 0 1-.554-.573c-1.252 2.85-3.207 4.792-5.641 5.674l-.025 8.749 6.697 7.776-30.718 23.38Z"/>
  <path fill="#242C3A" d="m363.338 319.921.064-22.734-.064 22.734Z"/>
  <path fill="#5979C5" d="m432.943 360.107-69.605-40.186.064-22.733 28.347-21.576c-1.127 2.009-1.764 4.628-1.771 7.778-.033 11.138 7.803 24.708 17.503 30.309 2.827 1.632 5.504 2.406 7.874 2.406 5.754 0 9.714-4.554 9.737-12.444.033-11.144-7.805-24.716-17.495-30.313-2.834-1.633-5.51-2.409-7.882-2.409-.738 0-1.446.076-2.12.222l18.044-13.731 23.878 13.784c.247.144.482.212.689.212.498 0 .84-.394.841-1.071.002-.975-.675-2.148-1.522-2.637l-21.271-12.28 4.499-3.424c-.118.179-.185.425-.187.726-.002.961.675 2.134 1.511 2.617l33.958 19.605c.249.144.483.212.691.212.498 0 .84-.394.84-1.073.004-.961-.674-2.135-1.521-2.623l-33.958-19.607c-.244-.139-.473-.206-.678-.206a.825.825 0 0 0-.243.034l2.841-2.161 28.356 16.37c.243.141.474.208.679.208.498 0 .841-.393.843-1.075.002-.972-.677-2.146-1.511-2.63l-25.75-14.865 7.375-5.612 4.591 2.651c.43.247.836.365 1.197.365.878 0 1.486-.695 1.49-1.897.005-1.695-1.195-3.758-2.67-4.611l-.013-.008 18.806-14.312c7.425 2.491 11.906 3.203 11.906 3.203l-1.04-11.473 32.491-24.732-.328 116.1-28.577 21.751c-1.201-10.472-8.487-22.191-17.326-27.294-2.827-1.633-5.502-2.407-7.872-2.407-5.754 0-9.716 4.557-9.739 12.45-.031 11.138 7.805 24.71 17.497 30.305l.164.095-23.633 17.987Zm12.24-88.938c-.496 0-.839.396-.841 1.087-.002.961.673 2.134 1.511 2.617l8.471 4.892c.245.141.475.207.679.207.496 0 .84-.394.844-1.075.002-.973-.676-2.146-1.513-2.629l-8.471-4.892c-.245-.139-.475-.207-.68-.207Zm3.743-27.597c-.875 0-1.475.691-1.477 1.892-.006 1.694 1.183 3.763 2.658 4.614l9.905 5.719c.426.247.831.364 1.19.364.879 0 1.481-.698 1.483-1.901.005-1.694-1.183-3.753-2.658-4.605l-9.903-5.716c-.43-.249-.837-.367-1.198-.367Z"/>
  <path fill="#F1475F" d="M441.787 244.95c-.361 0-.767-.118-1.197-.365l-4.591-2.651 4.595-3.499.013.007c1.475.853 2.675 2.916 2.67 4.611-.004 1.202-.612 1.897-1.49 1.897Zm19.415 11.212c-.359 0-.764-.118-1.19-.365l-9.905-5.719c-1.475-.851-2.664-2.92-2.658-4.614.002-1.201.602-1.892 1.477-1.892.361 0 .768.118 1.198.367l9.903 5.717c1.475.851 2.663 2.91 2.658 4.605-.002 1.202-.604 1.901-1.483 1.901Z"/>
  <path fill="#F6809B" d="M455.042 266.116c-.205 0-.436-.067-.68-.208l-28.355-16.37 2.617-1.992 25.75 14.865c.834.484 1.513 1.657 1.511 2.63-.002.681-.345 1.075-.843 1.075Zm-.039 13.856c-.204 0-.434-.066-.679-.207l-8.471-4.892c-.837-.483-1.513-1.656-1.511-2.617.002-.691.345-1.087.841-1.087.205 0 .435.067.68.206l8.471 4.893c.837.483 1.515 1.656 1.513 2.629-.004.681-.348 1.075-.844 1.075Zm-14.797-8.546c-.207 0-.442-.068-.689-.212l-23.878-13.785 2.615-1.991 21.271 12.28c.847.489 1.524 1.662 1.522 2.637-.002.677-.343 1.071-.841 1.071Zm18.52 3.748c-.208 0-.442-.068-.691-.212l-33.958-19.605c-.836-.483-1.513-1.656-1.511-2.617.002-.302.069-.547.187-.726l.413-.315a.825.825 0 0 1 .243-.034c.205 0 .435.067.678.206l33.958 19.607c.847.488 1.525 1.662 1.521 2.623 0 .679-.342 1.073-.84 1.073Z"/>
  <path fill="#CBD8F1" d="M471.306 227.325s-4.481-.712-11.906-3.204l10.866-8.27 1.04 11.474Z"/>
  <path fill="#F1475F" d="M456.576 342.12a16.443 16.443 0 0 1-.164-.095c-9.692-5.595-17.528-19.167-17.497-30.305.023-7.894 3.985-12.45 9.739-12.45 2.37 0 5.045.774 7.872 2.406 8.84 5.103 16.125 16.822 17.326 27.295l-17.276 13.149Zm-4.396-23.311h.015c1.573.041 4.279 1.565 4.279 1.565s2.712 1.602 4.275 3.374c.345.392.556.934.554 1.374l-.006 2.22c-.002.503.274 1.121.695 1.526l3.568 3.449.334.257a.95.95 0 0 0 .46.141.498.498 0 0 0 .351-.135c.369-.344.841-.875.998-1.461.27-1-.4-3.779-1.849-5.991-1.457-2.223-4.015-5.46-9.368-8.552-3.528-2.036-5.848-2.609-7.439-2.609-.82 0-1.445.152-1.943.336-1.465.53-2.139 2.534-1.882 3.836.153.765.62 1.84.982 2.606.197.411.5.751.815.932l.338.129 3.568.674a.791.791 0 0 0 .133.012c.348 0 .576-.28.576-.73l.007-2.218c0-.436.199-.735.539-.735Z"/>
  <path fill="#fff" d="M466.354 332.715a.937.937 0 0 1-.46-.141l-.334-.257-3.568-3.449c-.421-.405-.697-1.023-.695-1.526l.006-2.22c.002-.44-.209-.982-.554-1.374-1.563-1.772-4.275-3.374-4.275-3.374s-2.706-1.524-4.279-1.565h-.015c-.34 0-.539.299-.539.736l-.008 2.217c0 .45-.227.73-.575.73a.782.782 0 0 1-.133-.012l-3.568-.674-.338-.129c-.315-.181-.618-.521-.815-.932-.363-.766-.83-1.841-.982-2.606-.257-1.302.417-3.306 1.882-3.836a5.468 5.468 0 0 1 1.943-.336c1.591 0 3.91.573 7.438 2.609 5.354 3.092 7.912 6.329 9.369 8.552 1.449 2.212 2.119 4.991 1.849 5.991-.157.586-.63 1.117-.998 1.461a.498.498 0 0 1-.351.135Z"/>
  <path fill="#8CABDF" d="M415.355 316.105c-2.37 0-5.047-.773-7.874-2.406-9.7-5.601-17.536-19.171-17.503-30.309.007-3.15.644-5.769 1.771-7.778l5.846-4.45a9.934 9.934 0 0 1 2.12-.222c2.371 0 5.048.775 7.882 2.408 9.69 5.597 17.528 19.169 17.495 30.313-.023 7.89-3.983 12.444-9.737 12.444Zm-15.023-36.648a1.33 1.33 0 0 0-.129.006c-.9.086-1.903 1.744-1.724 4.006.182 2.264.907 6.016 4.677 12.547 3.769 6.535 6.664 9.048 8.54 10.343l.463.293c.907.525 1.807.753 2.523.753.64 0 1.136-.181 1.362-.5.313-.419.477-1.277.558-1.922.066-.463-.168-1.089-.564-1.546l-3.369-3.868-.456-.384a.952.952 0 0 0-.465-.141.522.522 0 0 0-.268.068l-1.372.781a.541.541 0 0 1-.274.068.926.926 0 0 1-.456-.135l-.305-.237c-1.644-1.612-3.574-4.908-3.574-4.908s-1.884-3.316-2.461-5.536c-.127-.496-.01-.889.264-1.046l1.367-.785c.316-.174.392-.685.201-1.251l-1.66-4.842c-.176-.51-.529-.973-.917-1.197l-.139-.069c-.554-.234-1.295-.498-1.822-.498Z"/>
  <path fill="#fff" d="M414.682 307.405c-.716 0-1.616-.228-2.523-.753l-.463-.293c-1.876-1.295-4.771-3.808-8.54-10.343-3.769-6.531-4.495-10.283-4.676-12.547-.18-2.262.824-3.92 1.723-4.007.041-.004.085-.006.129-.006.527 0 1.268.265 1.822.498l.139.07c.388.224.741.687.917 1.196l1.66 4.843c.191.565.116 1.077-.201 1.251l-1.366.785c-.274.156-.392.55-.265 1.046.577 2.22 2.461 5.535 2.461 5.535s1.93 3.297 3.574 4.908l.305.238c.158.09.315.135.456.135.1 0 .193-.021.274-.068l1.372-.781a.522.522 0 0 1 .268-.068c.145 0 .305.048.465.141l.456.384 3.37 3.868c.395.457.629 1.082.563 1.546-.081.644-.245 1.503-.558 1.922-.225.318-.721.5-1.362.5Z"/>
  <path fill="#242C3A" d="m469.156 410.945-10.823-6.249 10.823 6.249Zm33.051-25.155.023-8.579-.023 8.579Z"/>
  <path fill="#5979C5" d="m469.156 410.945-10.823-6.249-7.896-4.561 51.84-39.457-.046 16.533-.024 8.579-33.051 25.155Z"/>
  <path fill="#81A1DA" d="m547.749 255.147-17.414-10.052c-.585-.338-1.058-.058-1.06.616-.002.671.469 1.484 1.054 1.822l17.413 10.053c.584.34 1.067.077 1.069-.596.002-.674-.477-1.504-1.062-1.843Zm7.294 9.724-24.723-14.274c-.585-.338-1.056-.067-1.058.604-.002.674.467 1.498 1.05 1.838l24.723 14.272c.587.338 1.06.056 1.062-.616.002-.673-.467-1.486-1.054-1.824Zm16.146 9.322-10.572-6.104c-.585-.338-1.067-.076-1.069.598-.002.673.476 1.503 1.063 1.843l10.571 6.103c.586.337 1.069.063 1.071-.61.002-.672-.477-1.492-1.064-1.83Zm-32.069-13.002-8.814-5.09c-.587-.337-1.057-.069-1.059.605-.002.673.465 1.484 1.051 1.823l8.817 5.09c.584.338 1.057.069 1.059-.604.002-.674-.467-1.486-1.054-1.824Zm22.203 12.819-17.59-10.155c-.585-.338-1.069-.076-1.071.598-.002.671.479 1.492 1.065 1.829l17.588 10.156c.587.338 1.06.07 1.062-.604.002-.674-.467-1.486-1.054-1.824Zm-16.005-3.74-15.027-8.676c-.587-.339-1.06-.058-1.062.614-.002.674.467 1.486 1.054 1.824l15.027 8.677c.587.338 1.057.07 1.059-.604.004-.674-.465-1.498-1.051-1.835Zm9.694 5.597-4.947-2.857c-.586-.337-1.057-.056-1.059.618-.002.672.467 1.484 1.052 1.822l4.946 2.856c.587.338 1.058.07 1.06-.604.002-.671-.467-1.497-1.052-1.835Zm10.399-10.522-13.919-8.037c-.585-.338-1.058-.056-1.06.618-.002.671.467 1.484 1.054 1.823l13.919 8.035c.587.338 1.069.075 1.071-.596.002-.674-.478-1.504-1.065-1.843Z"/>
  <path fill="#496BBD" d="m555.537 249.761-24.463-14.123c-.972-.562-1.77-.106-1.771 1.023-.004 1.117.787 2.489 1.76 3.051l24.462 14.124c.983.567 1.78.112 1.784-1.006.004-1.129-.79-2.501-1.772-3.069Zm15.268 8.817-9.162-5.29c-.982-.568-1.779-.114-1.783 1.017-.004 1.117.788 2.49 1.772 3.057l9.162 5.288c.982.568 1.779.114 1.783-1.003.004-1.129-.789-2.502-1.772-3.069Z"/>
  <path fill="#81A1DA" d="m547.279 295.543-17.415-10.053c-.585-.338-1.057-.056-1.059.616-.002.673.467 1.486 1.053 1.823l17.413 10.054c.585.338 1.067.075 1.069-.598.002-.674-.477-1.504-1.061-1.842Zm7.293 9.725-24.723-14.274c-.585-.338-1.058-.07-1.06.604-.002.672.469 1.496 1.052 1.835l24.723 14.273c.587.339 1.06.058 1.062-.616.002-.673-.467-1.486-1.054-1.822Zm16.146 9.323-10.572-6.105c-.585-.338-1.067-.075-1.069.598-.002.672.476 1.502 1.063 1.841l10.571 6.105c.586.338 1.069.062 1.071-.612.002-.671-.477-1.49-1.064-1.827Zm-32.069-13.003-8.816-5.089c-.585-.34-1.057-.072-1.059.602-.002.673.467 1.486 1.053 1.824l8.817 5.091c.584.336 1.057.068 1.059-.604.002-.674-.467-1.486-1.054-1.824Zm22.203 12.817-17.592-10.156c-.585-.338-1.067-.073-1.069.598-.002.674.479 1.492 1.065 1.83l17.588 10.156c.587.337 1.06.069 1.062-.604.002-.672-.469-1.485-1.054-1.824Zm-16.005-3.74-15.029-8.675c-.585-.338-1.058-.056-1.06.615-.002.674.467 1.486 1.054 1.824l15.027 8.677c.587.336 1.058.068 1.06-.604.002-.673-.467-1.497-1.052-1.837Zm9.692 5.596-4.945-2.854c-.586-.338-1.057-.058-1.059.616-.002.671.467 1.486 1.052 1.823l4.946 2.855c.587.34 1.058.069 1.06-.604.002-.672-.467-1.496-1.054-1.836Zm10.401-10.52-13.919-8.036c-.587-.338-1.058-.058-1.06.615-.002.674.467 1.484 1.054 1.824l13.919 8.037c.585.337 1.069.075 1.071-.599.002-.673-.478-1.503-1.065-1.841Z"/>
  <path fill="#496BBD" d="m555.066 290.157-24.463-14.122c-.972-.562-1.77-.108-1.771 1.023-.004 1.117.787 2.489 1.76 3.049l24.462 14.124c.983.567 1.78.114 1.784-1.004.004-1.131-.792-2.503-1.772-3.07Zm15.268 8.816-9.162-5.29c-.982-.568-1.781-.112-1.783 1.017-.004 1.117.788 2.49 1.772 3.057l9.162 5.29c.982.568 1.779.112 1.783-1.005.004-1.129-.789-2.502-1.772-3.069Z"/>
  <path fill="#F03E53" d="m566.785 198.811-32.607-18.825c-2.05-1.183-3.729-.228-3.735 2.127l-.073 25.814c-.008 2.354 1.659 5.244 3.711 6.427l1.276.737c.772.446 1.397 1.53 1.395 2.418l-.009 3.546c-.002 1.034.528 2.267 1.364 3.157.27.29.564.519.857.689.575.332 1.129.4 1.559.166l5.812-3.181c.262-.137.619-.1.984.112l19.367 11.181c2.052 1.185 3.731.228 3.737-2.127l.073-25.814c.008-2.354-1.661-5.244-3.711-6.427Zm-32.696 12.875c-.776-.447-1.401-1.53-1.398-2.42l.074-25.812c.002-.889.631-1.248 1.405-.801l32.607 18.828c.774.445 1.401 1.528 1.397 2.418l-.073 25.812c-.002.889-.633 1.248-1.407.801l-19.367-11.181c-.983-.569-1.915-.673-2.619-.284l-5.642 3.085.01-3.281c.004-2.357-1.664-5.244-3.712-6.427l-1.275-.738Z"/>
  <path fill="#F03E53" d="M540.487 197.601c-1.685-.97-3.059-.187-3.065 1.747-.006 1.936 1.361 4.3 3.044 5.273 1.682.972 3.047.181 3.053-1.753.006-1.935-1.349-4.294-3.032-5.267Zm9.955 5.75c-1.683-.973-3.059-.189-3.065 1.744-.006 1.936 1.361 4.301 3.044 5.273 1.684.973 3.059.189 3.064-1.746.006-1.934-1.36-4.3-3.043-5.271Zm9.955 5.747c-1.683-.971-3.057-.189-3.063 1.747-.004 1.934 1.361 4.3 3.046 5.271 1.682.972 3.057.189 3.062-1.745.004-1.936-1.36-4.3-3.045-5.273Z"/>
  <path fill="#496BBD" d="m340.711 179.82-32.608-18.825c-2.049-1.183-3.728-.228-3.736 2.129l-.072 25.812c-.007 2.356 1.66 5.244 3.71 6.429l1.276.735c.774.448 1.399 1.53 1.397 2.42l-.01 3.544c-.004 1.034.527 2.267 1.363 3.159.272.29.563.519.857.687.575.332 1.131.4 1.561.168l5.811-3.181c.263-.139.618-.1.985.11l19.367 11.183c2.05 1.183 3.729.226 3.737-2.129l.071-25.812c.008-2.356-1.66-5.244-3.709-6.429Zm-32.698 12.875c-.774-.445-1.4-1.53-1.398-2.418l.074-25.814c.004-.887.633-1.246 1.407-.8l32.607 18.827c.774.445 1.399 1.53 1.397 2.418l-.073 25.814c-.002.887-.631 1.246-1.407.801l-19.368-11.183c-.982-.567-1.914-.671-2.617-.284l-5.645 3.085.01-3.281c.006-2.355-1.662-5.244-3.712-6.427l-1.275-.738Z"/>
  <path fill="#496BBD" d="M314.411 178.612c-1.683-.973-3.058-.189-3.063 1.745-.006 1.936 1.358 4.3 3.043 5.273 1.683.972 3.048.183 3.054-1.751.005-1.936-1.35-4.296-3.034-5.267Zm9.954 5.748c-1.683-.971-3.057-.19-3.061 1.746-.005 1.934 1.359 4.3 3.044 5.271 1.683.973 3.057.189 3.063-1.745.006-1.934-1.359-4.3-3.046-5.272Zm9.959 5.749c-1.685-.972-3.059-.191-3.065 1.745-.005 1.934 1.361 4.3 3.044 5.273 1.683.971 3.059.187 3.065-1.747.004-1.934-1.361-4.3-3.044-5.271ZM321.337 66.796c-14.629-8.446-26.57-1.631-26.618 15.181-.046 16.812 11.815 37.371 26.447 45.816 14.639 8.454 26.58 1.639 26.628-15.173.048-16.813-11.816-37.37-26.457-45.824Zm-.162 57.658c-13.031-7.523-23.602-25.83-23.559-40.805.042-14.972 10.682-21.036 23.712-13.512 13.041 7.528 23.602 25.83 23.557 40.804-.04 14.973-10.671 21.04-23.71 13.513Z"/>
  <path fill="#496BBD" d="M321.316 75.186c-.62-.36-1.144-.093-1.168.625l-.61 19.904c-.063.17-.096.38-.086.625.019.589.249 1.228.604 1.78.305.51.725.963 1.179 1.225l.073.04.429.165 14.193 7.556c.596.32 1.1.058 1.123-.639.021-.722-.467-1.631-1.115-2.028l-12.999-8.095-.457-19.186c-.02-.71-.51-1.569-1.127-1.95l-.039-.022Z"/>
  <path fill="#F03E53" d="M301.862 126.625c-1.069-.617-2.009-.918-2.845-.913-.824.026-1.471.381-1.944 1.095-.472.7-.71 1.739-.714 3.101l3.393 1.959.002-.337c.002-.635.145-1.16.415-1.599.284-.43.861-.395 1.753.12.692.4 1.21.928 1.547 1.583.34.656.502 1.304.5 1.951-.002.662-.179 1.195-.521 1.617a4 4 0 0 1-1.308 1.015c-.531.249-1.295.537-2.285.884-.213.068-.423.136-.635.217-.213.079-.435.166-.684.252l-2.036.838-.009 3.36 10.813 6.244.01-3.441-6.34-3.662v-.121l2.073-.803.482-.18c.776-.281 1.401-.571 1.896-.866.494-.296.909-.745 1.273-1.332.355-.592.535-1.382.537-2.366.002-1.038-.205-2.092-.639-3.181-.419-1.079-1.04-2.1-1.849-3.053a11.211 11.211 0 0 0-2.885-2.382Zm17.588 10.533-4.345-2.509-5.844 7.397-.008 2.888 6.763 3.919-.011 4.183 3.393 1.959.013-4.183 1.818 1.05.01-2.995-1.82-1.052.031-10.657Zm-6.688 6.733 3.279-4.01-.015 5.894-3.264-1.884Zm20.995-.594-3.241-1.872-7.785 20.749 3.24 1.872 7.786-20.749Zm12.064 9.086-10.779-6.222-.009 3.588 7.561 4.366v.162l-6.006 10.331v.311l3.64 2.102 5.582-10.59.011-4.048Z"/>
  <path fill="#F46D82" d="M370.718 575.715c-2.721 0-5.446-.6-7.529-1.802l-111.262-64.236 1.017-1.241c.641-.769.71-3.158-.612-3.529a1.076 1.076 0 0 0-.276-.034c-1.073 0-2.681 1.389-3.406 1.806l-.176.114-.677.498-96.68-55.817c-4.163-2.403-4.186-6.306-.056-8.707l83.158-48.325c2.065-1.2 4.779-1.801 7.5-1.801s5.447.602 7.531 1.805l212.068 122.439c4.167 2.405 4.186 6.305.058 8.706l-83.158 48.326c-2.065 1.2-4.778 1.798-7.5 1.798Z"/>
  <path fill="#233146" d="m223.699 290.162-59.354 34.258.381 134.307 94.68-54.652-35.707-113.913Zm-53.595 159.252-.345-121.91 49.952-28.828 32.413 103.393-82.02 47.345Z"/>
  <path fill="#0F1724" d="m244.851 400.08 7.273 1.989-32.401-103.394-5.638 3.247 30.766 98.158Zm-74.766 43.133.017 6.201 82.022-47.335-7.294-2-74.745 43.134Zm-12.996-122.979 7.256 4.195.382 134.298-7.256-4.194-.382-134.299Z"/>
  <path fill="#0F1724" d="m157.089 320.234 7.256 4.196 59.359-34.267-7.258-4.194-59.357 34.265Z"/>
  <path fill="#233146" d="m421.284 403.946-59.355 34.257.382 134.307 94.678-54.652-35.705-113.912Zm-53.596 159.25-.345-121.909 49.954-28.83 32.412 103.396-82.021 47.343Z"/>
  <path fill="#0F1724" d="m442.435 513.863 7.274 1.99-32.401-103.396-5.637 3.248 30.764 98.158Zm-74.764 43.131.015 6.201 82.023-47.333-7.293-1.999-74.745 43.131Zm-12.997-122.977 7.255 4.196.384 134.297-7.258-4.194-.381-134.299Zm0 0 7.255 4.195 59.359-34.267-7.258-4.194-59.356 34.266Z"/>
  <path fill="#96B6E4" d="m464.456 381.22-3.919.623L249.25 259.855c-4.165-2.404-10.901-2.404-15.031-.005L151.2 308.096l-3.211-1.216-.01 5.647v.071l.006-.002c.04 1.554 1.08 3.102 3.132 4.287L363.189 439.32c4.163 2.405 10.899 2.405 15.029.006l83.158-48.327c2.168-1.259 3.179-2.932 3.063-4.584l.017.01c-.03-.199 0-5.205 0-5.205Z"/>
  <path fill="#81A1DA" d="m378.218 439.326 83.158-48.327c2.168-1.258 3.179-2.932 3.063-4.584l.017.01c-.03-.199 0-5.205 0-5.205l-3.919.623-29.483-17.022-60.621 60.623v15.666c2.814.042 5.647-.541 7.785-1.784Z"/>
  <path fill="#C3D9F2" d="M461.318 376.489 249.25 254.052c-4.165-2.405-10.901-2.405-15.031-.004l-83.158 48.325c-4.13 2.401-4.107 6.302.056 8.706l212.072 122.44c4.163 2.403 10.899 2.403 15.029.004l83.158-48.326c4.128-2.401 4.109-6.303-.058-8.708Z"/>
  <path fill="#fff" d="m179.623 293.968-.04-.023.04.023Zm20.836 12.028.031.019-.031-.019Zm-20.884-12.055c-1.079-.567-2.75-.552-3.793.054l-14.075 8.18c-1.071.623-1.063 1.632.014 2.252l20.737 11.976c1.081.621 2.818.621 3.891 0l14.076-8.182c1.04-.604 1.065-1.571.081-2.196.444.284.671.633.704.992l-17.767-1.22 1.314 11.053c-.355.023-.72.01-1.067-.044l-1.32-11.082-1.975-.135-.239-1.143-19.134-.727a.926.926 0 0 1-.079-.62l19.082.724-2.16-10.285c.616.015 1.226.148 1.71.403Z"/>
  <path fill="#E8F2FB" d="m180.025 303.823-19.082-.724a.926.926 0 0 0 .079.62l19.134.727-.131-.623Zm3.418 1.974-1.073-.073 1.32 11.082c.347.054.712.068 1.067.044l-1.314-11.053Z"/>
  <path fill="#E8F2FB" d="m200.411 305.969-20.74-11.974-.048-.027-.04-.023-.008-.004c-.484-.254-1.094-.388-1.71-.403l2.16 10.285.131.623.239 1.143 1.975.135 1.073.073 17.767 1.22c-.033-.359-.26-.708-.704-.992l-.016-.01-.031-.019-.048-.027Z"/>
  <path fill="#fff" d="m209.112 278.21-.041-.021.041.021Zm20.836 12.03.031.019-.031-.019Zm-20.885-12.055c-1.078-.568-2.75-.552-3.792.054l-14.075 8.179c-1.074.624-1.064 1.633.011 2.253l20.74 11.973c1.081.624 2.818.624 3.891 0l14.075-8.179c1.041-.606 1.066-1.571.079-2.196.446.281.674.633.707.992l-17.77-1.22 1.317 11.051a4.82 4.82 0 0 1-1.068-.042l-1.322-11.084-1.972-.136-.242-1.142-19.132-.726a.935.935 0 0 1-.079-.619l19.082.723-2.16-10.285c.616.016 1.224.149 1.71.404Z"/>
  <path fill="#E8F2FB" d="m209.513 288.066-19.082-.723a.936.936 0 0 0 .079.619l19.132.726-.129-.622Zm3.416 1.975-1.073-.076 1.322 11.084c.348.054.712.068 1.067.043l-1.316-11.051Z"/>
  <path fill="#E8F2FB" d="m229.9 290.213-20.74-11.976-.048-.027-.041-.021-.008-.004c-.486-.255-1.094-.388-1.71-.403l2.16 10.285.129.621.242 1.143 1.972.135 1.073.075 17.77 1.22c-.033-.359-.261-.71-.707-.992l-.013-.01-.031-.019-.048-.027Z"/>
  <path fill="#fff" d="m238.6 262.453-.04-.021.04.021Zm20.834 12.03.031.019-.031-.019Zm-20.882-12.055c-1.079-.567-2.752-.552-3.793.052l-14.077 8.179c-1.071.626-1.062 1.635.014 2.255l20.739 11.973c1.079.624 2.816.624 3.889 0l14.076-8.179c1.04-.606 1.067-1.571.081-2.196.444.282.673.631.706.992l-17.769-1.222 1.316 11.053c-.355.025-.72.012-1.067-.044l-1.322-11.082-1.975-.135-.239-1.143-19.132-.728a.918.918 0 0 1-.081-.617l19.084.724-2.162-10.285c.616.013 1.226.146 1.712.403Z"/>
  <path fill="#E8F2FB" d="m239.002 272.31-19.084-.724a.921.921 0 0 0 .081.618l19.132.727-.129-.621Zm3.416 1.972-1.073-.073 1.322 11.082c.347.056.712.07 1.067.045l-1.316-11.054Z"/>
  <path fill="#E8F2FB" d="m259.388 274.454-20.74-11.974-.048-.027-.04-.021-.008-.004c-.487-.257-1.096-.39-1.712-.403l2.161 10.285.13.621.239 1.143 1.974.135 1.074.073 17.769 1.222c-.033-.361-.262-.71-.706-.992l-.016-.01-.031-.019-.046-.029Z"/>
  <path fill="#fff" d="m421.288 386-28.298-16.337-35.319 20.525 28.298 16.338L421.288 386Z"/>
  <path fill="#96B6E4" d="m404.713 391.545-21.818-12.597-.427.247 21.821 12.597.424-.247Zm-1.825 1.062-21.821-12.598-.425.247 21.819 12.598.427-.247Zm-1.826 1.061-21.821-12.599-.426.247 21.822 12.599.425-.247Zm-1.826 1.061-21.821-12.599-.42.244 21.82 12.601.421-.246Zm-1.822 1.056-21.82-12.597-.425.247 21.821 12.597.424-.247Zm-1.824 1.062-21.822-12.597-.425.247 21.821 12.597.426-.247Zm-1.826 1.061-21.82-12.597-.427.247 21.821 12.597.426-.247Zm-1.827 1.062-21.819-12.599-.421.245 21.819 12.599.421-.245Zm-1.824 1.061-21.823-12.599-.418.245 21.818 12.599.423-.245Zm-13.172-5.355-10.42-6.014-.425.247 10.418 6.016.427-.249Z"/>
  <path fill="#F03E53" d="m401.45 382.013-12.007-6.933-1.152.67 12.007 6.933 1.152-.67Z"/>
  <path fill="#496BBD" d="m394.39 380.276-6.923-3.997-.815.473 6.923 3.997.815-.473Z"/>
  <path fill="#fff" d="m421.867 385.18-28.296-16.339-35.319 20.525 28.296 16.34 35.319-20.526Z"/>
  <path fill="#96B6E4" d="m405.292 390.723-21.82-12.597-.425.247 21.821 12.597.424-.247Zm-1.824 1.062-21.822-12.597-.425.247 21.821 12.597.426-.247Zm-1.825 1.061-21.821-12.597-.426.247 21.82 12.597.427-.247Zm-1.828 1.062-21.819-12.599-.421.245 21.819 12.599.421-.245Zm-1.82 1.059-21.821-12.599-.424.247 21.818 12.599.427-.247Zm-1.826 1.06-21.82-12.597-.427.247 21.823 12.597.424-.247Zm-1.826 1.061-21.82-12.599-.425.249 21.821 12.597.424-.247Zm-1.825 1.061-21.821-12.599-.421.245 21.821 12.598.421-.244Zm-1.826 1.06-21.821-12.597-.421.243 21.821 12.599.421-.245Zm-13.171-5.354-10.422-6.015-.424.247 10.42 6.016.426-.248Z"/>
  <path fill="#F03E53" d="m402.031 381.193-12.009-6.935-1.152.672 12.008 6.932 1.153-.669Z"/>
  <path fill="#496BBD" d="m394.971 379.456-6.923-3.999-.817.475 6.923 3.997.817-.473Z"/>
  <path fill="#fff" d="m414.07 384.483-28.298-16.337-35.319 20.525 28.298 16.338 35.319-20.526Z"/>
  <path fill="#96B6E4" d="m397.495 390.028-21.82-12.597-.425.247 21.819 12.597.426-.247Zm-1.826 1.062-21.82-12.599-.427.247 21.823 12.599.424-.247Zm-1.823 1.061-21.823-12.599-.425.247 21.821 12.599.427-.247Zm-1.828 1.06-21.819-12.597-.423.245 21.821 12.597.421-.245Zm-1.82 1.06-21.823-12.6-.424.249 21.82 12.598.427-.247Zm-1.826 1.061-21.82-12.599-.427.249 21.821 12.597.426-.247Zm-1.828 1.06-21.818-12.597-.427.245 21.821 12.601.424-.249Zm-1.826 1.061-21.82-12.599-.419.245 21.819 12.599.42-.245Zm-1.823 1.062-21.823-12.599-.421.245 21.821 12.597.423-.243Zm-13.175-5.354-10.418-6.016-.426.247 10.42 6.016.424-.247Z"/>
  <path fill="#F03E53" d="m394.233 380.498-12.008-6.935-1.154.67 12.008 6.933 1.154-.668Z"/>
  <path fill="#496BBD" d="m387.171 378.759-6.921-3.997-.816.475 6.923 3.995.814-.473Z"/>
  <path fill="#ABC4EA" d="M251.039 374.058h93.07v-55.466h-93.07v55.466Z"/>
  <path fill="#0F1724" d="M343.473 351.708s-1.599.156-2.139-.131l-55.289-32.216a2.491 2.491 0 0 0-2.499.004l-30.452 16.48c-2.128 1.483-1.681 4.59-.021 5.547l54.384 31.397a2.489 2.489 0 0 0 2.499-.003l33.173-19.277c.782-.492.537-1.317.344-1.801Z"/>
  <path fill="#233146" d="m284.953 278.941.809 37.621a2.801 2.801 0 0 0 1.389 2.423l54.33 32.057c1.81 1.058 4.039-.633 4.047-2.745l.102-36.617a2.779 2.779 0 0 0-1.359-2.397l-55.182-32.637c-1.849-1.092-4.267.05-4.136 2.295Z"/>
  <path fill="#0F1724" d="m284.932 278.727-.11 38.318a2.803 2.803 0 0 0 1.389 2.423l54.316 31.684c1.811 1.056 4.075-.26 4.08-2.374l.105-36.621a2.778 2.778 0 0 0-1.363-2.399l-55.374-32.743c-1.349-.799-3.039.151-3.043 1.712Z"/>
  <path fill="#496BBD" d="m286.999 279.005-.114 37.533 55.474 32.072.11-37.154-55.47-32.451Z"/>
  <path fill="#141D2B" d="m286.895 313.33.081-26.949-.081 26.949Zm32.837-15.176-4.202-2.458 4.202 2.458Z"/>
  <path fill="#4D70C0" d="m286.895 313.33.083-26.949 7.056-3.261 21.496 12.576 4.202 2.458-32.837 15.176Z"/>
  <path fill="#141D2B" d="m294.742 321.081-6.626-3.831 6.628 3.831h-.002Z"/>
  <path fill="#4D70C0" d="m294.744 321.081-6.628-3.831 35.898-16.59 6.583 3.85-35.855 16.571"/>
  <path fill="#141D2B" d="m324.921 338.528-25.868-14.956 25.868 14.956Zm17.492-8.083.056-18.989-.056 18.987m.056-18.987-7.589-4.439.002-.002 7.587 4.441Z"/>
  <path fill="#4D70C0" d="m324.921 338.528-25.868-14.956 35.829-16.557 7.587 4.441-.056 18.989-17.492 8.083Z"/>
  <path fill="#141D2B" d="m342.378 341.838.021-6.904-.021 6.904Z"/>
  <path fill="#4D70C0" d="m335.861 344.851-6.628-3.831 13.166-6.086-.021 6.904-6.517 3.013Z"/>
  <path fill="#233146" d="m343.218 352.484-33.343 19.244a2.496 2.496 0 0 1-2.499-.004l-54.287-31.563c-1.658-.963-1.654-3.358.005-4.316l30.533-17.621a2.501 2.501 0 0 1 2.499.004l57.094 33.196a.612.612 0 0 1-.002 1.06Z"/>
  <path fill="#C3D9F2" d="m297.564 353.758-8.334 4.933a.678.678 0 0 1-.67.002l-14.589-8.425a.67.67 0 0 1-.002-1.158l7.985-4.518a.67.67 0 0 1 .671 0l14.939 8.882v.284Zm-13.067-30.998 1.871 1.092c.222.131.59.128.818-.008l.93-.553c.228-.136.232-.35.008-.481l-1.872-1.087c-.222-.129-.587-.125-.815.008l-.928.55c-.23.133-.234.349-.012.479Zm3.297 1.928 1.889 1.104a.893.893 0 0 0 .826-.008l.935-.557c.229-.135.231-.354.003-.487l-1.895-1.098c-.224-.131-.592-.127-.82.008l-.932.554c-.228.135-.232.351-.006.484Zm3.335 1.949 1.914 1.12c.23.135.603.131.832-.008l.936-.562c.23-.137.23-.359 0-.492l-1.918-1.114a.905.905 0 0 0-.826.008l-.934.56c-.23.137-.232.355-.004.488Zm3.376 1.975 1.937 1.133a.906.906 0 0 0 .838-.006l.942-.567c.229-.139.226-.363-.006-.498l-1.942-1.127a.894.894 0 0 0-.831.007l-.938.564c-.23.139-.23.359 0 .494Zm3.417 1.997 1.961 1.149a.91.91 0 0 0 .846-.006l.942-.573c.231-.141.227-.365-.008-.502l-1.965-1.141a.902.902 0 0 0-.839.006l-.942.569c-.23.139-.228.363.005.498Zm3.459 2.025 1.986 1.16c.239.141.62.139.853-.004l.944-.577c.232-.143.226-.371-.012-.51l-1.987-1.154a.908.908 0 0 0-.848.006l-.944.573c-.231.141-.227.367.008.506Zm3.503 2.048 2.011 1.175c.241.141.625.139.859-.004l.948-.583c.231-.143.224-.372-.018-.513l-2.013-1.17c-.239-.139-.621-.137-.853.004l-.945.581c-.232.141-.228.371.011.51Zm3.547 2.072 2.036 1.193c.244.141.631.141.865-.004l.952-.588c.231-.145.221-.377-.022-.52l-2.04-1.185c-.241-.141-.625-.139-.859.004l-.949.585c-.232.145-.224.374.017.515Zm3.59 2.102 2.061 1.205c.249.144.639.144.875-.002l.953-.595c.234-.145.222-.38-.027-.525l-2.063-1.198c-.245-.143-.633-.141-.867.004l-.951.588c-.234.147-.224.38.019.523Zm3.638 2.125 2.087 1.222c.251.147.644.145.88-.002l.955-.6c.236-.147.222-.384-.029-.529l-2.09-1.216c-.249-.143-.639-.143-.874.002l-.954.596c-.235.147-.224.383.025.527Zm3.683 2.156 2.115 1.235c.253.149.65.149.886 0l.959-.606c.236-.149.22-.388-.035-.537L321.15 342c-.251-.147-.644-.147-.88.002l-.957.6c-.236.147-.222.386.029.535Zm3.73 2.181 2.141 1.251c.258.152.658.152.893.001l.963-.611c.236-.151.218-.394-.04-.543l-2.143-1.247c-.256-.146-.654-.146-.887.002l-.961.606c-.236.149-.22.39.034.541Zm3.779 2.21 2.17 1.268c.258.152.662.152.897 0l.967-.618c.235-.15.218-.395-.043-.548l-2.173-1.262c-.258-.149-.66-.149-.895 0l-.963.614c-.236.15-.218.393.04.546Zm7.851 2.347-2.2-1.28c-.26-.151-.666-.152-.901 0l-.967.62c-.237.15-.218.397.044.55l2.197 1.285c.262.154.669.154.907.002l.969-.623c.237-.153.216-.402-.049-.554Zm-53.25-25.195 1.712 1.014c.28.164.739.16 1.026-.01l1.693-1.006c.284-.17.29-.44.01-.604l-1.718-1.005c-.278-.162-.733-.159-1.019.011l-1.687.996c-.287.17-.293.44-.017.604Zm7.629 1.26-1.739-1.017c-.28-.164-.739-.16-1.025.01l-1.694 1.005c-.286.172-.292.444-.012.61l1.733 1.025c.282.168.745.164 1.031-.007l1.699-1.014c.287-.171.289-.446.007-.612Zm3.225 1.89-1.758-1.028c-.284-.168-.747-.163-1.034.007l-1.699 1.015c-.287.172-.291.448-.007.616l1.752 1.037c.286.169.751.166 1.04-.008l1.704-1.023c.288-.172.288-.448.002-.616Zm-9.262 1.567 1.737 1.04c.284.17.749.166 1.038-.007l1.71-1.023c.288-.174.292-.45.008-.618l-1.743-1.032c-.28-.168-.743-.164-1.03.007l-1.705 1.018c-.289.171-.297.447-.015.615Zm-4.757-2.847 3.188 1.909c.28.168.741.164 1.031-.009l1.704-1.014c.287-.171.293-.446.013-.612l-3.198-1.893c-.276-.164-.731-.16-1.019.01l-1.696 1.001c-.29.172-.299.442-.023.608Zm12.479 4.152-1.764-1.044c-.284-.17-.749-.166-1.038.007l-1.71 1.023c-.29.176-.296.454-.01.624l1.758 1.053c.286.17.753.168 1.044-.007l1.716-1.033c.29-.173.292-.453.004-.623Zm3.266 1.936-1.784-1.058c-.289-.172-.756-.168-1.046.008l-1.716 1.032c-.291.176-.295.458-.005.629l1.779 1.066c.29.173.76.17 1.052-.006l1.72-1.042c.291-.176.291-.458 0-.629Zm3.306 1.957-1.807-1.069c-.291-.174-.762-.17-1.053.005l-1.72 1.045c-.293.175-.294.459-.002.634l1.801 1.077c.293.176.768.174 1.059-.003l1.726-1.052c.291-.178.289-.462-.004-.637Zm3.345 1.982-1.828-1.083c-.295-.173-.77-.172-1.062.006l-1.727 1.052c-.291.177-.289.465.004.643l1.822 1.09c.297.178.776.176 1.069-.004l1.729-1.061c.294-.18.29-.465-.007-.643Zm3.383 2.005-1.849-1.096c-.297-.176-.776-.174-1.069.006l-1.732 1.061c-.293.18-.289.469.008.649l1.845 1.104c.299.179.782.177 1.077-.004l1.735-1.07c.294-.181.286-.47-.015-.65Zm3.425 2.03-1.87-1.109c-.303-.178-.785-.176-1.079.003l-1.735 1.072c-.295.181-.289.474.012.656l1.866 1.115c.305.184.79.182 1.085-.002l1.743-1.078c.293-.182.283-.477-.022-.657Zm3.469 2.054-1.896-1.122c-.304-.181-.791-.181-1.086.002l-1.741 1.081c-.295.183-.288.481.019.662l1.89 1.131c.307.183.797.183 1.092 0l1.747-1.09c.293-.184.282-.481-.025-.664Zm-1.226 2.706 1.913 1.144c.311.188.805.188 1.1 0l1.752-1.098c.296-.185.282-.486-.031-.671l-1.916-1.137c-.311-.184-.801-.182-1.094.002l-1.747 1.09c-.297.185-.286.485.023.67Zm8.324 2.157c.295-.187.28-.49-.036-.679l-1.94-1.148c-.315-.186-.809-.186-1.104 0l-1.751 1.1c-.297.187-.285.49.027.677l1.938 1.158c.315.189.811.189 1.11.002l1.756-1.11Zm3.602 2.139c.297-.189.279-.496-.041-.685l-1.965-1.164c-.316-.189-.814-.189-1.111-.002l-1.759 1.112c-.297.187-.281.494.035.683l1.961 1.173c.319.191.82.193 1.119.002l1.761-1.119Zm-1.232 2.106 1.986 1.186c.322.195.826.197 1.127.004l1.768-1.131c.297-.191.276-.499-.048-.692l-1.99-1.18c-.322-.189-.824-.191-1.119-.002l-1.764 1.122c-.298.189-.28.5.04.693Zm-39.748-20.599c-.292.174-.301.451-.019.621l1.738 1.054c.282.17.749.166 1.041-.008l1.721-1.032c.29-.174.296-.452.012-.624l-1.743-1.044c-.282-.168-.745-.166-1.034.008l-1.716 1.025Zm-5.574-2.743 4.034 2.443c.28.17.743.166 1.034-.007l1.714-1.023c.291-.172.297-.448.017-.616l-4.045-2.426c-.276-.166-.733-.16-1.021.01l-1.708 1.009c-.289.17-.301.444-.025.61Zm8.768 4.673c-.291.175-.299.457-.013.629l1.758 1.063c.285.174.754.172 1.048-.004l1.725-1.042c.294-.174.296-.455.008-.629l-1.762-1.058c-.286-.17-.753-.168-1.042.008l-1.722 1.033Zm3.223 2.588 1.78 1.079c.289.175.762.173 1.055-.006l1.731-1.05c.294-.176.294-.461.004-.635l-1.785-1.069c-.287-.174-.756-.172-1.05.005l-1.725 1.043c-.294.175-.297.459-.01.633Zm3.275 1.984 1.801 1.09c.293.178.77.176 1.065-.002l1.736-1.059c.293-.18.293-.469 0-.645l-1.807-1.081c-.291-.175-.766-.173-1.058.004l-1.731 1.052c-.293.178-.297.465-.006.641Zm3.314 2.007 1.824 1.104c.297.179.778.179 1.071-.002l1.743-1.069c.295-.182.291-.471-.006-.651l-1.828-1.094c-.295-.177-.772-.176-1.065.004l-1.737 1.06c-.295.179-.295.47-.002.648Zm3.356 2.032 1.846 1.116c.301.183.783.183 1.078 0l1.749-1.079c.295-.182.29-.477-.012-.656l-1.849-1.11c-.299-.178-.779-.178-1.073.004l-1.744 1.069c-.296.181-.294.477.005.656Zm3.397 2.056 1.866 1.131c.305.183.792.183 1.089 0l1.752-1.088c.296-.184.288-.481-.017-.664l-1.872-1.122c-.301-.181-.786-.181-1.081.002l-1.748 1.079c-.296.183-.292.481.011.662Zm3.436 2.082 1.891 1.145c.307.185.799.185 1.096 0l1.759-1.098c.297-.186.285-.487-.022-.67l-1.895-1.137c-.307-.183-.795-.183-1.09 0l-1.755 1.091c-.295.185-.289.484.016.669Zm3.479 2.106 1.913 1.16c.313.187.807.189 1.106.002l1.764-1.11c.297-.187.286-.49-.027-.677l-1.918-1.151c-.311-.185-.801-.185-1.099 0l-1.758 1.1c-.299.186-.289.489.019.676Zm3.523 2.135 1.937 1.173c.315.191.815.191 1.114.002l1.768-1.119c.299-.189.284-.496-.033-.686l-1.941-1.163c-.313-.189-.809-.189-1.106-.002l-1.764 1.11c-.3.189-.288.494.025.685Zm6.651 3.35 1.773-1.129c.299-.191.282-.502-.038-.693l-1.967-1.179c-.317-.189-.816-.191-1.116-.002l-1.767 1.119c-.302.191-.286.5.03.693l1.961 1.187c.321.195.822.195 1.124.004Zm8.119 2.005-4.688-2.81c-.32-.193-.824-.195-1.123-.003l-1.776 1.131c-.299.193-.284.505.037.698l4.676 2.831c.326.199.838.203 1.139.006l1.783-1.148c.299-.193.278-.508-.048-.705Zm-46.544-20.714 1.745 1.067c.284.173.751.172 1.046-.006l1.733-1.042c.291-.176.299-.458.014-.631l-1.747-1.06c-.284-.172-.749-.17-1.04.006l-1.73 1.034c-.293.176-.303.458-.021.632Zm-5.859-2.934-2.036-1.251a.713.713 0 0 0-.674.004l-2.538 1.5c-.193.114-.205.297-.023.407l2.03 1.262a.715.715 0 0 0 .678-.004l2.543-1.509c.193-.116.201-.297.02-.409Zm3.157 1.936-2.061-1.264c-.183-.112-.486-.11-.679.004l-2.546 1.513c-.193.114-.203.299-.021.413l2.055 1.275c.183.114.488.112.683-.003l2.554-1.523c.191-.116.198-.301.015-.415Zm3.194 1.963-2.086-1.28a.714.714 0 0 0-.683.002l-2.554 1.527c-.195.116-.202.301-.017.417l2.079 1.291c.185.116.494.114.687-.002l2.561-1.538c.193-.116.198-.303.013-.417Zm3.974 2.439-2.852-1.75a.726.726 0 0 0-.689.002l-2.561 1.538c-.195.118-.203.307-.016.423l2.845 1.767c.189.116.5.116.695-.002l2.569-1.555c.195-.118.198-.307.009-.423Zm21.155 12.987-3.078-1.889a.747.747 0 0 0-.722 0l-2.614 1.629c-.198.121-.196.324.004.448l3.071 1.908a.752.752 0 0 0 .73.002l2.619-1.646c.198-.124.193-.326-.01-.452Zm3.559 2.187-2.276-1.398a.76.76 0 0 0-.729-.002l-2.623 1.647c-.199.125-.195.33.009.457l2.268 1.409a.759.759 0 0 0 .736.002l2.628-1.66c.199-.125.191-.33-.013-.455Zm1.934 3.283-2.299-1.423a.762.762 0 0 0-.735-.002l-.956.604c-.2.126-.195.334.012.462l2.297 1.426c.208.131.54.133.741.004l.957-.608c.201-.126.193-.334-.017-.463Zm7.303 4.51-2.359-1.457c-.212-.133-.546-.135-.747-.004l-.961.614c-.202.131-.193.341.02.471l2.356 1.465c.212.133.55.135.751.005l.965-.619c.201-.131.189-.344-.025-.475Zm-3.675-2.27-2.329-1.438c-.209-.131-.541-.133-.742-.003l-.957.608c-.201.129-.195.337.016.467l2.325 1.443c.213.133.546.135.747.006l.961-.614c.201-.127.191-.339-.021-.469Zm-2.142-1.557 2.329 1.438c.213.131.547.133.747.004l.958-.612c.198-.128.189-.338-.022-.467l-2.333-1.43c-.21-.132-.542-.134-.741-.004l-.956.606c-.2.127-.191.336.018.465Zm-11.426-8.882-15.583-9.567a.738.738 0 0 0-.695.002l-2.57 1.556c-.197.119-.201.309-.012.426l15.535 9.652a.738.738 0 0 0 .72.002l2.611-1.625c.199-.123.195-.322-.006-.446Zm-28.371-18.075 5.535 3.393c.282.172.747.17 1.039-.005l1.729-1.033c.289-.176.299-.454.017-.625l-5.55-3.366c-.276-.168-.732-.164-1.023.007l-1.718 1.016c-.289.17-.303.445-.029.613Zm10.407 6.377 1.764 1.081c.287.178.76.176 1.054-.004l1.738-1.052c.294-.175.3-.461.01-.636l-1.768-1.074c-.285-.173-.754-.171-1.048.006l-1.735 1.044c-.293.176-.301.462-.015.635Zm3.248 1.99 1.783 1.094c.292.178.766.178 1.064-.004l1.742-1.059c.296-.18.298-.469.006-.645l-1.789-1.086c-.289-.176-.762-.174-1.056.005l-1.74 1.052c-.294.178-.3.467-.01.643Zm3.285 2.013 1.806 1.108c.295.179.774.179 1.069-.002l1.751-1.071c.295-.18.295-.473 0-.651l-1.811-1.098c-.293-.179-.77-.177-1.063.002l-1.745 1.062c-.295.181-.299.473-.007.65Zm3.325 2.038 1.83 1.122c.297.181.78.181 1.077-.002l1.754-1.079c.297-.183.295-.479-.004-.658l-1.833-1.112c-.295-.181-.776-.179-1.071.002l-1.751 1.071c-.295.182-.297.475-.002.656Zm3.366 2.063 1.851 1.133c.303.185.789.185 1.087 0l1.76-1.088c.297-.186.293-.483-.01-.666l-1.855-1.125c-.301-.182-.783-.182-1.079.002l-1.756 1.08c-.297.184-.297.481.002.664Zm3.409 2.087 1.874 1.148c.304.187.795.187 1.094.002l1.764-1.1c.299-.185.293-.486-.014-.672l-1.878-1.14c-.303-.184-.791-.184-1.088 0l-1.76 1.092c-.299.185-.295.484.008.67Zm3.448 2.115 1.897 1.162c.309.189.803.189 1.102.002l1.772-1.112c.299-.187.29-.49-.019-.679l-1.903-1.152c-.307-.186-.797-.188-1.096 0l-1.766 1.1c-.299.187-.294.49.013.679Zm3.492 2.138 1.92 1.178c.313.191.811.193 1.112.001l1.777-1.119c.299-.189.288-.498-.027-.687l-1.924-1.168c-.311-.189-.805-.189-1.106-.002l-1.77 1.112c-.301.189-.293.494.018.685Zm8.351 1.537-1.949-1.184c-.315-.189-.813-.191-1.112-.001l-1.778 1.121c-.301.191-.291.502.024.695l1.943 1.19c.317.193.818.195 1.121.004l1.782-1.131c.301-.191.287-.501-.031-.694Zm8.173 4.958-6.535-3.964c-.318-.193-.82-.193-1.121-.004l-1.781 1.133c-.303.193-.29.505.027.698l6.519 3.995c.325.199.836.203 1.141.008l1.793-1.156c.303-.195.284-.513-.043-.71Zm6.539-4.313-2.015-1.195c-.324-.191-.832-.193-1.129-.002l-1.768 1.131c-.299.193-.279.506.045.7l2.011 1.203c.328.195.837.197 1.137.006l1.771-1.141c.299-.195.274-.508-.052-.702Zm-33.381-23.585-1.778-1.04c-.287-.17-.754-.166-1.042.007l-1.704 1.023c-.288.174-.289.452-.004.622l1.776 1.05c.287.169.756.168 1.046-.008l1.71-1.031c.287-.173.285-.453-.004-.623Zm3.302 1.934-1.8-1.054c-.29-.17-.761-.168-1.048.008l-1.71 1.032c-.29.174-.29.456.002.627l1.794 1.062c.292.174.765.17 1.056-.006l1.712-1.04c.29-.176.286-.458-.006-.629Zm3.341 1.957-1.822-1.068c-.295-.171-.768-.169-1.058.008l-1.712 1.04c-.291.178-.289.462.006.635l1.814 1.075c.298.174.774.172 1.066-.005l1.718-1.05c.289-.178.283-.462-.012-.635Zm3.379 1.98-1.843-1.079c-.297-.176-.774-.174-1.063.006l-1.72 1.05c-.291.177-.285.465.01.64l1.839 1.089c.299.176.78.174 1.071-.006l1.724-1.057c.291-.18.284-.468-.018-.643Zm3.422 2.003-1.864-1.092c-.303-.176-.784-.174-1.075.003l-1.724 1.062c-.291.179-.285.469.016.646l1.862 1.101c.301.181.786.179 1.079-.002l1.727-1.07c.294-.179.282-.47-.021-.648Zm3.463 2.029-1.888-1.106c-.305-.178-.789-.176-1.081.004l-1.729 1.069c-.293.181-.284.475.021.654l1.884 1.114c.305.183.793.181 1.087 0l1.733-1.079c.293-.183.282-.477-.027-.656Zm3.505 2.053-1.911-1.119c-.309-.182-.797-.18-1.089.001l-1.735 1.081c-.293.182-.282.479.025.66l1.907 1.127c.311.184.803.184 1.096 0l1.739-1.088c.294-.183.278-.481-.032-.662Zm3.549 2.077-1.936-1.133c-.312-.181-.803-.181-1.096.002l-1.741 1.09c-.293.184-.28.483.033.668l1.93 1.141c.313.187.809.187 1.104 0l1.743-1.098c.295-.186.278-.485-.037-.67Zm.774 3.889c.316.189.814.189 1.112 0l1.748-1.108c.295-.187.276-.49-.042-.675l-1.959-1.149c-.317-.185-.813-.185-1.106 0l-1.745 1.1c-.295.187-.28.489.037.676l1.955 1.156Zm6.454.345-1.984-1.161c-.321-.188-.819-.188-1.114 0l-1.749 1.109c-.297.187-.279.494.043.683l1.976 1.17c.322.191.826.191 1.123.002l1.753-1.117c.295-.19.274-.496-.048-.686Zm5.774 3.382-4.222-2.473c-.207-.121-.527-.121-.716 0l-2.145 1.369c-.189.121-.175.318.031.44l4.213 2.493c.211.122.535.124.724.002l2.152-1.387c.189-.122.174-.321-.037-.444Z"/>
  <path fill="#233146" d="M328.768 498.936c-5.592 1.652-10.779 4.721-16.477 6.145-4.996 1.629-10.072 2.834-15.15 4.159-3.216.84-6.45 1.921-9.152 3.914-1.22.902-1.008 2.797-.888 4.127.201 2.225 3.167 3.312 4.941 3.916 2.462.837 5.114 1.193 7.697.803 3.485-.529 6.299-2.303 9.225-4.129 2.687-1.675 5.423-3.277 8.258-4.69 2.764-1.378 5.684-2.316 8.487-3.595 2.675-1.222 4.717-3.096 4.981-6.145.068-.786.131-1.591.01-2.374-.118-.745-.419-1.486-.975-2.002l-.417-.233-.37.054-.17.05Z"/>
  <path fill="#496BBD" d="M322.437 494.476a20.397 20.397 0 0 0-2.684.027c-2.187.154-4.352.523-6.533.733-2.345.226-4.576.025-6.914-.198a27.54 27.54 0 0 0-2.169-.141c-5.832-.108-11.732 3.649-14.587 8.69l-.052-.015c-2.401 1.009-1.426 4.283-1.631 6.288-.145 1.432-.826 2.903-.706 4.344.096 1.185.917 1.95 1.841 2.598 3.503 2.453 8.278 3.374 12.435 2.206 3.229-.907 5.939-2.841 8.832-4.475 3.599-2.035 7.241-4.119 11.088-5.64 1.993-.787 4.11-1.403 5.909-2.615 2.334-1.571 4.146-4.287 2.901-7.101-1.478-3.35-4.474-4.504-7.73-4.701Z"/>
  <path fill="#274597" d="M318.442 498.722c-1.692-1.339-3.665-2.577-5.726-3.459-2.162.155-4.242-.015-6.41-.225a28.46 28.46 0 0 0-2.165-.139c-.915.403-1.783.938-2.575 1.617l-.164.282-.224.27a4.995 4.995 0 0 0-.882 1.596c-.418 1.307.06 2.496.765 3.592.702 1.092 1.399 2.096 2.472 2.856.473.336 1.05.654 1.621.766.512.103 1.255.178 1.67-.183l.098-.245c2.789-1.498 5.703-2.069 8.812-2.478 1.158-.155 3.075-.297 3.862-1.299.815-1.038-.366-2.324-1.154-2.951Z"/>
  <path fill="#233146" d="M301.215 481.305c-5.591 1.654-10.779 4.723-16.476 6.149-4.997 1.625-10.071 2.83-15.151 4.158-3.217.837-6.45 1.918-9.154 3.914-1.218.901-1.005 2.794-.886 4.124.201 2.227 3.167 3.316 4.941 3.916 2.461.838 5.113 1.195 7.697.803 3.487-.527 6.299-2.303 9.225-4.126 2.687-1.676 5.424-3.28 8.259-4.692 2.764-1.378 5.684-2.314 8.486-3.594 2.675-1.222 4.717-3.096 4.981-6.145.068-.786.132-1.59.01-2.374-.118-.747-.419-1.488-.975-2.003l-.415-.234-.374.056-.168.048Z"/>
  <path fill="#496BBD" d="M294.887 476.845a21.16 21.16 0 0 0-2.687.027c-2.187.157-4.352.525-6.535.736-2.343.225-4.574.027-6.911-.199a27.648 27.648 0 0 0-2.172-.141c-5.83-.106-11.728 3.648-14.585 8.691l-.052-.018c-2.401 1.01-1.426 4.283-1.63 6.29-.147 1.432-.827 2.901-.709 4.345.099 1.183.919 1.949 1.843 2.595 3.501 2.455 8.278 3.374 12.435 2.206 3.229-.905 5.939-2.839 8.832-4.475 3.599-2.034 7.241-4.117 11.088-5.638 1.994-.789 4.109-1.403 5.911-2.615 2.334-1.571 4.144-4.288 2.899-7.102-1.48-3.347-4.473-4.505-7.727-4.702Z"/>
  <path fill="#274597" d="M290.625 484.399c.813-1.036-.366-2.322-1.156-2.947-1.899-1.505-4.149-2.881-6.488-3.763-1.402-.027-2.795-.141-4.227-.28a27.654 27.654 0 0 0-2.171-.141c-.191-.004-.383.031-.574.037a10.157 10.157 0 0 0-3.416 1.941l-.164.282-.222.27a4.917 4.917 0 0 0-.882 1.596c-.42 1.307.06 2.496.765 3.592.702 1.092 1.399 2.094 2.472 2.856.473.334 1.048.655 1.621.767.51.102 1.255.177 1.668-.186l.1-.245c2.789-1.496 5.701-2.067 8.812-2.478 1.158-.152 3.075-.295 3.862-1.301Z"/>
  <path fill="#F46678" d="M233.391 565.922c-1.129 0-2.173-.417-2.522-1.069l-15.354-22.286-40.064 10.457a4.335 4.335 0 0 1-1.164.155c-.78 0-1.548-.197-2.063-.579-.867-.616-1.18-2.747-.215-3.303l1.008-.195 35.46-14.633-25.644-21.236c-.736-.548-1.147-2.758-.384-3.331l.602 1.289c.515-.297 1.202-.453 1.895-.453.573 0 1.152.106 1.639.33l32.939 17.022 28.273-20.799 4.13 2.385-18.459 22.525 47.932 6.815a.05.05 0 0 0 .017.002c.149 0 .423-.285.693-.571.27-.286.538-.571.672-.571.011 0 .021.002.031.005.706.317.501 2.212.389 2.764-.063.363-.345.685-.762.928-.488.28-1.16.452-1.889.452a4.57 4.57 0 0 1-.284-.01l-49.308-.872 5.09 21.506-.01 1.565c.087.473-.208.933-.77 1.257a3.45 3.45 0 0 1-1.062.378c-.272.05-.546.073-.816.073Z"/>
  <path fill="#D95D6D" d="m251.927 509.677-4.13-2.386.677-.498.176-.114c.725-.416 2.333-1.806 3.406-1.806.097 0 .189.012.276.035 1.322.37 1.253 2.76.612 3.528l-1.017 1.241Z"/>
  <path fill="#0F1724" d="M280.682 527.967c2.856-1.65 5.164-.312 5.172 2.947.01 3.283-2.283 7.255-5.139 8.904-2.837 1.64-5.146.324-5.155-2.959-.01-3.262 2.283-7.253 5.122-8.892Z"/>
  <path fill="#0F1724" d="m282.214 543.18-4.964-2.911 7.11-12.651 5.148 2.999-7.294 12.563Z"/>
  <path fill="#0F1724" d="M285.904 531.013c2.857-1.651 5.165-.315 5.173 2.947.01 3.283-2.281 7.255-5.14 8.903-2.837 1.638-5.145.324-5.155-2.959-.007-3.262 2.283-7.255 5.122-8.891Z"/>
  <path fill="#233146" d="M285.906 531.349c2.695-1.558 4.872-.298 4.881 2.779.008 3.099-2.153 6.844-4.85 8.401-2.677 1.544-4.854.305-4.863-2.793-.008-3.076 2.154-6.843 4.832-8.387Z"/>
  <path fill="#0F1724" d="M231.625 552.688c2.857-1.648 5.165-.314 5.173 2.95.009 3.282-2.284 7.251-5.14 8.901-2.839 1.64-5.145.324-5.155-2.957-.01-3.264 2.283-7.255 5.122-8.894Z"/>
  <path fill="#0F1724" d="m233.156 567.899-4.962-2.911 7.11-12.649 5.147 2.998-7.295 12.562Z"/>
  <path fill="#0F1724" d="M236.848 555.732c2.856-1.648 5.164-.313 5.172 2.951.01 3.281-2.281 7.253-5.14 8.901-2.837 1.641-5.145.324-5.155-2.959-.009-3.261 2.284-7.252 5.123-8.893Z"/>
  <path fill="#233146" d="M236.85 556.068c2.694-1.554 4.871-.295 4.881 2.783.007 3.096-2.156 6.844-4.851 8.398-2.676 1.545-4.853.304-4.863-2.791-.01-3.079 2.154-6.842 4.833-8.39Z"/>
  <path fill="#0F1724" d="M171.403 539.893c2.859-1.649 5.165-.315 5.175 2.949.009 3.283-2.284 7.253-5.14 8.901-2.839 1.64-5.147.324-5.157-2.957-.01-3.264 2.283-7.255 5.122-8.893Z"/>
  <path fill="#0F1724" d="m172.936 555.103-4.964-2.91 7.11-12.65 5.149 2.998-7.295 12.562Z"/>
  <path fill="#0F1724" d="M176.626 542.938c2.858-1.65 5.165-.315 5.174 2.949.01 3.281-2.283 7.253-5.139 8.901-2.839 1.641-5.148.324-5.157-2.958-.008-3.26 2.283-7.253 5.122-8.892Z"/>
  <path fill="#233146" d="M176.628 543.272c2.696-1.554 4.873-.295 4.881 2.783.008 3.096-2.154 6.844-4.848 8.397-2.679 1.548-4.856.307-4.864-2.79-.01-3.079 2.152-6.842 4.831-8.39Z"/>
  <path fill="#0F1724" d="M180.71 501.603c2.856-1.65 5.164-.316 5.174 2.948.008 3.282-2.285 7.254-5.141 8.903-2.839 1.638-5.146.324-5.155-2.959-.01-3.262 2.283-7.253 5.122-8.892Z"/>
  <path fill="#0F1724" d="m182.24 516.812-4.962-2.907 7.11-12.651 5.15 2.999-7.298 12.559Z"/>
  <path fill="#0F1724" d="M185.932 504.649c2.857-1.65 5.165-.315 5.175 2.947.007 3.283-2.284 7.253-5.14 8.901-2.841 1.641-5.147.324-5.157-2.957-.01-3.261 2.283-7.254 5.122-8.891Z"/>
  <path fill="#233146" d="M185.934 504.985c2.695-1.558 4.872-.3 4.881 2.779.008 3.096-2.154 6.844-4.85 8.399-2.679 1.546-4.854.307-4.863-2.791-.008-3.078 2.153-6.843 4.832-8.387Z"/>
  <path fill="#0F1724" d="M249.918 495.151c2.856-1.65 5.164-.312 5.172 2.948.01 3.282-2.283 7.254-5.14 8.903-2.839 1.64-5.145.324-5.155-2.959-.009-3.262 2.284-7.253 5.123-8.892Z"/>
  <path fill="#0F1724" d="m251.448 510.364-4.962-2.911 7.11-12.651 5.149 2.999-7.297 12.563Z"/>
  <path fill="#0F1724" d="M255.14 498.197c2.857-1.65 5.165-.314 5.173 2.947.009 3.283-2.283 7.255-5.14 8.905-2.839 1.637-5.145.325-5.155-2.96-.01-3.262 2.283-7.253 5.122-8.892Z"/>
  <path fill="#233146" d="M255.142 498.533c2.694-1.558 4.871-.297 4.881 2.779.008 3.1-2.156 6.844-4.85 8.401-2.677 1.546-4.854.305-4.864-2.792-.007-3.077 2.154-6.842 4.833-8.388Z"/>
  <path fill="#96B6E4" d="M183.051 500.762c.942-.542 2.459-.614 3.534-.123l32.939 13.807 28.95-18.08.178-.114c.789-.456 2.63-2.067 3.68-1.772 1.322.369 1.253 2.76.612 3.524l-19.476 20.551 47.932 10.032c.291.054 1.177-1.239 1.413-1.133.706.315.501 2.212.389 2.764-.063.363-.345.683-.762.924-.55.319-1.337.496-2.173.444l-49.306-4.088 5.088 24.72-.01 1.567c.087.475-.208.932-.77 1.256a3.43 3.43 0 0 1-1.062.379c-1.407.26-2.904-.186-3.338-.994l-15.354-25.505-40.064 13.674c-1.097.307-2.45.15-3.227-.423-.867-.615-1.18-2.748-.215-3.306l1.008-.191 35.46-17.851-25.644-18.018c-.736-.552-1.147-2.758-.384-3.331l.602 1.287Z"/>
  <path fill="#C3D9F2" d="M183.051 498.936c.942-.544 2.459-.617 3.534-.125l32.939 10.007 28.95-14.162.177-.112c.79-.456 2.014-.601 3.065-.303 1.32.368 1.869 1.291 1.228 2.057l-19.476 16.629 47.932 13.888c1.165.216 1.953.894 1.802 1.631-.063.363-.345.683-.762.925-.55.318-1.337.496-2.173.443l-49.306-7.945 5.078 30.208c.087.473-.208.93-.77 1.256a3.43 3.43 0 0 1-1.062.379c-1.407.258-2.904-.188-3.339-.996l-15.353-29.423-40.065 17.746c-1.096.307-2.449.151-3.226-.424-.867-.616-.761-1.508.204-2.065l.203-.107 35.846-23.246-25.644-14.221c-.736-.548-.763-1.326 0-1.899l.218-.141Z"/>
  <path fill="#96B6E4" d="M229.882 499.16v15.395c-.013 1.288-.878 2.577-2.582 3.561-3.412 1.971-8.884 1.971-12.273 0-1.695-.984-2.544-2.273-2.544-3.561v-15.067l17.399-.328Z"/>
  <path fill="#C3D9F2" d="M215.039 495.925c3.41-1.968 8.941-1.968 12.328 0 3.39 1.969 3.343 5.155-.067 7.126-3.412 1.968-8.884 1.968-12.273 0-3.387-1.971-3.399-5.157.012-7.126Z"/>
  <path fill="#81A1DA" d="M229.159 485.208v14.112c-.014 1.181-.807 2.364-2.369 3.266-3.126 1.806-8.144 1.806-11.25 0-1.553-.902-2.331-2.085-2.331-3.266v-13.811l15.95-.301Z"/>
  <path fill="#96B6E4" d="M215.55 482.241c3.127-1.804 8.197-1.804 11.304 0 3.106 1.807 3.061 4.729-.063 6.534-3.127 1.804-8.145 1.804-11.25 0-3.108-1.805-3.115-4.727.009-6.534Z"/>
  <path fill="#0F1724" d="M189.833 448.818c14.587 21.432 68.366-27.812 68.366-27.812-3.715 16.919 5.665 27.982 2.459 62.7a2.953 2.953 0 0 0 .564 2.037c1.098 1.461 3.493 4.12 6.714 4.67 5.717.977 9.102-1.038 10.571-2.273a2.77 2.77 0 0 0 .971-1.857c.644-6.498 4.251-43.213 4.776-56.474.406-10.206 2.062-31.335-14.527-34.885-11.993-2.566-51.724 13.003-51.724 13.003s-44.272 17.227-28.17 40.891Z"/>
  <path fill="#274597" d="m291.343 442.163-49.971-28.851c-7.921-4.574-20.603-4.754-28.844-.409l-54.312 28.629c-8.826 4.657-9.104 12.646-.643 17.531l55.047 31.781c8.473 4.892 22.263 4.705 30.261-.429l49.25-31.555c7.473-4.786 7.119-12.132-.788-16.697Z"/>
  <path fill="#2D52AB" d="M156.701 442.42c.474-.309.976-.604 1.515-.888l54.312-28.629c8.241-4.345 20.923-4.165 28.844.409l49.971 28.851c2.195 1.266 3.787 2.753 4.812 4.335-4.474 5.23-14.555 7.525-20.171 9.834-10.134 4.163-19.057 10.616-28.108 16.675-4.474 2.995-8.884 6.411-14.188 7.639-5.589 1.293-11.551 1.046-16.98-.842-9.162-3.188-16.276-10.709-24.505-15.614a92.786 92.786 0 0 0-15.762-7.48c-4.453-1.619-8.826-3.646-13.09-5.709-2.713-1.314-5.541-3.353-6.396-6.4a7.257 7.257 0 0 1-.254-2.181Z"/>
  <path fill="#FAB484" d="M244.297 278.21c.043-1.172-2.678-6.286-3.944-8.6a293.788 293.788 0 0 0-2.361-13.678c-8.55-7.259-28.911 24.208-28.911 24.208l-2.206 28.923c10.97 10.099 21.151 4.379 21.151 4.379.224-13.12 8.797-10.59 12.678-16.303 1.662-2.445 1.658-9.026 1.021-16.227 1.22-.815 2.545-1.88 2.572-2.702Z"/>
  <path fill="#233146" d="M207.601 302.634c10.532 3.188 16.461-1.612 19.413-10.422 0 0 .697-1.044-3.339-2.258-4.035-1.214-5.627-13.668-1.478-12.7 4.15.971 3.957 6.659 5.724 7.139 1.766.481 2.749-1.185 1.434-5.151-1.312-3.964 6.323-4.875 3.876-9.455-2.447-4.58-.759-9.675 4.034-11.923 4.79-2.251 1.704-20.69-1.983-19.619-3.686 1.071-4.41 4.758-6.594.519-2.183-4.238-3.92-7.455-7.203-5.571-3.281 1.881-1.201 4.354-5.057 2.786-3.856-1.567-4.616-.47-5.948 2.266-1.334 2.737.903 4.345-3.524 4.729-4.431.382-2.986 4.286-7.187 7.967-4.2 3.678-11.741 5.446-11.011 18.414.729 12.968 9.314 30.394 18.843 33.279Z"/>
  <path fill="#496BBD" d="M245.419 290.759c-.105-.496-.593-.485-1.002-.506-.606-.031-1.216-.05-1.824-.083-1.783-.094-3.549-.226-5.298-.621a24.474 24.474 0 0 1-3.753-1.203 34.4 34.4 0 0 1-1.78-.783c-.538-.253-1.075-.587-1.66-.711-.401-.085-.724.186-.808.576-.168.772.837 1.117 1.364 1.403.795.432 1.612.822 2.447 1.169 3.193 1.334 6.667 2.164 10.141 2.119a4.87 4.87 0 0 0 1.567-.295c.372-.133.631-.436.637-.841l-.031-.224Z"/>
  <path fill="#0F1724" d="M250.796 290.716c-.081-.764-.5-1.608-1.233-1.822-.292-.085-.603-.087-.908-.085-.889.008-1.783.052-2.661.201-.793.135-1.756.299-2.279.975-.413.534-.327 1.312-.064 1.905.313.706.94.903 1.642 1.024 1.166.203 2.554.265 3.72.037.941-.185 1.698-.76 1.789-1.774l-.006-.461Zm-26.775-14.593c3.123-1.804 5.647-.343 5.657 3.224.009 3.589-2.496 7.932-5.62 9.734-3.106 1.793-5.628.356-5.638-3.234-.01-3.567 2.496-7.931 5.601-9.724Z"/>
  <path fill="#0F1724" d="m225.696 292.756-5.427-3.182 7.774-13.833 5.63 3.28-7.977 13.735Z"/>
  <path fill="#0F1724" d="M229.732 279.453c3.124-1.805 5.647-.344 5.657 3.223.009 3.589-2.496 7.932-5.621 9.735-3.103 1.793-5.626.355-5.637-3.235-.01-3.567 2.497-7.93 5.601-9.723Z"/>
  <path fill="#233146" d="M229.734 279.819c2.947-1.7 5.327-.322 5.336 3.042.01 3.387-2.354 7.483-5.302 9.183-2.927 1.691-5.309.334-5.319-3.051-.007-3.366 2.357-7.483 5.285-9.174Z"/>
  <path fill="#496BBD" d="M229.84 280.846c.677-.411 1.305-.598 1.845-.598 1.295.005 2.192 1.05 2.214 3.047v.016c.007 2.823-1.903 6.301-4.233 7.706-.673.409-1.299.597-1.837.597-1.289-.006-2.187-1.045-2.206-3.054v-.015c-.01-2.806 1.903-6.304 4.217-7.699l-.201-.33c-2.457 1.503-4.394 5.059-4.402 8.029v.017c.002 1.06.253 1.913.708 2.511.454.598 1.12.928 1.884.927.627 0 1.32-.217 2.038-.653 2.47-1.511 4.41-5.049 4.418-8.036v-.018c-.004-1.054-.255-1.907-.711-2.505a2.31 2.31 0 0 0-1.889-.926c-.629 0-1.324.216-2.046.654l.201.33Z"/>
  <path fill="#FAB484" d="m199.381 352.424-.909 9.635a2785.796 2785.796 0 0 0 22.804-9.49c3.459-1.461 6.921-2.942 10.204-4.767 1.768-.985 3.621-1.888 5.157-3.221 1.911-1.658 2.399-3.43 2.724-5.854.154-1.162.845-2.926 2.337-2.667.951.164 1.262 1.519 2.065 1.418.949-.118 1.862-.872 2.623-1.407.857-.6 1.66-1.231 2.65-1.582 1.028-.367 2.134-.649 3.23-.444.255.048.518.129.697.316.182.186.247.504.085.707a5.14 5.14 0 0 1 2.488-.116c.39.079.785.212 1.059.498.276.285.392.752.18 1.086.585-.096 1.189-.16 1.766-.027s1.129.498 1.351 1.048c.32.792-.106 1.67-.523 2.415.332-.126.697-.234 1.032-.124.365.118.616.483.682.861.065.38-.029.77-.176 1.125a3.917 3.917 0 0 1-.797 1.222c-.345.357-.753.644-1.158.93-1.739 1.224-3.387 2.484-5.184 3.623l-7.315 4.638c-5.135 3.253-10.572 6.278-15.482 9.852-4.829 3.519-9.903 6.811-14.994 9.953-7.157 4.418-14.512 9.114-22.348 12.248-1.056.423-2.254.95-3.414.95-9.139 0-12.462-8.969-11.302-28.586l20.468-4.24Z"/>
  <path fill="#EF3544" d="M200.772 360.009s-8.09 4.763-23.857 5.007c0 0 .348-38.427 10.135-47.143 9.787-8.714 14.926 15.213 13.722 42.136Z"/>
  <path fill="#233146" d="M296.593 409.29c-11.993-2.569-53.87 8.6-53.87 8.6l-59.684-6.759s-5.064 24.891.238 34.862c5.303 9.968 19.983 15.754 34.215 20.182 24.758 7.698 68.366-27.812 68.366-27.812-.042.193-.073.379-.11.57l5.595 3.23c7.907 4.565 8.261 11.91.788 16.697l-5.001 3.204c1.774 9.569 3.783 21.401 2.094 39.607a2.904 2.904 0 0 0 .401 1.795c.832 1.332 2.753 3.754 5.97 4.304 5.668.969 9.882-.975 11.862-2.194a2.798 2.798 0 0 0 1.339-2.218c.446-7.361 2.602-43.147 3.117-56.192.405-10.206 1.268-34.327-15.32-37.876Z"/>
  <path fill="#233146" d="M183.039 411.131s-1.841 9.063-2.138 18.443l29.18-15.38-27.042-3.063Z"/>
  <path fill="#274597" d="m247.279 416.722-5.907-3.41c-7.921-4.574-20.603-4.754-28.844-.409l-2.447 1.291 32.642 3.696s1.729-.462 4.556-1.168Z"/>
  <path fill="#172331" d="m285.748 438.933 4.937 2.848v-.006c.131-1.571.554-3.061.768-4.608.114-.832.344-1.614-.293-2.297-1.401-1.509-4.248.133-5.665.695-6.6 2.609-12.96 5.718-19.17 9.152-6.393 3.537-12.754 6.917-20.009 8.278-7.693 1.443-16.115 1.891-23.81.281-7.546-1.578-18.329-6.183-22.545-12.78-5.228-8.181-4.346-26.405-4.346-26.405a17.688 17.688 0 0 0-.5-1.592l-12.076-1.368s-5.064 24.891.238 34.861c5.303 9.969 19.983 15.755 34.215 20.182 24.758 7.699 68.366-27.811 68.366-27.811-.042.193-.073.378-.11.57Zm9.611 41.956c.087-7.765-1.779-14.856-3.215-22.039l-.014.01-5 3.203c1.774 9.569 3.783 21.402 2.094 39.608a2.906 2.906 0 0 0 .401 1.795c.832 1.331 2.753 3.754 5.97 4.304.388.065.753.086 1.127.127a36.794 36.794 0 0 1-.471-3.667c-.523-7.448-.977-15.905-.892-23.341Z"/>
  <path fill="#F03E53" d="M246.6 329.804s-9.6-12.128-18.574-16.362c0 0-6.338-.643-12.204-1.077-5.159-.38-8.947-3.302-8.947-3.302s-11.686 2.709-16.948 6.78c-5.515 4.269-10.786 25.13-8.631 42.028 2.152 16.899.852 40.645 0 46.941-1.632 12.066 9.894 23.27 25.025 24.343 19.854 1.411 41.966-3.406 41.248-13.271-1.562-21.463-.969-86.08-.969-86.08Z"/>
  <path fill="#FAB484" d="m255.777 377.84.396 9.855c7.614-3.131 15.218-6.29 22.803-9.49 3.46-1.459 6.921-2.937 10.206-4.767 1.765-.982 3.618-1.886 5.156-3.221 1.911-1.656 2.398-3.43 2.722-5.852.156-1.16.845-2.924 2.339-2.669.95.164 1.26 1.519 2.063 1.422.952-.119 1.864-.874 2.625-1.409.857-.6 1.66-1.231 2.648-1.582 1.029-.369 2.136-.651 3.231-.444.254.048.519.129.698.314.182.188.247.506.083.711a5.113 5.113 0 0 1 2.49-.118c.388.079.784.212 1.06.498.274.284.391.753.177 1.085.585-.095 1.189-.161 1.766-.026.577.134 1.129.498 1.353 1.048.32.79-.108 1.668-.523 2.415.33-.127.695-.234 1.031-.126.366.12.615.483.681.863.066.38-.029.77-.176 1.127a3.861 3.861 0 0 1-.797 1.22c-.343.357-.752.643-1.156.93-1.741 1.226-3.387 2.484-5.184 3.623-2.439 1.544-4.877 3.09-7.316 4.636-5.136 3.256-10.571 6.278-15.483 9.856-4.829 3.517-9.901 6.809-14.994 9.951-7.155 4.416-14.512 9.114-22.348 12.248-1.053.421-2.254.952-3.414.952-9.136 0-12.969-10.005-11.807-29.622l19.67-3.428Z"/>
  <path fill="#EF3544" d="M258.937 378.674s-10.104 5.892-25.831 7.155c0 0-2.349-44.089 6.94-54.556 9.289-10.466 18.601 16.89 18.891 47.401Z"/>
  <path fill="#385EB4" d="M146.304 359.191c.552.337 1.135.22 1.573-.116 1.009 9.976 4.996 19.865 8.721 29.066 8.9 21.986 22.599 42.081 37.799 59.986 3.121 3.675 5.864 8.56 10.125 11.02 4.787 2.762 11.2 2.021 14.902-2.179 2.576-2.926 3.759-6.83 4.329-10.688 1.509-10.233 1.661-20.734.776-31.031-.815-9.47.405-19.523-3.017-28.6-2.878-7.631-8.901-13.834-15.448-18.484-6.857-4.869-14.589-8.251-22.085-11.972-6.703-3.329-13.481-8.042-21.048-9.042-4.802-.635-12.15-.791-16.1 2.581-2.868 2.445-4.187 7.22-.527 9.459Z"/>
  <path fill="#274597" d="m154.78 351.735 49.869 28.794c6.425 3.709 11.627 12.699 11.606 20.101l-.149 52.488c-.021 7.382-5.255 10.366-11.682 6.657l-49.868-28.792c-6.425-3.71-11.628-12.719-11.607-20.101l.149-52.49c.021-7.4 5.257-10.364 11.682-6.657Z"/>
  <path fill="#C3D9F2" d="m170.407 476.785 14.286 8.205-1.658-88.749a1.434 1.434 0 0 0-.712-1.214l-12.886-7.518a1.437 1.437 0 0 0-2.16 1.241v82.626a6.24 6.24 0 0 0 3.13 5.409Z"/>
  <path fill="#81A1DA" d="m194.793 480.551-10.073-5.815-.828 7.023 3.994 3.231 6.907-4.439Z"/>
  <path fill="#96B6E4" d="m194.793 480.551-4.356 2.515c-3.138 1.814-5.697.355-5.707-3.252l-.154-83.915a2.331 2.331 0 0 0-1.184-2.024l-12.477-7.049a1.654 1.654 0 0 0-1.575-.027l-1.2.626s.679-.257 1.297.085l12.392 7.282a2.324 2.324 0 0 1 1.15 2.005l.155 83.938c.013 4.616 3.296 6.48 7.309 4.164l5.94-3.429-1.59-.919Z"/>
  <path fill="#81A1DA" d="m257.493 482.242-1.262-.381-1.62-35.34 5.397-.648-2.515 36.369Z"/>
  <path fill="#96B6E4" d="m257.493 482.242-.183-36.722 10.381-5.024-2.223 37.148-7.975 4.598Z"/>
  <path fill="#96B6E4" d="M281.822 436.389v-3.044l-1.196.401-1.565-3.46c-.126-.274-.365-.506-.678-.685-.963-.558-2.617-.626-3.69-.002l-25.036 14.548-9.31 3.127v2.96h.007c.027.381.294.749.767 1.021.31.18.712.319 1.187.39l10.534 1.583c.855.494 8.038-2.876 16.04-7.525 8.002-4.65 13.795-8.822 12.94-9.314Z"/>
  <path fill="#C3D9F2" d="M278.383 426.559c-.963-.556-2.617-.625-3.69-.002l-33.588 19.52c-1.073.624-.949 1.579.016 2.137.31.179.712.32 1.187.392l10.534 1.582c.855.494 8.038-2.875 16.04-7.525 8.002-4.651 13.796-8.824 12.941-9.318l-2.762-6.099c-.126-.274-.365-.505-.678-.687Z"/>
  <path fill="#EF3544" d="m203.679 309.908 3.514-5.033s8.834 4.471 21.443 3.69l2.557 6.614s-19.445 2.154-27.514-5.271Z"/>
  <path fill="#0F1724" d="M221.774 282.11s1.965-14.525-4.338-21.288c-6.306-6.764-18.162-9.827-21.595-6.955 0 0 1.337-4.113 6.658-6.441 0 0 24.843-7.585 26.15 30.139l-6.875 4.545Z"/>
</svg>
