<svg xmlns="http://www.w3.org/2000/svg" width="138" height="287" fill="none" viewBox="0 0 138 287">
  <path fill="#FCAF75" d="M55.872 74.604c-.01-.29-.205-3.57-.518-3.57-.313 0-4.524-3.568-4.524-3.568l-2.698-3.27-2.032-2.41 2.423-.244 3.606 2.944 2.805-.39.215-3.27-2.082-7.418 1.554-.87 3.43 6.55-.625-9.439h1.67l1.555 5.78v-5.78L62.312 51l1.661 3.759-.615 11.558-1.144 3.08 1.33 3.921c-1.955 2.953-4.369 3.959-7.672 1.287Z"/>
  <path fill="#21758A" d="M.238 112.293c-.733-5.86.206-10.815 3.088-13.614.958-6.902 3.577-14.556 7.066-22.608 5.57-6.83 11.825-13.007 18.704-18.614 2.062 1.35 4.183 2.491 6.362 2.11-4.818 9.964-8.59 17.138-13.984 22.41l-1.241 34.419H3.883l-3.645-4.103Z"/>
  <path fill="#9C4E16" d="M62.146 272.77c0-3.37-2.805-4.665-6.968-5.073-3.625 0-8.512 1.504-14.922 2.872l-7.31 3.704c-1.398 3.478-1.349 6.576-.538 9.429 2.053 1.64 4.662 2.663 7.076 2.066l8.218-3.234.587-1.096c6.557-.661 13.857-3.415 13.857-8.668ZM34.48 253.241c0-2.753-2.658-3.224-6.625-3.514-7.163 0-7.466 3.324-14.053 3.179l-6.47 3.65c-1.328 3.524-1.055 7.274-.283 10.1 1.955 1.576 4.955 1.929 7.203 1.621l6.655-3.632.566-1.114c6.245-.861 13.008-5.163 13.008-10.29Z"/>
  <path fill="#0E586B" d="M9.972 156.105c-3.958 8.261-6.92 16.929-3.704 27.554-.85 9.846-.391 16.359 1.769 27.128-5.815 13.098-4.056 27.753-1.632 45.724 1.358 4.366 15.069 4.366 14.795-2.826l-.576-31.711 1.827-6.051c4.407-9.601 6.489-19.728 7.75-30.045l-3.04-22.155-17.19-7.618Z"/>
  <path fill="#21758A" d="M46.002 227.861 47 270.632c0 1.911-1.661 3.37-3.938 4.248-3.694 1.431-8.962 1.314-11.229-.906-2.756-15.905-5.384-31.656-2.873-41.348v-9.774c-3.176-12.028-5.756-23.36-5.12-30.823l-10.613-5.055c-4.75-2.264-7.975-6.666-8.16-11.612-.098-3.007.166-5.932.81-8.786.607-2.762 1.555-5.452 2.835-8.088a35.38 35.38 0 0 1 1.26-2.392 26.88 26.88 0 0 0 2.043 1.214c7.837 4.321 17.707 5.381 28.682 4.674 1.016-.063 2.042-.154 3.098-.245l.488 7.192L45.3 183.56c3.508 12.128 5.189 24.764.987 36.856l-.284 7.445Z"/>
  <path fill="#21758A" d="m48.778 134.122-.47 3.587-4.026 31.222c-1.876.77-3.733 1.268-5.58 1.495-8.863 1.204-17.248-3.207-25.506-8.795-1.495-1.024-2.99-2.084-4.485-3.143C2.886 145.879.53 131.867.258 117.003c-.05-2.418-.03-4.783.02-7.156 7.66-6.485 13.563-3.233 18.84 3.596l15.363 5.589c8.296 2.763 12.762 5.308 13.964 11.313.215 1.123.333 2.373.333 3.777Z"/>
  <path fill="#FCAF75" d="M16.538 112.954v1.775c-.498 4.303 9.01 7.509 16.574 4.24.157-2.817-.547-6.169-.83-9.122 2.55-2.78 3.518-5.733 3.049-8.858-1.935-4.448-3.958-7.11-6.098-7.708l-12.695-.897-4.759 10.915 4.76 9.655Z"/>
  <path fill="#0E586B" d="M29.204 102.067c3.89-5.344 6.46-9.683 6.244-13.47-.46-3.405-4.583-7.39-9.811-6.484-3.84.489-6.958 5.652-10.183 10.108l13.75 9.846Z"/>
  <path fill="#0D5263" d="M20.33 90.101c-7.984-.362-13.398 5.979-12.88 13.343.41 5.896 4.544 9.845 9.498 10.498 8.385 1.095 14.141-7.274 13.252-14.882-.665-5.77-5.697-8.768-9.87-8.959Z"/>
  <path fill="#21758A" d="M68.03 106.351c-1.545 7.491-10.076 19.112-19.722 31.358a81.578 81.578 0 0 1-1.192 1.54l-3.059-4.882-9.577-15.335c3.128-.996 5.58-1.649 9.099-1.413 3.635-5.308 8.375-11.268 13.515-14.058l-1.251-29.664c3.225.38 6.088-.525 7.202-2.065 4.222 12.219 6.167 23.251 4.984 34.519Z"/>
  <path fill="#12556A" d="M38.702 274.88h10.066V168.931H38.702V274.88Z"/>
  <path fill="#12556A" d="M38.702 170.426a18.702 18.702 0 0 0-.596-1.25 55.81 55.81 0 0 0 2.59-7.192c2.277-8.134 2.511-16.494 1.984-26.449.459-.38.909-.77 1.378-1.168l3.058 4.882c.401-.507.812-1.033 1.193-1.54l-4.027 31.222c-1.876.77-3.733 1.268-5.58 1.495Z"/>
  <path fill="#12556A" d="m47.117 139.249-3.06-4.882a110.345 110.345 0 0 0 4.389-4.022c6.762-6.567 13.769-15.045 19.584-23.994-1.544 7.491-10.076 19.112-19.721 31.358a82.004 82.004 0 0 1-1.192 1.54ZM5.876 166.576c.606-2.762 1.554-5.452 2.834-8.088 1.496 1.059 2.99 2.119 4.486 3.143-3.371.815-5.834 2.436-7.32 4.945Z"/>
  <path fill="#12556A" d="M13.197 161.631c-1.496-1.024-2.99-2.084-4.486-3.143-5.824-12.609-8.18-26.621-8.453-41.485 2.277 15.733 5.257 31.177 11.756 40.307 1.046 1.486 2.18 2.781 3.43 3.904-.782.109-1.534.226-2.248.417Z"/>
  <path fill="#E05A00" d="m72.31 42.874-.352-.326-11.659-9.936H36.758l-10.516 9.103c-1.133.797-2.1 1.64-2.892 2.509l-.117.1c-4.955 5.597-3.157 12.472 5.472 17.091 10.945 5.86 28.702 5.86 39.657 0 9.4-5.036 10.7-12.753 3.948-18.54Z"/>
  <path fill="#E57326" d="M25.939 57.656c-1.994-1.703-3.264-3.596-3.645-5.543a6.642 6.642 0 0 1-.079-1.965L38.232 34.15h4.574L25.939 57.656Z"/>
  <path fill="#FF8521" d="M57.856 30.81c5.16 2.753 5.16 7.227 0 9.98-5.15 2.763-13.505 2.763-18.655 0-5.15-2.753-5.15-7.227 0-9.98 5.15-2.764 13.505-2.764 18.655 0Z"/>
  <path fill="#EDEDED" d="M59.645 34.686c0 1.522-1.085 3.043-3.264 4.203-4.34 2.328-11.376 2.328-15.714 0-2.18-1.16-3.255-2.681-3.255-4.203 0-5.688 4.984-10.299 11.121-10.299 6.137 0 11.112 4.61 11.112 10.299Z"/>
  <path fill="#EDEDED" d="M59.645 34.686c0 1.522-1.085 3.043-3.264 4.203-4.34 2.328-11.376 2.328-15.714 0-2.18-1.16-3.255-2.681-3.255-4.203 0-1.53 1.075-3.044 3.255-4.212 4.338-2.31 11.375-2.31 15.714 0 2.179 1.168 3.264 2.681 3.264 4.212Z"/>
  <path fill="#717171" d="M48.523 27.992c-.919 0-1.661-.688-1.661-1.54V2.232c0-.851.742-1.565 1.66-1.565.92 0 1.662.714 1.662 1.565v24.22c0 .852-.742 1.54-1.661 1.54Z"/>
  <path fill="#fff" d="M37.95 35.012c.302 1.023 1.015 1.82 2.12 2.681 1.388-3.868 3.332-7.89 6.948-9.574l-.752-.915c-3.196.697-7.554 3.76-8.317 7.808Z"/>
  <path fill="#B2B2B2" d="m73.218 234.926 29.122-15.624v-3.243l-29.122 15.625v3.242Z"/>
  <path fill="#706F6F" d="M70.189 230.053 99.3 214.429l3.039 1.621-29.122 15.634-3.03-1.631Z"/>
  <path fill="#B2B2B2" d="m129.976 234.926-29.122-15.624v-3.243l29.122 15.625v3.242Z"/>
  <path fill="#706F6F" d="m133.015 230.053-29.122-15.624-3.039 1.621 29.122 15.634 3.039-1.631Z"/>
  <path fill="#878787" d="m68.254 268.92 4.984-2.663v-49.473l-4.984 2.663v49.473Z"/>
  <path fill="#B2B2B2" d="m63.27 266.257 4.984 2.663v-49.473l-4.984-2.663v49.473Z"/>
  <path fill="#878787" d="m133.016 268.92 4.984-2.663v-49.473l-4.984 2.663v49.473Z"/>
  <path fill="#B2B2B2" d="m128.032 266.257 4.984 2.663v-49.473l-4.984-2.663v49.473Z"/>
  <path fill="#706F6F" d="m63.27 209.709 37.36 20 37.37-20-37.37-19.99-37.36 19.99Z"/>
  <path fill="#878787" d="m100.64 236.783 37.36-19.99v-7.083l-37.37 19.999.01 7.074Z"/>
  <path fill="#B2B2B2" d="m63.27 216.793 37.36 19.99v-7.074L63.27 209.71v7.083Z"/>
  <path fill="#878787" d="m102.819 255.089 29.112-15.634v-3.242l-29.112 15.624v3.252Z"/>
  <path fill="#706F6F" d="m99.78 250.216 29.121-15.634 3.03 1.63-29.112 15.625-3.04-1.621Z"/>
  <path fill="#B2B2B2" d="m98.45 255.089-29.11-15.634v-3.242l29.112 15.624v3.252Z"/>
  <path fill="#706F6F" d="m101.49 250.216-29.122-15.634-3.03 1.63 29.113 15.625 3.039-1.621Z"/>
  <path fill="#878787" d="m100.639 286.257 4.984-2.663V234.12l-4.984 2.663v49.474Z"/>
  <path fill="#B2B2B2" d="m95.647 283.594 4.983 2.663.01-49.474-4.993-2.663v49.474Z"/>
  <path fill="#555" d="M96.565 215.525c-1.74 0-3.47-.354-4.798-1.069-2.649-1.413-2.649-3.714 0-5.136l8.14-4.357c1.319-.706 3.059-1.06 4.798-1.06 1.74 0 3.47.354 4.799 1.06 2.648 1.422 2.648 3.723 0 5.136l-8.141 4.357c-1.319.715-3.058 1.069-4.798 1.069Z"/>
  <path fill="#3C3C3B" d="M110.803 197.192c.606-.335 1.535.099 2.072.96.537.86.479 1.82-.137 2.146-.606.327-1.534-.099-2.072-.96-.537-.86-.478-1.82.137-2.146Z"/>
  <path fill="#fff" d="M108.721 198.297c0-1.151.87-1.613 1.945-1.042 1.075.571 1.945 1.975 1.945 3.125 0 1.141-.87 1.612-1.945 1.033-1.075-.571-1.945-1.966-1.945-3.116Z"/>
  <path fill="#fff" d="m107.266 198.215 2.746 4.411 2.032-1.087-2.755-4.411-2.023 1.087Z"/>
  <path fill="#9D9D9C" d="M106.014 199.547c0-1.25.958-1.758 2.131-1.133 1.172.625 2.12 2.156 2.12 3.406 0 1.259-.948 1.766-2.12 1.141-1.173-.625-2.131-2.155-2.131-3.414Z"/>
  <path fill="#9D9D9C" d="m107.343 198.152 2.766 4.447-1.153 2.862-4.848-7.816 3.235.507Z"/>
  <path fill="#DADADA" d="M101.763 200.099c0-2.201 1.671-3.098 3.733-1.993 2.062 1.105 3.733 3.787 3.733 5.988 0 2.21-1.671 3.106-3.733 2.001-2.062-1.105-3.733-3.786-3.733-5.996Z"/>
  <path fill="#DADADA" d="m102.858 197.862 5.287 8.478-2.648 1.413-5.277-8.478 2.638-1.413Z"/>
  <path fill="#9D9D9C" d="M99.124 201.512c0-2.201 1.672-3.098 3.734-1.993 2.062 1.096 3.733 3.787 3.733 5.997 0 2.201-1.671 3.097-3.733 1.992-2.062-1.105-3.734-3.786-3.734-5.996Z"/>
  <path fill="#EDEDED" d="m103.473 207.644-.478-.181-.538-.317a6.759 6.759 0 0 1-.694-.589l-.537-.57-.381-.471-.235-.335a10.725 10.725 0 0 1-.43-.698l-.195-.353-.254-.544a7.025 7.025 0 0 1-.264-.715 5.828 5.828 0 0 1-.196-.852 2.386 2.386 0 0 1-.029-.579v-.136l.02-.118c.293-1.087 1.162-1.205 2.306-.398 1.515 1.077 2.951 3.369 3.195 5.126.186 1.323-.361 1.966-1.29 1.73Zm-5.237-9.048-.128.144-.273.381-.069.127a5.873 5.873 0 0 0-.205.48l-.049.181-.049.19-.058.272-.03.281-.01.226-.009.272c0 2.935 2.218 6.503 4.955 7.971a6.69 6.69 0 0 0 1.006.425l.469.118.205.036.186.028.284.018.381-.018.293-.046c1.29-.271 2.14-1.413 2.14-3.224 0-2.935-2.218-6.495-4.964-7.962-1.691-.906-3.177-.797-4.076.1Z"/>
  <path fill="#B2B2B2" d="M101.568 200.787c1.515 1.078 2.951 3.37 3.195 5.127.186 1.323-.361 1.966-1.29 1.73l-.478-.181-.538-.317a6.759 6.759 0 0 1-.694-.589l-.537-.57-.381-.471-.235-.336a10.441 10.441 0 0 1-.43-.697l-.195-.353-.254-.544c-.098-.235-.186-.48-.264-.715a5.828 5.828 0 0 1-.196-.852 3.01 3.01 0 0 1-.029-.579v-.136l.02-.118c.293-1.087 1.162-1.205 2.306-.399Zm-3.46-2.047-.273.381-.069.127a5.873 5.873 0 0 0-.205.48l-.049.181-.049.19-.058.272-.03.281-.01.226-.009.272c0 2.934 2.218 6.503 4.955 7.971.342.181.674.326 1.006.425l.469.118.205.036.186.027.284.019.381-.019.293-.045c.557-.561.889-1.422.879-2.545.01-2.935-2.218-6.504-4.954-7.971-1.056-.561-2.023-.734-2.825-.571l-.127.145Z"/>
  <path fill="#EDEDED" d="m101.373 208.767-.479-.181-.528-.326a5.048 5.048 0 0 1-.694-.589l-.537-.561-.381-.48-.235-.326a10.615 10.615 0 0 1-.44-.698l-.185-.353-.254-.543a5.844 5.844 0 0 1-.264-.716 4.814 4.814 0 0 1-.196-.851 2.557 2.557 0 0 1-.039-.589l.01-.127.01-.118c.293-1.096 1.163-1.214 2.316-.398 1.515 1.078 2.942 3.369 3.186 5.126.186 1.323-.352 1.957-1.29 1.73Zm-5.228-9.048-.127.136-.274.38-.078.136a2.677 2.677 0 0 0-.196.48l-.058.181-.05.19-.048.272-.03.281-.019.226-.01.272c0 2.935 2.229 6.494 4.965 7.962.342.181.674.326.997.426l.478.126.206.037.185.018.284.018.381-.009.293-.046c1.29-.271 2.14-1.413 2.14-3.224 0-2.935-2.228-6.495-4.964-7.962-1.69-.906-3.186-.797-4.075.1Z"/>
  <path fill="#B2B2B2" d="M99.477 201.911c1.515 1.078 2.942 3.369 3.186 5.126.186 1.323-.352 1.957-1.29 1.73l-.479-.181-.528-.326a5.048 5.048 0 0 1-.694-.589l-.537-.561-.381-.48-.235-.326a10.615 10.615 0 0 1-.44-.698l-.185-.353-.254-.544a5.771 5.771 0 0 1-.264-.715 5.842 5.842 0 0 1-.196-.852c-.039-.217-.039-.407-.039-.588l.01-.127.01-.118c.293-1.096 1.163-1.214 2.316-.398Zm-3.46-2.056-.273.38-.078.136a2.677 2.677 0 0 0-.196.48l-.058.181-.05.19-.048.272-.03.281-.019.226-.01.272c0 2.935 2.229 6.494 4.965 7.962.342.19.674.326.997.425l.478.127.206.036.185.019.284.018.381-.009.293-.046c.557-.561.88-1.431.88-2.554 0-2.926-2.219-6.494-4.965-7.962-1.046-.561-2.013-.733-2.814-.57l-.127.136Z"/>
  <path fill="#EDEDED" d="m99.281 209.882-.479-.182-.528-.317a5.887 5.887 0 0 1-.703-.588l-.537-.571-.372-.471-.234-.335a10.429 10.429 0 0 1-.44-.689l-.186-.362-.254-.534a5.784 5.784 0 0 1-.264-.716 4.87 4.87 0 0 1-.205-.851c-.03-.218-.04-.408-.03-.589l.02-.254c.293-1.087 1.163-1.204 2.306-.389 1.525 1.069 2.952 3.36 3.196 5.118.186 1.331-.362 1.965-1.29 1.73Zm-5.238-9.04-.117.136-.274.38-.078.136a4.044 4.044 0 0 0-.205.48l-.05.172-.048.19-.049.281-.03.281-.019.226-.01.272c0 2.926 2.219 6.495 4.965 7.962.342.181.674.326.997.426l.479.127.205.036.176.018.283.018.391-.018.293-.036c1.29-.272 2.131-1.413 2.131-3.225 0-2.935-2.219-6.503-4.955-7.962-1.69-.906-3.186-.806-4.085.1Z"/>
  <path fill="#B2B2B2" d="M97.376 203.034c1.524 1.069 2.951 3.36 3.195 5.117.186 1.332-.362 1.966-1.29 1.731l-.479-.182-.527-.317a6.767 6.767 0 0 1-.704-.588l-.537-.571-.372-.471-.234-.335a10.429 10.429 0 0 1-.44-.689l-.186-.362-.254-.534a5.784 5.784 0 0 1-.264-.716 4.96 4.96 0 0 1-.205-.86 2.99 2.99 0 0 1-.03-.58l.02-.254c.293-1.087 1.163-1.204 2.306-.389Zm-3.45-2.056-.274.38-.078.136a4.044 4.044 0 0 0-.205.48l-.05.172-.048.19-.049.281-.03.281-.019.226-.01.272c0 2.926 2.219 6.495 4.965 7.962.342.181.674.326.997.426l.479.126.205.037.176.018.283.018.391-.018.293-.036c.547-.562.88-1.432.88-2.555 0-2.934-2.219-6.494-4.965-7.962-1.045-.561-2.023-.733-2.824-.57l-.117.136Z"/>
  <path fill="#EDEDED" d="m97.19 211.005-.48-.181-.537-.318a6.785 6.785 0 0 1-.694-.588l-.537-.571-.371-.471-.245-.335a12.628 12.628 0 0 1-.43-.697l-.195-.354-.254-.543c-.098-.236-.196-.471-.264-.716a5.83 5.83 0 0 1-.196-.851 4.206 4.206 0 0 1-.039-.58l.01-.136.02-.118c.293-1.086 1.163-1.204 2.306-.398 1.515 1.078 2.951 3.369 3.195 5.127.186 1.331-.361 1.965-1.29 1.73Zm-5.239-9.04-.126.136-.264.38-.079.127a4.876 4.876 0 0 0-.205.489l-.049.172-.048.191-.05.28-.038.272-.02.236v.271c0 2.926 2.218 6.495 4.955 7.962.342.181.684.317 1.006.426l.47.127.204.036.186.018.284.018.38-.018.294-.045c1.29-.263 2.14-1.413 2.14-3.216 0-2.935-2.218-6.503-4.964-7.971-1.691-.896-3.176-.797-4.076.109Z"/>
  <path fill="#B2B2B2" d="M95.284 204.148c1.515 1.078 2.951 3.369 3.195 5.127.186 1.331-.361 1.965-1.29 1.73l-.478-.181-.528-.317a6.067 6.067 0 0 1-.704-.589l-.537-.571-.371-.471-.245-.335a12.628 12.628 0 0 1-.43-.697l-.195-.354-.254-.543a9.03 9.03 0 0 1-.264-.716 5.83 5.83 0 0 1-.196-.851 4.206 4.206 0 0 1-.039-.58l.01-.136.02-.118c.293-1.086 1.163-1.204 2.306-.398Zm-3.46-2.047-.263.38-.079.127a4.876 4.876 0 0 0-.205.489l-.049.172-.048.191-.05.28-.038.272-.02.236v.271c0 2.926 2.218 6.495 4.955 7.962.342.181.674.326 1.006.426l.47.127.204.036.186.018.284.018.38-.018.294-.045c.557-.562.89-1.422.88-2.546 0-2.934-2.219-6.503-4.955-7.961-1.046-.571-2.023-.734-2.825-.571l-.126.136Z"/>
  <path fill="#EDEDED" d="m92.332 204.818-.01 4.964-.009 2.654.166.145c.733.579 1.847.108 1.847-.77l.02-5.471.01-3.116c-.9-.498-2.014.1-2.014 1.051l-.01.543Z"/>
  <path fill="#B2B2B2" d="m95.88 210.923.382 1.323-1.935.688-.04-.833.05-1.794 1.543.616Z"/>
  <path fill="#EDEDED" d="M96.378 210.398c.166 1.159-.234 1.793-.958 1.775-.576-.117-1.094.245-1.094.761 0 .544.362 1.006.899 1.169l.186.045.205.036.186.027.273.018.391-.018.293-.045c1.29-.272 2.13-1.413 2.14-3.225 0-2.78-2.003-6.132-4.544-7.717l-.01 3.116c1.027 1.178 1.857 2.763 2.033 4.058Z"/>
  <path fill="#B2B2B2" d="M89.343 203.831c-.264.534-.372 1.214-.372 1.802 0 2.328 1.398 5.046 3.343 6.803l.01-2.654c-.528-.67-1.261-2.111-1.437-3.279-.166-1.177.264-2.083 1.446-1.685l.01-2.409c-1.583-.272-2.678.589-3 1.422Z"/>
</svg>
