<svg xmlns="http://www.w3.org/2000/svg" width="3078" height="1959" fill="none" viewBox="0 0 3078 1959">
  <path fill="#DAA15A" d="m2603.88 1516.21 202.05 436.73 22.77-.08-174.71-465.01-50.11 28.36m-209 9.34-202.04 427.39-22.77-.08 174.71-437.01 50.1 9.7"/>
  <path fill="url(#a)" d="m1881.5 1859.34-102.7 89.87-121.07-85.21s41.21-13.82 111.86 5l72.31-60.76 39.6 51.1Z"/>
  <path fill="#3B61B6" d="M2475.99 1363.65s-226.98 116.34-307.17 151.15c-80.19 34.8-353 307.99-353 307.99s34.92 71.12 52.39 58.64c154.04-110.14 295.95-208.69 387.15-243.08 180.57-68.08 230.91-82.88 277.15-136.49 0 0-27.12-64.42-56.52-138.21Z"/>
  <path fill="url(#b)" d="m2122.34 1813.47-29.6 133.22-148.01 2.95s25.04-35.52 93.13-62.16l22.32-91.77 62.16 17.76"/>
  <path fill="#4877C5" d="M2481.49 1334.11s-211.13 22.77-288.09 64.21c-76.98 41.45-138.24 421.52-138.24 421.52s59.78 32.46 67.18 12.3c59.71-162.57 125.94-289.91 125.94-289.91 75.86-13.86 251.57 71.66 378.57-53.44 0 0-109.83-83.64-145.36-154.68Z"/>
  <path fill="#FAB9A5" d="M2845.3 1077.48s-15.24 25.24-24.86 56.85l-86.84-8.01s44.84-67.94 41.41-109.14l70.29 60.3Z"/>
  <path fill="#FAB9A5" d="M2826.63 937.118c-4.93-1.31-23.49-6.42-27.24-4.889-5.21 2.123.84 8.952-2.83 13.122-5.93 6.75-17.81 6.893-25.46 10.993-9.28 4.967-16.35 11.499-20.59 18.956-7.08 12.427 18.68 40.16 22.72 60.95 8.43 43.48 63.39 49.92 108.04 36.6 15.97-4.76 30.65-19.11 39.35-33.04 10.24-16.37 4.47-43.722-4.1-60.022-5.14-9.777-15.32-18.198-24.21-24.33-8.05-5.558-10.28-28.645-19.98-30.282 0 0-34.6 14.886-45.7 11.942"/>
  <path fill="url(#c)" d="M2951.31 1053.85c.1.09-1.5-7.3 11.1-19.16 41.67-39.224-2.9-115.955-48.3-129.317-23.23-6.838-38.08.367-46.41-22.713.61 1.653-9.38 5.889-10.37 6.726-5.45 4.612-8.04 7.857-8.22 15.475-.77 33.536 29.24 64.759 51.96 85.877 10.2 9.502-14.92 2.945-25.06 4.883-6.59 1.261-23.7 19.329-27.37 22.069 9.52 11.85 18 1.15 30.85 6.88 11.86 5.29 4.34 20.39-6.72 22.18-17.13 2.76-24.1-8.53-24.1-8.53-7.85 4.26-9.11 29.7-15.28 36.35 8.52 4.67 58.16 13.4 69.8 13.25 24.88-.29 40.14-14.05 48.12-33.97"/>
  <path fill="#F04064" d="M2842.49 1090.98c18.21 203.09-215.64 397.81-215.64 397.81s-152.7 5.75-145.36-154.68c0 0 11.88-29.18 106.41-114.85 63.16-57.23 107.52-142.64 151.96-140.94 121.38 4.64 102.63 12.66 102.63 12.66Z"/>
  <path fill="#0F0BD2" d="M2275.32 1500s140.82 52.53 328.51-18.67c187.69-71.19 238.89-403.63 238.89-403.63l21.48 10.89s-20.9 366.85-268.02 446.57c-188.92 60.94-320.86-11.63-320.86-11.63V1500Z"/>
  <path fill="#F7CE91" d="M2819.89 1293.86s22.5 77.92 23.74 116.76c1.26 38.84-15.34 170.7-15.34 170.7l35.76 4.52s31.79-157.16 32.54-208.45c.74-51.28-28.83-134.37-28.83-134.37l-47.87 50.84Z"/>
  <path fill="#F04064" d="M2817.66 1297.15c25.97 113.47 15.21 265.55 15.21 265.55l38.81 2.47c42.56-89.01 38.57-286.25 16.08-369.23-13.23-48.75-21.01-97.91-54.01-105.49-20.62-4.74-63.04 10.36-68.72 30.74-12.33 44.23 39.89 120.3 52.63 175.96"/>
  <path fill="#F7CE91" d="M2812.28 1600.93c-8.56 16.31-12.44 28.26-7.4 32.38 3.48 2.84 9.09-13 15.85-18.65 1.99 6.6 2.25 18.93-1.97 29.31-4.78 11.76-4.36 21.81 4.58 22.68 8.93.87 23.47.28 26.71-7.13 3.22-7.4 10.57-38.3 14.54-48.57 3.98-10.29-1.29-22.09.22-27.98 1.51-5.89-26.4-15.75-26.4-15.75-1.53 2.37-10.12 14.1-10.12 14.1s-7.25 8.67-9.74 10.25c-2.5 1.58-6.27 9.36-6.27 9.36Z"/>
  <path stroke="#5A5C5F" stroke-linecap="round" stroke-miterlimit="10" stroke-width="4" d="M2600.4 6.065V276.59"/>
  <path fill="#FAB30B" d="M2648.31 380.637c-2.02 26.125-24.83 45.67-50.96 43.653-26.12-2.016-45.68-24.827-43.65-50.958 2.01-26.125 24.83-45.673 50.95-43.656 26.13 2.017 45.68 24.827 43.66 50.961Z"/>
  <path fill="#04A390" d="M2824.44 397.128h-448.07l196.09-142.698h55.88l196.1 142.698Z"/>
  <path stroke="#5A5C5F" stroke-linecap="round" stroke-miterlimit="10" stroke-width="4" d="M491.034 6.065V276.59"/>
  <path fill="#FAB30B" d="M538.944 380.637c-2.016 26.125-24.827 45.67-50.961 43.653-26.125-2.016-45.67-24.827-43.653-50.958 2.016-26.125 24.827-45.673 50.958-43.656 26.125 2.017 45.673 24.827 43.656 50.961Z"/>
  <path fill="#04A390" d="M715.069 397.128H266.998L463.095 254.43h55.877l196.097 142.698Z"/>
  <path stroke="#646972" stroke-linecap="round" stroke-miterlimit="10" stroke-width="4" d="M6.065 1950.79H3070.02"/>
  <path fill="#5EC575" d="M1119.86 1009.52s9.45-23.139 26.62-43.763c17.18-20.615 42.78-54.943 42.78-54.943s-12.48 24.436-29.44 52.04c-16.95 27.608-39.96 46.666-39.96 46.666m17.76-40.234s19.01-14.941 30.43-46.558c11.42-31.62 21.82-55.692 21.82-55.692s-24.66 35.281-35.26 59.735c-10.6 24.445-16.99 42.515-16.99 42.515m-16.48 35.754s9.94-36.166 11.9-65.032c1.95-28.867 1.73-47.001 1.73-47.001s-12.54 52.38-16.32 74.627c-3.78 22.246 2.69 37.406 2.69 37.406Zm-8.51 24.01s3.18-37.247-7.29-70.565c-10.47-33.328-11.04-54.476-11.04-54.476s-5.03 34.886.94 64.959c5.97 30.07 17.39 60.082 17.39 60.082Zm3.08-8.23s26.46-22.591 39.83-27.91c13.38-5.313 32-20.8 32-20.8s-22.99 29.43-35.82 35.26c-12.84 5.83-36.01 13.45-36.01 13.45Zm-9.13 31.62s2.56-20.34-9.26-49.17c-11.82-28.813-14.56-43.066-14.56-43.066s-.7 39.132 7.08 53.816c7.78 14.68 16.74 38.42 16.74 38.42m2.47-14.81s15.21-10.15 29.86-12.21c14.66-2.06 18.58-4.05 18.58-4.05s-7.42 13.55-25.5 15.83c-18.08 2.29-22.94.43-22.94.43Z"/>
  <path fill="#5EC575" d="M1099.1 1071.85c3.29-12.79 7.52-32.56 11.88-45.77 9.62-29.155 32.52-66.722 32.52-66.722-13.98 31.014-24.19 48.452-31.23 75.202-2.78 10.61-7.6 25.32-10.2 34.93-.43 2.64-2.54 4.85-2.97 2.36Z"/>
  <path fill="#86D391" d="M1105.85 1019.94s-1.49-26.527-11.62-53.192c-10.13-26.668-23.99-70.027-23.99-70.027s4.1 28.882 11.59 62.494c7.49 33.616 24.02 60.725 24.02 60.725Zm-3.92-46.575s-13.95-21.594-14.49-57.33c-.54-35.729-2.67-63.534-2.67-63.534s12.59 43.999 14.79 72.241c2.19 28.245 2.37 48.623 2.37 48.623Zm4.19 41.635s2.51-39.791 10.54-69.489c8.02-29.691 14.51-47.837 14.51-47.837s-5.51 56.987-9.4 80.658c-3.9 23.668-15.65 36.668-15.65 36.668Zm.25 27.08s9.69-38.54 31.74-68.415c22.05-29.87 29.94-50.934 29.94-50.934s-7.02 36.803-23.42 64.966c-16.4 28.163-38.26 54.383-38.26 54.383Zm-.26-9.34s-18.78-31.86-30.38-41.829c-11.6-9.974-24.96-31.978-24.96-31.978s12.93 37.525 23.81 47.827c10.88 10.31 31.53 25.98 31.53 25.98Zm-1.75 34.94s4.46-21.33 26.31-46.21c21.85-24.876 29.53-38.261 29.53-38.261s-12.82 39.581-25.73 51.641c-12.89 12.07-30.11 32.83-30.11 32.83Zm2.64-15.74s-11.77-15.46-25.8-22.61c-14.03-7.14-17.26-10.49-17.26-10.49s2.76 16.18 20.14 24.73c17.39 8.55 22.92 8.37 22.92 8.37"/>
  <path fill="#5EC575" d="M1105.15 1089.77c1.13-13.99 3.71-35.32 3.9-50.1.41-32.65-9.61-78.326-9.61-78.326 3.33 36.018 7.56 57.076 5.38 86.396-.87 11.62-1.12 28.08-1.83 38.65-.48 2.79.87 5.74 2.16 3.38Zm-19.41-64.33s-9.45-23.14-26.63-43.757c-17.18-20.618-42.78-54.943-42.78-54.943s12.5 24.433 29.44 52.041c16.96 27.609 39.97 46.659 39.97 46.659Zm-17.76-40.227s-19.01-14.941-30.43-46.558c-11.42-31.623-21.82-55.695-21.82-55.695s24.66 35.277 35.26 59.728c10.6 24.455 16.99 42.525 16.99 42.525m16.48 35.757s-9.95-36.169-11.9-65.039c-1.96-28.872-1.73-46.997-1.73-46.997s12.54 52.377 16.32 74.624c3.78 22.242-2.69 37.412-2.69 37.412Z"/>
  <path fill="#5EC575" d="M1092.97 1044.97s-3.18-37.24 7.29-70.562c10.46-33.324 11.04-54.476 11.04-54.476s5.03 34.886-.95 64.96c-5.96 30.078-17.38 60.078-17.38 60.078Zm-3.08-8.22s-26.46-22.6-39.83-27.92c-13.38-5.31-32-20.803-32-20.803s22.99 29.433 35.82 35.263c12.83 5.83 36.01 13.46 36.01 13.46m9.13 31.61s-2.57-20.34 9.26-49.16c11.82-28.816 14.56-43.069 14.56-43.069s.7 39.129-7.08 53.809c-7.78 14.69-16.74 38.42-16.74 38.42m-2.47-14.81s-15.21-10.15-29.87-12.21c-14.66-2.05-18.57-4.04-18.57-4.04s7.41 13.54 25.5 15.82c18.07 2.29 22.94.43 22.94.43Z"/>
  <path fill="#5EC575" d="M1106.49 1087.77c-3.29-12.78-7.52-32.56-11.87-45.76-9.63-29.17-32.53-66.728-32.53-66.728 13.99 31.018 24.2 48.458 31.23 75.198 2.79 10.61 7.6 25.32 10.21 34.94.43 2.63 2.53 4.84 2.96 2.35Z"/>
  <path fill="#A64109" d="M1140.09 1177.07h-71.74l-22.16-126.35h118.65l-24.75 126.35"/>
  <path fill="#DAA15A" d="m1959.66 1211.79 118.3 739.7 22.78-.07-93.61-739.79-47.47.16Zm-815.54.34-154.075 740.44-30.68.07 120.795-740.36 63.96-.15Z"/>
  <path fill="#DAA15A" d="M2174.5 1225.52H901.581v-56.97H2174.5v56.97Z"/>
  <path fill="#F1B264" d="M2235.52 1206.36H840.555v-37.81H2235.52v37.81Z"/>
  <path fill="#A5ACB9" d="M1845.42 1148.61h-49.51l-49.5-315.895h37.64l61.37 315.895Z"/>
  <path fill="#D6DEEE" d="M1831.22 1148.61h-193.24l-49.51-315.895h193.24l49.51 315.895Z"/>
  <path fill="#D6DEEE" d="M1845.42 1141.45h-210.04v23.56h210.04v-23.56Z"/>
  <path fill="#A5ACB9" d="M2110.26 1141.45h-264.84v23.56h264.84v-23.56Zm-385.17-135.42c5.59 24.18 1.65 50.3-8.8 58.33-10.44 8.04-23.44-5.05-29.04-29.23-5.59-24.19-1.66-50.305 8.79-58.341 10.45-8.03 23.46 5.058 29.05 29.241"/>
  <path fill="#DA8300" d="M1424.5 1163.91h-27.41a22.94 22.94 0 0 1-14.94-5.53c-4.17-3.56-6.92-8.5-7.75-13.91l-10.96-70.53h94.7l-10.95 70.53a22.95 22.95 0 0 1-7.75 13.91 22.94 22.94 0 0 1-14.94 5.53"/>
  <path fill="#DA8300" d="M1448.86 1140.24c17.3.56 22.75-12.71 24.81-24.09 1.36-7.53.28-13.46-3.19-17.6-3.34-4-8.96-6.29-15.43-6.29-10.22 0-18.54 11.06-18.54 24.66 0 11.44 9.3 20.6 12.35 23.32Zm1.04 8.64c-1.01 0-2.01-.04-3.03-.12l-1.29-.09-1.02-.79c-.68-.52-16.67-13.04-16.67-30.96 0-18.35 12.18-33.29 27.16-33.29 9.03 0 17.07 3.42 22.06 9.38 3.56 4.26 7.33 12.01 5.05 24.67-3.61 19.98-15.3 31.2-32.26 31.2Z"/>
  <path fill="#595959" d="M1354.01 1170.11h120.02l19.14-21.2h-158.3l19.14 21.2Z"/>
  <path fill="#343434" d="M718.02 1951.25h-574.3V709.019h574.3V1951.25Z"/>
  <path fill="#6B6B6B" d="M651.911 893.55H209.835V763.291h442.076V893.55Z"/>
  <path fill="#04A38F" d="M483.743 844.208H378.006a4.926 4.926 0 0 1-3.479-1.44 4.912 4.912 0 0 1-1.44-3.479v-21.743a4.915 4.915 0 0 1 4.919-4.913h105.737a4.917 4.917 0 0 1 4.919 4.913v21.743a4.919 4.919 0 0 1-4.919 4.919Z"/>
  <path fill="#6B6B6B" d="M651.911 1059.31H209.835V929.057h442.076v130.253Z"/>
  <path fill="#04A38F" d="M483.743 1009.97H378.006c-.646 0-1.286-.13-1.883-.37a4.924 4.924 0 0 1-2.662-2.67 4.852 4.852 0 0 1-.374-1.88v-21.738a4.916 4.916 0 0 1 4.919-4.919h105.737a4.919 4.919 0 0 1 4.919 4.919v21.738c0 2.72-2.202 4.92-4.919 4.92Z"/>
  <path fill="#6B6B6B" d="M651.911 1225.07H209.835v-130.25h442.076v130.25Z"/>
  <path fill="#04A38F" d="M483.743 1175.73H378.006c-.646 0-1.286-.13-1.883-.37a4.924 4.924 0 0 1-2.662-2.67 4.852 4.852 0 0 1-.374-1.88v-21.73c0-2.72 2.198-4.92 4.919-4.92h105.737c2.717 0 4.919 2.2 4.919 4.92v21.73c0 2.72-2.202 4.92-4.919 4.92Z"/>
  <path fill="#6B6B6B" d="M651.911 1900.92H209.835v-638.47h442.076v638.47Z"/>
  <path fill="#04A38F" d="M483.743 1343.36H378.006c-.647 0-1.286-.13-1.884-.37a4.924 4.924 0 0 1-2.662-2.67 4.85 4.85 0 0 1-.373-1.88v-21.73c0-2.72 2.198-4.92 4.919-4.92h105.737c2.717 0 4.919 2.2 4.919 4.92v21.73a4.93 4.93 0 0 1-3.035 4.55c-.598.24-1.238.37-1.884.37Z"/>
  <path fill="#F04064" d="M1221.08 192v-81.455h54.89v14.199h-37.67v19.409h34.84v14.199h-34.84v19.449h37.82V192h-55.04Zm69.14 0v-81.455h32.13c6.16 0 11.41 1.101 15.75 3.302 4.38 2.174 7.71 5.263 9.99 9.267 2.3 3.977 3.46 8.657 3.46 14.039 0 5.409-1.17 10.063-3.5 13.961-2.34 3.871-5.72 6.841-10.14 8.909-4.41 2.068-9.74 3.102-15.99 3.102h-21.52v-13.841h18.73c3.29 0 6.02-.451 8.2-1.352 2.17-.902 3.79-2.254 4.85-4.057 1.09-1.803 1.63-4.044 1.63-6.722 0-2.704-.54-4.984-1.63-6.841-1.06-1.856-2.69-3.261-4.89-4.215-2.18-.981-4.92-1.472-8.24-1.472h-11.61V192h-17.22Zm43.99-37.068L1354.45 192h-19.01l-19.81-37.068h18.58ZM1364.28 192v-81.455h32.13c6.16 0 11.41 1.101 15.75 3.302 4.38 2.174 7.71 5.263 9.99 9.267 2.3 3.977 3.46 8.657 3.46 14.039 0 5.409-1.17 10.063-3.5 13.961-2.34 3.871-5.72 6.841-10.14 8.909-4.41 2.068-9.74 3.102-15.99 3.102h-21.52v-13.841h18.73c3.29 0 6.02-.451 8.2-1.352 2.17-.902 3.79-2.254 4.85-4.057 1.09-1.803 1.63-4.044 1.63-6.722 0-2.704-.54-4.984-1.63-6.841-1.06-1.856-2.69-3.261-4.89-4.215-2.18-.981-4.92-1.472-8.24-1.472h-11.61V192h-17.22Zm43.99-37.068L1428.51 192h-19.01l-19.81-37.068h18.58Zm104.92-3.659c0 8.882-1.68 16.439-5.05 22.67-3.34 6.231-7.9 10.991-13.68 14.279-5.76 3.261-12.23 4.892-19.41 4.892-7.24 0-13.74-1.644-19.49-4.932-5.75-3.288-10.3-8.048-13.64-14.279s-5.01-13.774-5.01-22.63c0-8.883 1.67-16.44 5.01-22.671 3.34-6.231 7.89-10.977 13.64-14.238 5.75-3.288 12.25-4.932 19.49-4.932 7.18 0 13.65 1.644 19.41 4.932 5.78 3.261 10.34 8.007 13.68 14.238 3.37 6.231 5.05 13.788 5.05 22.671Zm-17.46 0c0-5.754-.86-10.606-2.59-14.557-1.69-3.951-4.09-6.947-7.19-8.989-3.11-2.041-6.74-3.062-10.9-3.062s-7.8 1.021-10.9 3.062c-3.1 2.042-5.51 5.038-7.24 8.989-1.7 3.951-2.54 8.803-2.54 14.557s.84 10.606 2.54 14.557c1.73 3.95 4.14 6.947 7.24 8.988 3.1 2.042 6.74 3.063 10.9 3.063s7.79-1.021 10.9-3.063c3.1-2.041 5.5-5.038 7.19-8.988 1.73-3.951 2.59-8.803 2.59-14.557ZM1526.51 192v-81.455h32.13c6.15 0 11.4 1.101 15.75 3.302 4.38 2.174 7.71 5.263 9.99 9.267 2.3 3.977 3.46 8.657 3.46 14.039 0 5.409-1.17 10.063-3.5 13.961-2.34 3.871-5.72 6.841-10.15 8.909-4.4 2.068-9.73 3.102-15.98 3.102h-21.52v-13.841h18.73c3.29 0 6.02-.451 8.19-1.352 2.18-.902 3.8-2.254 4.86-4.057 1.08-1.803 1.63-4.044 1.63-6.722 0-2.704-.55-4.984-1.63-6.841-1.06-1.856-2.69-3.261-4.89-4.215-2.18-.981-4.92-1.472-8.24-1.472h-11.61V192h-17.22Zm43.99-37.068L1590.74 192h-19.01l-19.81-37.068h18.58Zm81.32 22.75v-13.563l34.01-53.574h11.69v18.773h-6.92l-21.44 33.926v.637h48.33v13.801h-65.67Zm39.1 14.318v-18.455l.32-6.005v-56.995h16.14V192h-16.46Zm70.54 1.79c-6.84-.027-12.73-1.71-17.66-5.051-4.91-3.341-8.69-8.18-11.34-14.517-2.62-6.338-3.92-13.961-3.89-22.87 0-8.882 1.31-16.452 3.93-22.71 2.65-6.258 6.43-11.017 11.34-14.278 4.93-3.288 10.8-4.932 17.62-4.932 6.81 0 12.67 1.644 17.58 4.932 4.93 3.288 8.72 8.06 11.37 14.318 2.65 6.231 3.97 13.788 3.94 22.67 0 8.936-1.33 16.572-3.98 22.909-2.62 6.337-6.39 11.176-11.29 14.517-4.91 3.341-10.78 5.012-17.62 5.012Zm0-14.279c4.66 0 8.39-2.346 11.17-7.039 2.79-4.694 4.17-11.733 4.14-21.12 0-6.178-.64-11.322-1.91-15.432-1.25-4.109-3.02-7.198-5.33-9.267-2.28-2.068-4.97-3.102-8.07-3.102-4.64 0-8.35 2.32-11.14 6.96-2.78 4.641-4.19 11.587-4.21 20.841 0 6.258.62 11.481 1.86 15.671 1.28 4.163 3.07 7.291 5.37 9.386 2.31 2.068 5.02 3.102 8.12 3.102Zm44.5-1.829v-13.563l34-53.574h11.7v18.773h-6.93l-21.43 33.926v.637h48.32v13.801h-65.66ZM1845.05 192v-18.455l.32-6.005v-56.995h16.15V192h-16.47Z"/>
  <path fill="#5D9AFF" d="M1265.26 386.813h-13.55v-7.804h13.55c2.21 0 4.01-.362 5.38-1.084 1.4-.747 2.42-1.759 3.07-3.035.65-1.301.98-2.783.98-4.445 0-1.614-.33-3.119-.98-4.516-.65-1.397-1.67-2.53-3.07-3.397-1.37-.867-3.17-1.301-5.38-1.301h-10.3V406h-9.94v-52.609h20.24c4.09 0 7.58.734 10.48 2.204 2.91 1.445 5.13 3.456 6.64 6.034 1.55 2.553 2.32 5.468 2.32 8.744 0 3.397-.77 6.323-2.32 8.78-1.51 2.457-3.73 4.348-6.64 5.673-2.9 1.325-6.39 1.987-10.48 1.987Zm42.82-25.437L1293.09 406h-10.52l19.66-52.609h6.72l-.87 7.985ZM1320.62 406l-15.07-44.624-.9-7.985h6.76L1331.17 406h-10.55Zm-.69-19.548v7.841h-28.22v-7.841h28.22Zm57.43-7.66v20.487c-.77.988-1.99 2.06-3.65 3.216-1.64 1.156-3.78 2.156-6.43 2.999-2.65.819-5.9 1.229-9.76 1.229-3.35 0-6.41-.554-9.18-1.662a19.797 19.797 0 0 1-7.15-4.951c-2-2.168-3.54-4.817-4.63-7.949-1.08-3.131-1.62-6.709-1.62-10.731v-3.469c0-4.023.5-7.6 1.52-10.732 1.03-3.131 2.5-5.781 4.4-7.949a19.07 19.07 0 0 1 6.91-4.95c2.69-1.132 5.7-1.698 9.03-1.698 4.45 0 8.12.735 10.98 2.204 2.89 1.469 5.11 3.493 6.65 6.07 1.54 2.554 2.51 5.492 2.89 8.817h-9.68c-.27-1.831-.8-3.433-1.59-4.806-.8-1.397-1.93-2.481-3.4-3.252-1.44-.795-3.32-1.192-5.63-1.192-1.96 0-3.68.385-5.17 1.156-1.5.771-2.75 1.891-3.76 3.36-1.01 1.47-1.78 3.288-2.31 5.456-.51 2.168-.76 4.649-.76 7.444v3.541c0 2.818.29 5.323.87 7.515.57 2.168 1.41 3.999 2.49 5.493 1.11 1.469 2.47 2.589 4.08 3.36 1.64.747 3.5 1.12 5.57 1.12 1.88 0 3.43-.157 4.66-.47 1.25-.337 2.25-.734 3-1.192.74-.458 1.32-.903 1.73-1.337v-9.864h-10.44v-7.263h20.38Zm44.63 19.403V406h-27.97v-7.805h27.97Zm-24.93-44.804V406h-9.94v-52.609h9.94Zm21.28 21.715v7.624h-24.32v-7.624h24.32Zm3.54-21.715v7.84h-27.86v-7.84h27.86Zm68.46 0V406h-9.98L1458 369.506V406h-9.94v-52.609h9.94l22.43 36.53v-36.53h9.91Zm53.08 24.967v2.71c0 3.975-.53 7.552-1.59 10.732-1.06 3.155-2.56 5.841-4.51 8.057a19.691 19.691 0 0 1-6.98 5.095c-2.69 1.18-5.69 1.771-8.99 1.771-3.26 0-6.24-.591-8.96-1.771a19.98 19.98 0 0 1-7.01-5.095c-1.98-2.216-3.51-4.902-4.59-8.057-1.09-3.18-1.63-6.757-1.63-10.732v-2.71c0-3.998.54-7.575 1.63-10.731 1.08-3.156 2.6-5.842 4.55-8.058 1.95-2.24 4.27-3.95 6.97-5.131 2.72-1.18 5.71-1.77 8.96-1.77 3.3 0 6.3.59 9 1.77a19.488 19.488 0 0 1 6.97 5.131c1.98 2.216 3.5 4.902 4.56 8.058 1.08 3.156 1.62 6.733 1.62 10.731Zm-10.04 2.71v-2.782c0-2.866-.27-5.384-.8-7.552-.53-2.192-1.31-4.034-2.35-5.528-1.03-1.493-2.31-2.614-3.83-3.36-1.51-.771-3.22-1.157-5.13-1.157-1.92 0-3.63.386-5.13 1.157-1.47.746-2.72 1.867-3.75 3.36-1.04 1.494-1.84 3.336-2.39 5.528-.53 2.168-.79 4.686-.79 7.552v2.782c0 2.843.26 5.36.79 7.552.55 2.192 1.35 4.047 2.39 5.565 1.05 1.493 2.33 2.625 3.83 3.396 1.49.771 3.2 1.156 5.13 1.156 1.92 0 3.63-.385 5.13-1.156 1.49-.771 2.74-1.903 3.75-3.396 1.04-1.518 1.82-3.373 2.35-5.565s.8-4.709.8-7.552Zm39.32-27.677V406h-9.9v-52.609h9.9Zm16.33 0v7.84h-42.38v-7.84h42.38Zm33.91 0V406H1613v-52.609h9.94Zm21.21 22.727v7.841h-23.81v-7.841h23.81Zm2.78-22.727v7.84h-26.59v-7.84h26.59Zm49.73 24.967v2.71c0 3.975-.53 7.552-1.59 10.732-1.06 3.155-2.56 5.841-4.52 8.057a19.655 19.655 0 0 1-6.97 5.095c-2.7 1.18-5.7 1.771-9 1.771-3.25 0-6.24-.591-8.96-1.771a20.07 20.07 0 0 1-7.01-5.095c-1.97-2.216-3.5-4.902-4.59-8.057-1.08-3.18-1.62-6.757-1.62-10.732v-2.71c0-3.998.54-7.575 1.62-10.731 1.09-3.156 2.61-5.842 4.56-8.058 1.95-2.24 4.27-3.95 6.97-5.131 2.72-1.18 5.71-1.77 8.96-1.77 3.3 0 6.3.59 9 1.77a19.488 19.488 0 0 1 6.97 5.131c1.98 2.216 3.5 4.902 4.55 8.058 1.09 3.156 1.63 6.733 1.63 10.731Zm-10.04 2.71v-2.782c0-2.866-.27-5.384-.8-7.552-.53-2.192-1.31-4.034-2.35-5.528-1.03-1.493-2.31-2.614-3.83-3.36-1.52-.771-3.23-1.157-5.13-1.157-1.93 0-3.64.386-5.13 1.157-1.47.746-2.72 1.867-3.76 3.36-1.03 1.494-1.83 3.336-2.38 5.528-.53 2.168-.8 4.686-.8 7.552v2.782c0 2.843.27 5.36.8 7.552.55 2.192 1.35 4.047 2.38 5.565 1.06 1.493 2.34 2.625 3.83 3.396 1.5.771 3.21 1.156 5.13 1.156 1.93 0 3.64-.385 5.13-1.156 1.5-.771 2.75-1.903 3.76-3.396 1.04-1.518 1.82-3.373 2.35-5.565s.8-4.709.8-7.552Zm48.1-27.677h9.93v34.94c0 4.023-.86 7.407-2.6 10.153-1.73 2.722-4.09 4.782-7.08 6.179-2.99 1.373-6.38 2.06-10.19 2.06-3.85 0-7.29-.687-10.3-2.06-3.01-1.397-5.37-3.457-7.08-6.179-1.71-2.746-2.56-6.13-2.56-10.153v-34.94h9.93v34.94c0 2.457.41 4.468 1.23 6.034.82 1.542 1.98 2.686 3.47 3.433 1.49.747 3.26 1.12 5.31 1.12 2.07 0 3.84-.373 5.31-1.12 1.5-.747 2.64-1.891 3.44-3.433.79-1.566 1.19-3.577 1.19-6.034v-34.94Zm62.01 0V406h-9.97l-22.37-36.494V406h-9.94v-52.609h9.94l22.44 36.53v-36.53h9.9Zm26.2 52.609h-11.34l.07-7.805h11.27c3.06 0 5.63-.674 7.7-2.023 2.07-1.373 3.64-3.336 4.7-5.89 1.06-2.577 1.59-5.661 1.59-9.25v-2.71c0-2.77-.3-5.215-.9-7.335-.61-2.119-1.5-3.902-2.68-5.347a11.14 11.14 0 0 0-4.3-3.288c-1.71-.747-3.67-1.121-5.89-1.121h-11.78v-7.84h11.78c3.52 0 6.72.59 9.61 1.77 2.92 1.18 5.44 2.879 7.55 5.095 2.15 2.192 3.79 4.818 4.92 7.877 1.16 3.059 1.73 6.48 1.73 10.262v2.637c0 3.758-.57 7.179-1.73 10.262-1.13 3.059-2.77 5.685-4.92 7.877-2.11 2.192-4.64 3.878-7.58 5.058-2.94 1.181-6.21 1.771-9.8 1.771Zm-5.78-52.609V406h-9.93v-52.609h9.93Z"/>
  <defs>
    <linearGradient id="a" x1="1703.28" x2="1846.46" y1="1801.96" y2="1907.07" gradientUnits="userSpaceOnUse">
      <stop stop-color="#30343F"/>
      <stop offset="1" stop-color="#192132"/>
    </linearGradient>
    <linearGradient id="b" x1="1944.72" x2="2122.34" y1="1872.68" y2="1872.68" gradientUnits="userSpaceOnUse">
      <stop stop-color="#30343F"/>
      <stop offset="1" stop-color="#192132"/>
    </linearGradient>
    <linearGradient id="c" x1="2947.74" x2="2821.16" y1="1066.01" y2="920.93" gradientUnits="userSpaceOnUse">
      <stop stop-color="#30343F"/>
      <stop offset="1" stop-color="#192132"/>
    </linearGradient>
  </defs>
</svg>
