<svg xmlns="http://www.w3.org/2000/svg" width="4864" height="2074" fill="none" viewBox="0 0 4864 2074">
  <g clip-path="url(#a)">
    <path fill="#3F3F3F" d="M4709.27 2065.59c-282.74 0-4491.16.68-4493.547-4.14l-.403-.61s-.404-.59-.404-.9c-1.579-2.4-634.559-678.49 349.492-1149.142 385.045-184.145-24.1-305.704 282.094-510.718 351.858-235.592 764.478 99.772 1127.158-81.804 1098.57-549.995 2271.2-257.01 2525.12-81.62 51.12 35.332 324.69 208.869 181.23 531.054-79.86 179.337-71.31 413.79 75.51 616.03 269.98 371.91-42.28 675.87-46.25 681.85Z"/>
    <path fill="#00CE9D" d="M4513.35 1780.76s11.05-58.39-56.11-79.51c-67.16-21.13-1336.37-23.73-1359.13-11.2-22.78 12.56-77.16 90.71-77.16 90.71h1492.4Z"/>
    <path fill="#2EFAC9" d="M4542.98 1161.59H3020.95V917.516h1522.03v244.074Zm-2.33 859.42H3020.93V1776.9h1519.72v244.11Z"/>
    <path fill="#AEC3FF" d="M3080.25 1881.14h-59.3v186.77h59.3v-186.77Z"/>
    <path fill="#00CE9D" d="M4542.99 1819.6h-59.32v248.31h59.32v-248.33m-.01-857.978h-218.46V517.436h218.46v444.166Z"/>
    <path fill="#F79623" d="M2889.69 2072h-785.74V704.15h785.74V2072Z"/>
    <path fill="#0B0755" d="M2500.77 2072h-7.94V704.15h7.94V2072Zm26-683.74c.23-2.22.92-4.37 2.01-6.32 1.09-1.95 2.56-3.66 4.32-5.03 1.77-1.36 3.79-2.36 5.95-2.93 2.16-.57 4.41-.7 6.62-.38 2.21.32 4.33 1.09 6.24 2.25 1.91 1.16 3.56 2.69 4.86 4.5 1.3 1.82 2.23 3.87 2.72 6.05.49 2.18.53 4.43.13 6.63-.77 4.23-3.16 8-6.65 10.5a16.595 16.595 0 0 1-12.08 2.95c-4.25-.62-8.1-2.86-10.74-6.26-2.63-3.4-3.85-7.69-3.38-11.96Z"/>
    <path fill="#E87E02" d="M2473.76 2048.25h-346.69V726.726h346.69V2048.25Z"/>
    <path fill="#E72E00" d="M2249.28 1400.48h224.5v-23.75h-224.5v23.77-.02Zm0-512.79h224.5v-11.893h-224.5v11.893Zm0 741.34h224.5v-23.77h-224.5v23.77Zm0 228.52h224.5v-23.77h-224.5v23.77Z"/>
    <path fill="#F99746" d="M2448.72 1350.36h-87.29c-5.18 0-9.38 6.22-9.38 13.87 0 7.66 4.2 13.88 9.38 13.88h87.29c5.2 0 9.4-6.22 9.4-13.88 0-7.65-4.2-13.85-9.4-13.85v-.02Z"/>
    <path fill="#E72E00" d="M2448.72 1322.62h-87.29c-5.18 0-9.38 6.23-9.38 13.86 0 7.66 4.2 13.9 9.38 13.9h87.29c5.2 0 9.4-6.24 9.4-13.9 0-7.63-4.2-13.86-9.4-13.86Z"/>
    <path fill="#F99746" d="M2448.72 1294.87h-87.29c-5.18 0-9.38 6.23-9.38 13.88s4.2 13.86 9.38 13.86h87.29c5.2 0 9.4-6.21 9.4-13.86 0-7.65-4.2-13.86-9.4-13.86v-.02Z"/>
    <path fill="#060633" d="M2444.26 848.064h-128.92a13.905 13.905 0 0 0-9.49 4.235 13.885 13.885 0 0 0-3.88 9.631c0 3.593 1.39 7.046 3.88 9.632 2.5 2.586 5.9 4.104 9.49 4.235h128.92c3.68 0 7.2-1.46 9.8-4.059a13.853 13.853 0 0 0 0-19.597 13.854 13.854 0 0 0-9.8-4.059v-.018Z"/>
    <path fill="#E72E00" d="M2444.26 820.313h-128.92a13.883 13.883 0 0 0-9.36 4.307 13.86 13.86 0 0 0-3.82 9.569 13.86 13.86 0 0 0 3.82 9.568 13.878 13.878 0 0 0 9.36 4.307h128.92a13.889 13.889 0 0 0 13.88-13.875c0-3.68-1.47-7.21-4.07-9.812a13.869 13.869 0 0 0-9.81-4.064Z"/>
    <path fill="#F99746" d="M2444.26 792.58h-128.92a13.905 13.905 0 0 0-9.49 4.235 13.886 13.886 0 0 0-3.88 9.632c0 3.592 1.39 7.045 3.88 9.631 2.5 2.586 5.9 4.104 9.49 4.235h128.92c3.68 0 7.2-1.46 9.8-4.059a13.85 13.85 0 0 0 0-19.597 13.854 13.854 0 0 0-9.8-4.059v-.018Z"/>
    <path fill="#D57300" d="M2305 2072h-173.36V704.15H2305V2072Z"/>
    <path fill="#6980E2" d="M2291.15 2072h-173.36V704.15h173.36V2072Z"/>
    <path fill="#E72E00" d="M2103.95 896.592h-8.91v-64.679h8.91v64.697-.018Zm0 577.818h-8.91v-64.7h8.91v64.7Z"/>
    <path fill="#D47300" d="M2291.15 2072h-173.36V704.15h173.36V2072Z"/>
    <path fill="#CD6F00" d="M2277.32 2072h-173.37V704.15h173.37V2072Z"/>
    <path fill="#77A738" d="M2514.54 509.341s30.97-36.12 1.93-59.063c0 0-21.22-12.847-38.55-11.801 0 0 24.53 41.113 16.6 45.206-7.93 4.074-24.03-47.776-24.03-47.776s-48.27-4.68-63.8 2.79c0 0 41.26 33.771 32.56 35.79-8.68 2.001-53.25-31.165-53.25-31.165s-44.95 7.672-42.56 35.075c2.38 27.402 17.89 35.882 24.69 35.147 6.79-.734 46.62-15.912 47.5-10.351.86 5.579-23.11 23.805-39.91 24.649 0 0 31.7 34.965 52.76 24.87 21.07-10.095 22.85-26.063 35.99-32.065 13.1-6.001 24.32-5.983 18.9.129-5.43 6.112-29.18 12.059-36.69 25.328-7.5 13.289-14.24 22.246 7.55 18.96 21.78-3.285 57.21-19.216 58.77-37.46l1.54-18.263Z"/>
    <path fill="#77A738" d="M2365.54 479.149s122.06-4.717 149.02 30.192c0 0 5.96 17.859 24.3 34.12l2.86 7.801s-21.14-22.319-28.7-23.677c0 0 11.84-43.223-147.48-48.454"/>
    <path fill="#C8DBF4" d="M2538.86 543.461s26.19 19.382 28.03 53.979l-4.76.422s-8.36-35.79-23.51-49.794c-15.12-13.986.24-4.607.24-4.607Z"/>
    <path fill="#77A738" d="M2622.8 463.915s-49.25-27.568-26.27-64.991c0 0 18.37-22.98 38.09-28.908 0 0-10.52 55.833 0 57.136 10.5 1.322 7.23-63.027 7.23-63.027s51.85-24.962 72.23-22.98c0 0-32.18 54.512-21.68 53.172 10.5-1.322 46.62-56.475 46.62-56.475s53.19-9.838 61.73 21.676c8.53 31.532-5.27 47.28-13.13 49.243-7.87 1.964-58.44 1.322-57.14 7.893 1.33 6.57 35.47 17.069 54.52 11.14 0 0-21.02 51.887-48.61 49.263-27.56-2.625-36.12-19.713-53.17-21.016-17.09-1.321-29.57 3.286-21.02 7.892 8.52 4.589 37.43 1.505 51.21 13.215 13.79 11.729 24.97 18.942-.64 24.191-25.64 5.267-71.6 1.982-80.78-17.712l-9.19-19.712Z"/>
    <path fill="#77A738" d="M2776.45 369.374s-137.9 44.637-153.63 94.541c0 0 .64 22.337-13.15 47.941v9.838s14.43-33.478 22.32-38.066c0 0-30.87-43.334 144.46-114.254Z"/>
    <path fill="#77A738" d="M2609.66 511.856s-21.28 32.303-9.13 71.58l5.45-1.45s-5.3-43.297 5.82-65.083c11.13-21.768-2.14-5.047-2.14-5.047Z"/>
    <path fill="#93C93F" d="M2544.46 425.886s64.9-36.341 34.62-85.695c0 0-24.23-30.284-50.2-38.085 0 0 13.84 73.581 0 75.307-13.86 1.743-9.53-83.089-9.53-83.089s-68.37-32.89-95.21-30.284c0 0 42.4 71.819 28.56 70.112-13.85-1.743-61.45-74.443-61.45-74.443s-70.11-12.995-81.38 28.558c-11.24 41.554 6.94 62.312 17.32 64.918 10.38 2.607 77.04 1.726 75.31 10.37-1.72 8.664-46.73 22.521-71.84 14.739 0 0 27.7 68.368 64.04 64.899 36.36-3.469 47.62-25.97 70.12-27.696 22.5-1.743 38.97 4.332 27.7 10.389-11.24 6.056-49.34 1.982-67.51 17.436-18.17 15.436-32.89 24.98.86 31.899 33.75 6.938 94.34 2.606 106.46-23.365l12.13-25.97Z"/>
    <path fill="#93C93F" d="M2341.9 301.244s181.76 58.88 202.56 124.624c0 0-.86 29.458 17.31 63.192v12.995s-19.05-44.141-29.44-50.198c0 0 40.67-57.136-190.43-150.613Z"/>
    <path fill="#D4E4F8" d="M2561.77 489.06s28.03 42.581 12.06 94.395l-7.24-1.946s7.02-57.081-7.65-85.75c-14.66-28.724 2.83-6.699 2.83-6.699Z"/>
    <path fill="#8B3D06" d="M2546.63 695.8a127.17 127.17 0 0 1-127.18-127.138h254.34c0 16.699-3.29 33.235-9.68 48.663a127.1 127.1 0 0 1-68.82 68.819 127.175 127.175 0 0 1-48.66 9.674v-.018Z"/>
    <path fill="#00DEA9" d="M2417.72 702.278h257.83a15.722 15.722 0 0 0-4.6-11.084 15.722 15.722 0 0 0-11.09-4.59h-226.47c-2.05 0-4.09.405-5.99 1.193a15.652 15.652 0 0 0-5.09 3.398 15.796 15.796 0 0 0-3.4 5.085 15.818 15.818 0 0 0-1.19 5.998Z"/>
    <path fill="#9FC1F4" d="M2416.56 572.553h261.43v-3.891h-261.43v3.891Z"/>
    <path fill="#C0D8FB" d="M1325.83 1089.25h-161.04c-3.56-.01-6.97-1.43-9.49-3.95a13.496 13.496 0 0 1-3.95-9.5V920.342c0-7.378 6.06-13.435 13.44-13.435h161.06c7.4 0 13.46 6.057 13.46 13.453v155.46c0 7.38-6.06 13.43-13.46 13.43h-.02Z"/>
    <path fill="#00CE9D" d="M1318.86 1081.34h-147.11c-6.76 0-12.3-5.5-12.3-12.28V927.078c0-6.754 5.54-12.279 12.3-12.279h147.11c6.75 0 12.28 5.525 12.28 12.298v141.963c0 3.27-1.3 6.39-3.6 8.7a12.3 12.3 0 0 1-8.7 3.6l.02-.02Z"/>
    <path fill="#B7D3F3" d="M1241.42 931.465c0-1.032.41-2.023 1.13-2.754a3.902 3.902 0 0 1 5.51-.013 3.88 3.88 0 0 1 1.14 2.748 3.892 3.892 0 0 1-3.89 3.891 3.894 3.894 0 0 1-3.89-3.891v.019Zm31.41 5.488c.23-.473.56-.894.96-1.236a3.888 3.888 0 0 1 4.42-.442c.46.257.86.604 1.19 1.021.32.417.55.896.68 1.406.14.511.16 1.043.08 1.564a3.884 3.884 0 0 1-2.87 3.176c-.97.25-1.99.118-2.87-.368a3.905 3.905 0 0 1-1.82-2.241 3.84 3.84 0 0 1 .23-2.88Zm26.92 21.382c.43-.294.92-.5 1.42-.604a3.877 3.877 0 0 1 2.97.595c.43.293.8.669 1.08 1.106.29.436.48.925.57 1.438.09.512.07 1.037-.04 1.544-.12.507-.34.985-.64 1.407a3.907 3.907 0 0 1-4.03 1.514 3.892 3.892 0 0 1-2.39-1.68 3.889 3.889 0 0 1 1.06-5.32Zm13.35 33.092a3.89 3.89 0 1 1-2.75 6.643 3.892 3.892 0 0 1 2.75-6.643Zm-6.83 38.413c.36.36.65.79.84 1.27a3.85 3.85 0 0 1 0 2.98c-.19.47-.48.9-.84 1.26s-.79.65-1.26.84a3.85 3.85 0 0 1-2.98 0c-.48-.19-.91-.48-1.27-.84a3.897 3.897 0 0 1 0-5.51 3.897 3.897 0 0 1 5.51 0Zm-24.45 24.5c.73.73 1.14 1.73 1.14 2.76a3.89 3.89 0 0 1-3.89 3.89 3.89 3.89 0 0 1-3.9-3.89c0-1.03.41-2.03 1.14-2.76a3.897 3.897 0 0 1 5.51 0Zm-40.4 12.63a3.89 3.89 0 0 1 7.78 0 3.89 3.89 0 0 1-7.78 0Zm-23.77-130.017a3.844 3.844 0 0 0-.96-1.236 3.907 3.907 0 0 0-2.93-.913 3.92 3.92 0 0 0-1.49.471c-.46.257-.86.604-1.19 1.021-.32.417-.55.896-.68 1.406a3.753 3.753 0 0 0-.08 1.564 3.884 3.884 0 0 0 2.87 3.176c.97.25 1.99.118 2.87-.368a3.905 3.905 0 0 0 1.82-2.241c.29-.954.21-1.985-.23-2.88Zm-26.91 21.382a3.876 3.876 0 0 0-2.96-.607c-.51.102-1 .306-1.43.598-.43.293-.79.669-1.08 1.106a3.91 3.91 0 0 0-.52 2.982c.12.507.33.985.64 1.407a3.87 3.87 0 0 0 4.02 1.514 3.886 3.886 0 0 0 2.4-1.68c.55-.851.75-1.883.55-2.877-.2-.993-.78-1.87-1.62-2.443Zm-13.32 33.092a3.89 3.89 0 1 0 2.75 6.643 3.892 3.892 0 0 0-2.75-6.643Zm6.79 38.413a3.897 3.897 0 0 0 5.51 5.51 3.897 3.897 0 0 0 0-5.51 3.897 3.897 0 0 0-5.51 0Zm24.45 24.5c-.73.73-1.14 1.73-1.14 2.76a3.89 3.89 0 0 0 6.64 2.75 3.9 3.9 0 0 0 1.15-2.75c0-1.03-.42-2.03-1.15-2.76a3.89 3.89 0 0 0-5.5 0Zm35.61-59.003c-.04-.533.03-1.067.21-1.569.18-.503.46-.964.82-1.354.37-.39.81-.701 1.3-.913a3.861 3.861 0 0 1 1.55-.323c.53 0 1.06.11 1.55.323.49.212.93.523 1.29.913.37.39.65.851.83 1.354.17.502.25 1.036.21 1.569a3.89 3.89 0 0 1-7.78 0h.02Z"/>
    <path fill="#B7D3F3" d="M1248.67 995.336h-1.05v-48.638h1.07v48.638h-.02Z"/>
    <path fill="#B7D3F3" d="m1248.63 996.511-1.96-2.515 25.79-20.244 1.96 2.514-25.79 20.245Z"/>
    <path fill="#00CE9D" d="M3380.59 1068.37c-20.36-6.76-34.43 1.78-34.43 1.78-58.54 2.38-60.72 62.4-53.84 84.74 9.66 31.38-24.52 56.11 13.36 68.79 43.96 14.74 80.84-8.52 78.34-.94 139 10.96 42.81-139.01-3.43-154.37Z"/>
    <path fill="#2B478B" d="M3319.85 1360.25s-5.56 11.03-15.65 23.68c-12.15 15.23-76.01-20.93-70.5-23.68 5.49-2.75 36.58-90.98 49.76-106.64a56.107 56.107 0 0 1 29.14-17.76l7.25 124.4Z"/>
    <path fill="#00CE9D" d="M3535.28 1983.55s17.61 16.06 14.17 27.5c-3.43 11.41-19.34 19.05-21.47 33-2.15 13.96-10.76 21.58-18.5 21.58h-36.86s-5.71-9.82 8.04-12.79c13.77-2.94 18.94-19.37 18.08-34.6-.86-15.23 1.3-35.55 1.3-35.55l29.2-6.76 6.04 7.62Zm-149.13 6.81s6.33 68.13-1.39 71.95l-98.99-.22s0-11.44 15.88-13.95c15.91-2.55 43.83-11.86 48.56-32.58 4.74-20.74 35.94-25.2 35.94-25.2Z"/>
    <path fill="#2B478B" d="M3462.32 1314.29s1.49 20.8 0 45.76c-.97 16.55-17.71 38.73-20.08 44.2-5.96 13.74-12.7 15.96-12.7 15.96l-51.96 12.76-18.28 4.48-57.63-17.22s-26.25-73.27-15.7-114.53c10.54-41.24 26.63-69.87 26.63-69.87s39.17-8.81 108.28-3.91l41.44 82.37Z"/>
    <path fill="#163560" d="M3467.26 1360.65c-.99 16.52-22.67 38.11-25.05 43.6-5.97 13.76-12.69 15.98-12.69 15.98l-51.96 12.74-13.87-19.55s84.13-23.4 68.22-97.59l35.35 44.82Z"/>
    <path fill="#ED7D2B" d="M3305.32 1431.35s-28.53 88.84-30.36 119.07c-1.84 30.28 54.57 429.68 56.84 443.63 2.11 13.1 18.45 21.49 18.45 21.49s7.49 4.43 18.21 1.42c14.86-4.21 19.56-9.22 19.56-9.22s22.21-284.87 8.46-386.62c-13.76-101.78-13.91-189.77-13.91-189.77h-77.25Z"/>
    <path fill="#F99746" d="M3426.26 1428.69s43.53 58.42 47.59 97.92c4.06 39.48 6.35 178.18 15 216.67 8.68 38.51 40.41 112.58 40.41 232.65 0 0-3.28 6.87-13.47 10.56-3.9 1.29-7.86 2.39-11.87 3.27-4.09.93-8.37.46-12.15-1.33a18.63 18.63 0 0 1-8.72-8.57c-21.5-43.26-89.92-182.73-93.43-211.67-2.48-20.49-24.08-156.1-71.2-235.67-11.3-19.11 6.94-95.07 6.94-95.07l100.9-8.76Z"/>
    <path fill="#163560" d="M3300.75 1417.66s11.45 9.05 34.21 9.51c27.2.55 94.56-6.94 94.56-6.94s3 8.35 2.89 17.2c0 0-82.29 20.74-129.97 3.03 0 0-6.14-11.57-1.69-22.8Z"/>
    <path fill="#fff" d="M3328.48 1426.64c-4.59 0-8.31 4.44-8.31 9.91 0 5.49 3.72 9.91 8.31 9.91 4.55 0 8.3-4.42 8.3-9.91 0-5.47-3.75-9.91-8.3-9.91Zm0 23.95c-6.86 0-12.43-6.3-12.43-14.04 0-7.73 5.57-14.04 12.43-14.04 6.83 0 12.39 6.31 12.39 14.04 0 7.74-5.56 14.04-12.39 14.04Z"/>
    <path fill="#D35B31" d="m3387.89 1476.14-123.67 1.15-60.84-143.01 123.67-1.16 60.84 143.02Z"/>
    <path fill="#FFB27D" d="m3371.74 1411.49-9.08-11.12s-6.11-5.47-10.57-6.42c-4.47-.92-13.86-6.33-14.76-4.79-.94 1.5 7.21 12.41 7.21 12.41l.4.05c-9.32 7.03-32.91.83-35.81 3.69-3.52 3.49 4.87 10.97 9.38 15.2 4.46 4.22 17.33 11.23 27.37 8.11 7.32-2.28 18.85-4.59 18.85-4.59l7.01-12.54Zm-159.08-52.05s7.77-8.84 12.72-4.59c4.96 4.23-1.28 25.08-5.98 22.97-4.72-2.13-9.44-15.79-6.74-18.36"/>
    <path fill="#2B478B" d="M3420.86 1231.92s41.24 2.9 57.03 41.31c15.82 38.46 44.89 101.69 38.62 128.19-2.48 10.55-32.51 47.15-157.82 23.91 0 0 1.05-13.12 9.49-19.25 0 0 88.29-28.34 88.12-33.99-.27-10.65-11.91-19.86-61.25-69.2-13.38-13.39 25.81-70.95 25.81-70.95"/>
    <path fill="#FFB27D" d="M3393.6 1233.81c1.23-1.63-.35-6.85-2.31-16.52-1.74-8.77-4.74-22.35-4.66-37.62l-2.63.44-43.85 7.39s1 11.71 1.01 22.76v.3c.08 9.59-2.57 24.09.65 25.98 16.63 9.75 47.13 3.55 51.79-2.75"/>
    <path fill="#E8945B" d="M3340.15 1187.5s.87 16.52.9 27.61c24.56-.61 37.67-24.45 42.95-34.99l-43.85 7.38Z"/>
    <path fill="#FFB27D" d="M3337.49 1207.23s57.53-8.2 51.86-43.94c-5.64-35.73-2.02-60.86-38.99-57.15-36.97 3.73-41.92 18.48-42.95 30.87-1.01 12.39 14.96 71.42 30.08 70.22Z"/>
    <path fill="#00CE9D" d="M3324.09 1109.42s22.38 39.43 47.47 41.78c25.11 2.37 34.54-5.76 34.54-5.76s-20.83-11.75-28.74-36.77c0 0-44.6-21.11-53.27.74"/>
    <path fill="#2EFAC9" d="M3328.54 1112.21s-10.96 6.21-14.41 15.48a58.777 58.777 0 0 0-2.54 34.03s-16.33-26.62-5.63-44.84c11.38-19.35 22.58-4.67 22.58-4.67Z"/>
    <path fill="#B5453C" d="m1054.48 1469.24-6.61 1.06-12.48-77.89 6.61-1.09 12.48 77.92Z"/>
    <path fill="#EFCBAB" d="m1036.49 1378.16-1.1 14.25 6.61-1.09-5.51-13.16Z"/>
    <path fill="#B5453C" d="m1099.17 1476.71-6.59-1.22 14.43-77.58 6.57 1.23-14.41 77.57Z"/>
    <path fill="#EFCBAB" d="m1112.85 1384.86-5.86 13.07 6.61 1.21-.77-14.28h.02Z"/>
    <path fill="#B5453C" d="m1090.82 1453.97-6.57-1.23 14.41-77.57 6.59 1.23-14.41 77.57h-.02Z"/>
    <path fill="#EFCBAB" d="m1104.5 1362.1-5.84 13.07 6.61 1.23-.77-14.3Z"/>
    <path fill="#ED7D2B" d="M1112.88 1500.22h-52.73v-75.99h52.73v75.99Z"/>
    <path fill="#F99746" d="M1086.51 1500.22h-52.74v-75.99h52.74v75.99Z"/>
    <path fill="#03E3AD" d="M4029.48 801.518s30.66-105.498 125.57-163.882c0 0 146.41 3.652 236.43 73.232 0 0-119.18 158.817-107.62 259.342 0 0-196.54-44.784-254.38-168.71v.018Z"/>
    <path fill="#0CAD86" d="M4391.48 710.85s.18 101.736-32.6 169.095c-32.77 67.359-75.04 90.246-75.04 90.246.24-.642-7.82-183.907 107.64-259.341Z"/>
    <path fill="#8C9DF4" d="M4011.9 710.005s4.44-130.313 37.59-186.751c33.17-56.457 136.65 68.644 136.65 68.644l-116.44 95-57.8 23.126"/>
    <path fill="#F9DDBF" d="M3301.04 889.618s-87.66-4.075-99.55-11.49c-11.92-7.415-38.53-11.985-47.82-21.29-9.29-9.324-21.93-19.162-27.09-9.93-6.57 11.747 11.34 46.913 19.68 52.492 8.31 5.58 34.67 17.106 46.56 30.046 11.9 12.939 26.03 10.774 35.41 1.652 9.38-9.104 90.96-23.897 90.96-23.897l-18.15-17.583Z"/>
    <path fill="#233862" d="M3826.15 829.765c-9.62-10.241-178.66-95.991-245.25-94.596-73.37 1.578-284.39 137.544-284.39 137.544l82.7-4.037s189.09-43.573 206.88-37.076c54.62 19.933 209.34 157.918 293.27 134.113 90.97-25.806 94.91-89.714 94.91-89.714l-148.12-46.252"/>
    <path fill="#8C9DF4" d="M4110.69 906.356a184.934 184.934 0 0 1-6.56 7.397 214.09 214.09 0 0 1-37.4 31.22c-70.03 46.619-160.17 56.177-160.17 56.177-104-41.842-89.4-201.21-89.4-201.21 139.88-1.578 247.11-162.304 247.11-162.304s83.77 43.462 123.36 102.984c21.18 31.862 14.54 113.336 10.94 131.176-6.72 33.514-41.48-20.63-87.88 34.56Z"/>
    <path fill="#FFB27D" d="M4157.75 669.737a124.742 124.742 0 0 0-6.22 27.237 30.545 30.545 0 0 1-23.68 26.32c-11.4 2.569-19.92 2.422-26.23 1.211a16.207 16.207 0 0 1-5.87-2.376c-1.77-1.17-3.3-2.68-4.5-4.444a16.126 16.126 0 0 1-2.45-5.831 16.043 16.043 0 0 1-.03-6.327c.81-4.203 1.62-8.076 1.8-8.718l1.06-3.597c3.95-13.032 5.8-20.373 5.8-20.373h.06c1.47-.11 34.82-2.79 51.28-3.396 5.49-.183 9.12-.165 8.98.294Z"/>
    <path fill="#ED975D" d="M4095.54 679.776c22.38 10.04 47.54 2.184 47.54 2.184-2.18-2.422 8.22-10.828 5.67-12.517-16.44.606-46.03-.422-47.52-.294-.05 0-4.24 2.9-4.24 2.9s-.68 3.139-1.45 7.727Z"/>
    <path fill="#FFB27D" d="M4088.13 669.058s8.95 5.359 20.9 9.452c17.51 6.002 41.41 9.269 53.16-11.012 19.75-34.102 40.09-52.86 6.28-75.123-18.12-11.912-30.64-14.83-39.8-13.472-7.96 1.156-13.38 5.543-17.76 10.095-9.35 9.782-36.4 70.699-22.78 80.06Z"/>
    <path fill="#0CAD86" d="M4112.3 565.394c-13.01 12.114-4.99 33.863 12.76 34.469 6.93.239 12.59.496 15.41 2.496 8.34 5.873 6.94 21.566 6.15 26.467-.82 4.918-.99 9.158 12.01 8.699 2.13-.073 3.58.367 4.48 1.175 4.07 3.634-3.09 14.775-6.52 19.143a13.015 13.015 0 0 0-2.17 4.001c-1.06 3.451-2.14 9.416 1.44 13.748.64.77 12.04 8.699 51.17-31.312 6.17-6.277 13.89-21.64 9.73-38.727-4.19-17.106-33.06-40.93-59.22-49.611-27.99-9.269-43.62 7.929-45.24 9.452Z"/>
    <path fill="#2B478B" d="M3819.91 858.288s-173.87-40.856-270.4-39.81c-65.8.734-228.94 42.489-310.42 62.642 0 0-2.14 9.764 1.16 25.42 4 18.941 18.3 21.071 18.3 21.071s174.15-7.581 252.14-7.489c78.01.092 199.62 99.538 411.31 47.684l-102.09-109.518Z"/>
    <path fill="#FFB27D" d="M4020.49 823.121s-32.43-7.8-44.73-3.964c-12.28 3.854-30.06 21.896-27.33 22.758 24.94 7.929 29.39-5.065 37.74-2.459 8.35 2.606 13.91 3.524 24.61.11 10.68-3.432 21.49.184 21.49.184l6.25-11.802-18.03-4.827Z"/>
    <path fill="#FFB27D" d="M3974.66 819.542s-21.84 2.258-21.15 4.35c.68 2.111 12.74 3.138 12.74 3.138l8.41-7.488Z"/>
    <path fill="#6980E2" d="M4104.13 913.735a212.635 212.635 0 0 1-37.39 31.238c-35.49-26.173-55.83-91.513-56.14-92.614l93.53 61.376Z"/>
    <path fill="#8C9DF4" d="M4199.65 784.743s15.62 120.897-37.07 166.746c-52.74 45.848-152.04-99.112-152.04-99.112s-11.47-12.976 21.9-29.587l92.34 40.306c14.04-3.671 4-60.201 74.87-78.353Z"/>
    <path fill="#6980E2" d="M4055.16 832.683s51.6 32.615 66.52 25.182c14.94-7.452 4.5-44.986 4.5-44.986s3.39 50.107-71.02 19.823"/>
    <path fill="#8C9DF4" d="M3906.56 1001.15s-93.57-30.647-112.14-166.301c0 0 45.31 14.738 97.72 15.197l86.83 72.939-72.41 78.185v-.02Z"/>
    <path fill="#ED823A" d="m3892.14 850.046 111.85 11.159.07-.972a9.707 9.707 0 0 0-.37-3.826 9.857 9.857 0 0 0-4.78-5.833 9.822 9.822 0 0 0-3.68-1.115l-102.03-10.187-1.06 10.774Z"/>
    <path fill="#ED823A" d="m3907.15 702.811-172.94-17.253 26.78 151.402 174.06 17.363-27.9-151.512Z"/>
    <path fill="#FF9E55" d="m3731.7 685.283 26.78 151.42 174.05 17.363-27.91-151.512-172.92-17.253v-.018Z"/>
    <path fill="#fff" d="M3817.69 766.866c.51 5.745 4.72 10.774 9.38 11.233 4.66.459 8-3.799 7.47-9.544-.5-5.727-4.68-10.756-9.34-11.214-4.65-.478-8.01 3.799-7.51 9.544v-.019Z"/>
    <path fill="#FFB27D" d="m2958.49 1924.42-8.48 35.62-11.24 47.24h-35.11l-2.09-45.26-1.63-34.91 58.55-2.69Z"/>
    <path fill="#BC3F3F" d="M3069.79 1148.87s27.81-29.74 45.87-6.43 38.08 39.06 65.82 56.99c27.73 17.95-24.49 158.51-59.25 155.61-34.71-2.88-176.44-113.71-52.44-206.17Z"/>
    <path fill="#ED7D2B" d="M2931.39 1134.73c6.94-5.19 70.82-27.1 133.08-5.54 62.29 21.57-48.22 81.64-48.22 81.64l-35.81 1.54-49.05-77.64Z"/>
    <path fill="#00CE9D" d="M2889.79 2059.17s0-17.18 2.45-22.91c2.46-5.7 11.44-28.98 11.44-28.98h35.11s6.55 21.24 6.94 28.18c.44 6.93 0 23.71 0 23.71h-55.94Zm222.99.02s0-17.18-2.44-22.91c-3.9-9.63-7.7-19.3-11.42-29h-35.13s-6.55 21.24-6.96 28.18c-.4 6.93 0 23.73 0 23.73h55.95Z"/>
    <path fill="#FFB27D" d="M2972.09 1094.12s-1.25 38.28-6.15 55.43l-38.77 83.6 146-34.69-34.84-48.11s-10.5-51.33-4.99-70.33c5.52-18.99-61.25 14.1-61.25 14.1Z"/>
    <path fill="#ED985F" d="M2971.87 1099.4s11.54 27.79 33.29 27.19c21.73-.63 26.71-25.2 26.71-25.2l-60-1.99Z"/>
    <path fill="#00CE9D" d="M2958.89 1076.9s-7.05-35.05-11.95-45.66c-4.9-10.63-8.97-58.002 45.34-60.461 0 0 20.83 2.459 32.27-4.479 0 0 0 6.938-2.87 9.379 0 0 18.78-4.478 33.48 11.857 14.72 16.334-9.78 73.504-8.57 86.994l-87.7 2.39v-.02Z"/>
    <path fill="#FFB27D" d="M3002.67 1115.83c-15.77-.26-44.77-21.25-44.77-47.24v-40.53c0-9.49 6.63-17.25 14.7-17.25h60.11c8.08 0 14.72 7.74 14.72 17.25v38.25c0 27.24-26.7 49.85-44.76 49.52Z"/>
    <path fill="#00CE9D" d="M2957.92 1049.7s.07-24.35 19.38-28.1c19.27-3.74 62.46 11.88 68.59-5.89 6.13-17.767-83.48-17.474-87.97-6.13-4.54 11.32 0 40.12 0 40.12Z"/>
    <path fill="#2B478B" d="M3025.19 1471.9c9.65-30.08 9.45 124.55-29.35 298.47a2603.25 2603.25 0 0 0-28.69 152.48h-79.49c-1.11-50.03-6.47-119.85-9.84-172.16-10.59-163.93 16.37-286.96 16.37-286.96l131 8.17Z"/>
    <path fill="#2B478B" d="M3127.22 1750.69c-.9 50.15-11.07 116.74-11.98 165.54h-80.66c-5.41-35.42-14.02-71.91-20.2-101.35-4.41-20.91-7.58-38.25-7.55-49.13.11-21.3-13.38-82.69-21.38-136.82l-.04-.23c-.31-2.07-.62-4.14-.92-6.21-10.73-76.11-6.93-150.59-6.93-150.59l136.06-8.5s15.93 153.62 13.6 287.29Z"/>
    <path fill="#233862" d="M2883.4 1526.79s30.63 37.08 113.82 31.74c83.16-5.36 122.84-19.84 122.84-19.84l-236.66-11.9Z"/>
    <path fill="#C30909" d="M3120.06 1538.69c-27.18 3.71-212.03 13.3-236.66-11.9-24.65-25.21 40.21-369.17 40.21-369.17s7.34-2.13 19.73-4.46a353.71 353.71 0 0 1 22.58-3.47c.11 2.68 2.26 43.23 35.92 59.98 0 0 40.44-16.18 36.47-59.32-.04-.51-.11-.99-.16-1.46 5.37.55 10.84 1.32 16.33 2.25 11.11 1.91 22.34 4.59 33.48 8.3 0 0 59.27 375.58 32.1 379.25Z"/>
    <path fill="#C30909" d="M2884.96 1361.13c-1.1 1.41 6.27 12 16.66 25.62 21.41 27.94 55.62 68.63 55.62 68.63-.19 7.61-.99 15.2-2.39 22.68-46.99-22.2-78.79-42.96-99.85-59.65-29.6-23.45-38.1-38.83-38.1-38.83 47.48-200.89 108.42-221.79 108.42-221.79l19.88 121.04s-56.92 77.93-60.24 82.3Z"/>
    <path fill="#fff" d="m3054.52 1151.14-12.26 37.26-16.32 23.95-23.44 12.72-22.04-12.72-37.1-59.21c6.33-1.19 13.95-2.42 22.6-3.46.05 1.28.55 7.34 4.59 15.14 13.39 25.84 51.15 26.06 64.38.14 2.38-4.5 3.56-9.54 3.42-14.62-.02-.5-.11-1-.19-1.47 5.4.57 10.85 1.32 16.36 2.27Z"/>
    <path fill="#FFB27D" d="m2957.24 1455.4-.04 1.14c-.11 2.57-.27 4.93-.42 7.08-1.2 1.62-2.5 3.15-3.91 4.59a42.53 42.53 0 0 1-6.88 5.6l-3.54-1.75c-40.28-19.95-68.28-38.49-87.43-53.65 12.15-3.74 29.2-12.29 46.62-31.67 21.39 27.95 55.6 68.64 55.6 68.64"/>
    <path fill="#C30909" d="M3190.62 1372.18s-8.21 15.55-37.33 39.57c-20.75 17.07-52.13 38.45-98.68 61.54 0 0-2.13-8.84-2.81-22.63 0 0 33.41-41.33 54.26-69.67 10.13-13.8 17.31-24.54 16.17-25.95-2.64-3.34-38.29-50.24-54.22-71.18l-7.58-9.95 20.17-119s58.72 17.36 110.02 217.27Z"/>
    <path fill="#FFB27D" d="M3153.3 1411.75c-18.92 15.57-46.71 34.73-86.78 55.52-1 .52-2.01 1.04-3.03 1.54-5.12-6.18-8.2-13.54-10.11-20.07.68-.85 1.52-1.95 2.61-3.25 9.58-11.99 33.71-42.25 50.09-64.52 17.78 19.05 34.98 27.28 47.22 30.78Zm-115.14-262.88a323.409 323.409 0 0 0-72.2.81l-.02-.13s66.83-41.34 72.22-.68Z"/>
    <path fill="#ED7D2B" d="M2971.13 1265.76h-1.36l-1.02-64.42h3.48l-1.1 64.42Z"/>
    <path fill="#ED7D2B" d="M2969.61 1264.11c-1.23 1.87-4.02 8.1-2.18 8.78 1.87.64 5.13.67 6.02-.19.88-.9-1.45-12.15-3.84-8.59Zm64.77 1.65h-1.36l-1.02-64.42h3.47l-1.09 64.42Z"/>
    <path fill="#ED7D2B" d="M3032.88 1264.11c-1.25 1.87-4.08 8.1-2.2 8.78 1.87.64 5.12.67 6-.19.88-.9-1.45-12.15-3.8-8.59Zm-52.44-51.74-56.81-54.75s-12.79-9.08 7.4-22.65c20.22-13.58 49.41 77.4 49.41 77.4Zm45.48-.02 56.83-54.75s12.79-9.06-7.42-22.64c-20.22-13.59-49.41 77.39-49.41 77.39Zm71.33 266.54c-11.07.94-20.32-1.84-27.44-8.19-1.19-1.06-2.3-2.21-3.32-3.43-5.6-6.55-8.78-14.83-10.52-21.77-1.23-4.7-1.99-9.51-2.28-14.37l-.02-1.59h-91.79l.06 1.7c.36 9.86-1.21 18.34-4.76 25.31a36.317 36.317 0 0 1-14.75 15.51c-12.26 7.12-25.96 6.83-26.14 6.83l-1.69-.05v38.78h184.43v-38.88l-1.78.15Zm24.96-123.85s-51.14-67.12-10.63-86.67c16.06-7.75 38.69 84.36 26.56 93.04-12.13 8.64-32.08 19.56-32.08 19.56l16.15-25.93Zm-231.34-11.07s17.77-84.26 2.15-75.6c-15.59 8.68-38.68 84.36-26.56 93.02 12.13 8.66 32.1 19.58 32.1 19.58l-7.69-37Z"/>
    <path fill="#BC3F3F" d="M3115.07 1354.84c-23.36-29-32.08-76.08-30.89-124.68.9-36.47 5.91-69.42 6.24-70.56l19.14 14.93c-.09.27-10.99 20.22-11.83 55.74-.79 32.48-2.32 57.17 16.04 113.7l1.3 10.87Z"/>
    <path fill="#233862" d="m2937.69 1940.81-41.15-.04c-3.63.42-9.34-4.92-9.34-12.56 0 0-.08-18.26-1.29-21.52-5.3-14.25 2.57-15.02 10.19-15.02h75.11c7.63 0-4.06 23.57-4.06 31.19l2.72 10c0 7.62-24.54 7.95-32.18 7.95Z"/>
    <path fill="#fff" d="m2950.03 1960.04-11.24 47.24h-35.13l-2.09-45.26c5.23 1.91 22.85 6.81 48.46-1.98Z"/>
    <path fill="#FFB27D" d="m3044.15 1924.4 8.46 35.62 11.25 47.26h35.11l2.1-45.26 1.63-34.91-58.55-2.71Z"/>
    <path fill="#233862" d="m3064.93 1940.81 41.17-.04c3.63.42 9.34-4.92 9.34-12.56 0 0 .07-18.26 1.28-21.52 5.31-14.25-2.57-15.02-10.22-15.02h-75.07c-7.66 0 4.05 23.57 4.05 31.19l-2.71 10c0 7.62 24.54 7.95 32.16 7.95Z"/>
    <path fill="#fff" d="m3052.61 1960.02 11.25 47.26h35.13l2.08-45.26c-5.22 1.91-22.86 6.81-48.46-2Zm-64.92-872.45s5.47 7.36 14.98 7.1c9.52-.26 13.98-7.1 13.98-7.1s-16.06-2.65-28.96 0Z"/>
    <path fill="#FFB27D" d="M735.419 1294.95s-1.763 83.51 2.331 107.88c4.093 24.36-5.36 137.71-5.36 137.71l-19.566-2.46s-48.952-185.15-43.96-208.92c5.011-23.75 66.555-34.21 66.555-34.21Z"/>
    <path fill="#FFB27D" d="M732.39 1540.54s7.544 25.33 5.745 30.19c-1.798 4.85-11.416 14.98-19.345 21.15-7.93 6.15-.955-16.23.55-23.5 1.524-7.26-10.15-7.78-8.333-19.05l1.836-11.25 19.547 2.46Z"/>
    <path fill="#FFB27D" d="M710.989 1549.33s.055 21-.165 25.15c-.221 4.15 4.129.36 4.735-3.31.606-3.63 4.35-9.72 6.204-10.22 1.854-.53-10.774-11.62-10.774-11.62Z"/>
    <path fill="#009F79" d="M591.187 1862.53c7.03 70.8 32.451 179.57 32.451 179.57l19.75-14.22s34.782-244.11 40.454-263.97c39.462-137.95 43.959-273.47 43.959-273.47l-115.451-34.07c-11.747 19.79-20.888 52.33-18.098 89.13 12.114 160.63-11.49 232.23-3.065 317.03Z"/>
    <path fill="#FFB27D" d="M474.543 1544.05s-.367 7.89-6.369 15.52c-1.358 1.73-5.323 6.32-6.809 4.68-1.469-1.63 4.148-13.91.807-21.47-1.193-2.72 12.371 1.29 12.371 1.29v-.02Z"/>
    <path fill="#37598C" d="M708.125 2049.17a7.929 7.929 0 0 0-2.047-3 7.805 7.805 0 0 0-3.166-1.77c-5.91-1.71-17.547-3.24-28.193-12.87-5.984-5.43-28.927-19.91-28.927-19.91l-.129-.02c-.495 0-2.9.73-13.343 9.54-5.397 4.55-14.593-6.42-14.593-6.42s-1.725 1.43-3.01 4.09a13.798 13.798 0 0 0-1.193 8.53c.826 5.03-1.835 14.34-3.983 20.63-1.285 3.82-2.386 6.54-2.386 6.54s-.642 3.14 10.646 4.55h13.087c4.387-.7 7.617-1.96 12.114-2.53 6.846-.92 9.985 1.89 10.609 2.53.047.04.09.08.128.13h55.615c1.414-2 .074-6.63-1.248-10.02"/>
    <path fill="#00CE9D" d="M526.431 1857.24c7.03 70.79 30.928 181.89 30.928 181.89l17.456 5.63s38.599-266.3 44.289-286.14c39.463-137.96 45.557-301.74 45.557-301.74l-117.048-5.81c-11.747 19.82-20.888 52.34-18.116 89.16 12.132 160.62-11.472 232.21-3.047 317.01h-.019Z"/>
    <path fill="#466AA5" d="M642.177 2049.17a7.927 7.927 0 0 0-5.213-4.77c-5.91-1.71-17.529-3.24-28.193-12.87-5.984-5.43-28.927-19.91-28.927-19.91l-.128-.02c-.496 0-2.9.73-13.344 9.54-5.397 4.55-14.115-6.7-14.115-6.7s-2.203 1.71-3.487 4.37a13.791 13.791 0 0 0-1.194 8.53c.845 5.03-1.835 14.34-3.983 20.63-1.284 3.82-2.386 6.54-2.386 6.54s-.624 3.14 10.646 4.55h13.087c4.387-.7 7.636-1.96 12.114-2.53 6.846-.92 9.985 1.89 10.609 2.53.048.04.091.08.129.13h55.633c1.395-2 .055-6.63-1.248-10.02Z"/>
    <path fill="#1C468A" d="M260.049 2031.49a19.683 19.683 0 0 1 1.626 7.65c.023 2.63-.482 5.24-1.487 7.68a19.654 19.654 0 0 1-10.913 10.75 20.618 20.618 0 0 1-15.551.22 20.637 20.637 0 0 1-11.302-10.68 19.617 19.617 0 0 1-1.628-7.64c-.025-2.63.479-5.24 1.482-7.68a19.565 19.565 0 0 1 4.358-6.48 19.605 19.605 0 0 1 6.544-4.28 20.639 20.639 0 0 1 15.559-.22 20.656 20.656 0 0 1 11.312 10.68Zm146.82-.02c4.441 10.1-.368 21.77-10.775 26.1a20.692 20.692 0 0 1-15.543.2 20.704 20.704 0 0 1-11.31-10.66 19.627 19.627 0 0 1-1.628-7.65 19.6 19.6 0 0 1 1.481-7.67 19.635 19.635 0 0 1 10.903-10.78 20.733 20.733 0 0 1 15.559-.22 20.695 20.695 0 0 1 11.313 10.68Z"/>
    <path fill="#00CE9D" d="m217.724 2029.01 29.11 10.15a27.273 27.273 0 0 0 9.178 1.53l165.137-1.65 18.024-29.04-221.449 19.01Zm93.792-320.68 46.126-111.41.055-.2c.275-.99 7.47-24.92 49.025-30.26l.184-.04 34.195-6.24c4.423-1.14 17.18-3.05 23.035 1.76 2.588 2.13 3.634 5.43 3.212 10.17-.863 9.32-31.57 81.55-51.981 127.82l6.535 2.75c5.249-11.91 51.301-116.51 52.531-129.95.642-7.06-1.285-12.46-5.727-16.09-9.544-7.82-27.404-3.67-29.294-3.18l-33.718 6.17c-44.749 5.78-53.908 32.08-54.807 35.09l-45.978 111.04 6.607 2.57Z"/>
    <path fill="#00CE9D" d="m400.023 1675.35 89.112 17.29s25.99 10.28 20.832 54.51c-4.533 38.91-24.411 257.31-24.411 257.31s-4.167 45.46-104.072 32.28l18.539-361.39Z"/>
    <path fill="#00CE9D" d="m449.415 1735.42-23.953 244.59a54.111 54.111 0 0 1-10.15 26.59 57.336 57.336 0 0 1-20.279 17.22 57.26 57.26 0 0 1-25.865 6.2l-82.651.52-2.037.02-51.761.29a58.263 58.263 0 0 1-18.299-2.77 56.28 56.28 0 0 1-23.034-14.13 56.237 56.237 0 0 1-13.786-23.24 53.624 53.624 0 0 1-1.468-23.64l37.535-233.99c4.02-24.97 24.926-44.11 50.806-46.51l14.592-1.36 3.487-.31 2.937-.28 48.805-4.53 5.984-.55 47.098-4.37c7.379-.7 14.537 0 21.182 1.89l1.321.38 2.717.9c23.218 8.39 39.37 31.17 36.819 57.08Z"/>
    <path fill="#00CE9D" d="M415.331 2006.6a57.307 57.307 0 0 1-46.162 23.42l-82.633.52-2.056.02-51.76.29a58.264 58.264 0 0 1-18.3-2.77c-17.914-5.78-38.581-26.85-38.875-49.21 0 0 174.847-2.22 211.391 3.27 18.85 2.81 24.485 15.62 28.395 24.46Z"/>
    <path fill="#00CE9D" d="M285.489 1684.62c-.367.22-38.692 22.91-43.739 42.86-5.176 20.46-39.775 259.28-40.124 261.69-.036.18-.972 23.25 18.722 40.45l-2.624-.61c-1.11-.28-2.212-.59-3.304-.93-18.502-17.86-16.024-38.42-15.896-39.32 1.432-9.87 34.985-241.37 40.197-262.02 4.589-18.08 31.607-36.1 40.362-41.53l3.488-.31 2.937-.28m54.77-5.08c-5.506 3.61-26.559 19.16-31.056 47.85-5.268 33.64-25.844 278.06-26.064 280.5v.2l-.055.15c-.037.13-2.973 13.32 5.506 22.26l-2.092.04-2.037.02c-8.113-9.62-4.901-21.42-4.405-23.07.642-7.57 20.832-247.18 26.063-280.56 3.873-24.73 19.548-40.09 28.156-46.84l5.984-.55Zm72.318-1.2c-.166.1-8.132 4.46-14.978 12.03a68.125 68.125 0 0 0-16.886 35.64c-5.268 33.64-21.585 277.24-21.751 279.68v.2l-.073.16c-.037.13-.753 15.04 7.709 23.99l-5.213.04c-6.461-8.19-6.057-23-5.506-24.76.495-7.78 16.519-246.38 21.732-279.77 4.919-31.37 26.376-45.78 30.946-48.49l1.285.38 2.735.92"/>
    <path fill="#F77D48" d="M729.398 1514.06c-10.187 11.93-99.17 9.61-119.214 5.17-13.729-3.06-24.356-17.56-31.937-43.42-2.515 18.06-8.168 39.24-20.778 40.56-20.685 2.13-29.239-1.43-31.735-9.29-.404-1.26 3.8-55.83 7.452-110.75 2.515-37.84 4.772-75.85 5.066-96.65.037-2.59.037-4.92.018-6.97-32.744-1.82-45.629-.37-45.629-.37s15.546-50.51 51.393-91.48c33.148-37.86 112.147-26.63 144.158-17.16 20.19 5.95 39.224 27.63 29.367 73.51-5.781 27 2.478 70.33 5.782 134.21 3.175 61.37 8.26 120.07 6.057 122.64Z"/>
    <path fill="#F77D48" d="M704.821 1192.75s24.742 20.17 38.931 111.28c0 0-7.985 11.01-31.662 8.08-23.678-2.98-7.269-119.36-7.269-119.36Z"/>
    <path fill="#00CE9D" d="M677.344 1034.1s-57.395-65.175-85.588-21.66c0 0-21.677 9.71-28.578 47.25-7.03 38.3 19.107 66.55 32.011 59.02 8.259-4.81 15.032 9.71 15.032 9.71l67.123-94.34v.02Z"/>
    <path fill="#00CE9D" d="M597.63 1005.5s-8.296-29.655-51.889-19.084c0 0 20.925-3.248 26.908 4.681 0 0-16.849-7.158-27.091-.496-10.242 6.681-11.362 28.189-9.618 34.689 1.725 6.48 13.766 25.59 21.401 25.38 7.618-.22 16.446-7.15 16.446-7.15l23.861-38.02"/>
    <path fill="#FFB27D" d="M606.055 1173.74c-1.175-6.46 5.286-17.84 4.148-53.96l2.808.47 47.227 7.99s1.101 38.41 1.468 52.32c.294 11.62-56.551 3.49-55.651-6.8"/>
    <path fill="#E8945B" d="M660.256 1128.24s.422 13.93.771 27.86c-26.303 0-41.941-22.7-48.016-35.85l47.245 7.99Z"/>
    <path fill="#00CE9D" d="M608.037 1115.28s-14.39-21.38-18.208-39.9c-2.735-13.22 2.661-62.64 52.347-56.94 0 0 14.409 1.01 28.175 9.77 10.939 6.95 26.89 22.19 10.756 65.63l-4.112 14.65-68.958 6.79Z"/>
    <path fill="#FFB27D" d="M669.396 1141.18s-62.149 2.75-63.268-35.98c-1.138-38.72-9.912-64.46 29.734-67.85 39.646-3.4 47.778 11.16 51.283 24.01 3.524 12.83-1.597 78.11-17.749 79.84"/>
    <path fill="#00CE9D" d="M664.147 1035.61s-15.767 45.92-41.702 53.37c-25.953 7.45-37.48.77-37.48.77s19.603-16.48 22.98-44.4c0 0 42.766-31.02 56.202-9.73"/>
    <path fill="#007D5F" d="M660.035 1039.42s12.995 9.79 16.373 19.57c3.377 9.78 5.322 30.04 11.233 29.18 0 0 11.967-31.24-2.937-48.31-15.803-18.09-24.669-.44-24.669-.44Z"/>
    <path fill="#00CE9D" d="M662.422 1040.89s-10.792 47.92-43.354 64.07c0 0 32.158-30.15 34.085-61.63 1.927-31.49 9.269-2.44 9.269-2.44Z"/>
    <path fill="#FFB27D" d="M460.116 1511.27s-15.547 18.11-17.217 27.53c-1.689 9.41-.808 34.5 3.965 35.42 5.102.96 8.131-16.48 9.764-19.89 5.543-11.57 16.464-6.14 17.933-10.28 1.45-4.15 2.9-24.05 2.9-24.05l-17.345-8.71v-.02Z"/>
    <path fill="#FFB27D" d="M512.666 1262.83s-41.996 81.86-44.364 116.14c-2.859 44.1-5.594 88.2-8.204 132.32l17.345 8.71s36.012-129.19 38.196-148.74c2.46-21.8 73.676-94.08 73.676-94.08l-76.649-14.35Z"/>
    <path fill="#F77D48" d="M587.388 1231.33H524.67l-32.029 61.01s51.081 42.27 101.978 25.11c50.88-17.16-7.231-86.12-7.231-86.12Z"/>
    <path fill="#BDD1F9" d="M1807.66 1559.48H812.472v-59.28h995.188v59.28Z"/>
    <path fill="#8FADEF" d="M812.49 1639.69v10.74c0 3.74 1.212 6.82 2.698 6.82H1206.9c1.46 0 2.69-3.08 2.69-6.82v-10.74c0-3.74-1.21-6.83-2.69-6.83H815.188c-1.486 0-2.698 3.09-2.698 6.83Z"/>
    <path fill="#BBD0FF" d="M812.49 1639.69v10.74c0 3.74 1.102 6.82 2.478 6.82h310.962c1.38 0 2.48-3.08 2.48-6.82v-10.74c0-3.74-1.1-6.83-2.48-6.83H814.968c-1.376 0-2.478 3.09-2.478 6.83Z"/>
    <path fill="#AEC3FF" d="M911.624 2062.57H1189.7v-405.32H911.624v405.32Z"/>
    <path fill="#D2E0FF" d="M833.671 2062.57h278.109v-405.32H833.671v405.32Z"/>
    <path fill="#AEC3FF" d="M1094.14 1671.39H851.31v366.12h242.83v-366.12Zm-245.528-2.68h248.208v371.46H848.612v-371.46Z"/>
    <path fill="#AEC3FF" d="M849.971 1794.29h245.509v-2.7H849.971v2.7Zm0 125.28h245.509v-2.68H849.971v2.68Zm97.592-226.89h45.575c.999-.1 1.928-.56 2.603-1.31a4.023 4.023 0 0 0 1.05-2.71c0-1.01-.374-1.97-1.05-2.72a4.022 4.022 0 0 0-2.603-1.3h-45.575c-1 .09-1.928.56-2.604 1.3a4.053 4.053 0 0 0-1.05 2.72c0 1 .375 1.97 1.05 2.71a4.036 4.036 0 0 0 2.604 1.31Zm0 122.51h45.575c.999-.1 1.928-.56 2.603-1.3a4.048 4.048 0 0 0 1.05-2.72c0-1-.374-1.97-1.05-2.71a4.034 4.034 0 0 0-2.603-1.31h-45.575c-1 .1-1.928.56-2.604 1.31a4.028 4.028 0 0 0-1.05 2.71c0 1.01.375 1.97 1.05 2.72a4.07 4.07 0 0 0 2.604 1.3Zm0 127.71h45.575a4.076 4.076 0 0 0 2.677-1.27c.7-.75 1.088-1.74 1.088-2.76a4.033 4.033 0 0 0-3.765-4.03h-45.575a4.03 4.03 0 0 0-3.766 4.03c0 1.02.389 2.01 1.088 2.76.699.74 1.656 1.2 2.678 1.27Z"/>
    <path fill="#BDD1F9" d="M970.358 1636.79h-57.817v-77.31h57.817v77.31Z"/>
    <path fill="#AEC3FF" d="M1728.1 2058.8h50.56v-500.88h-50.56v500.88Z"/>
    <path fill="#00CE9D" d="M1701.26 1716.28v-253.14c0-44.54-32.61-80.64-72.83-80.64h-164.7c-40.21 0-72.83 36.08-72.83 80.64v253.1h310.36"/>
    <path fill="#2EFAC9" d="M1683.75 1716.28v-253.14c0-44.54-32.6-80.64-72.83-80.64h-164.68c-40.21 0-72.83 36.08-72.83 80.64v253.1h310.34v.04Z"/>
    <path fill="#00CE9D" d="M1324.92 1756.22h352.11c13.38 0 24.23-10.83 24.23-24.23v-15.73H1324.9v39.96"/>
    <path fill="#4AF0C8" d="M1282.72 1756.22h266.38c2.35 0 4.68-.46 6.86-1.36 2.17-.9 4.15-2.22 5.81-3.88a17.885 17.885 0 0 0 5.25-12.67v-4.13a17.898 17.898 0 0 0-5.25-12.68 17.948 17.948 0 0 0-5.81-3.88c-2.18-.9-4.51-1.36-6.86-1.36h-266.38c-2.35 0-4.68.46-6.86 1.36-2.17.9-4.15 2.22-5.81 3.88a17.898 17.898 0 0 0-5.25 12.68v4.13c0 9.91 8.03 17.91 17.92 17.91Z"/>
    <path fill="#007D5F" d="M1504.5 2045.24h22.7l6.37-289.02h-34.69l5.62 289.02Z"/>
    <path fill="#007D5F" d="M1405.79 2045.24h220.9v-19.95l-112.59-10.15-108.31 10.15v19.95Z"/>
    <path fill="#009F79" d="M1648.12 2042.1a18.165 18.165 0 0 0-18.17-18.17c-4.82 0-9.44 1.91-12.85 5.32-3.4 3.41-5.32 8.03-5.32 12.85s1.92 9.44 5.32 12.85c3.41 3.41 8.03 5.32 12.85 5.32a18.165 18.165 0 0 0 18.17-18.17Zm-220.86 0a18.165 18.165 0 0 0-18.17-18.17 18.165 18.165 0 0 0-18.17 18.17 18.165 18.165 0 0 0 18.17 18.17 18.165 18.165 0 0 0 18.17-18.17Zm-13.56-266.92h205.06c10.46 0 18.96-8.48 18.96-18.96h-242.98c0 10.46 8.5 18.96 18.96 18.96Z"/>
    <path fill="#FFB27D" d="M1389.93 1930.47c2.64 3.03 2.97 6.43 1.65 10.04v.04c-2.42 6.68-10.42 14.15-19.71 21.62-1.19.97-2.24 1.82-3.16 2.64l-.71.64-.56.48c-8.66 7.99-5.39 9.82-20.96 26.03-17.75 18.46-29.95 18.79-33.44 17.1-2.94-1.43 3.03-11.23 9.66-22.22l.97-1.6 2.62-4.42c7.77-13.24 5.77-19.48 3.93-39.17-1.49-16.02-24.92-89.49-24.92-89.49l34.01-5.86s10.24 58.49 21.51 67.53c6.06 4.77 12.79 4.86 18.59 8.4l1.21.75c3.31 2.19 6.65 4.45 9.31 7.49Z"/>
    <path fill="#233862" d="M1389.93 1930.47c2.64 3.03 2.97 6.43 1.65 10.04v.04c-2.97 6.68-10.77 14.11-19.75 21.55-1.17.97-2.2 1.87-3.12 2.71l-.73.64-.55.48c-8.65 7.99-5.38 9.82-20.95 26.03-17.75 18.46-29.97 18.79-33.44 17.1-2.94-1.43 3.03-11.23 9.66-22.22a75.609 75.609 0 0 0 31.62-23.31c10.68-13.64 17.8-31.15 25.09-41.3l1.21.75c3.31 2.19 6.65 4.45 9.31 7.49Z"/>
    <path fill="#FFB27D" d="M1115.73 1909.24c-2.09 10.49-17.07 8.73-33.77 4.66-16.73-4.08-12.76.77-36.53-1.86-23.81-2.64-31.02-11.52-31.74-15.05-.64-3.13 11.11-4.24 23.72-5.7 1.58-.17 3.17-.37 4.77-.57 14.24-1.78 24.65-10.98 37.59-18.52 12.24-7.14 30.53-36.25 30.53-36.25l32.63 2.59s-17.13 26-23.75 37.29c-3.89 6.65-3.67 15.44-3.2 22.25.42 3.71.33 7.46-.25 11.16Z"/>
    <path fill="#233862" d="M1081.96 1913.9c-16.73-4.08-12.76.77-36.53-1.86-23.81-2.64-31.02-11.52-31.74-15.05-.64-3.13 11.11-4.24 23.72-5.7l.11.25s14.28 10.12 34.08 10.59c16.14.39 33.23-4.24 44.38-4.05.42 3.71.33 7.46-.25 11.16-2.09 10.5-17.07 8.73-33.77 4.66Zm158.8-213.27 30.49 82.04 39.83 107.17s10.79 1.06 21.14-1.93c9.55-2.74 20.47-9.95 20.47-9.95s-11.07-115.06-31.68-181.1c-5.29-16.96-11.2-30.67-17.75-38.38-31.98-37.8-62.5 42.15-62.5 42.15Z"/>
    <path fill="#2B478B" d="M1271.76 1570.29c19.99-6.42 79.29-2 136.54 9.22l9.66-15.95 123.65-9.66s40.81 90.49 18.47 148.12c-3.29 8.5-9.8 13.91-20.93 14.11h-1.8l-97.5-.03c-61.48 0-130.13-42.29-139.01-44.05-14.54-2.92-20.36 26.15-34.88 56.68-14.55 30.52-136.65 135.17-136.65 135.17s-18.76.19-26.52-2.71c-8.33-3.14-11.38-7.2-11.38-7.2s135.29-269.16 180.35-283.7Z"/>
    <path fill="#00CE9D" d="M1418.69 1393.29c44.05 24.22 133.37 74.51 133.83 74.17 0 0 32.85 12.37 51.46 0 31.04-20.63 47.71-76.1-9.08-123.86-28.32-23.8-48.44-29.6-51.49-67.63-1.65-20.63-29.86-88.72-76.72-82.41-3.91.51-28.01 1.65-43.87 9.95-40.34 21.2-70.13 180.4-4.13 189.78Z"/>
    <path fill="#FFB27D" d="M1455.6 1372.64c-.18.13 21.66 7.58 36.29 1.1 13.75-6.06 24.15-28.69 23.95-28.71-6.24-.27-13.12-5.74-18.41-41.62l-2.66.95-44.78 16.12s3.25 14.37 5.34 28.04c1.76 11.49 2.71 22.49.27 24.12Z"/>
    <path fill="#ED975D" d="M1449.99 1320.48s3.25 14.37 5.34 28.04c25.73-4.62 35.83-30.25 39.44-44.16l-44.78 16.12Z"/>
    <path fill="#FFB27D" d="M1443.32 1334.74s61.27-8.22 55.56-46.29c-5.71-38.1-1.65-64.79-41-61.16-39.37 3.64-44.79 19.31-45.96 32.49-1.18 13.18 15.31 76.13 31.39 74.96h.01Z"/>
    <path fill="#03E3AD" d="M1414.16 1238.89s39.22 33.81 65.89 36.53c26.69 2.75 36.78-5.82 36.78-5.82s-15.73-13.07-25.18-34.14a18.753 18.753 0 0 0-6.23-7.63 18.82 18.82 0 0 0-9.24-3.42c-19.05-1.65-55.16-2.38-62.04 14.5"/>
    <path fill="#03E3AD" d="M1438.68 1235.88s-13.12 12.69-17.25 22.1c-3.99 9.07-5.18 30.8-2.02 39.41 0 0-20.43-39.74-8.85-59.07 12.26-20.46 28.12-2.44 28.12-2.44Z"/>
    <path fill="#B64C41" d="M1404.03 1462.9c1.83 124.02.51 98.11 14.07 109.87 3.27 2.85 12.45 4.53 24.54 5.32 38.03 2.52 104.9-3.74 107.43-10.77 8.78-24.3 2.57-31.86 9.92-69.1.75-3.97 1.7-8.26 2.8-12.91 6.1-25.56 12.04-34.28-9.6-75.36-19.64-37.22-40.03-67.41-41.86-66.33-51.8 30.76-55.98 4.9-55.98 4.9s-52.24 53.89-51.32 114.38Z"/>
    <path fill="#2B478B" d="m1271.25 1782.69 39.83 107.15s10.81 1.06 21.16-1.93c9.53-2.74 20.45-9.95 20.45-9.95s-11.05-115.06-31.68-181.1l-49.74 85.83h-.02Z"/>
    <path fill="#B64C41" d="M1455.35 1348.52s-53.31 9.05-59.57 31.99l-43.09 157.85s27.11 4.86 39.61-7.66c12.51-12.5 43.55-116.12 43.55-116.12l19.5-66.06Z"/>
    <path fill="#9B3531" d="M1442.64 1578.09c38.04 2.52 104.88-3.74 107.43-10.77 8.76-24.3 2.57-31.86 9.9-69.1l-18.36-51.65s3.05 57.5-13.91 72.64c-16.96 15.13-69.45 29.21-77.7 41.85-3.98 6.06-6.6 12.13-7.36 17.03Z"/>
    <path fill="#FFB27D" d="M1486.22 1553.88s-37.52-8.33-43.58-5.01c-6.05 3.34-20.85 15.46-22.7 19.68-1.85 4.22 13.47-3.19 18.46-4.55 3.24-.85 11.73 2.09 15.94 3.52 17.71 5.88 28.56 2.85 28.56 2.85l3.3-16.49"/>
    <path fill="#B64C41" d="M1511.33 1343.6s50.4 3.12 67.84 27.42c24.54 34.25 73.23 180.17 45.33 199.64-31.44 21.92-143.05 5.75-143.05 5.75s-3.73-17.39 1.46-25.79c5.14-8.39 89.14-21.95 93.03-25.83 3.87-3.87-48.46-75.58-48.46-87.21 0-11.64-16.15-93.98-16.15-93.98Z"/>
    <path fill="#FFB27D" d="M1440.83 1559.32s-7.86 10.15-10.45 11.36c-2.57 1.19-4.22.9-4.22.9l5.29-9.53 9.38-2.75v.02Zm1.81-10.43-22.85 11.09s.97 1.59 3.78 1.47c2.81-.15 9.91-2.72 9.91-2.72l9.16-9.86"/>
    <path fill="#F99746" d="M1440.3 1582.15h-180.8l-54.4-135.27h180.53l54.67 135.27Z"/>
    <path fill="#ED7D2B" d="M1257.37 1576.88h238.76v5.27h-236.65l-2.11-5.27Z"/>
    <path fill="#fff" d="M1305.13 1514.52c-1.36-4.76 1.39-8.59 6.13-8.59 4.77 0 9.73 3.85 11.09 8.59 1.35 4.75-1.38 8.62-6.13 8.62-4.78 0-9.73-3.87-11.09-8.62Z"/>
    <path fill="#03E3AD" d="M4289.85 1505.12s-73 109.42-103.18 174.87c0 0 122.06 24.23 200.09 73.79 0 0 54.14-136.63 96.93-195.86 0 0-117.05-52.73-193.84-52.8Z"/>
    <path fill="#0CAD86" d="M4386.76 1753.78s59.17 10.02 79.92-16.47c20.77-26.48 17.01-179.39 17.01-179.39s-90.95 127.42-96.93 195.86Z"/>
    <path fill="#ED985F" d="M4123.64 1385.45s-100.56 43.83-118.84 43.04c-18.28-.81-130.8-34.29-130.8-34.29l2.88 19.37s86.82 49.96 117.2 52.78c29.88 2.78 132.1-26.83 141.95-33.07 9.88-6.26 16.3-41.5-12.39-47.83Z"/>
    <path fill="#266657" d="M4138.77 1224.21s37.13-7.05 55.63 6.46c33.46 24.45 35.28 108.75 47.83 121.32 12.54 12.54 42.79 7.16 45.49 72.15 2.68 64.97-12.06 70.41 5.49 99.42 17.56 29-7.42 58.04-7.42 58.04s10.22-16.02 5.86-27.57c0 0-4.26 25.5-20.47 31.46-16.21 6-18.61 10.37-21.2 19.14 0 0-138.21-70.82-138.38-121.06-.14-50.25-27.22-100.01-13.91-121.78 0 0-5.93 9.31-6.64 19.66 0 0-7.97-15.25 5.83-29.48 13.82-14.22-16.2-43.64-11.76-77.71 3.04-23.38 19.49-49.02 53.65-50.05Z"/>
    <path fill="#FFB27D" d="M4111.44 1433.32c8.83 6.13 19.91 11.19 33.83 14.41 52.12 12.04 72.09-32.03 79.62-62.28a44.74 44.74 0 0 0-17.68-5.41c-3.66-.43-7.33-.74-11.01-.92-5.86-4.48-14.57-22.83-16.5-51.32l-2.44.66-41.12 11.25s1.91 13.05 2.81 25.4c.72 9.66.85 18.89-1.01 21.15-3.19.7-5.14 1.15-5.14 1.15v.04a263.727 263.727 0 0 0-21.36 45.87Z"/>
    <path fill="#ED985F" d="M4136.16 1339.69s1.91 13.07 2.83 25.42c23.27-2.35 34.07-24.5 38.29-36.65l-41.12 11.23Z"/>
    <path fill="#FFB27D" d="M4129.21 1351.99s55.26-3.08 52.82-37.44c-2.4-34.4 3.07-57.93-32.3-57.43-35.39.48-41.3 14.09-43.28 25.77-2 11.67 8.35 69.01 22.76 69.08"/>
    <path fill="#0CAD86" d="M4106.72 1263.65c7.77-10.95 14.39-9.16 18.23-6.31 28.96-18.74 50.18 4.4 50.18 4.4a65.808 65.808 0 0 0 24.26 37.25s-9.61 6.93-33.24 2.64c-7.21-1.32-13.89-5.89-19.71-11.64 6.84 9.55 14.95 18.12 24.1 25.48-28.61-10.83-42.49-48.53-43.9-52.53-3.16 3.26-9.33 10.33-10.91 16.9-2.11 8.96-11.27 22.94-16.55 22.71 0 0-4.13-22.47 7.54-38.91"/>
    <path fill="#fff" d="M4240.62 1545.66c5.01-25.51 21.27-127.41 5.01-160.21-5.86-11.78-28.78-12.85-53.96-11.82-7.8 5.07-37.63 24.15-49.89 21.79l-.7-.19c-5.73-1.43-7.91-5.5-3.12-8.99-9.35-.63-18.74-.05-27.94 1.72-8.71 1.66-32.3 13.84-32.3 13.84s11.88 21.44 29.39 28.86c-3 26.61 1.43 38.36 29.03 99.84 23.37 51.98-3.12 98.78-3.12 98.78s137.37 110.44 138.14 54.22c.59-42.34-36.91-105.24-30.54-137.84Z"/>
    <path fill="#DD6D22" d="M4126.21 1749.37a25.511 25.511 0 0 1-18.39-11.17l-2.11-3.2c-15.64-23.67-21.73-96.17-56.9-173.41-8.59-18.81-39.33-22.17-47.7-43.44 0 0-20.63-68.9 39.5-70.94 60.15-2.02 161.1 191.73 162.69 212.03 1.53 19.67 39.74 103.33-77.09 90.13Z"/>
    <path fill="#233862" d="M3887.12 1747.79h85.63s3.19-13.63-2.42-22.94c-5-8.22-3.05-12.9.6-19.69a33.29 33.29 0 0 1-14.41 2.7c-4.25-.24-8.77-2.17-12.72-4.46-3.68 4.18-19.47 22.06-24.41 25.6-5.6 4.04-30.54 2.61-32.27 18.79Z"/>
    <path fill="#EBEEF2" d="M4231.61 1412.16s11.14 101.36-61.12 122.62c-72.27 21.23-92.79-93.28-34.46-101.5 58.35-8.26 95.58-21.11 95.58-21.11"/>
    <path fill="#ED7D2B" d="M3999.14 1467.14c-5.15 38.64-25.29 160.62-60.79 220.12-11.45 19.2 28.86 29.96 29.06 29.88 5.38-1.39 14.39-10.02 18.55-13.76 28.82-25.97 87.36-99.54 87.36-158.53 0-28.76.49-83.69-20.42-97.64-12.88-8.59-51.7 4.59-53.76 19.93Z"/>
    <path fill="#F99746" d="M4177.28 1747.79s-3.18-4.4-8.72-12.79c-6.57-9.96-13.86-29.58-22.71-54.73-9.27-26.43-20.3-58.92-34.08-92.72-4.31-10.6-8.82-21.12-13.55-31.54-8.57-18.79-32.15-16.18-40.52-37.44 0 0-32.71-73.71 27.4-75.73 60.18-2.03 174.46 197.11 181.01 216.4 7.2 21.1 42.29 108.8-88.83 88.55Z"/>
    <path fill="#2B478B" d="M3950.01 1747.79h85.59s3.23-13.63-2.41-22.94c-4.97-8.22-3.06-12.9.61-19.69a33.318 33.318 0 0 1-14.41 2.7c-4.26-.24-8.79-2.17-12.72-4.46-3.69 4.18-19.48 22.06-24.41 25.6-5.6 4.02-30.53 2.61-32.25 18.78"/>
    <path fill="#ED7D2B" d="M4145.83 1680.27c-9.28-26.43-20.28-58.92-34.06-92.72 3.61-25.61 11.34-48.02 24.37-57.03 0 0 31.65 97.99 9.69 149.75Z"/>
    <path fill="#F99746" d="M4049.11 1464.39c-5.14 38.65-12.41 163.37-47.91 222.87-11.47 19.2 28.84 29.96 29.06 29.88 5.39-1.39 14.39-10.02 18.55-13.76 28.84-25.97 87.35-99.54 87.35-158.53 0-28.76-33.75-81.38-54.66-95.33-12.88-8.6-30.34-.45-32.39 14.87Z"/>
    <path fill="#fff" d="M4118.87 1332.19s5.23-2.06 19.92-.87c0 0-.77 5.73-11.6 6.32-6.17.29-8.32-5.45-8.32-5.45Z"/>
    <path fill="#163560" d="m3863.3 1353.72 17.75-32.03 38.4 107.15-22.65 24.32-33.5-99.44Z"/>
    <path fill="#1C468A" d="m3955.94 1372.47 35.72 101.96-94.92-21.29-33.46-99.42 92.66 18.75Z"/>
    <path fill="#EFDECE" d="m3989.78 1469.27 1.65-2.9-33.77-96.47-1.7 2.57 33.82 96.8Z"/>
    <path fill="#FCECDB" d="m3957.64 1369.9-89.95-17.51-4.41 1.33 92.68 18.75 1.68-2.57Z"/>
    <path fill="#EFDECE" d="m3863.28 1353.72 19.18-30.47 12.25 34.39-27.02-5.24-4.41 1.32Z"/>
    <path fill="#FFB27D" d="M3928.57 1387.23c3.06-.59 9.69-3.08 16.41-4.92-2-1.56-4.24-3.47-4.85-5.41-1.21-3.8-2-5.01 1.99-3.82 3.98 1.21 17.93 7.6 17.93 7.6l-.02.02c7.91 2.33 15.23 13.51 15.23 13.51s98.06 34.46 109.86 35.05c18.26.92 139.77-43.81 139.77-43.81 28.69 6.31 22.24 41.55 12.37 47.83-9.84 6.24-97.32 38.05-149.11 38.64-26.25.31-121.71-61.05-121.71-61.05s-11.18-5.1-19.96-3.5c-8.73 1.57-29.05 0-33.46-7.2-4.37-7.16 10.37-11.93 15.55-12.94Z"/>
    <path fill="#fff" d="M4162.32 1407.51s10.85 34.4 48.18 42.22c0 0 61.62-18.96 30.94-60.98 0 0-30.34-22.53-79.12 18.76Z"/>
    <path fill="#FFB27D" d="m3864.88 1389.82.04.02c-.05-.94.05-1.88.29-2.79 0 0 8.81-13.92 11.67-14.48 8.78-1.75 8.78 9.82 6.9 17.25-1.28 5.19-4.58 10.17-7.23 12.86l.33 10.89c-14.83-8.15-12-23.75-12-23.75Z"/>
  </g>
  <defs>
    <clipPath id="a">
      <path fill="#fff" d="M0 0h4864v2074H0z"/>
    </clipPath>
  </defs>
</svg>
