<svg xmlns="http://www.w3.org/2000/svg" width="376" height="293" fill="none" viewBox="0 0 376 293">
  <path fill="url(#a)" d="M187.89 292.934 0 184.438l29.229-16.988 160.1 92.448 157.445-91.51 27.789 16.046-186.673 108.5Z"/>
  <path fill="#64C6DD" d="m376 151.402-.035 12.193L189.294 272.09l.035-12.192L376 151.402Z"/>
  <path fill="#23A9D8" d="m189.329 259.898-.035 12.192L1.404 163.595l.033-12.193 187.892 108.496Z"/>
  <path fill="#7ADAF4" d="M376 151.402 189.329 259.898 1.437 151.402 188.108 42.904 376 151.402Z"/>
  <path fill="#6EC5DC" d="m66.105 172.753-44.982-26.144 51.116-29.522-.037-.023 49.964-28.855-.128-.075 52.249-30.17 44.984 26.146-49.968 28.854.134.076-51.119 29.52.039.021-52.252 30.172Z"/>
  <path fill="#C1E8FA" d="m128.656 25.55.177 62.246 37.942 22.056-.177-62.249-37.942-22.054Z"/>
  <path fill="#ACD9EA" d="m166.598 47.603.177 62.249 44.07-25.449-.178-62.245-44.069 25.445Z"/>
  <path fill="#82C2DE" d="m166.598 47.603.023 8.605 44.072-25.548-.026-8.502-44.069 25.445Z"/>
  <path fill="#DEF6FF" d="m128.656 25.55 37.942 22.053 44.069-25.445L172.723.104 128.656 25.55Z"/>
  <path fill="#C1E8FA" d="M190.603 50.73c8.023-4.633 14.554-.914 14.577 8.313.026 9.223-6.459 20.45-14.48 25.086-8.026 4.634-14.552.913-14.581-8.31-.023-9.221 6.46-20.457 14.484-25.088Z"/>
  <path fill="#DEF6FF" d="M190.615 54.9c6.12-3.532 11.095-.697 11.117 6.34.019 7.03-4.926 15.597-11.044 19.132-6.124 3.535-11.099.696-11.118-6.338-.02-7.034 4.923-15.598 11.045-19.133Z"/>
  <path fill="#82C2DE" d="M190.615 54.9c-6.122 3.536-11.065 12.1-11.045 19.134.009 2.844.826 5 2.202 6.328 1.671.19 3.625-.275 5.711-1.477 6.12-3.535 11.063-12.102 11.043-19.134-.006-2.844-.825-5-2.201-6.329-1.671-.189-3.623.271-5.71 1.479Z"/>
  <path fill="#C1E8FA" d="m169.437 47.357.015 6.31 11.555-6.511v-6.49l-11.57 6.691Z"/>
  <path fill="#DEF6FF" d="m182.82 39.953.005 2.335 11.565-6.479v-2.544l-11.57 6.688Z"/>
  <path fill="#1D374E" d="m185.94 38.149-.022 2.407 5.853-3.282v-2.497l-5.831 3.372Z"/>
  <path fill="#C5CED7" d="m183.557 45.125-.242-.142-.007-2.21.243.141.006 2.211Z"/>
  <path fill="#C5CED7" d="m183.551 42.914-.243-.14.751-.434.245.14-.753.434Z"/>
  <path fill="#E1EAF3" d="m184.304 42.48.007 2.211-.753.434-.007-2.21.753-.435Z"/>
  <path fill="#C5CED7" d="m185.165 44.308-.247-.143-.007-2.209.247.142.007 2.21Z"/>
  <path fill="#C5CED7" d="m185.158 42.099-.247-.143.755-.434.245.14-.753.437Z"/>
  <path fill="#E1EAF3" d="m185.911 41.661.007 2.213-.753.434-.007-2.21.753-.437Z"/>
  <path fill="#C5CED7" d="m192.02 40.556-.241-.143-.008-2.209.242.14.007 2.212Z"/>
  <path fill="#C5CED7" d="m192.013 38.345-.242-.14.754-.436.242.142-.754.434Z"/>
  <path fill="#E1EAF3" d="m192.767 37.91.008 2.21-.755.436-.007-2.211.754-.434Z"/>
  <path fill="#C5CED7" d="m193.629 39.738-.247-.142-.005-2.21.243.143.009 2.21Z"/>
  <path fill="#C5CED7" d="m193.62 37.53-.243-.143.751-.438.247.146-.755.434Z"/>
  <path fill="#E1EAF3" d="m194.375 37.095.007 2.21-.753.433-.009-2.209.755-.434Z"/>
  <path fill="#C1E8FA" d="m78.82 54.48.178 62.248 37.941 22.052-.175-62.249-37.944-22.05Z"/>
  <path fill="#ACD9EA" d="m116.764 76.531.175 62.249 44.068-25.447-.178-62.247-44.065 25.445Z"/>
  <path fill="#82C2DE" d="m116.764 76.531.02 8.606 44.069-25.547-.024-8.504-44.065 25.445Z"/>
  <path fill="#DEF6FF" d="m78.82 54.48 37.944 22.051 44.065-25.445-37.939-22.054-44.07 25.449Zm48.931 49.216c.011-.182.019-.369.032-.557l.025-.29c.017-.187.036-.373.058-.56l.028-.266.057-.399c.025-.192.054-.385.089-.579l.071-.403c.033-.186.067-.373.106-.559l.1-.468.083-.363.131-.524.091-.347.091-.328c.12-.413.245-.83.382-1.246l.029-.089c.136-.404.281-.803.434-1.208l.118-.309c.135-.342.273-.685.419-1.024l.059-.142c.164-.378.338-.751.511-1.124l.143-.285c.143-.293.291-.583.442-.871l.147-.278c.191-.36.387-.715.592-1.069l.139-.233c.178-.298.358-.596.544-.888l.178-.283c.236-.366.48-.73.73-1.088l.126-.175c.257-.367.522-.726.792-1.078l.14-.182.236-.295.357-.445.272-.319.324-.38c.221-.252.444-.5.672-.745l.052-.057a33.156 33.156 0 0 1 1.213-1.216l.14-.136a27.4 27.4 0 0 1 .641-.578l.176-.149c.159-.137.319-.274.48-.404l.239-.193.432-.338.256-.191.434-.316.253-.177c.157-.11.312-.213.476-.316l.212-.14c.235-.148.469-.288.699-.426.227-.128.449-.25.671-.366l.178-.092c.194-.1.391-.196.584-.288l.081-.036c.205-.094.406-.18.607-.26.214-.09.427-.17.641-.245l.16-.061a11.8 11.8 0 0 1 .786-.241l.452-.113.212-.05a9.8 9.8 0 0 1 .656-.124l.019-.001c.199-.03.396-.054.594-.072l.192-.012.42-.024.182-.005.43.009.146.005c.184.008.365.024.543.045l.115.02.361.058c.248.045.493.097.729.168l.029.007c.224.068.444.146.658.235l.185.078c.184.078.363.166.538.263l.17.09c-.907-.529-1.816-1.056-2.727-1.584l-.079-.045-.095-.049a8.164 8.164 0 0 0-.531-.258l-.102-.05-.089-.032a7.628 7.628 0 0 0-.652-.23l-.026-.01h-.009l-.03-.008a8.706 8.706 0 0 0-.481-.12l-.145-.03-.151-.03-.281-.038-.111-.018a5.785 5.785 0 0 0-.485-.043l-.06-.005-.143-.004-.433-.007-.183.004-.143.003-.274.017-.194.014c-.195.021-.393.044-.591.072l-.023.003-.003.002a11.65 11.65 0 0 0-.655.12l-.21.052-.41.098-.044.016c-.257.068-.518.15-.779.24l-.17.062c-.209.075-.419.153-.634.241l-.084.033c-.175.071-.349.15-.526.231l-.074.033c-.196.092-.396.19-.593.291l-.172.089a17.687 17.687 0 0 0-1.368.79l-.222.146-.468.312-.257.182-.429.307-.263.198-.426.333-.243.196c-.157.13-.317.264-.476.401l-.18.151c-.214.191-.431.384-.641.58l-.129.127-.423.404-.063.064c-.248.25-.498.502-.74.762l-.027.028c-.234.25-.462.503-.688.762l-.068.076-.264.312-.274.327-.305.376-.293.372-.044.05-.066.09c-.282.365-.555.734-.823 1.113l-.078.107-.036.056c-.25.36-.497.727-.735 1.097l-.069.104-.097.158a32.2 32.2 0 0 0-.572.939l-.082.13-.029.053c-.205.358-.408.72-.604 1.083l-.049.087-.094.188a25.88 25.88 0 0 0-.437.864l-.096.186-.05.114c-.176.368-.348.738-.511 1.11l-.014.037-.055.129c-.142.335-.279.67-.413 1.008l-.067.168-.049.139c-.151.4-.297.803-.433 1.203l-.009.027-.027.086c-.137.414-.262.83-.379 1.246l-.046.152-.039.14-.1.384c-.042.167-.083.332-.122.5l-.088.373-.063.27-.036.192c-.038.19-.074.375-.106.564l-.073.397c-.032.197-.061.387-.084.58l-.044.281-.014.12-.03.26c-.023.191-.042.38-.058.569l-.025.28-.033.573-.013.246c-.011.267-.014.534-.014.8.01 4.58 1.63 7.804 4.239 9.323.909.524 1.817 1.053 2.725 1.582-2.605-1.516-4.225-4.741-4.238-9.321 0-.265.006-.531.015-.798l.014-.257Z"/>
  <path fill="#C1E8FA" d="M142.202 79.66c8.025-4.633 14.552-.914 14.58 8.31.026 9.224-6.458 20.457-14.484 25.089-8.023 4.632-14.55.915-14.576-8.308-.025-9.225 6.458-20.457 14.48-25.09Z"/>
  <path fill="#DEF6FF" d="M142.216 83.83c6.118-3.534 11.099-.699 11.115 6.338.021 7.032-4.923 15.599-11.041 19.132-6.121 3.535-11.101.698-11.12-6.336-.021-7.034 4.929-15.602 11.046-19.133Z"/>
  <path fill="#82C2DE" d="M142.216 83.83c-6.117 3.532-11.067 12.1-11.046 19.134.008 2.844.827 5 2.204 6.327 1.667.19 3.623-.27 5.71-1.476 6.12-3.536 11.063-12.102 11.045-19.135-.008-2.843-.827-4.999-2.203-6.328-1.671-.189-3.623.273-5.71 1.479Z"/>
  <path fill="#60ACC6" d="M131.17 102.964c.004 1.237.168 2.336.458 3.301.925-.247 1.892-.649 2.888-1.226 6.12-3.533 11.064-12.099 11.044-19.133-.002-1.239-.167-2.336-.457-3.3-.921.244-1.887.647-2.887 1.225-6.117 3.531-11.067 12.1-11.046 19.133Z"/>
  <path fill="#C1E8FA" d="m119.599 76.288.018 6.309 11.553-6.512v-6.488l-11.571 6.692Z"/>
  <path fill="#DEF6FF" d="m132.984 68.882.007 2.335 11.562-6.48v-2.542l-11.569 6.687Z"/>
  <path fill="#1D374E" d="m136.104 67.078-.023 2.407 5.854-3.281v-2.496l-5.831 3.37Z"/>
  <path fill="#DEF6FF" d="m150.105 62.035.089-.38.014-.031.149-.41v-.001l.206-.408.004-.007.243-.37.021-.03.255-.305.055-.06.215-.198.101-.09.323-.224.319-.148.059-.019.285-.064.02-.002.28.016.012.003.25.094-.009-.007-.562-.328-.391-.226-.01-.003-.085-.044-.09-.029-.059-.016-.019-.005-.018-.003-.107-.012-.113-.002-.036.005-.028.003-.061.006-.154.03-.065.023-.062.021-.075.026-.244.12-.321.224-.103.089-.149.133-.064.071-.057.058-.065.072-.142.17-.045.063-.023.031-.046.063-.101.149-.089.146-.005.01-.007.01-.067.122-.077.15-.059.128-.003.007-.007.014-.061.152-.059.162-.022.081-.013.031-.019.065-.047.197-.02.115-.011.064-.008.056-.025.336c.004.54.196.924.505 1.102l.96.561c-.309-.18-.502-.562-.502-1.102l.03-.397.01-.058Z"/>
  <path fill="#C1E8FA" d="M151.78 59.52c.949-.548 1.723-.112 1.726.98.004 1.091-.765 2.424-1.714 2.972-.951.549-1.723.108-1.727-.982-.003-1.092.765-2.421 1.715-2.97Z"/>
  <path fill="#DEF6FF" d="m155.496 59.196.089-.377.01-.034.15-.406.003-.004.203-.41.003-.005.245-.373.021-.026.253-.305.058-.06.213-.2.102-.089.323-.227.319-.146.059-.02.283-.062.023-.003.281.017h.012l.248.096-.009-.006-.562-.328-.39-.227-.009-.002-.087-.045-.092-.031-.057-.012-.019-.005-.017-.006-.108-.01-.109-.004-.04.006-.028.003-.066.005-.149.032-.064.022-.063.024-.076.023-.239.123-.325.222-.101.089-.151.132-.065.07-.058.06-.064.073-.142.17-.04.06-.03.032-.041.064-.101.148-.09.145-.007.01-.005.013-.07.121-.074.146-.059.132-.004.009-.007.008-.062.155-.056.163-.024.08-.01.033-.021.062-.047.198-.021.115-.012.066-.009.055-.022.335c.001.542.196.925.503 1.104l.959.56c-.305-.18-.498-.564-.501-1.103l.035-.396.008-.059Z"/>
  <path fill="#C1E8FA" d="M157.169 56.68c.951-.547 1.725-.11 1.727.982.003 1.093-.765 2.424-1.715 2.973-.949.547-1.724.106-1.728-.984-.003-1.092.767-2.421 1.716-2.971Z"/>
  <path fill="#C5CED7" d="m133.721 74.055-.243-.142-.007-2.211.244.14.006 2.213Zm-.006-2.213-.244-.14.753-.436.244.144-.753.432Z"/>
  <path fill="#E1EAF3" d="m134.468 71.41.006 2.211-.753.434-.006-2.213.753-.432Z"/>
  <path fill="#C5CED7" d="m135.327 73.237-.245-.14-.003-2.213.243.144.005 2.21Z"/>
  <path fill="#C5CED7" d="m135.322 71.028-.243-.144.752-.434.243.143-.752.435Z"/>
  <path fill="#E1EAF3" d="m136.074 70.593.007 2.21-.753.434-.006-2.209.752-.435Z"/>
  <path fill="#C5CED7" d="m142.186 69.486-.244-.143-.007-2.21.245.142.006 2.21Zm-.006-2.211-.245-.143.752-.434.246.143-.753.434Z"/>
  <path fill="#E1EAF3" d="m142.933 66.84.005 2.21-.752.436-.006-2.211.753-.434Z"/>
  <path fill="#C5CED7" d="m143.792 68.67-.244-.144-.007-2.21.244.143.007 2.211Z"/>
  <path fill="#C5CED7" d="m143.785 66.459-.244-.142.752-.436.245.142-.753.436Z"/>
  <path fill="#E1EAF3" d="m144.537 66.023.01 2.213-.755.434-.007-2.211.752-.436Z"/>
  <path fill="#C1E8FA" d="m27.74 84.023.178 62.245 37.94 22.053-.176-62.245-37.943-22.053Z"/>
  <path fill="#ACD9EA" d="m65.681 106.076.176 62.245 44.069-25.445-.179-62.247-44.066 25.447Z"/>
  <path fill="#82C2DE" d="m65.681 106.076.022 8.602 44.069-25.546-.025-8.503-44.066 25.447Z"/>
  <path fill="#DEF6FF" d="m27.74 84.023 37.942 22.053 44.065-25.447-37.939-22.054L27.74 84.023Zm48.929 49.216c.01-.184.02-.37.033-.557l.026-.292c.016-.184.034-.375.056-.559l.03-.264.054-.4c.027-.193.055-.386.088-.578l.076-.405c.03-.185.067-.371.104-.558l.1-.467.084-.366c.04-.174.086-.349.128-.526l.093-.344.092-.328c.118-.416.242-.829.381-1.246l.029-.089c.133-.404.28-.806.432-1.207l.119-.308c.136-.341.275-.688.42-1.027l.058-.142c.166-.379.339-.75.513-1.121l.142-.287c.14-.293.29-.581.443-.869l.145-.281c.19-.361.39-.715.593-1.066l.139-.234c.178-.299.358-.595.542-.889l.18-.283c.236-.366.477-.728.73-1.088l.124-.177c.258-.362.522-.722.794-1.074l.14-.186.236-.296.355-.439.273-.321.324-.381c.22-.251.445-.503.67-.744l.055-.057a25.4 25.4 0 0 1 .74-.759c.155-.156.314-.309.474-.458l.138-.135c.214-.196.425-.391.642-.58l.177-.149c.157-.135.316-.273.48-.404l.236-.191.434-.341.255-.19.437-.316.25-.176c.156-.107.315-.213.474-.314l.217-.144c.233-.147.465-.288.697-.423.226-.129.447-.25.669-.365l.18-.095c.196-.099.39-.193.583-.285l.082-.038a14.237 14.237 0 0 1 1.248-.505l.162-.061c.263-.092.525-.17.782-.239l.454-.115.21-.052a11.6 11.6 0 0 1 .658-.121h.02a8.67 8.67 0 0 1 .594-.075l.19-.014.419-.02.187-.007.428.008.144.005c.185.011.367.026.544.047l.115.019.361.058c.248.047.491.1.727.168l.03.01c.225.066.443.146.657.233l.186.078c.183.078.363.168.537.262l.172.092c-.909-.529-1.818-1.059-2.727-1.584l-.078-.047-.097-.047a7.201 7.201 0 0 0-.531-.259l-.102-.05-.089-.029a6.089 6.089 0 0 0-.652-.231l-.025-.011-.009-.003-.032-.007a6.4 6.4 0 0 0-.48-.118l-.143-.031-.153-.032-.28-.036-.114-.017a6.9 6.9 0 0 0-.484-.046l-.06-.001-.141-.005-.432-.009-.184.003-.146.004-.27.021-.197.014c-.195.015-.39.039-.59.071l-.023.001a9.42 9.42 0 0 0-.655.124l-.213.05-.41.099-.041.012c-.259.073-.52.153-.783.243l-.169.061c-.207.074-.419.156-.632.241l-.087.035c-.173.071-.347.149-.525.23l-.07.035a18.2 18.2 0 0 0-.598.288l-.17.092c-.224.116-.446.236-.673.366-.23.136-.465.278-.695.424l-.22.146c-.158.1-.316.203-.471.31l-.258.181-.428.309-.26.196-.429.333-.243.198c-.159.13-.316.264-.475.401l-.18.152a28.87 28.87 0 0 0-.64.58l-.13.125-.425.404-.062.065c-.25.248-.496.499-.741.76l-.027.029c-.232.25-.458.505-.688.764l-.067.073-.263.312-.275.33-.307.373-.29.371-.044.052-.065.091a29.29 29.29 0 0 0-.823 1.112l-.08.106-.034.057a35.9 35.9 0 0 0-.738 1.097l-.067.104-.099.16a49.02 49.02 0 0 0-.573.935l-.08.134-.028.05c-.206.359-.41.722-.603 1.085l-.05.088-.095.184a44.01 44.01 0 0 0-.438.868l-.094.186-.051.111c-.176.369-.347.739-.509 1.112l-.017.037-.052.13c-.145.333-.28.666-.415 1.006l-.067.167-.049.142c-.152.399-.299.798-.43 1.203l-.012.028-.027.083a31.5 31.5 0 0 0-.379 1.248l-.046.149-.037.142-.1.384c-.043.166-.084.331-.124.5l-.087.374-.063.268-.036.191c-.038.19-.074.378-.106.565l-.07.4a12.87 12.87 0 0 0-.09.579l-.044.281-.013.118-.03.261c-.021.19-.04.381-.058.571l-.023.277c-.01.191-.024.384-.035.571l-.01.247c-.01.269-.015.534-.015.801.011 4.58 1.629 7.805 4.238 9.321.909.528 1.818 1.054 2.726 1.585-2.608-1.517-4.228-4.743-4.237-9.321 0-.266.002-.533.015-.798l.012-.257Z"/>
  <path fill="#C1E8FA" d="M91.12 109.203c8.026-4.632 14.553-.915 14.579 8.311.027 9.22-6.456 20.454-14.481 25.087-8.025 4.634-14.553.913-14.576-8.307-.028-9.227 6.456-20.458 14.479-25.091Z"/>
  <path fill="#DEF6FF" d="M91.132 113.371c6.122-3.533 11.099-.696 11.117 6.34.02 7.03-4.923 15.6-11.041 19.131-6.121 3.536-11.1.696-11.118-6.334-.022-7.035 4.925-15.603 11.042-19.137Z"/>
  <path fill="#82C2DE" d="M91.132 113.371c-6.117 3.534-11.064 12.102-11.042 19.137.005 2.843.826 4.998 2.2 6.324 1.671.189 3.625-.269 5.715-1.475 6.117-3.535 11.062-12.1 11.041-19.133-.006-2.843-.827-5.002-2.201-6.33-1.67-.19-3.623.273-5.713 1.477Z"/>
  <path fill="#60ACC6" d="M80.09 132.508c.003 1.236.167 2.334.456 3.299.925-.246 1.89-.649 2.889-1.225 6.121-3.533 11.066-12.101 11.044-19.135-.005-1.237-.169-2.334-.457-3.301a12.01 12.01 0 0 0-2.89 1.225c-6.117 3.534-11.064 12.102-11.042 19.137Z"/>
  <path fill="#C1E8FA" d="m68.517 105.831.018 6.308 11.555-6.511v-6.487l-11.573 6.69Z"/>
  <path fill="#DEF6FF" d="m81.903 98.426.004 2.334 11.566-6.48v-2.544l-11.57 6.69Z"/>
  <path fill="#1D374E" d="m85.022 96.623-.023 2.405 5.852-3.28v-2.5l-5.83 3.375Z"/>
  <path fill="#DEF6FF" d="m99.026 91.578.086-.379.013-.033.148-.407.002-.006.208-.406.004-.007.24-.37.022-.029.253-.305.058-.061.213-.2.102-.088.323-.226.321-.146.058-.019.284-.064.023-.003.279.015.011.004.25.094-.011-.004-.562-.33-.388-.225-.008-.004-.088-.043-.092-.031-.058-.016-.019-.004-.018-.005-.106-.012-.115-.002-.033.006-.029.001-.062.007-.155.035-.062.02-.064.023-.075.025-.242.121-.323.224-.1.087-.152.133-.065.072-.057.057-.065.071-.143.174-.044.059-.021.033-.046.062-.101.15-.089.145-.006.012-.007.007-.069.123-.073.148-.06.13-.005.007-.003.012-.062.155-.06.163-.025.078-.01.033-.02.064-.046.196-.021.115-.009.066-.008.057-.027.335c.005.54.196.923.505 1.104l.962.558c-.312-.18-.502-.562-.505-1.105l.032-.392.012-.06Z"/>
  <path fill="#C1E8FA" d="M100.698 89.061c.947-.546 1.724-.109 1.725.983.003 1.091-.765 2.422-1.715 2.97-.949.547-1.72.107-1.726-.985-.002-1.092.767-2.417 1.716-2.968Z"/>
  <path fill="#DEF6FF" d="m104.414 88.739.09-.379.01-.031.149-.41.003-.001.206-.41.003-.007.24-.37.023-.027.252-.306.06-.059.212-.201.102-.092.325-.224.318-.146.059-.019.282-.064h.023l.28.016h.014l.247.093-.008-.005-.562-.326-.39-.226-.009-.005-.088-.043-.09-.033-.06-.012-.016-.006-.021-.001-.105-.012-.112-.002-.037.002-.029.005-.066.007-.149.03-.065.022-.062.02-.073.028-.244.12-.322.222-.1.089-.152.133-.065.07-.055.059-.069.074-.14.17-.042.06-.028.032-.044.065-.098.147-.091.146-.004.009-.007.012-.07.125-.076.145-.057.132-.003.007-.007.009-.062.153-.059.163-.022.081-.013.035-.017.06-.048.197-.021.114-.012.068-.009.056-.024.335c.004.543.195.923.507 1.105l.959.557c-.309-.178-.501-.56-.503-1.103l.033-.396.009-.058Z"/>
  <path fill="#C1E8FA" d="M106.089 86.222c.948-.547 1.723-.107 1.724.98.004 1.094-.765 2.428-1.713 2.975-.949.547-1.723.106-1.728-.986-.002-1.091.766-2.419 1.717-2.969Z"/>
  <path fill="#C5CED7" d="m82.64 103.597-.244-.142-.005-2.209.244.139.005 2.212Z"/>
  <path fill="#C5CED7" d="m82.635 101.385-.244-.139.752-.438.246.145-.754.432Z"/>
  <path fill="#E1EAF3" d="m83.388 100.953.004 2.209-.752.435-.005-2.212.753-.432Z"/>
  <path fill="#C5CED7" d="m84.247 102.78-.245-.141-.007-2.211.245.143.007 2.209Z"/>
  <path fill="#C5CED7" d="m84.24 100.571-.245-.143.752-.437.248.142-.755.438Z"/>
  <path fill="#E1EAF3" d="m84.995 100.133.004 2.213-.752.434-.007-2.209.755-.438Z"/>
  <path fill="#C5CED7" d="m91.104 99.028-.244-.144-.009-2.21.246.145.007 2.209Z"/>
  <path fill="#C5CED7" d="m91.097 96.819-.246-.144.752-.434.249.14-.755.438Z"/>
  <path fill="#E1EAF3" d="m91.852 96.381.004 2.21-.752.437-.007-2.21.755-.437Z"/>
  <path fill="#C5CED7" d="m92.71 98.212-.244-.144-.008-2.209.243.144.01 2.21Z"/>
  <path fill="#C5CED7" d="m92.701 96.003-.243-.144.755-.436.24.141-.752.44Z"/>
  <path fill="#E1EAF3" d="m93.454 95.564.01 2.213-.754.435-.009-2.209.753-.439Z"/>
  <path fill="#6EC5DC" d="M214.928 148.198h52.85v-27.866h-52.85v27.866Z"/>
  <path fill="#FFAA83" d="M248.131 79.135s-2.523 3.982-5.06 3.491c-2.542-.49-2.882-1.036-1.806-1.723 1.075-.687 3.912-2.628 3.373-2.803-.543-.187-1.734.082-1.609-.437s3.719-1.208 3.719-1.208l2.495 1.211-1.112 1.469Z"/>
  <path fill="#FEFEFD" d="M249.875 129.403c-.149.032-7.902-.222-6.174 2.598 1.123 1.821 2.674 2.144 3.831 2.175 1.163.033 3.282-.623 3.809-.293.524.326 3.149 2.092 4.654.319.307-.361.507-1.401.307-2.062-.2-.666-5.573-2.893-6.427-2.737Z"/>
  <path fill="#E8E8E8" d="M243.701 132.001c1.123 1.821 2.674 2.144 3.831 2.175 1.163.033 3.282-.623 3.809-.293.524.326 3.149 2.092 4.654.319.165-.196.298-.59.352-1.014-1.05 1.505-3.621 1.094-4.345.594-.808-.561-1.985-.842-2.996-.639-1.016.205-3.219-.045-4.318-1.081-.668-.626-.636-1.35-.506-1.82-.682.38-.979.935-.481 1.759Z"/>
  <path fill="#120F1F" d="M251.877 70.85s9.249 3.554 3.575 20.037c-1.043 3.028-3.16 9.448-2.462 12.608.838 3.792 2.064 2.718 2.951 15.274.784 11.08.647 8.677.911 13.166.071 1.286-4.777 2.63-5.511.637-3.198-8.684-7.643-26.887-6.736-36.923.901-10.038 1.478-19.425 1.478-19.425s2.634-2.513 5.794-5.374Z"/>
  <path fill="#FEFEFD" d="M234.909 136.166c-.158 0-8.099-1.718-6.797 1.507.84 2.086 2.375 2.707 3.569 2.962 1.182.252 3.479-.028 3.963.41.484.435 2.888 2.745 4.732 1.201.377-.314.764-1.349.668-2.069-.088-.715-5.23-4.018-6.135-4.011Z"/>
  <path fill="#E8E8E8" d="M228.112 137.673c.84 2.086 2.376 2.707 3.569 2.962 1.182.252 3.48-.028 3.964.41.484.435 2.887 2.745 4.731 1.201.209-.172.412-.547.542-.979-1.338 1.355-3.923.448-4.569-.201-.741-.728-1.902-1.241-2.981-1.226-1.077.026-3.302-.644-4.26-1.917-.578-.771-.415-1.508-.203-1.97-.763.26-1.171.777-.793 1.72Z"/>
  <path fill="#32293A" d="M251.377 78.11s5.449 5.625-4.301 19.868c0 0-4.732 10.133-4.567 13.372.2 3.883 1.81 4.243.229 16.932-1.371 11.019-.8 11.253-1.678 12.173-.923.978-5.551.029-5.709-1.93-.871-10.779-2.604-26.629-1.598-36.653 1.149-11.518 1.996-20.98 1.996-20.98s12.045-.534 15.628-2.781Z"/>
  <path fill="#FF5138" d="M220.201 60.715s1.631 1.93-.89 4.173c0 0-1.544-2.292.89-4.173Z"/>
  <path fill="#FFAA83" d="M220.774 61.634s-.578-.793-2.367-1.54c-1.787-.747-2.448-.49-3.701-.448-1.251.04-1.997.196-2.191.71-.262.681.603 1.712 3.147 1.827 2.62.12 3.403 2.254 3.934 2.409.529.161 1.62-2.524 1.178-2.958Z"/>
  <path fill="#FFAA83" d="M218.602 62.351c-.222-.225-1.085.538-3.724.262-2.042-.215.439.982.923 1.052.483.073 3.885.902 3.885.902s-.322-1.442-1.084-2.216Z"/>
  <path fill="#FE2456" d="M244.209 49.24c-.137-1.727-3.288-3.985-5.528-1.878-2.013 1.9-3.993 13.852-5.861 15.338-.585.467-12.619-1.985-12.619-1.985s1.435 1.659-.89 4.173c0 0 14.1 4.714 16.599 2.402 4.291-3.96 8.702-13.11 8.299-18.05Z"/>
  <path fill="#FF4D75" d="M225.848 62.386s-2.968-4.427 4.624-10.208c7.583-5.78 12.977-7.464 14.813-3.023 1.845 4.44 2.502 11.712 3.401 13.713 2.19 4.85 3.295 6.307 5.18 8.464 4.631 5.31 4.556 8.762-8.225 14.17-2.339.988-10.399 4.203-11.321-1.345-2.84-17.17-5.412-16.778-8.472-21.771Z"/>
  <path fill="#FFAA83" d="M229.156 46.536s2.523 2.902 1.635 5.682c-.474 1.498 9.583.203 7.302-2.964-1.886-2.614-1.654-5.64-.21-8.603l-8.727 5.885Z"/>
  <path fill="#EF916C" d="M230.519 48.804s2.113-1.261 3.147-2.419l.188.02.952-.095h.373s.918 3.739-4.213 5c0 0 .054-1.107-.447-2.506Z"/>
  <path fill="#FFAA83" d="M223.692 32.95s-1.412 2.743-1.159 7.272c.254 4.533.766 7.947 3.8 8.928 1.418.46 9.849-.492 10.084-9.93.157-6.016-6.48-11.63-12.725-6.27Z"/>
  <path fill="#633521" d="M222.148 33.666c-.644 1.066-1.523 3.92 1.26 4.07 3.959.211 4.091 5.489 5.559 5.914.825.243.287-.944 1.253-2.055.458-.524 1.767-1.011 2.341.85.527 1.712-.623 4.554.461 4.851 1.635.45 4.644-1.878 5.702-4.038 1.517-3.117 1.777-11.01-5.23-13.236-6.01-1.91-10.248 1.811-11.346 3.644Z"/>
  <path fill="#FEB623" d="M205.135 59.583s3.088-2.735 6.113-1.775c3.029.958 4.732.711 5.625 3.49.89 2.782 2.017 2.11.811 3.778-1.205 1.67-3.235 3.087-5.484 3.658-2.247.571-5.257 3.794-9.009 3.471-3.751-.325-4.171-10.846 1.944-12.622Z"/>
  <path fill="#32293A" d="M210.547 63.436s-1.05 4.387-5.003 5.432c-3.949 1.046-2.497 6.112-4.674 7.39-2.178 1.278-9.801.376-7.866-4.072 1.938-4.453 6.046-11.84 10.644-11.471 4.601.366 7.381-1.092 6.899 2.72Z"/>
  <path fill="#EA3E2D" d="M207.231 66.884s1.232 2.175-1.687 3.966c0 0-1.069-2.505 1.687-3.966Z"/>
  <path fill="#FFAA83" d="M206.001 70.44s-1.036.106-2.813-.658c-1.779-.763-1.994-1.39-2.764-2.292-.778-.897-1.125-1.517-.819-1.987.395-.623 1.818-.679 3.555 1.017 1.792 1.754 4.083.92 4.553 1.192.476.265-1.065 2.752-1.712 2.728Z"/>
  <path fill="#FFAA83" d="M205.202 68.462c-.333-.01-.253-1.106-2.186-2.765-1.499-1.288 1.104-.33 1.475-.036.369.293 3.259 2.126 3.259 2.126s-1.413.708-2.548.675Z"/>
  <path fill="#F77496" d="M233.066 59.522c.199-1.728-2.457-4.467-5.067-2.754-2.354 1.541-6.623 12.986-8.749 14.142-.669.367-12.019-4.026-12.019-4.026s1.086 1.873-1.687 3.966c0 0 12.943 6.954 15.846 5.09 4.987-3.202 11.11-11.486 11.676-16.418Z"/>
  <path fill="#DEF6FF" d="M204.908 88.952c-.009-.187-.021-.373-.033-.56l-.026-.292a15.798 15.798 0 0 0-.056-.557l-.029-.266-.058-.4a13.088 13.088 0 0 0-.085-.577l-.073-.406c-.034-.182-.069-.37-.106-.555a34.792 34.792 0 0 0-.1-.472l-.083-.361c-.04-.177-.089-.35-.131-.528l-.09-.345-.095-.325a31.16 31.16 0 0 0-.378-1.247l-.03-.087a36.828 36.828 0 0 0-.432-1.21l-.12-.307a41.688 41.688 0 0 0-.42-1.027l-.06-.143a41.726 41.726 0 0 0-.512-1.123l-.143-.284a24.25 24.25 0 0 0-.44-.87l-.146-.28a38.06 38.06 0 0 0-.592-1.066l-.139-.233c-.18-.302-.359-.597-.544-.89l-.179-.283c-.236-.366-.481-.73-.731-1.088l-.126-.177a34.554 34.554 0 0 0-.793-1.076l-.139-.182-.234-.297-.356-.44-.274-.32-.323-.382c-.22-.252-.446-.5-.673-.743l-.052-.057c-.243-.26-.49-.512-.741-.76l-.47-.457-.141-.137a38.256 38.256 0 0 0-.644-.58l-.175-.148c-.16-.136-.316-.275-.479-.405l-.239-.19-.431-.341-.258-.19-.434-.315-.252-.179c-.158-.106-.314-.21-.473-.312l-.217-.146a21.337 21.337 0 0 0-1.366-.788l-.179-.094a31.723 31.723 0 0 0-.586-.284l-.08-.038a12.174 12.174 0 0 0-.607-.262 12.683 12.683 0 0 0-.642-.243l-.16-.061a12.35 12.35 0 0 0-.784-.24l-.453-.112-.21-.054a13.914 13.914 0 0 0-.658-.122l-.019-.001a11.28 11.28 0 0 0-.593-.073l-.193-.012-.42-.023-.184-.005-.43.01-.146.002a9.325 9.325 0 0 0-.543.049l-.114.017-.36.057c-.251.047-.492.1-.728.169l-.03.01a7.298 7.298 0 0 0-.654.233l-.189.078c-.182.08-.364.168-.536.262l-.174.092c.908-.528 1.819-1.057 2.728-1.587l.078-.043.097-.047c.174-.093.351-.18.531-.26l.103-.049.086-.03c.214-.088.431-.168.654-.235l.025-.005.008-.006.032-.007c.159-.043.319-.083.482-.118l.142-.03.151-.03.281-.039.115-.015c.16-.021.319-.037.484-.049h.059l.142-.007.434-.007.184.004.142.003.274.021.195.014c.192.017.392.042.59.071l.022.004h.004c.217.03.434.072.654.121l.21.052.411.1.044.011c.256.071.517.151.782.241l.165.061c.21.077.422.156.635.243l.085.031c.175.075.349.15.524.233l.075.031c.196.096.397.191.593.292l.174.092c.222.114.446.236.669.366.235.135.469.276.698.423l.224.144.465.315.26.178.429.31.262.195.425.335.245.196c.157.13.314.266.473.401l.181.153c.215.187.43.383.64.58l.128.126.424.403.064.064c.25.248.498.5.741.76l.026.03c.232.25.461.503.687.763l.069.075.264.31.274.33.306.375.293.37.042.052.067.092c.281.36.556.734.823 1.11l.078.108.035.056c.253.359.498.727.737 1.095l.069.104.098.16c.194.31.387.623.572.937l.08.133.03.052c.206.358.407.72.603 1.085l.049.087.094.184c.152.288.295.576.439.867l.092.186.053.113c.177.368.347.737.511 1.112l.013.033.054.132c.142.335.281.668.415 1.007l.066.166.05.143c.151.4.295.8.431 1.204l.01.024.028.087c.135.413.26.83.38 1.248l.045.148.038.142.099.383c.043.167.085.332.123.498l.087.375.062.27.037.192c.04.187.074.378.107.564l.071.4c.033.193.061.384.087.579l.044.28.012.12.033.26c.022.19.038.38.055.57l.025.278c.013.192.024.383.034.569l.012.248c.011.27.016.536.016.8-.012 4.58-1.631 7.806-4.237 9.321l-2.73 1.588c2.61-1.518 4.227-4.743 4.241-9.323 0-.265-.005-.532-.017-.798l-.012-.255Z"/>
  <path fill="#C1E8FA" d="M190.455 64.916c-8.025-4.633-14.553-.915-14.577 8.31-.028 9.222 6.456 20.455 14.48 25.087 8.025 4.634 14.553.913 14.579-8.308.022-9.225-6.457-20.457-14.482-25.089Z"/>
  <path fill="#DEF6FF" d="M190.445 69.085c-6.12-3.534-11.1-.698-11.119 6.34-.021 7.03 4.924 15.597 11.042 19.13 6.122 3.536 11.102.698 11.118-6.335.024-7.038-4.925-15.602-11.041-19.135Z"/>
  <path fill="#82C2DE" d="M190.445 69.085c6.116 3.533 11.065 12.097 11.041 19.135-.007 2.842-.826 4.998-2.201 6.324-1.669.19-3.624-.271-5.712-1.476-6.118-3.533-11.062-12.1-11.042-19.133.007-2.843.826-5 2.2-6.33 1.672-.192 3.623.273 5.714 1.48Z"/>
  <path fill="#60ACC6" d="M201.486 88.22c-.004 1.235-.165 2.336-.457 3.299-.923-.245-1.891-.65-2.887-1.226-6.12-3.533-11.064-12.1-11.046-19.133.003-1.237.17-2.336.458-3.3.923.244 1.888.645 2.891 1.225 6.116 3.533 11.065 12.097 11.041 19.135Z"/>
  <path fill="#C1E8FA" d="m43.791 80.039 19.337 11.237 22.46-12.97L66.25 67.07 43.79 80.039Z"/>
  <path fill="#C1E8FA" d="M75.847 85.78c3.336 1.924 3.353 5.05.038 6.976-3.314 1.926-8.706 1.926-12.04 0-3.337-1.926-3.36-5.052-.043-6.976 3.318-1.928 8.712-1.928 12.045 0Zm14.883-9.587c3.335 1.926 3.355 5.05.037 6.98-3.313 1.925-8.707 1.923-12.042-.004-3.336-1.926-3.355-5.05-.042-6.976 3.318-1.926 8.711-1.926 12.046 0Z"/>
  <path fill="#FE2456" d="M59.55 53.41s-2.277 10.15-4.029 15.44c-1.396 4.207-2.877 13.15-.918 15.645l9.292 3.634s3.54-23.609-4.344-34.719Z"/>
  <path fill="#FF4D75" d="m59.55 53.41 14.633-8.417s1.582 8.749 2.743 12.62c2.498 8.346 4.333 14.937 3.054 22.068L63.896 88.13s.553-14.084-2.333-21.368c-1.496-3.78-2.853-9.916-2.012-13.35Z"/>
  <path fill="#DEF6FF" d="m61.933 57.143 11.772-6.77s1.275 7.039 2.206 10.154c2.011 6.718 3.489 12.02 2.459 17.759l-12.94 6.796s.442-11.332-1.877-17.197c-1.206-3.038-2.298-7.98-1.62-10.742Z"/>
  <path fill="#1D96CB" d="M78.37 78.286c1.03-5.74-.448-11.04-2.459-17.759A47.636 47.636 0 0 1 75.26 58c-1.034 5.076-4.287 9.664-7.027 14.425-1.885 3.273-2.542 7.77-2.771 10.806-.003 1.147-.03 1.852-.03 1.852l12.94-6.796Z"/>
  <path fill="#FEB624" d="m75.259 87.158-.027.066-.064.154-.047.083-.078.134-.067.1-.09.117-.083.102-.122.13-.044.047-.206.183-.035.03-.203.152-.06.041-.272.174-.362.19-.117.055-.268.114-.14.05-.274.094-.139.045-.198.05-.31.082-.209.04-.31.056-.248.033-.162.02-.311.025-.147.01-.436.012-.08-.003-.373-.009-.127-.007-.353-.028-.102-.012-.454-.066-.027-.003-.407-.082-.263-.07-.208-.055-.263-.086-.189-.065-.276-.116-.153-.064-.403-.21c-.857-.496-1.355-1.123-1.486-1.77l.69 3.339.05.187.007.021.056.132.032.076.073.125.044.075.14.187.005.01c.213.258.508.502.878.716l.348.178.12.054.251.103.15.053.242.079.162.046.245.063.03.007.31.06.032.007.354.053.034.003.1.009.291.024.12.005.088.007.225.004h.072l.337-.007.04-.004.132-.005.26-.026.148-.016.114-.012.091-.017.279-.049.168-.033.28-.067.11-.032.055-.014.121-.04.235-.081.122-.045.228-.097.104-.049.312-.161.201-.127.036-.023.051-.034.174-.136.032-.024.178-.158.036-.036.058-.06.049-.057.073-.085.076-.102.059-.09.024-.035.04-.078.037-.071.058-.132.024-.057.007-.014.047-.183c.095-.444.192-.888.285-1.334l.285-1.335c.047-.224.093-.444.142-.666l-.064.226Z"/>
  <path fill="#B3BF19" d="m75.398 71.892-.004.084-.01.062-.014.084-.012.064-.018.076-.02.071-.026.073-.024.066-.036.08-.026.064-.04.078-.037.063-.056.092-.037.055-.073.101-.032.043-.134.155-.038.038-.12.12-.053.05-.077.066-.069.059-.08.063-.08.06-.083.057-.086.058-.087.057-.124.075-.35.184-.093.045-.332.14-.042.02-.373.124-.265.077-.205.053-.277.061-.217.045-.086.013-.358.052-.106.012-.202.017-.354.024-.22.004-.285.003-.24-.007-.26-.015-.237-.021-.262-.026-.227-.033-.274-.047-.217-.045-.319-.082-.205-.05-.11-.035-.312-.107-.092-.033-.275-.115-.131-.06-.38-.198c-1.02-.589-1.527-1.36-1.527-2.128l-.042 14.76c0 .772.509 1.544 1.525 2.133l.381.198.13.055.236.106.041.012.091.035.314.108.105.03.076.025.137.033.314.078.088.02.13.025.272.044.111.02.12.016.255.028.127.014.12.007.256.013.133.006h.106l.28-.004h.143l.087-.005.34-.02.149-.011.068-.009.098-.012.36-.05.086-.014.044-.005.17-.039.282-.06.206-.056.262-.075.056-.015.316-.113.041-.017.335-.143.092-.041.35-.184.064-.038.052-.033.1-.061.078-.057.088-.06.078-.058.08-.063.073-.062.07-.061.034-.03.027-.027.114-.111.038-.042.135-.156.004-.007.028-.037.075-.102.037-.055.054-.09.017-.023.019-.04.039-.075.03-.07.034-.074.013-.036.011-.035.025-.071.022-.07.017-.074.01-.042.007-.03.01-.076.007-.066.006-.076.005-.05v-.044c.013-4.922.026-9.843.044-14.765l-.007.088Z"/>
  <path fill="#32293A" d="m75.398 71.892-.004.084-.01.062-.014.084-.012.064-.018.076-.02.071-.026.073-.024.066-.036.08-.026.064-.04.078-.037.063-.056.092-.037.055-.073.101-.032.043-.134.155-.038.038-.12.12-.053.05-.077.066-.069.059-.08.063-.08.06-.083.057-.086.058-.087.057-.124.075-.35.184-.093.045-.332.14-.042.02-.373.124-.265.077-.205.053-.277.061-.217.045-.086.013-.358.052-.106.012-.202.017-.354.024-.22.004-.285.003-.24-.007-.26-.015-.237-.021-.262-.026-.227-.033-.274-.047-.217-.045-.319-.082-.205-.05-.11-.035-.312-.107-.092-.033-.275-.115-.131-.06-.38-.198c-1.02-.589-1.527-1.36-1.527-2.128l-.042 14.76c0 .772.509 1.544 1.525 2.133l.381.198.13.055.236.106.041.012.091.035.314.108.105.03.076.025.137.033.314.078.088.02.13.025.272.044.111.02.12.016.255.028.127.014.12.007.256.013.133.006h.106l.28-.004h.143l.087-.005.34-.02.149-.011.068-.009.098-.012.36-.05.086-.014.044-.005.17-.039.282-.06.206-.056.262-.075.056-.015.316-.113.041-.017.335-.143.092-.041.35-.184.064-.038.052-.033.1-.061.078-.057.088-.06.078-.058.08-.063.073-.062.07-.061.034-.03.027-.027.114-.111.038-.042.135-.156.004-.007.028-.037.075-.102.037-.055.054-.09.017-.023.019-.04.039-.075.03-.07.034-.074.013-.036.011-.035.025-.071.022-.07.017-.074.01-.042.007-.03.01-.076.007-.066.006-.076.005-.05v-.044c.013-4.922.026-9.843.044-14.765l-.007.088Z"/>
  <path fill="#EDF4F8" d="m66.532 85.089.379.198.132.059.23.1.045.014.088.035.319.108.104.03.075.023.138.037.313.076.089.023.128.02.273.047.11.02.122.013.256.03.125.014.117.007.257.012.137.007h.383l.145-.002.083-.005.344-.024.145-.01.069-.006.102-.01.358-.054.087-.014.042-.007.17-.035.281-.06.208-.058.261-.074.06-.016.313-.111.039-.016.336-.142.095-.043.348-.186.065-.038.05-.033.1-.06.08-.057.088-.06.077-.06.08-.064.074-.06.072-.06.03-.027.027-.028.115-.114.04-.042.133-.156.007-.007.025-.037.075-.099.035-.057.056-.092.015-.024.02-.037.04-.078.032-.067.03-.073.017-.04.01-.031.026-.071.113-.545c.004-1.302-.023-2.583-.02-3.88l.009-.037.01-.066.012-.064c.006-2.374.01-2.794.01-2.808l-.115.46-.02.07-.024.072-.011.03-.017.04-.03.074-.032.068-.04.076-.02.036-.015.025-.056.093-.035.056-.075.1-.025.035-.007.007-.133.156-.04.044-.115.113-.028.027-.03.03-.071.059-.074.064-.08.06-.077.058-.087.063-.082.055-.099.06-.05.034-.065.038-.348.184-.095.043-.336.143-.039.017-.313.113-.06.014-.26.074-.209.058-.281.059-.17.036-.042.007-.087.014-.358.052-.102.01-.069.01-.145.006-.344.024-.083.007h-.422l-.106.004-.137-.01-.257-.015-.117-.003-.125-.014-.256-.03-.122-.013-.11-.021-.273-.045-.128-.021-.089-.023-.314-.078-.137-.033-.075-.022-.104-.035-.319-.106-.088-.035-.044-.015-.23-.1-.133-.06-.379-.196c-.832-.48-1.326-1.085-1.474-1.708l-.02 6.847c.152.626.662 1.25 1.494 1.73Z"/>
  <path fill="#FEB624" d="M75.4 71.89v-.036l-.002-.166-.004-.037v-.017l-.027-.19v-.003l-.691-3.339.023.165.004.049.002.142-.002.047-.02.179-.007.03-.04.15-.014.05-.072.181-.004.009-.104.182-.024.04-.142.2-.055.057-.058.066-.064.066-.06.06-.051.044-.146.121-.053.04-.208.146-.171.106-.312.161-.1.049-.232.099-.124.047-.23.08-.13.038-.267.07-.094.027-.37.076-.447.063-.254.02-.166.013-.406.012h-.11l-.288-.007-.139-.01-.26-.023-.14-.018-.264-.034-.12-.02-.358-.072-.02-.004-.368-.1-.146-.049-.224-.073-.215-.09-.157-.066-.366-.19-.126-.077-.082-.052-.093-.06-.076-.058-.08-.061-.074-.06-.073-.063-.065-.061-.066-.066-.06-.063-.062-.066-.051-.065-.05-.065-.049-.067-.042-.068-.043-.07-.037-.069-.035-.07-.027-.069-.03-.069-.023-.07-.02-.07-.02-.073-.013-.072-.01-.073-.006-.069-.004-.075-.002-.066.006-.086.007-.058.02-.142-.706 3.334-.025.13-.003.035-.007.095-.005.07v.086l.005.08.008.08.011.087.016.074.021.089.023.075.028.09.03.073.036.09.04.07.045.09.042.067.058.089.049.071.064.085.06.068.07.085.069.067.076.079.076.069.085.075.084.069.094.071.094.064.097.072.105.064.07.043.07.042.422.22.028.012.155.063.251.104.041.017.213.068.17.057.032.01.397.105.026.007.364.076.049.005.135.021.204.035.111.01.157.02.128.013.175.01.155.011.07.007.275.003.12.004h.026l.44-.014h.003l.127-.012.35-.026.007-.004c.177-.017.346-.043.516-.072l.024-.006.408-.081.093-.026.254-.065.077-.024.137-.043.277-.094.14-.054.27-.113.114-.053.364-.191.188-.117.009-.007.24-.166.062-.05.169-.14.034-.029.021-.019.071-.071.074-.076.072-.073.047-.056.017-.022.04-.054.071-.094.038-.054.027-.038.013-.03.12-.21.003-.006.001-.002.084-.21.01-.024.01-.032.044-.177.005-.027.002-.007.024-.207.002-.019Z"/>
  <path fill="#FFCA6C" d="M73.39 66.577c-1.748-1.01-4.574-1.01-6.309 0-1.735 1.008-1.729 2.647.022 3.655 1.745 1.01 4.573 1.012 6.307 0 1.736-1.008 1.728-2.647-.02-3.655Z"/>
  <path fill="#3998D8" d="m90.726 78.397-.07.22-.018.05-.14.256-.067.093-.051.066-.115.13-.033.039-.033.03-.193.171-.083.06-.192.135-.14.088-.395.2-.112.048-.364.132-.076.028-.389.108-.064.01-.34.066-.1.014c-.155.02-.309.043-.468.053l-.099.01a7.03 7.03 0 0 1-.47.013l-.117-.003-.343-.018-.15-.012-.374-.045-.096-.014a6.328 6.328 0 0 1-.51-.106l-.103-.03a5.467 5.467 0 0 1-.536-.175l-.07-.03a4.164 4.164 0 0 1-.513-.249c-.7-.403-1.091-.921-1.174-1.45.113.731.224 1.462.34 2.193.072.484.43.956 1.07 1.324.148.085.305.16.471.227l.06.026c.16.064.324.117.49.162l.05.017.049.009a4.1 4.1 0 0 0 .465.099l.017.005.072.009.345.04.062.006.066.006.318.013.083.006.024-.002.43-.012.03-.002.062-.009.427-.045.058-.005.032-.007.307-.057.064-.016.354-.095.022-.009.053-.019.328-.123.104-.04.359-.184.076-.045.05-.033.178-.125.074-.054.183-.163.022-.016.003-.007.034-.036.106-.116.038-.056.056-.073.012-.02.123-.23.011-.015.01-.033.061-.202.01-.032.01-.047c.115-.731.23-1.462.348-2.19l-.019.088Z"/>
  <path fill="#32293A" d="m90.79 68.463-.027 9.632c-.003.597-.39 1.185-1.172 1.64-1.562.91-4.113.91-5.689 0-.793-.458-1.191-1.062-1.187-1.66l.025-9.638c-.002.604.395 1.208 1.19 1.665 1.577.909 4.126.909 5.69 0 .781-.453 1.167-1.043 1.17-1.639Z"/>
  <path fill="#32293A" d="m90.79 68.463-.027 9.632-.001.038.029-9.635v-.035Z"/>
  <path fill="#32293A" d="m90.791 68.498-.03 9.635-.025.23.027-9.634.028-.231Z"/>
  <path fill="#32293A" d="m90.763 68.729-.027 9.633-.066.228.029-9.632.064-.23Z"/>
  <path fill="#32293A" d="m90.699 68.958-.029 9.632-.106.23.026-9.636.109-.226Zm-.109.225-.026 9.637-.163.238.027-9.63.162-.245Z"/>
  <path fill="#32293A" d="m90.429 69.428-.028 9.63-.251.27.027-9.633.252-.267Z"/>
  <path fill="#32293A" d="m90.177 69.695-.027 9.634a3.12 3.12 0 0 1-.508.377l.027-9.634a2.98 2.98 0 0 0 .508-.377Z"/>
  <path fill="#32293A" d="m89.67 70.072-.028 9.633-.05.03a4.35 4.35 0 0 1-.883.387l.028-9.632c.319-.104.614-.23.884-.388l.048-.03Zm-.933.418-.028 9.632a5.918 5.918 0 0 1-.759.19l.024-9.632a5.42 5.42 0 0 0 .763-.19Z"/>
  <path fill="#32293A" d="m87.974 70.68-.024 9.631a7.054 7.054 0 0 1-.514.073l.027-9.633c.173-.018.345-.042.51-.072Zm-.511.07-.027 9.634-.448.03.028-9.634.447-.03Zm-.447.03-.028 9.634-.41.003.025-9.637h.413Z"/>
  <path fill="#32293A" d="m86.604 70.78-.026 9.637-.4-.023.03-9.635.396.021Z"/>
  <path fill="#32293A" d="m86.208 70.76-.03 9.634-.39-.045.03-9.63.39.04Z"/>
  <path fill="#32293A" d="m85.817 70.72-.029 9.63-.4-.068.03-9.634.4.071Z"/>
  <path fill="#32293A" d="m85.418 70.648-.029 9.634-.42-.106.028-9.63.42.102Zm-.421-.102-.028 9.63a5.83 5.83 0 0 1-.485-.162l.024-9.633c.159.06.32.116.489.165Z"/>
  <path fill="#32293A" d="m84.508 70.381-.024 9.633a4.147 4.147 0 0 1-.582-.279c-.793-.458-1.191-1.062-1.187-1.66l.025-9.638c-.002.604.395 1.208 1.19 1.665.181.105.374.2.578.279Z"/>
  <path fill="#3998D8" d="m90.787 68.493.004-.01-.014-.195-.003-.033v-.003l-.336-2.192.013.217-.004.043-.019.165-.015.068-.046.145-.024.065-.08.16-.024.043-.147.205-.201.21-.212.173-.067.05-.23.15-.4.196-.096.041-.425.151-.066.018c-.158.045-.32.081-.481.112l-.06.013-.378.052-.17.017-.182.012-.305.009h-.038l-.332-.009-.102-.007-.225-.019-.117-.014-.213-.03-.12-.02-.192-.038-.134-.033-.178-.045-.14-.042-.15-.054-.174-.06-.116-.05-.26-.124-.15-.076c-.811-.47-1.17-1.102-1.07-1.715l-.351 2.188c-.105.668.285 1.363 1.173 1.875l.089.052.075.036.284.134.068.033.058.02.193.072.108.038.053.014.16.045.123.038.068.016.143.033.113.024.097.017.139.025.086.014.133.017.136.016.053.006.2.014.101.007.024.004.34.008h.021l.338-.008.015-.004.24-.019.135-.008.009-.002.416-.058.025-.005.042-.01a4.83 4.83 0 0 0 .528-.125l.05-.01.02-.007c.16-.049.315-.105.468-.165l.1-.044.44-.218.13-.082.12-.08.073-.05.228-.19.005-.003.22-.232.004-.002.15-.21.006-.01.026-.052.074-.136.013-.033.029-.071.03-.088.018-.072.016-.072.011-.047.01-.138.003-.041Z"/>
  <path fill="#57B6EA" d="M89.365 64.737c1.442.83 1.45 2.182.017 3.017-1.432.83-3.763.83-5.204 0-1.441-.835-1.45-2.187-.017-3.017 1.431-.834 3.762-.834 5.204 0Z"/>
  <path fill="#3998D8" d="M88.156 65.187c.786.455.791 1.192.008 1.648-.783.454-2.055.454-2.844 0-.79-.456-.792-1.193-.01-1.648.783-.453 2.057-.453 2.846 0Z"/>
  <path fill="#3998D8" d="M88.747 66.268h-4.021V60.35h4.02v5.918Z"/>
  <path fill="#C7E8F2" d="M88.156 59.528c.786.453.791 1.188.008 1.647-.783.454-2.055.454-2.844 0-.79-.459-.792-1.194-.01-1.647.783-.455 2.057-.455 2.846 0Z"/>
  <path fill="#32293A" d="M88.56 59.623c1.012.583 1.017 1.53.011 2.117-1.005.585-2.644.585-3.653 0-1.014-.586-1.019-1.534-.014-2.117 1.007-.585 2.643-.585 3.656 0Z"/>
  <path fill="#32293A" d="M89.323 60.801h-5.162v-1.617h5.162V60.8Z"/>
  <path fill="#433A4C" d="M88.56 58.245c1.012.583 1.017 1.533.011 2.116-1.005.586-2.644.586-3.653.001-1.014-.584-1.019-1.534-.014-2.117 1.007-.587 2.643-.587 3.656 0Z"/>
  <path fill="#FEB623" d="M103.92 63.227c.189 1.646-7.67 4.52-3.158 7.44 4.51 2.916-.028 4.531 11.119 3.008 11.147-1.526 3.982-9.328 18.577-8.346 14.593.982 23.829 4.807 24.891-3.01 1.059-7.816-2.21-6.134-11.309-12.82-10.07-7.4-42.58-7.543-40.12 13.728Z"/>
  <path fill="#FEB623" d="M103.92 63.227c.189 1.646-7.67 4.52-3.158 7.44 4.51 2.916-.028 4.531 11.119 3.008 11.147-1.526 3.982-9.328 18.577-8.346 14.593.982 23.829 4.807 24.891-3.01 1.059-7.816-2.21-6.134-11.309-12.82-10.07-7.4-42.58-7.543-40.12 13.728Z"/>
  <path fill="#F2A00F" d="M100.762 70.667c4.51 2.916-.028 4.531 11.119 3.008l-11.669-6.689c-1.034 1.156-1.408 2.414.55 3.681Zm54.587-8.347c.541-3.992-.059-5.508-1.977-6.926l-17.977 10.38c11.717 1.282 19.017 3.44 19.954-3.454Z"/>
  <path fill="#3998D8" d="M114.153 51.086s-8.061 6.194-.724 7.642c7.287 1.436 4.05 4.192 7.954 6.119 3.904 1.928 6.795 3.327 8.964 1.47 2.169-1.857-1.156-3.936 6.363-7.742 7.518-3.804 17.063-5.764 14.344-7.489-5.494-3.483-8.794-1.962-15.975-2.348-7.185-.385-13.986-4.661-20.926 2.348Z"/>
  <path fill="#6EC5DC" d="m186.792 245.709-53.066-30.646 10.569-6.143c-6.282-5.297-5.401-12.575 2.695-17.282 4.571-2.657 10.571-3.986 16.578-3.986 4.527 0 9.058.755 12.985 2.263l29.01-16.862 53.069 30.641-26.369 15.328.22.128-45.691 26.559Z"/>
  <path fill="#615A8E" d="M183.297 190.18s-.291-.864-.203-1.996c0 0-3.088 1.25-5.101.094 0 0 .245 1.38-.108 2.367-.355.979 4.968.854 5.412-.465Zm-18.03 5.762s-1.721 2.82.217 3.695c1.94.881 1.94-.485 5.542 2.627 3.609 3.126 6.899 1.84 7.378 1.185 1.142-1.582-.781-3.215-8.795-7.493l-4.342-.014Z"/>
  <path fill="#484475" d="M165.484 199.637c1.865 1.034 1.945-.485 5.553 2.627 3.598 3.126 6.852 1.81 7.371 1.185.064-.078.111-.206.121-.388-3.371 1.251-5.195-.512-6.67-1.713-1.525-1.232-2.802-1.725-5.117-2.246-2.308-.526-1.464-2.403-1.464-2.403.006-.374-.065-2.262-.321-2.279-.004 2.194-1.515 4.082.527 5.217Z"/>
  <path fill="#120F1F" d="M172.022 141.845s1.814 17.346.776 27.307c-1.039 9.958-2.044 21-1.789 26.662.082 1.87-7.001 3.948-7.496 0-.597-4.712-2.662-17.952.189-23.828l-4.666-25.504s8.322-1.271 12.986-4.637Z"/>
  <path fill="#615A8E" d="M172.571 194.264s-.292-.868-.203-1.996c0 0-3.084 1.255-5.1.092 0 0 .243 1.383-.113 2.365-.355.986 4.97.861 5.416-.461Zm-17.534 5.586s-1.743 2.848.216 3.738c1.959.882 1.959-.491 5.598 2.656 3.641 3.141 6.965 1.856 7.449 1.188 1.149-1.596-.779-4.175-8.868-8.5l-4.395.918Z"/>
  <path fill="#484475" d="M155.261 203.588c1.877 1.045 1.955-.491 5.597 2.656 3.634 3.141 6.918 1.82 7.446 1.188a.72.72 0 0 0 .12-.388c-3.407 1.266-5.244-.516-6.735-1.729-1.535-1.241-2.83-1.742-5.169-2.265-2.327-.536-1.473-2.433-1.473-2.433.014-.369-.064-2.275-.323-2.303-.01 2.218-1.525 4.125.537 5.274Z"/>
  <path fill="#32293A" d="M151.299 144.075s-4.23 5.411-1.794 17.222c2.441 11.81 3.274 15.274 3.274 15.274s-.576 1.489 0 10.945c.543 8.877.555 8.298.76 12.586.08 1.694 6.944 2.483 7.229-1.081.602-7.603 1.27-27.382 1.27-27.382l1.65-18.884 8.334-10.91s-16.243 5.341-20.723 2.23Z"/>
  <path fill="#DEF6FF" d="m181.837 234.474-2.166-1.416 51.69-79.126 2.169 1.421-51.693 79.121Z"/>
  <path fill="#DEF6FF" d="m235.393 202.214-50.478-18.687.897-2.43 50.48 18.689-.899 2.428Z"/>
  <path fill="#DEF6FF" d="m162.519 222.581-2.169-1.418 51.689-79.124 2.172 1.42-51.692 79.122Z"/>
  <path fill="#DEF6FF" d="m216.073 190.319-50.476-18.687.9-2.43 50.474 18.691-.898 2.426Z"/>
  <path fill="#3A3A3A" d="M250.657 143.134c-.019.162-.022.325-.054.484-.05.264-.142.531-.22.797-.05.172-.085.345-.149.519-.068.182-.167.366-.247.545-.123.274-.234.546-.383.817-.206.373-.448.746-.708 1.111l-.167.227c-.291.387-.607.771-.959 1.149l-.139.137c-.335.349-.694.694-1.084 1.033l-.196.173c-.413.353-.861.694-1.333 1.035l-.246.171a26.78 26.78 0 0 1-1.639 1.049l-71.093 41.32c-.639.018-1.269.014-1.899-.003a34.488 34.488 0 0 1-1.813-.097l-.163-.007a32.72 32.72 0 0 1-3.748-.533 26.546 26.546 0 0 1-1.834-.448l-.304-.1a22.756 22.756 0 0 1-1.607-.54 19.363 19.363 0 0 1-.914-.373l-.455-.2a16.523 16.523 0 0 1-1.346-.694l-15.389-8.884c-3.517-2.027-5.225-4.76-5.243-7.623l-.01 2.87c.021 2.865 1.731 5.593 5.243 7.624l15.39 8.883c.43.25.88.478 1.348.695l.458.201c.221.094.438.2.663.292l.248.079c.502.191 1.021.363 1.55.523l.3.102.075.017c1.166.328 2.389.584 3.654.762l.017.004c.247.036.509.054.759.085.38.043.753.094 1.134.128h.004l.16.007c.6.047 1.206.082 1.813.099h.05c.611.016 1.23.016 1.852 0l71.094-41.322.35-.207c.449-.271.876-.555 1.284-.838l.25-.176c.472-.334.916-.678 1.333-1.034l.196-.168.38-.333c.253-.235.487-.474.715-.712l.121-.121c.285-.306.554-.615.796-.924l.174-.236.156-.217c.25-.347.481-.699.684-1.051l.031-.064c.149-.271.264-.545.384-.818.071-.165.168-.328.232-.494l.01-.051c.065-.173.099-.345.15-.519.074-.243.163-.484.21-.729l.01-.067c.031-.163.035-.325.057-.488.028-.234.075-.472.082-.705v-.19c.003-.958.007-1.915.007-2.871 0 .299-.04.597-.082.899Z"/>
  <path fill="#4E6369" d="M245.483 134.565c7.845 4.527 6.791 12.5-2.35 17.816l-71.094 41.321c-5.269.128-10.353-.84-14.082-2.996l-15.389-8.884c-3.517-2.027-5.226-4.76-5.243-7.623l71.566-41.594c9.138-5.31 22.896-5.949 30.743-1.419l5.849 3.379Z"/>
  <path fill="#01E29F" d="m215.636 147.291 8.74 5.135-3.854 5.815-.267.149-6.663 3.805-.26-.164c-2.631-1.518-6.891-1.522-9.504-.003-2.623 1.525-2.606 3.991.028 5.513l.203.105-7.626 4.354-10.356 2.303-8.738-5.132 7.239-4.136-14.824-8.706 23.752-13.787 15.162 8.737 6.968-3.988Z"/>
  <path fill="#42857D" d="m195.752 159.053-6.683 3.881-7.467-4.308 6.684-3.88 7.466 4.307Z"/>
  <path fill="#723E24" d="M161.821 102.164s-5.551 13.052-4.078 15.277c1.607 2.423 3.025 5.328 3.025 5.328s5.572-9.47 5.018-11.26c-.552-1.791-3.965-9.345-3.965-9.345Z"/>
  <path fill="#D8E9EB" d="M187.28 152.419s11.804 2.893 17.405-9.106l-3.934-1.862-13.471 9.791v1.177Z"/>
  <path fill="#EBF7FC" d="M187.28 151.242s1.981-13.712 16.754-16.572l.651 8.643s-7.51 10.076-17.405 7.929Z"/>
  <path fill="#D3EDF5" d="M194.078 147.088s5.242-.578 7.151-4.48v-4.257s-7.998 3.723-7.151 8.737Z"/>
  <path fill="#EBF7FC" d="m204.034 134.67 1.782-.432.479 6.258-1.705 1.545-.556-7.371Z"/>
  <path fill="#B4DADF" d="M201.229 142.608s-2.325 4.394-7.151 4.48c0 0 1.251-4.098 3.575-5.047 2.325-.948 3.576.567 3.576.567Z"/>
  <path fill="#EBF7FC" d="M199.263 142.877c0 .465-.573.839-1.281.839s-1.284-.374-1.284-.839c0-.461.576-.836 1.284-.836.708 0 1.281.375 1.281.836Z"/>
  <path fill="#FFAA83" d="M193.261 134.735s.928-.554 2.887-.55c1.963 0 2.403.529 3.481 1.084 1.074.561 1.827 1.088 1.539 1.621-.285.533-2.939 1.177-4.437.637-.918-.345-3.46.698-4.001.637-.547-.057-.082-3.179.531-3.429Z"/>
  <path fill="#F29C79" d="M192.73 138.164c.541.061 3.083-.982 4.001-.637 1.074.39 2.742.163 3.708-.189l-.028-.078c-.203-.353-1.042-.21-1.547-.401-.505-.196-2.116-.271-3.129-.569-1.006-.285-3.036.647-3.036.647l-.197.095c-.048.613.011 1.109.228 1.132Z"/>
  <path fill="#EF2E61" d="M171.535 115.496s3.541-3.627 6.113 1.135c1.671 3.094 3.73 14.9 4.903 16.019.576.545 11.211 1.359 11.211 1.359s-1.757 1.38-.033 4.634c0 0-14.285 2.832-16.237-.255-3.339-5.304-8.456-18.293-5.957-22.892Z"/>
  <path fill="#FF4D75" d="M158.169 114.942c1.618-.929 16.748-1.966 18.153-.382.923 1.047 1.215 1.178 2.011 6.958.304 2.74-.408 5.844-2.211 8.295-3.571 4.87-3.73 7.693-3.904 9.186-.25 2.209 1.234 6.256.412 8.115-1.116 2.518-19.403 4.467-21.746-1.731-.022-.076-.779-.572 2.272-6.082 6.496-11.749-.875-20.992 5.013-24.359Z"/>
  <path fill="#F79F7C" d="M171.635 110.813s-1.395 3.133-1.029 5.007c.368 1.878-2.373 1.892-3.529 1.208-1.163-.696-2.955-1.963-2.467-3.018.496-1.057 2.363-4.47 1.908-5.914-.458-1.448 5.117 2.717 5.117 2.717Z"/>
  <path fill="#FFAA83" d="M167.369 99.408s-4.527 2.95-4.321 7.091c.111 2.284 2.322 4.224 3.514 5.628 1.19 1.399 3.526 4.538 6.155 3.174 2.705-1.405 5.009-9.869 2.861-14.204-2.101-4.231-8.209-1.689-8.209-1.689Z"/>
  <path fill="#723E24" d="M175.248 102.709s-.165 2.624-6.056 2.245c-1.447-.095-2.07 4.247-2.951 2.942-.333-.498-1.258-1.529-1.515-.942-1.23 2.813 1.806 2.599 1.06 4.555-1.803 4.776-5.873-4.508-3.805-9.807 1.536-3.94 4.822-6.86 10.437-4.639 5.617 2.217 4.071 7.812 4.071 7.812s-.231-2.064-1.241-2.166Z"/>
  <path fill="#FFAA83" d="M165.057 142.473s1.071.003 2.752 1.007c1.678 1.01 1.789 1.7 2.431 2.738.634 1.031 1.007 1.885.488 2.194-.522.317-3.132-.49-4.128-1.732-.623-.771-3.335-1.173-3.769-1.51-.441-.332 1.558-2.803 2.226-2.697Z"/>
  <path fill="#F29C79" d="M162.831 145.17c.434.336 3.146.739 3.769 1.51.715.886 2.264 1.555 3.271 1.744l.015-.084c.011-.404-.786-.713-1.121-1.14-.334-.43-1.674-1.327-2.392-2.105-.719-.769-2.942-1.006-2.942-1.006l-.216-.013c-.353.506-.561.962-.384 1.094Z"/>
  <path fill="#F77496" d="M157.714 115.301s3.566-.935 3.652 2.61c.078 3.542-4.858 15.664-4.428 17.23.21.775 8.916 6.955 8.916 6.955s-2.22.292-2.412 4.004c0 0-13.717-4.903-13.802-8.587-.139-6.317 3.569-19.517 8.074-22.212Z"/>
  <path fill="#615A8E" d="m161.299 218.345 3.644 1.952s-2.024 3.471-3.976 2.82c-1.952-.651-.633-3.688.332-4.772Zm72.23-16.093.967-4.016s3.869 1.078 3.734 3.131c-.135 2.053-3.406 1.548-4.701.885Zm-19.883-12.077.966-4.016s3.87 1.078 3.735 3.131c-.132 2.053-3.407 1.548-4.701.885Z"/>
  <defs>
    <linearGradient id="a" x1="21.114" x2="732.6" y1="-49.175" y2="652.936" gradientUnits="userSpaceOnUse">
      <stop stop-color="#D88FE0"/>
      <stop offset="1" stop-color="#4E43D7"/>
    </linearGradient>
  </defs>
</svg>
