<svg xmlns="http://www.w3.org/2000/svg" width="304" height="184" fill="none" viewBox="0 0 304 184">
  <path fill="#E4E4E4" d="M293.197 131.998c.333 1.195.594 2.418.783 3.658l.466-.07a31.953 31.953 0 0 0-.797-3.714l-.452.126Zm1.122 7.384a30.531 30.531 0 0 1-.121 3.737l.468.045a30.84 30.84 0 0 0 .122-3.797l-.469.015Zm-.708 7.429a29.24 29.24 0 0 1-1.044 3.591l.444.158a30.624 30.624 0 0 0 1.06-3.645l-.46-.104m-2.525 7.022a31.777 31.777 0 0 1-1.885 3.229l.391.259a32.192 32.192 0 0 0 1.914-3.275l-.42-.213m-4.13 6.219a36.296 36.296 0 0 1-2.557 2.735l.327.338a36.773 36.773 0 0 0 2.588-2.769l-.358-.304Zm-5.37 5.205a44.283 44.283 0 0 1-3.026 2.21l.261.391a44.902 44.902 0 0 0 3.059-2.233l-.294-.368Zm-6.223 4.171a56.32 56.32 0 0 1-3.33 1.727l.202.424a55.837 55.837 0 0 0 3.36-1.741l-.232-.41Zm-6.767 3.236a70.128 70.128 0 0 1-3.522 1.309l.153.444a66.593 66.593 0 0 0 3.544-1.318l-.175-.435Zm-7.105 2.434a85.494 85.494 0 0 1-3.635.958l.109.457a86.44 86.44 0 0 0 3.655-.963l-.129-.452Zm-7.31 1.763c-1.203.239-2.436.461-3.702.664l.075.465c1.27-.205 2.511-.428 3.718-.668l-.091-.461Zm-7.424 1.202c-1.219.155-2.468.295-3.741.419l.046.468c1.278-.124 2.529-.264 3.752-.421l-.057-.466m-7.492.73a149.54 149.54 0 0 1-3.758.21l.019.47c1.283-.055 2.539-.127 3.772-.211l-.033-.469m-7.522.33c-1.12.021-2.258.033-3.413.033h-.355v.47h.355c1.159 0 2.299-.012 3.423-.034l-.01-.469Zm-7.534-.014a191.487 191.487 0 0 1-3.766-.12l-.019.47c1.278.053 2.535.093 3.775.12l.01-.47Zm-7.529-.309a219.186 219.186 0 0 1-3.758-.255l-.036.469c1.272.097 2.529.182 3.766.255l.028-.469Zm-7.514-.57a251.349 251.349 0 0 1-3.75-.372l-.05.468c1.267.135 2.521.259 3.756.373l.044-.469m-7.494-.797c-1.233-.15-2.48-.308-3.738-.478l-.064.467c1.263.169 2.51.328 3.744.477l.058-.466m-7.472-1.002c-1.229-.18-2.47-.37-3.726-.57l-.074.464c1.257.2 2.501.39 3.732.571l.068-.465m-7.445-1.183a376.25 376.25 0 0 1-3.712-.653l-.085.462c1.252.228 2.491.445 3.718.654l.079-.463m-7.418-1.347a338.61 338.61 0 0 1-3.699-.73l-.093.461c1.245.253 2.48.496 3.702.731l.09-.462m-7.389-1.495a396.769 396.769 0 0 1-3.685-.8l-.102.46c1.241.275 2.469.542 3.688.8l.099-.46m-7.362-1.631c-1.214-.28-2.438-.566-3.671-.862l-.109.458c1.234.295 2.459.583 3.674.863l.106-.459m-7.334-1.754c-1.208-.3-2.428-.607-3.656-.921l-.117.456c1.23.314 2.449.621 3.66.921l.113-.456Zm-7.305-1.869-1.061-.28a133.79 133.79 0 0 0-2.596-.664l-.112.456c.859.212 1.722.431 2.587.662l1.062.281.12-.455m-7.337-1.796c-1.241-.27-2.475-.521-3.703-.754l-.087.462c1.223.233 2.453.482 3.69.751l.1-.459m-7.428-1.409c-1.253-.203-2.5-.388-3.74-.555l-.063.466c1.236.167 2.478.351 3.728.554l.075-.465Zm-7.493-1.012a152.025 152.025 0 0 0-3.763-.359l-.039.468c1.243.104 2.493.222 3.751.359l.051-.468m-7.535-.622a152.574 152.574 0 0 0-3.776-.168l-.015.47c1.246.04 2.501.095 3.764.168l.027-.47m-7.555-.245a192.822 192.822 0 0 0-3.778.013l.007.471a166.516 166.516 0 0 1 3.767-.013l.004-.471m-7.554.113c-1.268.049-2.526.11-3.773.183l.028.47c1.244-.074 2.498-.135 3.763-.182l-.018-.471m-7.541.445c-1.266.1-2.52.212-3.762.336l.046.468c1.239-.124 2.49-.235 3.754-.336l-.038-.468m-7.517.741c-1.262.149-2.511.306-3.747.472l.062.466a224.27 224.27 0 0 1 3.739-.471l-.054-.467m-7.486 1.001a285.45 285.45 0 0 0-3.73.583l.075.464c1.226-.199 2.468-.395 3.724-.581l-.07-.466Zm-7.454 1.212c-1.256.219-2.494.441-3.716.666l.085.463a398.04 398.04 0 0 1 3.712-.666l-.08-.463m-7.427 1.36c-1.255.24-2.49.479-3.706.714l.09.462c1.215-.237 2.45-.475 3.704-.714l-.088-.462m-7.41 1.432c-1.26.243-2.494.481-3.704.708l.087.462c1.21-.227 2.447-.465 3.707-.708l-.09-.462Zm-7.413 1.386c-1.27.225-2.51.434-3.717.623l.073.465c1.211-.191 2.453-.4 3.725-.625l-.081-.463m-7.445 1.156a84.47 84.47 0 0 1-3.74.394l.037.469a83.554 83.554 0 0 0 3.762-.397l-.059-.466Zm-7.491.576c-.171.002-.341.002-.51.002a34.91 34.91 0 0 1-3.233-.141l-.044.469c1.047.098 2.14.142 3.277.142.171 0 .343 0 .515-.002l-.005-.47m-7.42-.76a15.96 15.96 0 0 1-3.468-1.313l-.219.418a16.533 16.533 0 0 0 3.569 1.351l.117-.456Zm-6.463-3.468a13.912 13.912 0 0 1-2.284-2.906l-.403.241a14.42 14.42 0 0 0 2.36 3.004l.327-.339Zm-3.846-6.282a60.972 60.972 0 0 1-1.172-3.57l-.451.134c.354 1.201.747 2.4 1.181 3.597l.442-.161m-2.123-7.205a60.33 60.33 0 0 1-.722-3.687l-.464.075a60.45 60.45 0 0 0 .728 3.716l.458-.104Zm-1.214-7.413a61.214 61.214 0 0 1-.261-3.747l-.47.017c.049 1.259.136 2.518.263 3.777l.468-.047Zm-.295-7.506c.026-1.252.09-2.502.19-3.75l-.47-.038a64.196 64.196 0 0 0-.19 3.779l.47.009m.595-7.48a68.05 68.05 0 0 1 .613-3.701l-.462-.09a68.84 68.84 0 0 0-.617 3.726l.466.065Zm1.425-7.361a72.952 72.952 0 0 1 1.005-3.622l-.45-.137a73.442 73.442 0 0 0-1.01 3.645l.455.114m2.191-7.19a78.863 78.863 0 0 1 1.358-3.507l-.434-.18a80.003 80.003 0 0 0-1.366 3.527l.442.16Zm2.878-6.947a85.446 85.446 0 0 1 1.673-3.369l-.416-.219a84.673 84.673 0 0 0-1.683 3.389l.426.199Zm3.491-6.663A90.48 90.48 0 0 1 29.036 100l-.397-.253a91.447 91.447 0 0 0-1.965 3.232l.407.236m4.033-6.34a95.784 95.784 0 0 1 2.201-3.041l-.375-.284a96.973 96.973 0 0 0-2.212 3.057l.386.268m4.519-5.998c.79-.97 1.6-1.925 2.428-2.868l-.353-.31c-.832.946-1.646 1.907-2.44 2.88l.365.298m4.961-5.645c.861-.91 1.74-1.805 2.635-2.684l-.33-.336c-.899.883-1.781 1.783-2.646 2.697l.341.323Zm5.366-5.273c.926-.847 1.867-1.677 2.823-2.49l-.304-.359a105.86 105.86 0 0 0-2.837 2.502l.318.347Zm5.735-4.88c.986-.778 1.985-1.54 2.997-2.283l-.278-.379c-1.017.746-2.02 1.511-3.01 2.294l.291.369Zm6.076-4.458c1.04-.707 2.093-1.395 3.157-2.062l-.25-.398c-1.069.67-2.126 1.36-3.171 2.071l.264.39m6.388-4.008a99.25 99.25 0 0 1 3.303-1.823l-.219-.416c-1.116.588-2.222 1.2-3.319 1.832l.235.407m6.675-3.52a95.106 95.106 0 0 1 3.425-1.558l-.186-.431a95.608 95.608 0 0 0-3.442 1.566l.203.424m6.91-2.978a89.764 89.764 0 0 1 3.54-1.274l-.15-.445c-1.191.4-2.378.827-3.558 1.28l.168.44m7.132-2.396a82.49 82.49 0 0 1 3.636-.96l-.11-.458a84.1 84.1 0 0 0-3.657.966l.13.452Zm7.312-1.754a77.844 77.844 0 0 1 3.709-.618l-.066-.465c-1.245.176-2.49.383-3.731.62l.088.463Zm7.452-1.05a71.612 71.612 0 0 1 3.756-.24l-.018-.47c-1.26.047-2.52.127-3.78.24l.042.47Zm7.514-.28a67.06 67.06 0 0 1 3.755.17l.034-.47a66.95 66.95 0 0 0-3.78-.17l-.009.47Zm7.494.553c1.24.164 2.477.364 3.708.602l.089-.462a63.4 63.4 0 0 0-3.736-.606l-.061.466m7.372 1.426a60.91 60.91 0 0 1 3.606 1.047l.144-.447a60.956 60.956 0 0 0-3.634-1.055l-.116.455Zm7.138 2.315c1.16.457 2.309.953 3.451 1.487l.2-.426a61.233 61.233 0 0 0-3.478-1.498l-.173.437Zm6.801 3.185a60.883 60.883 0 0 1 3.241 1.9l.251-.398a62.3 62.3 0 0 0-3.266-1.915l-.226.413m6.363 3.992a65.915 65.915 0 0 1 2.993 2.271l.295-.366a65.647 65.647 0 0 0-3.016-2.288l-.272.383m5.853 4.709c.597.538 1.19 1.09 1.776 1.657.323.311.646.619.969.922l.321-.343c-.321-.302-.642-.608-.963-.917a70.245 70.245 0 0 0-1.788-1.669l-.315.35m5.547 5.11a90.81 90.81 0 0 0 2.903 2.413l.293-.368a91.248 91.248 0 0 1-2.888-2.401l-.308.355m5.906 4.703a86.62 86.62 0 0 0 3.1 2.157l.26-.392a85.415 85.415 0 0 1-3.083-2.145l-.277.38Zm6.292 4.174a83.853 83.853 0 0 0 3.281 1.873l.223-.414a85.299 85.299 0 0 1-3.262-1.862l-.242.403m6.642 3.597a87.089 87.089 0 0 0 3.433 1.572l.188-.433a85.027 85.027 0 0 1-3.417-1.563l-.204.424m6.935 2.992a89.1 89.1 0 0 0 3.558 1.271l.151-.445a89.516 89.516 0 0 1-3.54-1.265l-.169.44m7.165 2.395a99.55 99.55 0 0 0 3.649.984l.113-.456a103.81 103.81 0 0 1-3.629-.98l-.133.452m7.33 1.835c1.236.264 2.473.506 3.708.728l.083-.463a116.715 116.715 0 0 1-3.692-.724l-.099.46m7.436 1.34c1.251.188 2.497.357 3.744.51l.058-.466a146.215 146.215 0 0 1-3.731-.509l-.071.466m7.5.93c1.257.127 2.511.24 3.762.342l.037-.47a207.071 207.071 0 0 1-3.753-.34l-.046.468Zm7.528.618c1.262.083 2.519.157 3.769.226l.026-.47a323.79 323.79 0 0 1-3.764-.225l-.031.469m7.541.414c1.263.058 2.521.114 3.77.167l.02-.47c-1.249-.053-2.506-.109-3.768-.166l-.022.469Zm7.542.328c1.264.055 2.521.111 3.767.172l.024-.47a596.623 596.623 0 0 0-3.772-.171l-.019.469m7.533.375c1.265.074 2.519.157 3.762.251l.036-.469a236.806 236.806 0 0 0-3.77-.253l-.028.47m7.516.574c1.261.124 2.507.261 3.74.419l.062-.467a130.656 130.656 0 0 0-3.756-.42l-.046.468m7.464.958a84.1 84.1 0 0 1 3.695.689l.097-.459a83.862 83.862 0 0 0-3.716-.694l-.076.464m7.348 1.559c1.215.325 2.414.683 3.589 1.08l.151-.446a59.852 59.852 0 0 0-3.62-1.089l-.12.455Zm7.103 2.401a45.966 45.966 0 0 1 3.383 1.577l.216-.419a47.111 47.111 0 0 0-3.417-1.592l-.182.434Zm6.626 3.432a41.144 41.144 0 0 1 3.066 2.132l.285-.374a42.157 42.157 0 0 0-3.099-2.157l-.252.399m5.924 4.533c.902.827 1.78 1.708 2.636 2.645l.347-.318a43.101 43.101 0 0 0-2.664-2.674l-.319.347Zm5.038 5.505a50.89 50.89 0 0 1 2.175 3.047l.392-.258a51.522 51.522 0 0 0-2.194-3.076l-.373.287Zm4.127 6.251c.045.082.093.163.139.246a31.5 31.5 0 0 1 1.627 3.369l.432-.179a31.407 31.407 0 0 0-1.649-3.421l-.139-.246-.41.231"/>
  <path fill="#4D4D4D" fill-opacity=".71" d="M289.786 182.983H14.213c8.624-63.718 67.02-113.004 137.786-113.004 70.762 0 129.162 49.286 137.787 113.004Z"/>
  <path fill="#A9BAE6" d="M253.866 182.423H150.214a8.739 8.739 0 0 1-8.738-8.739V25.004a8.738 8.738 0 0 1 8.738-8.738h103.652a8.738 8.738 0 0 1 8.737 8.739v148.679a8.74 8.74 0 0 1-8.737 8.739Z"/>
  <path fill="#F6F5F5" d="M252.12 22.963v144.821h-99.697V22.964h99.697Z"/>
  <path fill="#E4E4E4" d="M252.118 22.964c.031 56.473 1.855 124.581-4.49 139.661-27.939 2.722-60.655 3.596-95.207 3.758l13.133-142.981 86.564-.438"/>
  <path fill="#fff" d="M243.165 158.061c-43.55 6.97-72.656 7.338-96.263 5.585 3.059-32.565 4.287-86.664 5.52-140.675l52.478.115 47.494 3.136c.692 56.059.768 107.841-9.229 131.839"/>
  <path fill="#708CD5" d="m227.589 45.541-52.446-1.233.188-7.99 52.446 1.236-.188 7.987Zm6.494 11.561-47.307-1.113-.086 3.656 47.306 1.114.087-3.657Z"/>
  <path fill="#D3DFFF" d="m218.743 64.718-32.154-.756-.087 3.656 32.155.757.086-3.657"/>
  <path fill="#fff" d="m175.411 67.053-11.2-.264.263-11.2 11.201.265-.264 11.199Z"/>
  <path fill="#708CD5" d="m175.411 67.051.01-.352-10.848-.255.247-10.494 10.495.247-.255 10.847.351.007.01-.352-.01.352.352.01.273-11.552-11.904-.28-.281 11.904 11.905.28.007-.353-.352-.009m49.842 10.215-38.955-.917-.086 3.657 38.955.917.086-3.657Z"/>
  <path fill="#D3DFFF" d="m233.417 85.435-47.307-1.113-.087 3.657 47.307 1.113.087-3.657Z"/>
  <path fill="#fff" d="m174.932 87.413-11.199-.263.263-11.2 11.199.264-.263 11.199Z"/>
  <path fill="#708CD5" d="m174.931 87.413.008-.352-10.846-.256.247-10.494 10.494.248-.255 10.846.352.008.008-.352-.008.352.353.009.271-11.552-11.904-.28-.28 11.904 11.904.28.009-.352-.353-.009m58.194 10.411-47.307-1.114-.087 3.657 47.307 1.113.087-3.656Z"/>
  <path fill="#D3DFFF" d="m206.786 105.181-21.157-.499-.085 3.658 21.155.497.087-3.656"/>
  <path fill="#fff" d="m174.453 107.773-11.2-.264.264-11.199 11.199.264-.263 11.199Z"/>
  <path fill="#708CD5" d="m174.453 107.773.007-.352-10.846-.256.247-10.493 10.493.246-.254 10.847.353.008.007-.352-.007.352.351.008.272-11.551-11.904-.28-.28 11.904 11.905.28.007-.353-.351-.008m58.193 10.411-47.306-1.113-.086 3.656 47.306 1.113.086-3.656Z"/>
  <path fill="#D3DFFF" d="m222.522 125.923-37.37-.88-.086 3.657 37.37.879.086-3.656Z"/>
  <path fill="#fff" d="m173.974 128.134-11.2-.264.265-11.199 11.199.263-.264 11.2"/>
  <path fill="#708CD5" d="m173.973 128.135.008-.353-10.847-.256.248-10.494 10.494.247-.255 10.847.352.009.008-.353-.008.353.353.008.272-11.553-11.905-.28-.281 11.905 11.905.281.009-.353-.353-.008Zm29.644 9.583-18.752-.441-.086 3.656 18.752.442.086-3.657Z"/>
  <path fill="#D3DFFF" d="m231.982 146.364-47.307-1.114-.086 3.656c18.303.43 41.607 1.288 46.361.558.723-.821 1.112-1.828 1.032-3.1"/>
  <path fill="#fff" d="m173.655 148.344-11.199-.263.264-11.2 11.199.264-.264 11.199Z"/>
  <path fill="#708CD5" d="m173.654 148.344.008-.352-10.846-.255.246-10.495 10.495.247-.256 10.847.353.008.008-.352-.008.352.353.009.272-11.552-11.904-.281-.281 11.904 11.904.281.009-.352-.353-.009"/>
  <path fill="#EE6F57" d="M224.493 17.273V28.45h-44.909V17.273c0-1.782.724-3.395 1.89-4.567.146-.146.296-.282.456-.408a6.407 6.407 0 0 1 4.111-1.482 7.587 7.587 0 0 0 3.301-.752 7.594 7.594 0 0 0 3.996-4.655A7.632 7.632 0 0 1 200.637 0h2.802a7.632 7.632 0 0 1 7.299 5.409 7.602 7.602 0 0 0 3.996 4.655 7.595 7.595 0 0 0 3.302.752c1.561 0 2.996.555 4.11 1.482a6.423 6.423 0 0 1 2.347 4.975"/>
  <path fill="#E4E4E4" d="M228.138 22.962v8.31H175.94v-8.31h3.645v5.489h44.908v-5.489h3.645"/>
  <path fill="#F9B384" d="M115.974 59.032c-1.593-.302-3.082-2.963-3.599-3.983a1.267 1.267 0 0 1-.115-.81l.635-3.36s1.462.248 1.349 2.196c-.012.202.03.404.101.594l.561 1.465 1.655-1.282-.907-2.564s-1.216.334-1.844.134c-1.287-.411.401-1.415.935-1.522.535-.107 1.709-.534 2.243.374.535.907.855 1.442.855 1.442s.588-2.03.187-6.57c-.018-.204.493-.2.637-.052.43.437 1.116 1.77 1.152 5.82 0 0 .072-4.72.881-5.206.667-.401 1.005 1.91.534 5.828 0 0 .872-3.393 1.496-3.398 1.052-.011.013 9.061-2.632 11.765l-4.124-.871"/>
  <path fill="#F9B384" d="M120.968 57.644c-.047.451-.099.888-.155 1.312v.004a38.028 38.028 0 0 1-.696 4.002c-.014.056-.024.108-.038.16-.804 3.296-.95 4.91-3.696 4.477l-2.826-3.217-.028-.033-.207-.235.573-1.693.076-.22.423-1.233.052-.16.724-2.12.291-.861 5.507-.183"/>
  <path fill="#1F3C88" d="m68.464 174.765-.72 2.249c-4.932 1.62-7.81 3.476-7.994 5.643h14.264l1.144-7.529c-2.89.706-5.204.215-6.694-.363Z"/>
  <path fill="#F9B384" d="m70.252 169.176-1.788 5.589c1.49.578 3.805 1.069 6.694.363l.737-4.855-5.643-1.097m24.387 5.34.419-5.693-6.701.353-.366 5.248c2.837.904 5.182.55 6.648.092"/>
  <path fill="#1F3C88" d="M102.699 182.657c-.184-2.167-2.704-5.134-8.23-5.839l.17-2.302c-1.466.458-3.811.812-6.648-.092l-.575 8.233H102.7"/>
  <path fill="#F9B384" d="m89.208 60.493-8.084.057V48.323h7.84l.004.748.038 3.875.056 6.221.146 1.326"/>
  <path fill="#E28B6D" d="M89.006 53.534c-1.453 1.528-5.244-.198-6.842-1.881l6.804-1.994.038 3.875Z"/>
  <path fill="#F9B384" d="M90.882 45.502a17.483 17.483 0 0 1-.212 2.75c-.395 2.465-1.439 4.595-3.846 4.66-5.69.166-7.313-3.089-8.385-5.75-1.072-2.666.668-9.076.668-9.076l7.364-.729 4.044 3.315s.39 2.253.367 4.83"/>
  <path fill="#102048" d="M78.669 45.637s1.623-.074 1.9-4.264c2.903.971 5.024.086 6.705-1.848 1.434 1.894 5.449 2.488 6.804-1.39.98-2.802-1.725-6.976-5.663-4.448-3.86-1.95-9.713-1.816-11.398 2.967 0 0-5.857 2.7.345 8.646.124.118 1.307.337 1.307.337Zm22.385 58.798-4.469 67.563H86.084l2.625-65.561 1.607-.744 10.738-1.258Z"/>
  <path fill="#1F3C88" d="m73.7 95.191-7.367 76.807h11.443l10.894-63.797 12.383-3.762.549-13.637-27.588-.627-.313 5.016"/>
  <path fill="#6C758D" d="M98.714 90.736h-.006l-.006-.024.012.024Z"/>
  <path fill="#162B62" d="M82.524 96.199c.149-.688.288-1.374.416-2.056l.398.002a35.935 35.935 0 0 0 6.946-.688 42.448 42.448 0 0 0 7.835-2.332c.211-.08.418-.17.62-.254l-.031-.135h.005l.588 1.178c-2.15 2.206-10.093 4.133-16.777 4.285"/>
  <path fill="#fff" d="M98.74 90.871c-.203.085-.41.174-.621.254a42.448 42.448 0 0 1-7.834 2.332 35.98 35.98 0 0 1-5.253.645c-2.708.136-5.492-.043-8.248-.668l3.503-32.663.428-3.983s4.585 5.643 9.64-.588l8.385 34.67Z"/>
  <path fill="#BBC4DB" d="m83.338 94.145-.398-.002c2.185-11.606 1.447-22.47-.605-33.042 2.794 8.205 5.22 22.963 2.697 33-.561.029-1.127.044-1.694.044Z"/>
  <path fill="#708CD5" d="M81.127 55.495c3.483 14.789 4.916 30.007-.216 46.906-3.806 1.448-7.95 1.431-12.383.157l1.097-30.722-25.824 17.751-1.568-9.678c9.927-9.494 27.091-23.833 38.894-24.414Z"/>
  <path fill="#BBC4DB" d="M90.285 93.457c-1.556-8.925-1.9-23.587-.635-30.203l8.469 27.871a42.448 42.448 0 0 1-7.834 2.332"/>
  <path fill="#EB9B76" d="M117.178 67.668a5.18 5.18 0 0 1-.795-.07l-2.826-3.216-.028-.033.367-1.928.075-.22.423-1.233.052-.16 5.671 2.154c-.014.056-.024.108-.038.16-.718 2.944-.911 4.546-2.901 4.546"/>
  <path fill="#708CD5" d="M119.627 65.957s-6.936 14.696-11.05 15.048c-3.989.342-5.878-3.526-5.878-3.526l2.821 21.475c-3.315 1.552-6.931 2.309-11.13 1.566-3.73-12.108-5.139-27.765-5.416-45.202 3.018.188 8.997.446 11.138 1.822 3.841 2.47 8.582 11.286 8.582 11.286l5.526-7.524 5.407 5.055Z"/>
  <path fill="#6F3428" d="M35.07 45.252s.42-7.03 1.136-6.698c.716.331 2.15 6.444 2.15 6.444l-1.534 2.477-1.751-2.224"/>
  <path fill="#EE6F57" d="m56.18 172.194.208 2.314a7.426 7.426 0 0 1-6.731 8.06l-.595.052a7.425 7.425 0 0 1-8.06-6.73l-.208-2.314 15.386-1.382Z"/>
  <path fill="#FBC343" d="M46.115 60.163 56.18 172.194l-15.386 1.382L30.73 61.544l15.386-1.381Z"/>
  <path fill="#D4C2BE" d="m35.22 61.141-.244-2.715 6.4-.574.245 2.714-.937.085-.16-1.779-4.527.407.16 1.779-.937.083"/>
  <path fill="#D1983B" d="M43.883 157.562 35.22 61.141l.937-.084 8.578 95.484 4.528-.407-8.58-95.483.938-.085 8.62 95.952-.468.043.468-.043.042.469-6.4.575"/>
  <path fill="#102048" d="m56.178 172.195-15.382 1.383-.404-4.515-.282-3.136-.87-9.64 15.386-1.383.866 9.64.282 3.137.404 4.514"/>
  <path fill="#FBC343" d="m55.773 167.681-15.382 1.382-.282-3.136 15.382-1.383.282 3.137Z"/>
  <path fill="#EE6F57" d="m30.727 61.545 4.274-17.128s1.475.655 3.264-.45l7.849 16.196-15.387 1.382"/>
  <path fill="#F9B384" d="M79.52 44.928c-.069-.253-1.217-.6-1.47-.669-.391-.108-.818-.16-1.2.01-1.388.629-1.202 2.617-.483 3.662a3.134 3.134 0 0 0 1.698 1.246c.252.072 2.641.1 2.536-.283l-1.081-3.966M35.807 84.885c-.361-1.133-1.549-1.768-2.672-1.38-1.75.604-3.275 1.63-3.511 3.374-.215 1.588.58 6.66 4.127 7.313l-.29-2.607s2.173-.507 2.608-1.449c.304-.658.324-3.41-.262-5.251Z"/>
  <path fill="#1F3C88" d="M101.615 67.436c.187 1.11.346 2.223.498 3.338.158 1.113.283 2.231.426 3.347l.365 3.353c.106 1.12.21 2.24.278 3.364l-.182.022a99.697 99.697 0 0 1-.504-3.338l-.42-3.347c-.117-1.12-.254-2.235-.357-3.355-.11-1.12-.212-2.24-.286-3.362l.182-.022m-31.624-.181a135.72 135.72 0 0 1-.07 3.738c-.031 1.245-.095 2.49-.142 3.733l-.203 3.732a123.38 123.38 0 0 1-.29 3.728l-.184-.01c-.003-1.246.029-2.492.063-3.737l.149-3.734c.071-1.244.125-2.489.21-3.731.082-1.243.169-2.487.284-3.728l.183.01Z"/>
  <path fill="#102048" d="M85.227 44.812c.1.443-.084.861-.408.934-.325.073-.669-.228-.768-.67-.1-.444.083-.863.408-.935.325-.073.668.228.768.67m4.687-.547c-.02.454-.304.81-.637.796-.332-.014-.586-.393-.567-.848.02-.454.304-.81.636-.796.333.014.587.393.568.848"/>
  <path fill="#E28B6D" d="M87.3 44.635c.162.39.136.808.24 1.127.053.16.127.303.228.391.094.086.247.141.441.216.2.078.413.216.558.421.153.199.196.543.057.77-.126.225-.305.35-.46.463-.161.11-.317.225-.484.327l-.12-.138c.122-.152.258-.29.388-.435.133-.14.256-.273.303-.397.1-.217-.113-.456-.422-.578-.159-.073-.388-.136-.573-.326a1.146 1.146 0 0 1-.302-.621c-.077-.437.011-.81-.03-1.171l.177-.049"/>
  <path fill="#102048" d="M82.983 43.62c.07-.278.24-.542.48-.731.237-.198.546-.304.853-.32.617-.038 1.229.314 1.483.833l-.145.114c-.408-.32-.858-.496-1.316-.48-.459.012-.876.249-1.188.663l-.167-.078Zm4.854-.575a1.41 1.41 0 0 1 .37-.594 1.23 1.23 0 0 1 .667-.33c.504-.084 1.047.173 1.246.622l-.147.11c-.33-.222-.69-.316-1.03-.269a1.3 1.3 0 0 0-.492.18c-.156.097-.3.23-.456.375l-.158-.094"/>
  <path fill="#fff" d="M85.235 49.19c.821 1.285 1.915 1.425 2.76.073l-2.76-.073Z"/>
  <path fill="#FECFC9" d="m90.67 48.253.002-.014c0 .004 0 .01-.002.014Zm.17-1.496c.026-.422.04-.843.041-1.255.002-.104.002-.207.002-.31l.02-.004a24.262 24.262 0 0 1-.064 1.57"/>
  <path fill="#FAA280" d="M90.67 48.253a1.416 1.416 0 0 1-.983-1.35c0-.703.533-1.588 1.196-1.712l-.001.31a21.59 21.59 0 0 1-.042 1.256 17.064 17.064 0 0 1-.167 1.482l-.003.014m-7.44 1.007a1.516 1.516 0 1 1 0-3.032 1.516 1.516 0 0 1 0 3.031Z"/>
  <path fill="#E28B6D" d="M78.526 46.439c-.3-.203-.575-.426-.848-.559-.136-.065-.262-.105-.374-.096-.114.008-.244.074-.391.179l-.155-.1c.064-.187.2-.398.447-.48.246-.086.496-.016.68.079.375.204.631.505.787.866l-.146.11"/>
  <path fill="#A9857E" d="m33.886 96.768-.218-2.51.224 2.493-.006.017"/>
  <path fill="#A76D33" d="m33.892 96.751-.224-2.493-.007-.084.09.018-.29-2.607s.077-.018.204-.053c.361-.09.676-.2.953-.325.593-.244 1.235-.604 1.45-1.07l-2.176 6.614"/>
  <path fill="#A6674D" d="m33.751 94.192-.09-.017-.226-2.59c.079-.017.155-.034.23-.053-.127.035-.203.053-.203.053l.29 2.607m.866-2.985a4.095 4.095 0 0 0 1.45-1.07c-.215.466-.857.826-1.45 1.07Z"/>
  <path fill="#102048" d="M0 183.169h304v-.94H0"/>
</svg>
