<svg xmlns="http://www.w3.org/2000/svg" width="633" height="635" fill="none" viewBox="0 0 633 635">
  <path fill="url(#a)" fill-opacity=".11" d="M269.097 634.859c-9.892 0-19.635-.397-29.199-1.188-36.013-2.981-108.473-8.979-165.05-62.481C8.665 508.603-10.995 404.453 7.255 304.015c11.116 56.758 42.944 93.217 57.46 107.358a6.804 6.804 0 0 0 3.745 1.873c44.192 91.984 141.544 158.155 257.18 163.23 4.753.209 9.473.311 14.181.311 131.653 0 244.263-80.824 280.327-193.695-4.156 16.609-9.574 32.831-16.241 48.409-59.147 138.252-208.258 203.358-334.809 203.358Zm358.284-378.856C603.063 133.139 489.755 37.22 349.582 31.067a325.172 325.172 0 0 0-14.18-.31c-74.404 0-142.736 25.818-194.592 68.643a195.354 195.354 0 0 0-3.806-21.383C179.876 43.143 247.789 3.283 334.657 3.283c.956 0 1.91.005 2.871.014C443.31 4.365 517.552 64.12 526.581 71.562c11.404 9.407 36.56 31.751 59.228 67.207 22.19 34.703 35.951 75.135 41.572 117.234ZM71.614 183.365a299.37 299.37 0 0 0-10.53-20.13 352.219 352.219 0 0 1 12.777-19.021c-1.254 12.747-2.086 25.85-2.247 39.151Z"/>
  <path fill="#91B3FA" d="M93.406 3.132C93.13.507 96.42-.907 98.163 1.074c17.702 20.11 59.204 79.235 38.455 173.675-26.031 118.485-5.229 164.608 23.313 194.254 0 0-41.493-16.615-64.12-63.562C40.256 190.175 98.329 49.783 93.406 3.132Z"/>
  <path fill="#C0D6FC" d="M106.905 132.537c.121-2.992.227-5.985.32-8.977.372-13.589.32-27.2-.146-40.802-.393-13.607-1.285-27.2-2.445-40.777a.71.71 0 0 1 .612-.761c.031-.004.062-.004.093-.004.349 0 .653.26.699.615 1.768 13.543 3.014 27.153 3.898 40.794a660.766 660.766 0 0 1 1.175 40.999 732.442 732.442 0 0 1-.03 4.185 278.208 278.208 0 0 0-4.176 4.728Z"/>
  <path fill="#BDD0FB" d="M75.843 409.063c-1.814 4.511-7.646 5.701-11.128 2.31-19.216-18.718-68.76-76.548-60.457-168.774 7.013-77.881 3.414-120.78.43-140.139-.63-4.093 4.332-6.614 7.27-3.695C44.384 130.97 141.602 245.64 75.844 409.063Z"/>
  <path fill="#DCE6FD" d="M44.652 331.075c-9.138-40.721-17.178-92.882-14.875-144.432a1.898 1.898 0 0 1 3.793.17c-1.82 40.748 2.873 81.896 9.444 117.394.073 9.048.628 18.027 1.638 26.868Z"/>
  <path fill="#7D97F4" d="M631.973 316.693c-6.615 150.611-143.765 266.919-306.333 259.783C163.071 569.34 36.642 441.46 43.254 290.848 49.866 140.239 187.016 23.926 349.585 31.065c162.568 7.14 288.998 135.014 282.388 285.628Z"/>
  <path fill="#97ACF6" d="M321.666 502.489c-11.108 0-22.041-.741-32.727-2.169a387.594 387.594 0 0 1-4.217-15.61c-2.89-11.629-5.299-23.378-7.364-35.186-2.494-14.299-4.486-28.684-6.069-43.118l65.581.123 67.064-.138c-1.551 14.063-3.485 28.081-5.902 42.018-2.042 11.812-4.422 23.568-7.28 35.204a414.181 414.181 0 0 1-2.504 9.684c-21.086 5.98-43.438 9.192-66.582 9.192Zm-35.536-2.564c-50.834-7.403-96.196-30.455-130.418-63.775a309.523 309.523 0 0 1-11.069-30.194l7.997.065 61.411.281 53.899.1c1.709 14.608 3.836 29.17 6.477 43.646 2.164 11.851 4.678 23.645 7.675 35.324a396.65 396.65 0 0 0 4.028 14.553Zm105.133-7.506c.747-2.706 1.464-5.42 2.157-8.14 2.966-11.685 5.457-23.484 7.606-35.34 2.525-14.122 4.591-28.317 6.249-42.555l52.414-.107 53.824-.267c-28.923 40.533-71.858 71.401-122.25 86.409Zm-242.927-63.793a221.675 221.675 0 0 1-18.645-22.791l10.523.084a313.129 313.129 0 0 0 8.122 22.707Zm-19.459-23.942c-16.739-23.834-28.663-50.952-34.448-80.112h31.252a358.255 358.255 0 0 0 2.548 26.931c2.054 15.381 5.157 30.625 9.335 45.576a321.739 321.739 0 0 0 2.235 7.516l-10.922.089Zm15.335-.125a334.494 334.494 0 0 1-2.5-8.632c-4.04-14.775-6.971-29.843-8.959-45.022a354.439 354.439 0 0 1-2.452-26.333h132.041a922.806 922.806 0 0 0 2.825 53.825 832.56 832.56 0 0 0 2.52 25.713l-53.636.1-61.411.281-8.428.068Zm370.365-.052-54.888-.274-52.154-.107c3.729-32.869 5.297-65.974 5.346-99.035 0-.52-.004-1.04-.004-1.559l57.482-.108 59.884-.276c.004.648.004 1.295.004 1.943-.062 30.651-3.902 61.328-12.007 90.906a326.957 326.957 0 0 1-1.555 5.445 237.566 237.566 0 0 1-2.108 3.065Zm-110.395-.388-67.312-.136-65.83.12a829.788 829.788 0 0 1-2.351-25.982 917.45 917.45 0 0 1-2.398-53.549h47.414a6.247 6.247 0 0 0 6.245-6.249v-14.68l16.92.029 72.451-.136v1.555c.009 23.994-.837 47.99-2.668 71.91a866.45 866.45 0 0 1-2.471 27.118Zm119.44-13.637c7.12-27.873 10.556-56.64 10.712-85.391-.004-.656-.008-1.308-.016-1.964l2.784-.012 14.907-.12c-2.863 31.555-12.832 61.198-28.387 87.487Zm28.494-88.679-15.014-.119-2.805-.013c-.449-29.863-4.463-59.693-12.473-88.484a320.227 320.227 0 0 0-3.96-12.91l3.234-.017 14.078-.124c11.401 25.846 17.691 54.196 17.691 83.943 0 5.969-.252 11.876-.751 17.724Zm-21.886-.148-59.871-.276-57.494-.108c-.236-33.616-2.265-67.27-6.744-100.594l53.568-.107 54.459-.273a317.806 317.806 0 0 1 4.149 13.872c7.788 28.481 11.616 57.977 11.933 87.486Zm-120.913-.392-72.447-.136-16.92.029v-28.271l13.756-.454c1.774-.062 3.28-1.341 3.581-3.081.429-2.438.804-6.084.243-9.862-.635-4.298-4.335-7.491-8.699-7.598a416.275 416.275 0 0 0-8.881-.107v-50.999l16.92.033 66.239-.136a767.398 767.398 0 0 1 3.346 32.52c1.889 22.636 2.809 45.347 2.862 68.062Zm125.331-102.314-13.55-.12-3.725-.021c-8.261-24.641-19.563-48.28-34.058-69.852a292.96 292.96 0 0 0-1.868-2.739c22.595 20.417 40.818 45.12 53.201 72.732Zm-20.987-.157-53.972-.272-53.878-.108a646.393 646.393 0 0 0-6.17-37.019c-2.356-11.814-5.074-23.561-8.287-35.176-2.661-9.574-5.643-19.069-9.124-28.387l41.837-.12 18.005-.123a231.889 231.889 0 0 1 31.026 21.444 249.87 249.87 0 0 1 7.965 11.422c13.917 21.172 24.687 44.296 32.598 68.339Zm-110.836-.388-65.955-.132-17.303.033a6.257 6.257 0 0 0-5.862-4.079h-42.096a710.457 710.457 0 0 1 4.155-31.501c1.845-11.855 4.021-23.656 6.662-35.349 2.251-9.937 4.829-19.807 7.928-29.505.972.005 1.944.005 2.917.009l43.599.082 43.351-.124c3.457 9.496 6.394 19.189 8.992 28.96 3.073 11.587 5.651 23.305 7.866 35.09 2.277 12.11 4.174 24.294 5.746 36.516Zm-134.211-4.178H147.835c7.721-22.365 17.965-43.871 30.951-63.67 7.707-11.751 16.376-22.88 26.012-33.118.426.004.85.013 1.274.017l43.601.28c12.893.108 25.789.108 38.686.132-3.142 9.545-5.781 19.242-8.104 29.006-2.784 11.722-5.099 23.552-7.082 35.431a718.387 718.387 0 0 0-4.559 31.922Zm-124.971 0h-32.772c19.171-40.081 50.764-73.706 90.153-96.507-9.104 9.668-17.369 20.125-24.79 31.138-13.638 20.256-24.455 42.34-32.591 65.369Zm62.597-98.301a173.172 173.172 0 0 1 2.321-2.385c27.907-14.816 59.394-24.315 92.934-27.054a140.788 140.788 0 0 0-4.434 8.873c-2.521 5.49-4.731 11.112-6.753 16.791a255.579 255.579 0 0 0-1.161 3.358c-13.159.029-26.318.029-39.474.136l-43.433.28Zm232.631-.153-14.804-.107-42.703-.12a234.659 234.659 0 0 0-1.419-3.63c-2.966-7.325-6.224-14.568-10.069-21.494 24.687 4.946 47.905 13.608 68.995 25.351Zm-59.5-.235-42.501-.12-43.599.083c-.717 0-1.433.004-2.151.004.304-.916.61-1.832.922-2.747 1.945-5.663 4.076-11.26 6.513-16.722a135.397 135.397 0 0 1 4.756-9.693c6.055-.45 12.172-.677 18.355-.677 15.827 0 31.278 1.502 46.21 4.364 4.005 7.235 7.354 14.85 10.374 22.555.379.981.754 1.967 1.121 2.953Z"/>
  <path fill="#A2B6F7" d="M337.585 572.495c-.711 0-1.419-.034-2.124-.104 2.315-.086 4.628-.222 6.937-.41-1.377.303-2.78.48-4.196.505-.207.007-.41.009-.617.009Zm-7.736-1.881c-.434-.002-.875-.005-1.31-.012-2.719-1.144-5.21-2.738-7.486-4.545-4.822-3.855-8.72-8.641-12.148-13.65-6.794-10.102-11.783-21.209-16.07-32.484a285.431 285.431 0 0 1-3.838-10.87h2.641a282.214 282.214 0 0 0 3.467 10.022c4.156 11.196 9.015 22.21 15.581 32.132 3.305 4.919 7.064 9.584 11.622 13.284 2.279 1.834 4.755 3.423 7.435 4.509 1.832.748 3.752 1.267 5.709 1.489-1.866.077-3.734.118-5.603.125Zm12.263-.537a23.279 23.279 0 0 0 4.363-1.512c2.629-1.213 5.053-2.882 7.284-4.784 4.457-3.826 8.136-8.55 11.382-13.512 6.453-9.999 11.242-21.039 15.35-32.255a278.296 278.296 0 0 0 3.075-8.961h2.676a281.518 281.518 0 0 1-3.439 9.813c-4.242 11.294-9.164 22.424-15.842 32.597-3.364 5.049-7.18 9.888-11.89 13.867-1.765 1.484-3.661 2.84-5.7 3.969-2.412.315-4.834.576-7.259.778Zm44.747-62.908h-2.686a340.699 340.699 0 0 0 4.075-13.873 217.65 217.65 0 0 0 3.017-.877 350.678 350.678 0 0 1-4.406 14.75Z"/>
  <path fill="#B6C5F9" d="M388.248 493.296a407.909 407.909 0 0 0 2.503-9.683c2.858-11.636 5.239-23.392 7.284-35.205 2.412-13.936 4.347-27.954 5.9-42.019l3.34-.006c-1.659 14.237-3.723 28.434-6.248 42.556-2.149 11.855-4.639 23.654-7.606 35.34a466.219 466.219 0 0 1-2.155 8.14c-1.004.299-2.011.592-3.018.877Z"/>
  <path fill="#A2B6F7" d="M291.032 507.169h-2.649a315.88 315.88 0 0 1-2.252-7.244c.933.136 1.869.267 2.809.394a318.194 318.194 0 0 0 2.092 6.85Z"/>
  <path fill="#B6C5F9" d="M288.939 500.319c-.937-.127-1.874-.259-2.808-.394a397.254 397.254 0 0 1-4.028-14.554c-2.997-11.679-5.511-23.473-7.675-35.324-2.641-14.476-4.767-29.038-6.477-43.646l3.339.004c1.583 14.434 3.575 28.819 6.069 43.118 2.065 11.808 4.475 23.558 7.365 35.186a387.57 387.57 0 0 0 4.215 15.61Zm118.596-96.194-3.35-.006A860.483 860.483 0 0 0 406.652 377c1.834-23.92 2.678-47.915 2.67-71.912v-1.551l3.554-.008c.004.522.004 1.041.008 1.559-.051 33.061-1.622 66.168-5.349 99.037Zm-139.847-.016a832.56 832.56 0 0 1-2.52-25.713 922.817 922.817 0 0 1-2.825-53.828h3.949a917.514 917.514 0 0 0 2.399 53.552 829.783 829.783 0 0 0 2.35 25.982l-3.353.007Zm145.177-102.838-3.547-.008c-.055-22.716-.97-45.429-2.859-68.062a770.53 770.53 0 0 0-3.346-32.52l3.008-.007c4.478 33.328 6.512 66.978 6.744 100.597Zm-7.05-102.86-2.989-.007c-1.571-12.223-3.468-24.405-5.746-36.518-2.215-11.786-4.795-23.501-7.862-35.091-2.6-9.772-5.538-19.461-8.998-28.961l2.011-.004c3.48 9.316 6.464 18.812 9.123 28.387 3.213 11.614 5.935 23.361 8.291 35.175a649.478 649.478 0 0 1 6.17 37.019Zm-134.205-4.186h-2.994a716.7 716.7 0 0 1 4.558-31.922c1.984-11.881 4.298-23.706 7.082-35.434 2.323-9.759 4.962-19.46 8.104-29.004.665.004 1.329.004 1.997.004-3.101 9.701-5.679 19.571-7.93 29.507-2.64 11.692-4.817 23.494-6.662 35.347a710.501 710.501 0 0 0-4.155 31.502Z"/>
  <path fill="#A2B6F7" d="M369.876 70.42c-.66-.132-1.337-.265-1.997-.393a121.589 121.589 0 0 0-5.756-9.404c-3.373-4.907-7.179-9.566-11.744-13.36-2.28-1.885-4.757-3.54-7.44-4.76-2.675-1.205-5.563-1.994-8.495-2.07a28.29 28.29 0 0 0-.604-.01c-2.726 0-5.443.583-7.968 1.62-2.721 1.106-5.22 2.73-7.498 4.608-4.556 3.789-8.249 8.55-11.456 13.556a102.93 102.93 0 0 0-3.607 6.138c-.605.043-1.213.09-1.816.141a105.415 105.415 0 0 1 4.212-7.059c3.317-5.053 7.132-9.879 11.881-13.736 2.376-1.916 4.991-3.583 7.856-4.71a22.403 22.403 0 0 1 7.174-1.59c1.252.025 2.499.068 3.75.124 2.426.287 4.805.973 7.034 1.954 2.811 1.239 5.387 2.928 7.757 4.84 4.74 3.852 8.662 8.558 12.138 13.5 2.383 3.429 4.56 6.977 6.579 10.612Z"/>
  <path fill="#B6C5F9" d="m381.366 95.54-1.99-.004a425.25 425.25 0 0 0-1.125-2.954c-3.021-7.706-6.371-15.32-10.372-22.557.66.128 1.335.26 1.999.392 3.844 6.927 7.104 14.17 10.066 21.497.483 1.207.956 2.415 1.422 3.626Zm-92.217-.033c.378-1.12.766-2.242 1.16-3.358 2.022-5.683 4.233-11.303 6.753-16.792a140.898 140.898 0 0 1 4.434-8.875c.603-.05 1.211-.095 1.816-.14-1.718 3.156-3.292 6.403-4.756 9.691-2.437 5.46-4.567 11.06-6.512 16.721-.314.915-.619 1.83-.923 2.749-.658 0-1.315.004-1.972.004Z"/>
  <path fill="#A2B6F7" d="M329.849 572.498c-15.512-.003-31.019-2.324-45.873-6.794-14.863-4.457-29.067-11.035-42.219-19.257-13.143-8.254-25.253-18.105-36.206-29.086a228.87 228.87 0 0 1-7.882-8.308h3.947a223.066 223.066 0 0 0 5.939 6.329c10.702 10.947 22.516 20.862 35.451 29.086 12.948 8.183 26.935 14.744 41.582 19.216 14.223 4.355 29.061 6.717 43.949 6.919.161.065.318.131.478.195a23.424 23.424 0 0 0 6.446 1.593c-1.869.071-3.739.104-5.612.107Zm12.548-.517a25.173 25.173 0 0 0 4.89-1.634 28.171 28.171 0 0 0 2.084-1.048 158.546 158.546 0 0 0 25.75-5.574c14.658-4.461 28.656-11.01 41.617-19.184 12.949-8.218 24.782-18.124 35.503-29.066a225.793 225.793 0 0 0 6.033-6.422h3.564c-2.528 2.8-5.12 5.541-7.785 8.215-10.931 10.986-23.028 20.844-36.157 29.107-13.137 8.231-27.329 14.82-42.187 19.288a160.118 160.118 0 0 1-33.312 6.318Zm-4.848-1.371c-.7 0-1.403-.041-2.099-.121a152.82 152.82 0 0 0 6.664-.412 19.539 19.539 0 0 1-4.565.533Zm125.967-63.441h-3.556c7.643-8.65 14.644-17.876 20.99-27.519 14.957-22.716 26.293-47.697 34.357-73.65l3.896-.02c-8.373 26.606-20.233 52.146-35.775 75.318-6.071 9.038-12.709 17.704-19.912 25.871Zm-263.582 0h-3.947c-7.183-8.135-13.805-16.767-19.867-25.771-11.114-16.539-20.351-34.288-27.784-52.772a227.41 227.41 0 0 0 7.376 7.523c6.456 15.104 14.161 29.664 23.188 43.401 6.356 9.68 13.367 18.937 21.034 27.619Z"/>
  <path fill="#B6C5F9" d="M155.712 436.148a224.446 224.446 0 0 1-7.376-7.522 313.445 313.445 0 0 1-8.122-22.706l4.429.035a309.288 309.288 0 0 0 11.069 30.193Zm-15.913-31.552a325.335 325.335 0 0 1-2.235-7.518c-4.178-14.949-7.281-30.195-9.335-45.576a358.107 358.107 0 0 1-2.548-26.931h4.62a354.364 354.364 0 0 0 2.453 26.332c1.988 15.181 4.919 30.249 8.958 45.024a338.998 338.998 0 0 0 2.5 8.631l-4.413.038Z"/>
  <path fill="#A2B6F7" d="m519.66 404.53-3.893-.018c.312-1.022.62-2.047.92-3.071a216.765 216.765 0 0 0 6.939-10.961 340.657 340.657 0 0 1-1.741 6.526 298.802 298.802 0 0 1-2.225 7.524Z"/>
  <path fill="#B6C5F9" d="M516.684 401.442a300.414 300.414 0 0 0 1.554-5.445c8.107-29.578 11.945-60.257 12.011-90.909 0-.646-.004-1.292-.008-1.942l4.077-.016c.008.654.012 1.304.016 1.958-.153 28.753-3.591 57.52-10.711 85.394a216.737 216.737 0 0 1-6.939 10.96Zm17.615-99.772-4.069-.016c-.318-29.508-4.144-59.005-11.933-87.487a323.225 323.225 0 0 0-4.147-13.871l3.712-.02a310.924 310.924 0 0 1 3.96 12.912c8.016 28.788 12.026 58.621 12.477 88.482Z"/>
  <path fill="#A2B6F7" d="M201.024 97.72c.102-.106.202-.213.301-.319.082 0 .164 0 .248.004-.18.102-.368.213-.549.315Z"/>
  <path fill="#B6C5F9" d="M147.836 194.222h-4.191c8.135-23.026 18.953-45.113 32.59-65.368 7.422-11.012 15.687-21.47 24.79-31.138.182-.102.37-.212.549-.315l3.226.036c-9.637 10.234-18.305 21.367-26.013 33.114-12.986 19.8-23.23 41.309-30.951 63.671Z"/>
  <path fill="#A2B6F7" d="M481.447 126.217a227.944 227.944 0 0 0-8.346-7.184 236.446 236.446 0 0 0-17.963-21.538l3.109-.023c8.46 8.963 16.193 18.606 23.2 28.745Z"/>
  <path fill="#B6C5F9" d="m517.378 198.808-3.717-.019c-7.91-24.043-18.68-47.167-32.594-68.336a248.71 248.71 0 0 0-7.967-11.421 224.52 224.52 0 0 1 8.348 7.182c.629.907 1.251 1.822 1.868 2.741 14.498 21.572 25.801 45.208 34.062 69.853Z"/>
  <path fill="#A2B6F7" d="M202.697 95.96c.981-1.017 1.97-2.026 2.969-3.027 10.954-10.961 23.056-20.806 36.195-29.031 13.15-8.204 27.349-14.732 42.188-19.187 14.828-4.475 30.308-6.807 45.8-6.825 15.493.03 30.968 2.376 45.791 6.86 14.826 4.471 29.018 11.013 42.152 19.22 13.126 8.24 25.208 18.089 36.144 29.058.945.95 1.881 1.907 2.809 2.87l-3.144-.022c-.412-.43-.829-.859-1.246-1.284-10.72-10.962-22.562-20.875-35.512-29.117-12.967-8.195-26.965-14.793-41.65-19.255-12.598-3.831-25.672-6.104-38.828-6.7a21.39 21.39 0 0 0-1.886-.138 18.16 18.16 0 0 0-1.864.013c-.923-.022-1.843-.035-2.766-.035-15.35.065-30.667 2.423-45.333 6.898-14.673 4.476-28.664 11.086-41.617 19.29-12.483 7.959-23.933 17.481-34.338 27.992-1.476.785-2.96 1.593-4.418 2.41l-1.446.012Z"/>
  <path fill="#B6C5F9" d="M204.145 95.944a232.01 232.01 0 0 1 4.417-2.407c-.376.379-.75.763-1.124 1.142-.401.415-.8.826-1.197 1.242h-.167l-1.929.023Z"/>
  <path fill="#B9C9F9" d="M335.461 572.391a23.417 23.417 0 0 1-6.442-1.594c-.163-.063-.321-.129-.48-.195.437.007.874.009 1.312.011 1.868-.006 3.733-.047 5.602-.125a18.363 18.363 0 0 0 2.7.112 19.446 19.446 0 0 0 3.96-.524c2.426-.202 4.848-.462 7.261-.777a29.58 29.58 0 0 1-2.083 1.047 25.25 25.25 0 0 1-4.891 1.634c-2.31.189-4.624.324-6.939.411Zm.905-532.876a155.57 155.57 0 0 0-3.747-.129 22.466 22.466 0 0 1 1.861-.013c.63.022 1.26.069 1.886.142Z"/>
  <path fill="#B6C5F9" d="m336.871 200.814-16.917-.03v-.315c0-.762-.137-1.494-.387-2.169l17.304-.03 65.953.133c.099.758.193 1.516.288 2.275l-66.241.136Zm69.252-.14-.307-2.264 53.874.11 53.973.269c.163.501.33 1.005.489 1.506l-54.462.269-53.567.11Z"/>
  <path fill="#A2B6F7" d="m535.178 200.137-.531-1.193 47.862.418c.101 0 .181.084.177.181a.176.176 0 0 1-.177.181l-47.331.413Z"/>
  <path fill="#B6C5F9" d="M517.864 200.272c-.161-.486-.322-.976-.487-1.466l3.722.023 13.548.118c.176.392.353.792.529 1.188l-14.077.122-3.235.015Z"/>
  <path fill="#C9D4FA" d="M403.112 200.681c-.093-.762-.189-1.52-.288-2.278l2.993.007.307 2.264-3.012.007Zm111.041-.389c-.16-.499-.328-1.003-.492-1.503l3.716.019c.164.489.328.977.488 1.465l-3.712.019Z"/>
  <path fill="#B6C5F9" d="m336.87 97.96-43.598-.083c-.973-.004-1.943-.008-2.917-.008.252-.792.509-1.58.765-2.369.721 0 1.435 0 2.152-.004l43.598-.083 42.505.123c.288.764.568 1.53.848 2.298l-43.353.126Zm-48.51-.095c-12.896-.023-25.792-.027-38.686-.134l-43.6-.28c-.424-.003-.848-.011-1.274-.015.478-.509.959-1.014 1.441-1.514l43.433-.28c13.157-.11 26.316-.11 39.475-.138-.267.788-.53 1.573-.789 2.361Z"/>
  <path fill="#A2B6F7" d="M442.074 97.585a196.029 196.029 0 0 0-3.203-1.817l14.732.103c.512.54 1.028 1.08 1.537 1.619l-13.066.095Z"/>
  <path fill="#B6C5F9" d="M382.23 97.829c-.284-.761-.572-1.526-.863-2.286l42.701.122 14.805.102c1.072.6 2.14 1.206 3.2 1.817l-18.005.126-41.838.119Z"/>
  <path fill="#A2B6F7" d="M458.249 97.47c-.497-.529-.997-1.053-1.501-1.576l10.92.078c14.532.181 29.064.288 43.6.532a.186.186 0 0 1 .177.185.182.182 0 0 1-.177.178c-14.536.248-29.068.354-43.6.535l-9.419.067Zm-256.922-.072c-12.951-.138-25.901-.236-38.852-.445a.268.268 0 0 1-.265-.272.27.27 0 0 1 .265-.264c13.408-.212 26.817-.31 40.223-.457-.458.477-.916.958-1.371 1.438Z"/>
  <path fill="#C9D4FA" d="M290.356 97.871c-.665-.004-1.332-.004-1.996-.004.259-.788.522-1.577.789-2.36.657 0 1.313-.005 1.971-.005a386.97 386.97 0 0 0-.764 2.37Zm89.867-.035c-.28-.769-.56-1.534-.848-2.298l1.991.004c.291.76.579 1.525.867 2.286l-2.01.008Z"/>
  <path fill="#B9C9F9" d="M455.14 97.49a197.301 197.301 0 0 0-1.536-1.618l3.144.023c.504.52 1.004 1.048 1.501 1.572l-3.109.024Zm-253.566-.09h-.247c.455-.484.913-.965 1.371-1.442.483-.004.966-.008 1.447-.016-.864.485-1.716.966-2.571 1.458Z"/>
  <path fill="#C9D4FA" d="m204.798 97.44-3.225-.035c.854-.493 1.706-.977 2.57-1.458l1.929-.024h.168a256.59 256.59 0 0 0-1.442 1.517Z"/>
  <path fill="#B6C5F9" d="m336.869 303.672-16.918-.027v-2.491l16.918-.027 72.448.136c.004.755.004 1.518.004 2.273l-72.452.136Zm76.008-.144-.011-2.257 57.494.105 59.868.276c.008.498.012.997.015 1.495l-59.883.276-57.483.105Z"/>
  <path fill="#A2B6F7" d="m552.012 302.997.104-1.19 51.734.413c.1 0 .178.082.178.182a.181.181 0 0 1-.178.178l-51.838.417Z"/>
  <path fill="#B6C5F9" d="M534.318 303.127c-.008-.483-.012-.97-.02-1.457l2.805.016 15.015.121c-.033.394-.069.793-.105 1.187l-14.91.121-2.785.012Z"/>
  <path fill="#C9D4FA" d="M409.319 303.538v-2.274l3.545.007c.006.751.01 1.506.013 2.258l-3.558.009Zm120.923-.39-.011-1.496 4.069.02c.007.485.011.971.019 1.456l-4.077.02Z"/>
  <path fill="#B6C5F9" d="m336.869 406.528-65.581-.122c-.084-.767-.168-1.534-.249-2.304l65.83-.118 67.313.137c-.081.754-.162 1.515-.246 2.27l-67.067.137Zm-68.92-.125-53.899-.1-61.41-.28-7.997-.069c-.145-.464-.288-.929-.431-1.393l8.428-.069 61.41-.281 53.637-.099.262 2.291Z"/>
  <path fill="#A2B6F7" d="M513.516 406.008c.357-.501.711-.999 1.064-1.503l1.187.007-.457 1.487-1.794.009Z"/>
  <path fill="#B6C5F9" d="M407.275 406.383c.087-.752.174-1.503.258-2.258l52.158.107 54.886.274a226.02 226.02 0 0 1-1.063 1.503l-53.823.268-52.416.106Z"/>
  <path fill="#A2B6F7" d="M519.203 405.979c.151-.48.307-.965.455-1.448l1.44.007 61.411.537c.101 0 .181.082.177.181a.178.178 0 0 1-.177.179l-61.411.535-1.895.009Zm-389.511-.145-38.46-.31a.27.27 0 0 1-.266-.272.266.266 0 0 1 .267-.265l37.645-.304c.272.387.54.764.814 1.151Z"/>
  <path fill="#B6C5F9" d="m140.214 405.918-10.523-.083c-.274-.388-.541-.764-.813-1.152l10.921-.088c.136.439.275.884.415 1.323Z"/>
  <path fill="#C9D4FA" d="m271.29 406.407-3.339-.007-.263-2.29 3.351-.007c.082.769.166 1.538.251 2.304Zm132.648-.016.244-2.272 3.352.006c-.085.757-.173 1.507-.257 2.26l-3.339.006Z"/>
  <path fill="#B9C9F9" d="m515.307 406 .459-1.487 3.891.018c-.149.483-.302.968-.451 1.448l-3.899.021Z"/>
  <path fill="#C9D4FA" d="m144.644 405.955-4.43-.037c-.14-.439-.279-.884-.415-1.324l4.414-.036c.143.465.285.932.431 1.397Z"/>
  <path fill="#A2B6F7" d="M520.056 509.053h-58.221c.564-.626 1.124-1.254 1.683-1.884h56.538a.941.941 0 0 1 0 1.884Zm-61.779 0h-72.032c.207-.628.411-1.256.614-1.884h73.101c-.556.63-1.119 1.258-1.683 1.884Zm-74.708 0h-91.932c-.203-.628-.406-1.256-.606-1.884h93.14c-.199.628-.399 1.256-.602 1.884Zm-94.574 0h-87.379a297.799 297.799 0 0 1-1.682-1.884h88.448c.203.628.41 1.256.613 1.884Zm-91.325 0h-26.406a.943.943 0 1 1 0-1.884h24.724c.558.63 1.117 1.258 1.682 1.884Z"/>
  <path fill="#B9C9F9" d="M386.243 509.054h-2.678c.205-.628.407-1.256.606-1.884h2.686c-.202.628-.407 1.256-.614 1.884Zm-94.606 0h-2.641c-.208-.628-.413-1.256-.615-1.884h2.65c.199.628.401 1.256.606 1.884Zm170.201-.001h-3.562a248.63 248.63 0 0 0 1.682-1.884h3.558c-.557.63-1.118 1.259-1.678 1.884Zm-260.222 0h-3.946a228.682 228.682 0 0 1-1.682-1.884h3.946c.558.63 1.118 1.259 1.682 1.884Z"/>
  <path fill="#fff" d="M264.708 173.731a1.138 1.138 0 0 1-.642-2.076c1.047-.716 2.08-1.434 3.103-2.157a1.137 1.137 0 1 1 1.315 1.857 208.487 208.487 0 0 1-3.134 2.181 1.134 1.134 0 0 1-.642.195Zm60.791-73.659c-.123 0-.246-.02-.373-.06a1.141 1.141 0 0 1-.703-1.449 119.044 119.044 0 0 0 2.125-6.785c.166-.608.79-.961 1.397-.79.608.166.961.797.79 1.4a116.54 116.54 0 0 1-2.16 6.917 1.135 1.135 0 0 1-1.076.767ZM320 113.333a1.14 1.14 0 0 1-1.024-1.636 122.635 122.635 0 0 0 2.922-6.484 1.135 1.135 0 0 1 1.489-.615c.58.238.854.905.612 1.485a120.44 120.44 0 0 1-2.978 6.611 1.13 1.13 0 0 1-1.021.639Zm-7.023 12.531a1.14 1.14 0 0 1-.957-1.751 127.84 127.84 0 0 0 3.656-6.111 1.139 1.139 0 0 1 1.986 1.116 135.205 135.205 0 0 1-3.725 6.222 1.136 1.136 0 0 1-.96.524Zm-8.354 11.685a1.144 1.144 0 0 1-.89-1.85 136.349 136.349 0 0 0 4.296-5.682 1.137 1.137 0 0 1 1.851 1.322 143.972 143.972 0 0 1-4.364 5.781 1.151 1.151 0 0 1-.893.429Zm-9.474 10.788a1.136 1.136 0 0 1-.818-1.926c1.66-1.727 3.284-3.49 4.828-5.245a1.13 1.13 0 0 1 1.604-.103c.473.413.521 1.131.108 1.604a156.918 156.918 0 0 1-4.904 5.32c-.222.234-.52.35-.818.35Zm-10.392 9.91c-.318 0-.631-.131-.857-.385a1.14 1.14 0 0 1 .104-1.608 181.707 181.707 0 0 0 5.268-4.817 1.136 1.136 0 0 1 1.607.04 1.136 1.136 0 0 1-.038 1.608 176.732 176.732 0 0 1-5.334 4.876c-.218.19-.485.286-.75.286Zm-11.135 9.076c-.342 0-.682-.159-.907-.452a1.136 1.136 0 0 1 .22-1.593 210.505 210.505 0 0 0 5.617-4.415 1.14 1.14 0 0 1 1.601.163 1.142 1.142 0 0 1-.163 1.604 216.835 216.835 0 0 1-5.681 4.459 1.143 1.143 0 0 1-.687.234Zm55.751-81.087c-.081 0-.162-.008-.243-.028a1.134 1.134 0 0 1-.871-1.352c.262-1.223.508-2.462.73-3.685a1.14 1.14 0 0 1 1.328-.912c.617.113 1.025.706.912 1.324a123.88 123.88 0 0 1-.747 3.753 1.14 1.14 0 0 1-1.109.9Zm9.581 3.753a1.15 1.15 0 0 1-.802-.329 244.57 244.57 0 0 1-2.692-2.696 1.14 1.14 0 0 1 1.623-1.599 186.3 186.3 0 0 0 2.668 2.672 1.139 1.139 0 0 1-.797 1.952Zm10.561 9.729a1.15 1.15 0 0 1-.74-.273 204.21 204.21 0 0 1-5.394-4.804 1.139 1.139 0 0 1 1.545-1.675 199.801 199.801 0 0 0 5.334 4.752 1.136 1.136 0 0 1-.745 2Zm11.242 8.941a1.13 1.13 0 0 1-.673-.222 183.649 183.649 0 0 1-5.742-4.387 1.14 1.14 0 0 1 1.418-1.782 183.394 183.394 0 0 0 5.67 4.336 1.13 1.13 0 0 1 .246 1.588 1.131 1.131 0 0 1-.919.467Zm11.943 7.975c-.202 0-.404-.055-.59-.166a160.738 160.738 0 0 1-6.102-3.881 1.14 1.14 0 0 1-.313-1.58 1.14 1.14 0 0 1 1.58-.312 159.21 159.21 0 0 0 6.015 3.825 1.14 1.14 0 0 1-.59 2.114Zm12.636 6.815c-.162 0-.329-.035-.487-.111a143.318 143.318 0 0 1-6.455-3.274 1.138 1.138 0 1 1 1.082-2.004 139.28 139.28 0 0 0 6.351 3.223c.566.269.808.947.539 1.517a1.144 1.144 0 0 1-1.03.649Zm13.293 5.453c-.122 0-.249-.02-.372-.063a127.807 127.807 0 0 1-6.779-2.566 1.143 1.143 0 0 1-.622-1.485c.242-.578.907-.86 1.489-.622 2.202.907 4.443 1.754 6.661 2.522.59.206.906.856.7 1.45a1.14 1.14 0 0 1-1.077.764Zm13.82 3.9a.99.99 0 0 1-.241-.027 120.574 120.574 0 0 1-7.037-1.762 1.141 1.141 0 0 1-.784-1.406c.17-.602.8-.954 1.406-.784 2.281.645 4.601 1.227 6.902 1.73a1.14 1.14 0 0 1 .867 1.355c-.119.53-.59.894-1.113.894Zm14.185 2.222c-.036 0-.072 0-.111-.004-2.396-.23-4.816-.535-7.191-.907a1.134 1.134 0 0 1-.947-1.299 1.136 1.136 0 0 1 1.299-.95c2.332.368 4.704.665 7.056.891a1.14 1.14 0 0 1 1.026 1.239 1.141 1.141 0 0 1-1.132 1.03Zm10.967.541h-.004a128.949 128.949 0 0 1-3.829-.074 1.138 1.138 0 0 1-1.094-1.18 1.117 1.117 0 0 1 1.176-1.094c1.247.041 2.512.066 3.755.07a1.136 1.136 0 0 1 1.131 1.143c0 .627-.508 1.135-1.135 1.135Z"/>
  <path fill="#fff" d="M437.547 135.35c-.429 0-.836-.239-1.03-.65a269.346 269.346 0 0 1-1.605-3.457 1.136 1.136 0 1 1 2.068-.948c.526 1.153 1.06 2.296 1.594 3.434a1.137 1.137 0 0 1-1.027 1.621Zm6.82 13.721c-.412 0-.807-.221-1.009-.609a342.938 342.938 0 0 1-3.493-6.848 1.133 1.133 0 0 1 .51-1.523 1.143 1.143 0 0 1 1.527.51 332.896 332.896 0 0 0 3.47 6.801 1.139 1.139 0 0 1-1.005 1.669Zm7.437 13.396c-.391 0-.771-.202-.985-.562a310.484 310.484 0 0 1-3.813-6.678 1.137 1.137 0 1 1 1.989-1.104 304.637 304.637 0 0 0 3.79 6.627 1.143 1.143 0 0 1-.403 1.559 1.155 1.155 0 0 1-.578.158Zm8.118 12.992c-.368 0-.732-.178-.949-.507a285.845 285.845 0 0 1-4.166-6.468 1.145 1.145 0 0 1 .36-1.571 1.142 1.142 0 0 1 1.571.364 262.124 262.124 0 0 0 4.134 6.413 1.145 1.145 0 0 1-.321 1.579c-.194.126-.415.19-.629.19Zm8.862 12.497c-.344 0-.684-.154-.91-.451a235.886 235.886 0 0 1-4.546-6.211 1.135 1.135 0 0 1 .269-1.587 1.141 1.141 0 0 1 1.587.273 247.963 247.963 0 0 0 4.502 6.152 1.128 1.128 0 0 1-.218 1.591 1.118 1.118 0 0 1-.684.233Zm9.661 11.888c-.321 0-.633-.134-.859-.392a215.824 215.824 0 0 1-4.961-5.886 1.138 1.138 0 1 1 1.765-1.436 218.77 218.77 0 0 0 4.909 5.827 1.138 1.138 0 0 1-.854 1.887Zm10.507 11.144c-.285 0-.574-.11-.795-.328a186.222 186.222 0 0 1-5.392-5.503 1.13 1.13 0 0 1 .047-1.606 1.133 1.133 0 0 1 1.606.047 193.476 193.476 0 0 0 5.333 5.436c.451.439.455 1.163.016 1.61a1.135 1.135 0 0 1-.815.344Zm11.39 10.239c-.253 0-.511-.087-.724-.261a170.999 170.999 0 0 1-5.843-5.029 1.137 1.137 0 0 1-.083-1.606 1.135 1.135 0 0 1 1.606-.087 171.134 171.134 0 0 0 5.768 4.965c.486.4.554 1.116.158 1.602a1.146 1.146 0 0 1-.882.416Zm12.268 9.17c-.222 0-.443-.063-.637-.198a160.925 160.925 0 0 1-6.287-4.47 1.137 1.137 0 0 1-.229-1.591 1.138 1.138 0 0 1 1.594-.233 156.456 156.456 0 0 0 6.196 4.411 1.14 1.14 0 0 1-.637 2.081Zm13.102 7.936c-.182 0-.368-.044-.538-.135a156.9 156.9 0 0 1-6.701-3.833 1.136 1.136 0 1 1 1.178-1.946 143.694 143.694 0 0 0 6.603 3.774c.55.296.76.989.463 1.543-.21.379-.601.597-1.005.597Zm13.839 6.555c-.143 0-.289-.028-.428-.087a147.41 147.41 0 0 1-7.061-3.117 1.141 1.141 0 0 1-.542-1.519 1.142 1.142 0 0 1 1.515-.542 140.79 140.79 0 0 0 6.951 3.073c.581.238.858.906.621 1.488a1.14 1.14 0 0 1-1.056.704Zm10.789 3.951c-.117 0-.233-.016-.35-.056a146.75 146.75 0 0 1-3.624-1.219 1.14 1.14 0 0 1 .756-2.148c1.183.414 2.369.812 3.568 1.203a1.138 1.138 0 0 1-.35 2.22ZM324.083 56.046c-6.284 0-11.38-5.094-11.38-11.375 0-6.286 5.096-11.38 11.38-11.38 6.283 0 11.375 5.094 11.375 11.38 0 6.281-5.092 11.375-11.375 11.375Zm0-32.57c-11.704 0-21.193 9.486-21.193 21.195 0 7.583 8.9 25.227 15.165 36.708 2.603 4.773 9.451 4.773 12.055 0 6.265-11.48 15.163-29.125 15.163-36.708 0-11.709-9.486-21.195-21.19-21.195Z"/>
  <path fill="#fff" d="M441.191 104.34c-7.91 0-14.325-6.416-14.325-14.325 0-7.914 6.415-14.33 14.325-14.33 7.914 0 14.33 6.416 14.33 14.33 0 7.91-6.416 14.325-14.33 14.325Zm0-41.01c-14.735 0-26.684 11.945-26.684 26.685 0 9.548 11.208 31.767 19.093 46.221 3.282 6.01 11.904 6.01 15.182 0 7.889-14.454 19.094-36.673 19.094-46.221 0-14.74-11.945-26.685-26.685-26.685Zm-175.785 85.014c-6.518 0-11.799-5.282-11.799-11.799 0-6.518 5.281-11.8 11.799-11.8 6.517 0 11.801 5.282 11.801 11.8 0 6.517-5.284 11.799-11.801 11.799Zm0-33.776c-12.137 0-21.978 9.841-21.978 21.977 0 7.863 9.231 26.161 15.728 38.067 2.699 4.95 9.802 4.95 12.501 0 6.497-11.906 15.724-30.204 15.724-38.067 0-12.136-9.836-21.977-21.975-21.977ZM559.443 236.32c-6.517 0-11.799-5.282-11.799-11.799 0-6.518 5.282-11.8 11.799-11.8 6.514 0 11.8 5.282 11.8 11.8 0 6.517-5.286 11.799-11.8 11.799Zm0-33.775c-12.14 0-21.979 9.84-21.979 21.976 0 7.867 9.23 26.163 15.726 38.072 2.7 4.945 9.802 4.945 12.502 0 6.497-11.909 15.727-30.205 15.727-38.072 0-12.136-9.84-21.976-21.976-21.976Z"/>
  <path fill="url(#b)" d="M313.707 324.57H51.893a6.246 6.246 0 0 1-6.247-6.248V200.473a6.247 6.247 0 0 1 6.248-6.249h261.813a6.257 6.257 0 0 1 5.861 4.077c.25.677.384 1.408.384 2.172v51.308h-.317c-2.142 0-4.444.02-6.869.063v-47.085a6.248 6.248 0 0 0-6.252-6.245H58.081a6.246 6.246 0 0 0-6.247 6.245v107.938a6.247 6.247 0 0 0 6.247 6.249h248.433a6.25 6.25 0 0 0 6.252-6.249v-39.575l7.186-.237v45.437a6.245 6.245 0 0 1-6.245 6.248Z"/>
  <path fill="url(#c)" d="M306.512 318.948H58.081a6.25 6.25 0 0 1-6.248-6.249V204.762a6.247 6.247 0 0 1 6.248-6.248h248.431a6.248 6.248 0 0 1 6.253 6.248v47.081c-17.353.305-40.948 1.907-55.769 7.768-.275.11-.543.235-.801.378h-3.846c-1.946 0-3.522 1.214-3.522 2.714 0 1.502 1.576 2.717 3.522 2.717h.159c-.378 1.896-.563 4.217-.086 6.593h-.073c-1.946 0-3.522 1.215-3.522 2.717 0 1.5 1.576 2.714 3.522 2.714h46.465c1.946 0 3.522-1.214 3.522-2.714 0-.453-.146-.877-.398-1.251l10.827-.357v39.577a6.25 6.25 0 0 1-6.253 6.249Zm-54.163-34.911c-1.946 0-3.522 1.218-3.522 2.717 0 1.5 1.576 2.714 3.522 2.714h46.465c1.946 0 3.522-1.214 3.522-2.714 0-1.499-1.576-2.717-3.522-2.717h-46.465Zm-76.045-.255c-1.945 0-3.52 1.215-3.52 2.718 0 1.499 1.575 2.714 3.52 2.714h46.466c1.943 0 3.518-1.215 3.518-2.714 0-1.503-1.575-2.718-3.518-2.718h-46.466Zm0-12.024c-1.945 0-3.52 1.218-3.52 2.714 0 1.503 1.575 2.717 3.52 2.717h46.466c1.943 0 3.518-1.214 3.518-2.717 0-1.496-1.575-2.714-3.518-2.714h-46.466Zm0-12.024c-1.945 0-3.52 1.215-3.52 2.717 0 1.496 1.575 2.714 3.52 2.714h46.466c1.943 0 3.518-1.218 3.518-2.714 0-1.502-1.575-2.717-3.518-2.717h-46.466Zm76.045-23.794c-1.946 0-3.522 1.215-3.522 2.714 0 1.503 1.576 2.717 3.522 2.717h46.465c1.946 0 3.522-1.214 3.522-2.717 0-1.499-1.576-2.714-3.522-2.714h-46.465Zm-76.045-.255c-1.945 0-3.52 1.215-3.52 2.718 0 1.496 1.575 2.714 3.52 2.714h46.466c1.943 0 3.518-1.218 3.518-2.714 0-1.503-1.575-2.718-3.518-2.718h-46.466Zm76.045-11.772c-1.946 0-3.522 1.218-3.522 2.717s1.576 2.714 3.522 2.714h46.465c1.946 0 3.522-1.215 3.522-2.714 0-1.499-1.576-2.717-3.522-2.717h-46.465Zm-76.045-.252c-1.945 0-3.52 1.215-3.52 2.714 0 1.503 1.575 2.717 3.52 2.717h46.466c1.943 0 3.518-1.214 3.518-2.717 0-1.499-1.575-2.714-3.518-2.714h-46.466Z"/>
  <path fill="url(#d)" d="M151.345 284.29a50.693 50.693 0 0 0 8.743-28.536c0-19.417-10.872-36.295-26.86-44.881l-24.054 44.881 42.171 28.536Z"/>
  <path fill="url(#e)" d="M133.227 210.875c-7.163-3.85-15.353-6.032-24.054-6.032a51.08 51.08 0 0 0-10.268 1.037l10.268 49.878 24.054-44.883Z"/>
  <path fill="#7D97F4" d="M98.905 205.878c-11.505 2.354-21.593 8.592-28.843 17.286l39.112 32.59-10.269-49.876Z"/>
  <path fill="url(#f)" d="M109.174 255.756 62.74 276.664c7.978 17.692 25.768 30.006 46.434 30.006 17.543 0 33.014-8.876 42.17-22.379l-42.17-28.535Z"/>
  <path fill="#91B3FA" d="M70.062 223.163a50.895 50.895 0 0 0-7.9 13.019c18.025 7.056 47.012 19.573 47.012 19.573l-39.112-32.592Z"/>
  <path fill="#BDD0FB" d="M62.162 236.18a50.753 50.753 0 0 0-3.901 19.574 50.732 50.732 0 0 0 4.48 20.911l46.433-20.911s-28.986-12.517-47.012-19.574Z"/>
  <path fill="url(#g)" d="M222.771 229.088h-46.466c-1.945 0-3.52-1.214-3.52-2.713 0-1.502 1.575-2.717 3.52-2.717h46.466c1.944 0 3.519 1.215 3.519 2.717 0 1.499-1.575 2.713-3.519 2.713Z"/>
  <path fill="url(#h)" d="M222.77 241.115h-46.465c-1.945 0-3.521-1.217-3.521-2.715 0-1.501 1.576-2.715 3.521-2.715h46.465c1.944 0 3.519 1.214 3.519 2.715 0 1.498-1.575 2.715-3.519 2.715Z"/>
  <path fill="url(#i)" d="M222.772 289.213h-46.467c-1.945 0-3.52-1.215-3.52-2.714 0-1.502 1.575-2.717 3.52-2.717h46.467c1.942 0 3.517 1.215 3.517 2.717 0 1.499-1.575 2.714-3.517 2.714Z"/>
  <path fill="url(#j)" d="M222.769 277.191h-46.466c-1.944 0-3.52-1.216-3.52-2.717 0-1.496 1.576-2.715 3.52-2.715h46.466c1.942 0 3.518 1.219 3.518 2.715 0 1.501-1.576 2.717-3.518 2.717Z"/>
  <path fill="url(#k)" d="M222.769 265.167h-46.465c-1.945 0-3.521-1.218-3.521-2.715 0-1.502 1.576-2.717 3.521-2.717h46.465c1.943 0 3.518 1.215 3.518 2.717 0 1.497-1.575 2.715-3.518 2.715Z"/>
  <path fill="url(#l)" d="M298.814 229.344h-46.467c-1.942 0-3.519-1.215-3.519-2.716 0-1.498 1.577-2.715 3.519-2.715h46.467c1.946 0 3.52 1.217 3.52 2.715 0 1.501-1.574 2.716-3.52 2.716Z"/>
  <path fill="url(#m)" d="M298.812 241.37h-46.464c-1.946 0-3.52-1.213-3.52-2.713 0-1.504 1.574-2.717 3.52-2.717h46.464c1.947 0 3.521 1.213 3.521 2.717 0 1.5-1.574 2.713-3.521 2.713Z"/>
  <path fill="url(#n)" d="M298.812 289.468h-46.465c-1.944 0-3.521-1.214-3.521-2.715 0-1.499 1.577-2.716 3.521-2.716h46.465c1.947 0 3.521 1.217 3.521 2.716 0 1.501-1.574 2.715-3.521 2.715Z"/>
  <path fill="url(#o)" d="M298.815 277.446h-46.467c-1.944 0-3.519-1.218-3.519-2.716 0-1.501 1.575-2.716 3.519-2.716h.071c.029.146.06.289.095.435.354 1.509 1.723 2.558 3.267 2.558.04 0 .077 0 .115-.003l46.044-1.523c.251.374.394.797.394 1.249 0 1.498-1.575 2.716-3.519 2.716Z"/>
  <path fill="url(#p)" d="M252.507 265.418h-.159c-1.944 0-3.519-1.214-3.519-2.716 0-1.501 1.575-2.715 3.519-2.715h3.848a7.114 7.114 0 0 0-3.496 4.557 26.25 26.25 0 0 0-.193.874Z"/>
  <path fill="url(#q)" d="M278.598 505.41s-5.141-13.538-11.147-12.298c-6.006 1.24-12.579 5.855-12.579 5.855l-9.648 13.048s27.088 10.672 36.615 4.556c0 0 27.666 4.781 62.603-.952-5.056-10.679-8.069-21.369-9.841-29.666-17.695 10.017-36.755 17.498-56.003 19.457Z"/>
  <path fill="url(#r)" d="M425.153 407.228s-39.612 49.892-90.553 78.726c1.77 8.297 4.782 18.988 9.842 29.667 26.425-4.337 57.011-14.685 82.937-37.68l-2.226-70.713Z"/>
  <path fill="url(#s)" d="m128.263 413.823 2.46 66.049c6.984 2.405 13.635 4.275 19.966 5.671 3.963-12.753 12.685-28.405 19.826-40.043-26.241-9.276-42.252-31.677-42.252-31.677Z"/>
  <path fill="url(#t)" d="M259.274 412.702c-35.996 38.862-65.132 41.148-88.758 32.8-7.142 11.636-15.864 27.289-19.828 40.041 96.129 21.193 118.765-67.178 118.765-67.178l-10.179-5.663Z"/>
  <path fill="url(#u)" d="M266.576 408.572s4.146-4.455 11.821-3.055c7.672 1.4 14.505 4.066 19.285 0 4.783-4.066 6.463 1.39 6.463 1.39l-14.318 10.887-23.251-9.222Z"/>
  <path fill="url(#v)" d="M258.01 416.185s2.841-11.879 11.401-10.251c8.563 1.627 28 12.197 33.011 10.251 5.01-1.946 11.414-6.609 14.701-4.96l-5.788 7.195s14.879-8.584 17.441-3.308l-24.761 13.934s-36.226-3.627-46.005-12.861Z"/>
  <path fill="url(#w)" d="M3.652 631.508S-8.63 456.161 80.907 401.636c0 0 25.033-16.527 56.224 15.479 31.192 32.003 21.148 65.253-5.028 96.413-26.177 31.162-52.839 86.825-46.494 117.98H3.652Z"/>
  <path fill="url(#x)" d="M126.034 353.872c-.023 2.09-29.839 44.439-29.839 44.439s5.352 10.541 30.902 19.098l22.053-45.344-23.116-18.193Z"/>
  <path fill="url(#y)" d="M114.309 499.273s56.567 47.377 117.653 26.704c3.788-1.281 7.932-1.005 11.467.866l17.563 9.273c7.368 3.892 16.498 1.338 20.774-5.816 2.44-4.083 4.523-8.744 4.935-13.209l-34.36-13.912 2.531-4.212s-16.776-1.421-21.167 10.602c0 0-31.956 13.291-85.846-45.985 0 0-24.455 20.793-33.55 35.689Z"/>
  <path fill="url(#z)" d="M111.263 499.068c-.241 0-.484-.07-.7-.215-23.888-16.14-35.125-42.193-35.236-42.454a1.253 1.253 0 0 1 .663-1.641 1.255 1.255 0 0 1 1.642.664c.108.254 11.076 25.643 34.333 41.356a1.253 1.253 0 0 1-.702 2.29Z"/>
  <path fill="url(#A)" d="M146.74 463.065c-.41 0-.814-.201-1.052-.573-.072-.111-7.353-11.448-21.217-36.272-4.223-7.562-9.764-12.347-16.472-14.224-11.123-3.115-21.853 2.856-21.96 2.915a1.25 1.25 0 1 1-1.238-2.176c.474-.268 11.71-6.542 23.85-3.158 7.383 2.06 13.441 7.249 18.005 15.421 13.819 24.745 21.064 36.027 21.136 36.138a1.253 1.253 0 0 1-1.052 1.929Z"/>
  <path fill="url(#B)" d="M149.509 329.607s10.608 24.371 11.32 37.162c.714 12.79 3.467 21.091-11.32 23.666-14.792 2.576-27.251-4.79-34.001-17.533 0 0-10.575-19.633-8.203-27.673 2.373-8.04 42.204-15.622 42.204-15.622Z"/>
  <path fill="url(#C)" d="m120.563 363.742.841-.371a2.031 2.031 0 0 0 .992-2.789c-2.085-4.03-6.151-13.264-.899-15.42 6.768-2.773 33.583-8.241 39.368-17.758 5.56-9.141.632-20.945-6.771-24.302-.494-.224-1.079-.048-1.333.432l-.617 1.167c-.424.8-1.602.68-1.854-.187-.242-.835-1.351-.998-1.809-.262-1.779 2.848-6.581 7.462-19.418 9.832-18.247 3.365-30.31 10.752-30.61 23.36-.02.8-.872 1.246-1.556.83-1.347-.822-3.503-1.209-6.384 1.214-5.011 4.214-2.96 15.145 8.024 24.136.522.427.518 1.241-.047 1.609-1.992 1.297-4.96 4.38 2.732 8.492 7.956 4.254 13.898 3.905 16.186 3.529.569-.094.935-.646.811-1.209l-2.441-11.081a1.005 1.005 0 0 1 .981-1.222h3.804Z"/>
  <path fill="url(#D)" d="M121.022 366.077s-4.047-15.566-11.027-11.202c-6.979 4.367 3.622 17.444 9.233 18.025l1.794-6.823Z"/>
  <path fill="url(#E)" d="M243.428 526.844s14.374 14.059 17.148 12.012c.986-.728 3.48-3.373 5.893-6.318a6.169 6.169 0 0 0 .42-7.272l-3.39-5.232c-3.231-4.984-10.149-6.029-14.63-2.131-2.258 1.968-4.31 4.815-5.441 8.941Z"/>
  <path fill="url(#F)" d="M471.621 631.508s-1.767-65.757-38.499-130.992c-11.488-20.407-15.575-44.156-11.992-67.299l4.024-25.991s50.407-17.058 106.288-.719c0 0 77.476 61.441 25.698 225.001h-85.519Z"/>
  <path fill="url(#G)" d="m433.738 374.052 13.067 31.403a6.264 6.264 0 0 0 4.732 3.761c7.533 1.292 25.763 3.312 37.732-4.561 1.427-.936 1.788-2.877.814-4.278l-24.147-34.669-32.198 8.344Z"/>
  <path fill="#7D97F4" d="M465.977 521.631a2.903 2.903 0 0 0-1.837 4.149l37.815 72.509a2.907 2.907 0 0 0 3.38 1.447l123.697-35.715a2.904 2.904 0 0 0 1.985-3.592l-21.31-73.764a2.902 2.902 0 0 0-3.528-2.001l-140.202 36.967Z"/>
  <path fill="#BDD0FB" d="M473.955 513.11a3.037 3.037 0 0 0-2.148 4.006l30.271 82.225a3.037 3.037 0 0 0 3.692 1.87l123.325-35.605a3.038 3.038 0 0 0 2.126-3.561l-17.09-79.138a3.039 3.039 0 0 0-3.673-2.315L473.955 513.11Z"/>
  <path fill="url(#H)" d="M484.691 504.812a3.758 3.758 0 0 0-3.094 4.559l20.563 88.767a3.75 3.75 0 0 0 4.699 2.759l121.454-35.066a3.755 3.755 0 0 0 2.593-4.545l-18.678-72.457a3.753 3.753 0 0 0-4.198-2.775l-123.339 18.758Z"/>
  <path fill="url(#I)" d="M583.008 538.663c9.426-71.209-45.449-125.962-45.449-125.962l-32.649 38.062c24.789 30.895 36.571 59.208 41.958 81.446 7.138-2.079 24.32-5.364 36.14 6.454Z"/>
  <path fill="url(#J)" d="M546.861 533.043a.83.83 0 0 1-.807-.636c-6.677-27.583-20.739-54.876-41.794-81.122a.834.834 0 1 1 1.299-1.045c21.211 26.439 35.381 53.951 42.114 81.772a.834.834 0 0 1-.812 1.031Z"/>
  <path fill="url(#K)" d="M546.866 532.209c4.999 20.667 4.476 36.089 3.713 43.451a5.731 5.731 0 0 1-5.302 5.137 986.48 986.48 0 0 1-11.308.735c-4.232.242-8.919-2.431-12.059-4.664-1.601-1.14-3.675.638-2.781 2.388 2.343 4.581 8.286 8.659 12.383 11.057 1.492.873 1.209 3.101-.447 3.573l-17.521 4.964c28.787 27.118 47.787-3.223 47.787-3.223 12.708-19.634 19.278-38.834 21.677-56.964-11.819-11.817-29.006-8.532-36.142-6.454Z"/>
  <path fill="url(#L)" d="M447.251 326.01c-.549.514-23.168 44.933-23.168 44.933l25.64 12.378 27.69-38.916s-20.97-27.049-30.162-18.395Z"/>
  <path fill="url(#M)" d="M465.766 349.073 452.98 370.39a4.017 4.017 0 0 1-.703.871c-1.522 1.418-6.728 5.536-10.755-.073-3.432-4.782-6.651-9.128-10.101-10.924-2.016-1.047-4.493-.209-5.517 1.818-2.107 4.174-6.186 12.687-8.751 20.759-.644 2.022.402 4.194 2.371 4.992 5.191 2.101 15.449 5.905 24.555 7.163a4.095 4.095 0 0 0 3.867-1.646c3.914-5.366 14.955-20.361 18.723-24.116 3.501-3.486 9.962-2.169 12.874-1.335a4.116 4.116 0 0 0 3.267-.428c2.953-1.778 8.107-6.209 3.392-13.712-1.175-1.862-.575-4.346 1.265-5.557 3.3-2.17 6.874-6.241 3.465-12.837-3.45-6.673-9.611-7.273-13.811-6.761-1.854.227-3.742-.746-4.455-2.477-.315-.768-.941-1.427-2.108-1.661-2.202-.446-3.647-2.462-3.212-4.661.739-3.779.179-8.688-5.85-12.003-11.063-6.08-20.75 3.827-23.216 12.194-2.462 8.366 9.904 14.278 17.685 15.262 5.714.728 8.846 6.962 10.108 10.222a4.105 4.105 0 0 1-.307 3.593Z"/>
  <path fill="url(#N)" d="M461.866 377.063s4.916-14.391 11.214-13.863c6.297.53 11.253 6.802 3.446 13.853-9.704 8.771-14.66.01-14.66.01Z"/>
  <path fill="url(#O)" d="m206.729 335.505 1.893 58.87c.33 10.266 8.755 18.436 19.075 18.499l140.976.829c6.896.039 12.772-4.97 13.779-11.76 2.205-14.869 5.014-41.47 1.851-66.438H206.729Z"/>
  <path fill="#fff" d="M217.697 335.928h-2.524a.421.421 0 0 1 0-.843h2.524a.422.422 0 0 1 0 .843Zm8.411 0h-2.521a.422.422 0 0 1 0-.843h2.521a.422.422 0 1 1 0 .843Zm8.417 0h-2.527a.421.421 0 0 1 0-.843h2.527a.421.421 0 0 1 0 .843Zm8.414 0h-2.525a.422.422 0 0 1 0-.843h2.525a.422.422 0 0 1 0 .843Zm8.411 0h-2.522a.424.424 0 0 1-.423-.423c0-.232.191-.42.423-.42h2.522a.42.42 0 1 1 0 .843Zm8.417 0h-2.528a.421.421 0 0 1 0-.843h2.528a.422.422 0 0 1 0 .843Zm8.414 0h-2.525a.422.422 0 0 1 0-.843h2.525a.422.422 0 0 1 0 .843Zm8.41 0h-2.521a.423.423 0 1 1 0-.843h2.521a.42.42 0 1 1 0 .843Zm8.417 0h-2.524a.421.421 0 0 1 0-.843h2.524a.422.422 0 0 1 0 .843Zm8.414 0h-2.527a.42.42 0 0 1-.417-.423c0-.232.187-.42.417-.42h2.527c.23 0 .417.188.417.42a.42.42 0 0 1-.417.423Zm8.411 0h-2.521a.42.42 0 1 1 0-.843h2.521a.422.422 0 1 1 0 .843Zm8.414 0h-2.522a.424.424 0 0 1-.423-.423c0-.232.191-.42.423-.42h2.522a.42.42 0 1 1 0 .843Zm8.417 0h-2.528a.421.421 0 0 1 0-.843h2.528a.421.421 0 0 1 0 .843Zm8.411 0h-2.522a.423.423 0 1 1 0-.843h2.522c.232 0 .423.188.423.42a.424.424 0 0 1-.423.423Zm8.414 0h-2.522a.423.423 0 1 1 0-.843h2.522a.42.42 0 1 1 0 .843Zm8.416 0h-2.527a.42.42 0 0 1-.417-.423c0-.232.187-.42.417-.42h2.527a.421.421 0 0 1 0 .843Zm8.411 0h-2.524a.421.421 0 0 1 0-.843h2.524a.422.422 0 0 1 0 .843Zm8.414 0h-2.521a.42.42 0 1 1 0-.843h2.521a.422.422 0 1 1 0 .843Zm8.414 0h-2.524a.422.422 0 0 1 0-.843h2.524a.421.421 0 0 1 0 .843Zm8.414 0h-2.525a.422.422 0 0 1 0-.843h2.525a.422.422 0 0 1 0 .843Zm-166.424 2.519a.42.42 0 0 1-.42-.405l-.08-2.522a.422.422 0 0 1 .405-.435c.2-.003.426.173.435.408l.081 2.522a.418.418 0 0 1-.406.432h-.015Zm169.542 3.371a.421.421 0 0 1-.418-.385c-.074-.834-.155-1.672-.241-2.503a.424.424 0 0 1 .375-.465.425.425 0 0 1 .462.378c.087.838.167 1.675.242 2.519a.42.42 0 0 1-.382.456h-.038Zm-169.27 5.04a.42.42 0 0 1-.421-.408l-.08-2.522a.42.42 0 0 1 .405-.435c.2-.021.426.176.435.408l.081 2.522a.421.421 0 0 1-.409.435h-.011Zm169.812 3.356a.422.422 0 0 1-.42-.403c-.036-.837-.075-1.678-.122-2.515a.418.418 0 0 1 .399-.441.412.412 0 0 1 .441.396c.048.844.089 1.684.122 2.528a.418.418 0 0 1-.402.435h-.018Zm-169.544 5.055a.422.422 0 0 1-.42-.409l-.081-2.524a.421.421 0 0 1 .408-.432c.197-.003.427.173.433.408l.083 2.522a.422.422 0 0 1-.405.435h-.018Zm169.723 3.356a.424.424 0 0 1-.423-.42c0-.835-.006-1.676-.015-2.519a.417.417 0 0 1 .414-.426c.206 0 .42.182.426.417.009.844.015 1.687.018 2.528a.42.42 0 0 1-.42.42Zm-169.452 5.052a.416.416 0 0 1-.417-.406l-.084-2.524a.418.418 0 0 1 .409-.432c.223.012.426.173.435.405l.077 2.522a.417.417 0 0 1-.405.435h-.015Zm169.309 3.362h-.015a.425.425 0 0 1-.406-.436c.03-.834.051-1.675.072-2.518.009-.232.23-.402.432-.411a.416.416 0 0 1 .408.429c-.017.849-.041 1.693-.071 2.527a.42.42 0 0 1-.42.409Zm-169.038 5.046a.421.421 0 0 1-.42-.406l-.08-2.521a.42.42 0 0 1 .405-.435c.226-.018.429.175.435.408l.08 2.521a.415.415 0 0 1-.405.433h-.015Zm168.615 3.359h-.027a.425.425 0 0 1-.394-.45c.057-.829.108-1.67.155-2.516a.415.415 0 0 1 .444-.393.416.416 0 0 1 .397.441c-.048.849-.099 1.69-.155 2.524a.421.421 0 0 1-.42.394Zm-168.347 5.051a.418.418 0 0 1-.417-.408l-.083-2.521a.425.425 0 0 1 .408-.435c.227 0 .426.175.435.408l.081 2.524a.422.422 0 0 1-.409.432h-.015Zm167.67 3.336-.042-.003a.417.417 0 0 1-.378-.459c.077-.823.155-1.66.229-2.51.021-.232.221-.39.456-.381.23.017.4.223.382.453-.075.852-.152 1.69-.23 2.518a.422.422 0 0 1-.417.382Zm-167.395 5.075a.424.424 0 0 1-.424-.408l-.077-2.524a.418.418 0 0 1 .405-.433.428.428 0 0 1 .432.409l.081 2.524a.417.417 0 0 1-.405.432h-.012Zm166.474 3.288h-.054a.42.42 0 0 1-.363-.471c.101-.817.199-1.648.298-2.504a.425.425 0 0 1 .468-.369.423.423 0 0 1 .369.465c-.098.858-.199 1.696-.301 2.509a.42.42 0 0 1-.417.37Zm-165.422 5.016a.422.422 0 0 1-.4-.286 18.312 18.312 0 0 1-.658-2.495.42.42 0 0 1 .825-.158c.155.811.367 1.61.629 2.382a.417.417 0 0 1-.262.533.426.426 0 0 1-.134.024Zm164.197 3.308a.423.423 0 0 1-.408-.524c.113-.435.205-.88.268-1.324l.167-1.117a.416.416 0 0 1 .474-.358c.229.036.39.25.357.48l-.164 1.118c-.071.473-.166.947-.289 1.409a.415.415 0 0 1-.405.316Zm-159.765 3.756a.402.402 0 0 1-.295-.123 18.575 18.575 0 0 1-1.708-1.934.42.42 0 0 1 .08-.59.42.42 0 0 1 .588.078 18.404 18.404 0 0 0 1.63 1.85.42.42 0 0 1-.295.719Zm155.267 3.18a.42.42 0 0 1-.265-.748 12.63 12.63 0 0 0 1.75-1.702.424.424 0 0 1 .596-.048.427.427 0 0 1 .048.596 13.937 13.937 0 0 1-1.866 1.809.415.415 0 0 1-.263.093Zm-148.162 1.174a.482.482 0 0 1-.131-.018 18.197 18.197 0 0 1-2.387-.98.42.42 0 1 1 .372-.751c.736.36 1.505.673 2.28.93a.42.42 0 0 1-.134.819Zm8.316.942h-.003l-2.525-.015a.418.418 0 0 1-.417-.423c0-.233.188-.417.417-.417h.003l2.525.014c.232 0 .42.191.417.421 0 .235-.188.42-.417.42Zm8.411.051h-.003l-2.522-.015a.425.425 0 0 1-.42-.426.424.424 0 0 1 .423-.418l2.528.015a.424.424 0 0 1 .417.423.425.425 0 0 1-.423.421Zm8.413.05-2.524-.018a.423.423 0 0 1-.42-.42c.003-.235.22-.39.426-.42l2.521.015c.233 0 .421.191.421.423a.426.426 0 0 1-.424.42Zm8.417.048h-.003l-2.524-.015a.417.417 0 0 1-.417-.423c0-.233.187-.417.417-.417h.003l2.524.012a.42.42 0 0 1 .418.426.419.419 0 0 1-.418.417Zm8.411.048h-.003l-2.521-.012a.423.423 0 0 1 .003-.844l2.524.015c.233.003.42.191.42.423a.421.421 0 0 1-.423.418Zm8.414.05-2.527-.015a.42.42 0 0 1 .003-.84h.006l2.521.015c.233.003.42.191.42.423a.42.42 0 0 1-.423.417Zm8.414.051h-.003l-2.524-.015a.422.422 0 0 1 .003-.843h.002l2.525.018c.232 0 .42.187.417.423a.423.423 0 0 1-.42.417Zm8.414.048h-.003l-2.522-.015a.418.418 0 0 1-.42-.42.422.422 0 0 1 .42-.421h.003l2.525.015a.42.42 0 0 1-.003.841Zm8.414.05h-.003l-2.525-.015a.42.42 0 0 1 .003-.84h.003l2.525.015a.42.42 0 0 1-.003.84Zm8.414.051h-.003l-2.525-.015a.423.423 0 0 1 .003-.843h.003l2.522.018a.42.42 0 1 1 0 .84Zm8.413.048h-.003l-2.524-.015a.418.418 0 0 1-.417-.423.42.42 0 0 1 .42-.418l2.527.015a.42.42 0 0 1-.003.841Zm8.411.05-2.524-.015a.418.418 0 0 1-.417-.423c0-.232.187-.417.42-.417h.003l2.524.012a.421.421 0 0 1-.006.843Zm8.417.048h-.003l-2.524-.012a.42.42 0 0 1-.417-.423c0-.236.223-.42.423-.417l2.521.012a.42.42 0 0 1 0 .84Zm8.414.051h-.003l-2.524-.015a.418.418 0 0 1-.418-.423.42.42 0 0 1 .418-.418h.003l2.527.015c.23.003.417.191.414.423a.416.416 0 0 1-.417.418Zm8.411.05h-.003l-2.521-.014a.423.423 0 0 1 .002-.844l2.525.018c.232 0 .42.191.42.423a.423.423 0 0 1-.423.417Zm8.414.051-2.528-.018a.42.42 0 0 1 .003-.84h.006l2.522.015c.235 0 .42.19.42.423a.424.424 0 0 1-.423.42Zm5.889.021a.423.423 0 0 1-.015-.844 12.676 12.676 0 0 0 2.421-.321.422.422 0 0 1 .187.822c-.84.194-1.708.31-2.575.343h-.018Z"/>
  <path fill="url(#P)" d="m248.044 292.764.428-4.539a3.489 3.489 0 0 1 2.646-2.038c4.392-.697 15.284-1.927 20.529 1.993l.783 5.276-24.386-.692Z"/>
  <path fill="url(#Q)" d="M261.764 288.398a6.312 6.312 0 0 1-3.039-.003 2.745 2.745 0 0 1-2.095-2.659v-14.217h7.238v14.206c0 1.265-.87 2.372-2.104 2.673Z"/>
  <path fill="url(#R)" d="m318.124 292.764.425-4.539a3.489 3.489 0 0 1 2.646-2.038c4.392-.697 15.285-1.927 20.53 1.993l.783 5.276-24.384-.692Z"/>
  <path fill="url(#S)" d="M331.839 288.4a6.28 6.28 0 0 1-3.037-.003 2.747 2.747 0 0 1-2.093-2.659v-15.716h7.232l.003 15.705a2.753 2.753 0 0 1-2.105 2.673Z"/>
  <path fill="url(#T)" d="M255.785 275.005c-1.549 0-2.918-1.05-3.27-2.559a7.802 7.802 0 0 1-.092-.435c-.477-2.378-.292-4.696.086-6.593.06-.301.123-.593.191-.874a7.128 7.128 0 0 1 4.299-4.934c14.819-5.861 38.417-7.466 55.766-7.767 2.425-.045 4.728-.063 6.873-.063h.316c3.457.006 6.476.051 8.88.108 4.364.104 8.063 3.296 8.698 7.597.561 3.78.185 7.428-.241 9.865-.305 1.736-1.808 3.018-3.583 3.078l-13.754.454-7.189.238-10.822.358-46.045 1.524c-.036.003-.075.003-.113.003Zm22.703-18.831h-.021c-6.828.191-15.156 2.366-19.512 3.645-2.311.677-4.137 2.533-4.76 4.836-.788 2.905-.495 5.918-.481 6.046a.839.839 0 0 0 .836.755h.083a.846.846 0 0 0 .755-.925c-.003-.03-.275-2.828.429-5.435a5.298 5.298 0 0 1 3.61-3.663c4.28-1.256 12.448-3.392 19.088-3.577a.837.837 0 0 0 .814-.865.837.837 0 0 0-.841-.817Z"/>
  <path fill="url(#U)" d="M254.55 271.456a.84.84 0 0 1-.837-.754c-.012-.13-.304-3.142.482-6.045.624-2.305 2.447-4.162 4.759-4.839 4.357-1.277 12.687-3.452 19.513-3.644h.02a.84.84 0 0 1 .027 1.682c-6.639.186-14.807 2.32-19.087 3.576-1.753.515-3.136 1.919-3.609 3.663-.707 2.607-.435 5.406-.432 5.436a.84.84 0 0 1-.751.922c-.029.003-.059.003-.085.003Z"/>
  <path fill="url(#V)" d="M211.945 291.001c25.136-.323 133.881-1.465 165.469 2.346 2.717.329 4.937 2.319 5.525 4.982 1.869 8.436 5.622 28.04 5.179 47.47-.061 2.645-1.999 4.876-4.611 5.368l-72.105 13.642h-25.613l-76.828-15.269c-2.708-.541-4.704-2.835-4.843-5.58-.501-9.774-1.28-32.715 1.362-47.476a6.646 6.646 0 0 1 6.465-5.483Z"/>
  <path fill="#fff" d="M272.977 297.221a.42.42 0 0 1 0-.841h2.518c.233 0 .424.188.424.42a.417.417 0 0 1-.415.421h-2.527Zm10.941.009h-.003l-2.524-.003a.422.422 0 0 1 0-.844l2.527.006a.42.42 0 0 1 0 .841Zm-19.355.006a.42.42 0 0 1-.418-.421.42.42 0 0 1 .418-.424l2.524-.002c.218-.018.421.187.424.417a.422.422 0 0 1-.424.424l-2.521.006h-.003Zm27.77.021h-.003l-2.525-.009a.418.418 0 0 1-.417-.424c0-.233.188-.418.417-.418h.003l2.525.009a.42.42 0 0 1 .417.421.42.42 0 0 1-.417.421Zm-36.184.006a.42.42 0 0 1-.003-.842l2.527-.009c.233 0 .421.185.421.421a.418.418 0 0 1-.421.421l-2.521.009h-.003Zm-8.418.042a.423.423 0 0 1-.42-.418c0-.233.185-.421.417-.421l2.528-.018a.422.422 0 0 1 .003.845l-2.525.012h-.003Zm53.013 0h-.003l-2.521-.018a.42.42 0 1 1 .003-.842l2.527.021a.42.42 0 0 1-.006.839Zm-61.43.056a.418.418 0 1 1 0-.838l2.521-.021h.006c.227 0 .415.188.418.418a.418.418 0 0 1-.418.423l-2.524.018h-.003Zm69.844.015h-.003l-2.524-.024a.422.422 0 0 1-.418-.423.424.424 0 0 1 .424-.418l2.527.024a.425.425 0 0 1 .418.426.422.422 0 0 1-.424.415Zm-78.261.054a.422.422 0 0 1-.003-.842l2.524-.02h.006c.23 0 .418.185.421.417a.422.422 0 0 1-.418.424l-2.524.021h-.006Zm86.675.045h-.006l-2.524-.03a.422.422 0 0 1 .006-.845h.006l2.524.036a.42.42 0 0 1-.006.839Zm-95.089.038a.424.424 0 0 1-.424-.417.418.418 0 0 1 .418-.424l2.524-.027h.006c.23 0 .418.185.418.415a.419.419 0 0 1-.415.427l-2.524.026h-.003Zm-8.42.093a.42.42 0 0 1-.006-.839l2.527-.029h.003a.42.42 0 0 1 .009.841l-2.527.027h-.006Zm111.923.003h-.008l-2.522-.045a.421.421 0 0 1 .006-.841h.006l2.527.044c.23.003.415.197.412.43a.422.422 0 0 1-.421.412Zm8.415.167h-.012l-2.525-.054a.42.42 0 0 1-.408-.429.418.418 0 0 1 .417-.412h.009l2.528.057a.419.419 0 0 1-.009.838Zm8.408.218h-.009l-2.524-.069a.425.425 0 0 1-.412-.432c.009-.236.17-.406.436-.409l2.524.071c.23.006.415.2.409.433a.424.424 0 0 1-.424.406Zm8.411.283h-.015l-2.521-.092a.42.42 0 0 1-.406-.436c.006-.23.215-.403.433-.406l2.524.093a.416.416 0 0 1 .403.435.419.419 0 0 1-.418.406Zm8.405.367h-.021c-.82-.045-1.661-.083-2.521-.122a.42.42 0 0 1-.397-.439.416.416 0 0 1 .439-.4c.859.036 1.701.078 2.524.12a.42.42 0 0 1-.024.841Zm8.403.502h-.033c-.809-.057-1.647-.114-2.516-.171a.422.422 0 0 1 .054-.841c.871.057 1.71.113 2.521.17a.425.425 0 0 1 .391.451.423.423 0 0 1-.417.391Zm8.375.757-.045-.003c-.781-.089-1.614-.179-2.503-.268a.421.421 0 0 1-.379-.46c.021-.232.221-.385.459-.376.896.087 1.734.179 2.519.269.23.027.397.236.37.465a.425.425 0 0 1-.421.373Zm-165.614 3.805-.044-.003a.42.42 0 0 1-.373-.463c.092-.856.197-1.698.307-2.518.033-.23.245-.4.472-.358.232.03.393.242.364.471-.111.815-.212 1.647-.308 2.498a.42.42 0 0 1-.418.373Zm167.64 4.108a.419.419 0 0 1-.412-.346c-.161-.868-.316-1.695-.468-2.476a.419.419 0 0 1 .331-.493.423.423 0 0 1 .495.332c.152.784.311 1.614.469 2.485a.418.418 0 0 1-.337.489.366.366 0 0 1-.078.009Zm-168.296 4.282h-.024a.425.425 0 0 1-.4-.445c.045-.847.096-1.688.15-2.527.017-.23.217-.415.447-.391a.419.419 0 0 1 .391.448c-.054.832-.101 1.671-.146 2.515a.422.422 0 0 1-.418.4Zm169.669 4.022a.423.423 0 0 1-.418-.358c-.123-.853-.251-1.683-.376-2.494a.419.419 0 1 1 .829-.132c.129.815.257 1.65.379 2.504a.418.418 0 0 1-.352.477c-.021.003-.045.003-.062.003Zm-169.946 4.386h-.006a.418.418 0 0 1-.415-.426c.012-.839.03-1.683.051-2.528.006-.232.2-.402.432-.408a.417.417 0 0 1 .409.429c-.021.842-.036 1.683-.051 2.521a.418.418 0 0 1-.42.412Zm171.011 3.963a.417.417 0 0 1-.415-.376c-.093-.845-.188-1.68-.286-2.504a.417.417 0 0 1 .367-.465.41.41 0 0 1 .465.367c.101.823.2 1.665.289 2.512a.422.422 0 0 1-.373.463l-.047.003Zm-171.02 4.451a.415.415 0 0 1-.421-.414c-.012-.83-.018-1.671-.021-2.528a.42.42 0 0 1 .418-.42h.003c.229 0 .42.188.42.417.003.854.009 1.692.018 2.522a.416.416 0 0 1-.414.423h-.003Zm171.751 3.936a.423.423 0 0 1-.421-.394c-.054-.844-.113-1.683-.179-2.515a.42.42 0 0 1 .388-.451c.227-.027.433.155.453.385.066.839.123 1.68.179 2.527a.418.418 0 0 1-.393.445l-.027.003Zm-171.56 4.479a.42.42 0 0 1-.421-.406c-.027-.812-.051-1.653-.078-2.527a.422.422 0 0 1 .412-.43c.227.018.424.173.43.409.024.868.05 1.709.077 2.521a.424.424 0 0 1-.405.433h-.015Zm171.891 3.926a.421.421 0 0 1-.421-.417c-.009-.839-.027-1.677-.053-2.516a.42.42 0 0 1 .408-.432c.221.006.427.176.433.408.024.842.042 1.686.054 2.531a.42.42 0 0 1-.415.426h-.006Zm-169.797 2.993a.384.384 0 0 1-.083-.009l-2.14-.427-.05-.999a.424.424 0 0 1 .399-.439c.227-.045.43.167.442.4l.018.343 1.495.299a.419.419 0 0 1-.081.832Zm8.25 1.638c-.027 0-.053 0-.08-.006l-2.477-.495a.415.415 0 0 1-.331-.493.417.417 0 0 1 .495-.328l2.474.493c.23.044.379.262.331.492a.418.418 0 0 1-.412.337Zm157.495.439a.422.422 0 0 1-.078-.836l2.483-.468a.418.418 0 0 1 .489.337.415.415 0 0 1-.334.489l-2.479.469a.372.372 0 0 1-.081.009Zm-149.242 1.202c-.026 0-.053 0-.083-.009l-2.477-.489a.422.422 0 0 1 .167-.827l2.477.493a.415.415 0 0 1 .328.492.418.418 0 0 1-.412.34Zm140.977.361c-.2 0-.376-.14-.415-.343a.418.418 0 0 1 .337-.489l2.48-.472a.425.425 0 0 1 .492.337.422.422 0 0 1-.337.49l-2.479.468a.346.346 0 0 1-.078.009Zm-132.724 1.28a.377.377 0 0 1-.083-.009l-2.474-.489a.423.423 0 0 1-.331-.495.417.417 0 0 1 .492-.332l2.477.493a.42.42 0 0 1-.081.832Zm124.456.284a.42.42 0 0 1-.412-.343.417.417 0 0 1 .334-.49l2.48-.468a.415.415 0 0 1 .492.334.424.424 0 0 1-.334.492l-2.482.466c-.027.009-.051.009-.078.009Zm-116.202 1.357a.422.422 0 0 1-.084-.009l-2.477-.492a.422.422 0 0 1-.331-.495.426.426 0 0 1 .496-.332l2.476.496a.42.42 0 0 1-.08.832Zm107.934.209a.423.423 0 0 1-.412-.346.417.417 0 0 1 .334-.489l2.48-.469c.23-.042.45.108.492.331a.417.417 0 0 1-.334.493l-2.479.471c-.027.003-.054.009-.081.009Zm-99.684 1.432a.372.372 0 0 1-.081-.009l-2.476-.492a.42.42 0 1 1 .164-.826l2.476.492a.418.418 0 0 1 .328.495.42.42 0 0 1-.411.34Zm91.416.132a.422.422 0 0 1-.075-.836l2.48-.468a.422.422 0 0 1 .492.334.422.422 0 0 1-.337.492l-2.479.469c-.024.003-.051.009-.081.009Zm-83.163 1.506a.79.79 0 0 1-.084-.006l-2.473-.492a.422.422 0 0 1 .161-.826l2.479.492a.42.42 0 0 1-.083.832Zm74.898.054a.424.424 0 0 1-.415-.34.42.42 0 0 1 .337-.492l2.48-.472a.427.427 0 0 1 .492.337.423.423 0 0 1-.337.493l-2.479.468c-.024.006-.051.006-.078.006Zm-8.265 1.567a.422.422 0 0 1-.415-.344.417.417 0 0 1 .334-.489l2.48-.471c.23-.039.45.107.492.334a.418.418 0 0 1-.334.492l-2.479.469a.366.366 0 0 1-.078.009Zm-58.38.02a.418.418 0 0 1-.084-.008l-2.476-.493a.419.419 0 0 1-.329-.492.417.417 0 0 1 .493-.331l2.476.492a.423.423 0 0 1 .332.495.42.42 0 0 1-.412.337Zm50.112 1.543a.422.422 0 0 1-.081-.835l2.483-.469a.418.418 0 0 1 .489.334.417.417 0 0 1-.334.493l-2.479.468a.366.366 0 0 1-.078.009Zm-41.862.099a.372.372 0 0 1-.081-.009l-2.476-.493a.419.419 0 1 1 .164-.823l2.473.492c.23.045.379.266.332.495a.422.422 0 0 1-.412.338Zm33.594 1.465a.422.422 0 0 1-.415-.344.423.423 0 0 1 .337-.489l2.48-.468a.42.42 0 1 1 .155.823l-2.479.472a.633.633 0 0 1-.078.006Zm-14.286.173h-2.525a.42.42 0 1 1 0-.839h2.525a.42.42 0 0 1 0 .839Zm8.414 0h-2.527a.42.42 0 0 1 0-.839h2.527a.42.42 0 0 1 0 .839Zm-19.469 0c-.027 0-.054 0-.084-.006l-2.473-.493a.42.42 0 1 1 .164-.823l2.453.486.056-.003h2.525a.42.42 0 0 1 0 .839h-2.525l-.059-.003-.057.003Z"/>
  <path fill="url(#W)" d="M308.991 375.561h-22.438c-2.94 0-5.415-2.186-5.764-5.093l-2.594-21.593c-.413-3.439 2.284-6.464 5.766-6.464h26.955c3.41 0 6.087 2.909 5.785 6.291l-1.923 21.591c-.269 2.984-2.778 5.268-5.787 5.268Z"/>
  <path fill="url(#X)" d="M307.214 372.718h-17.972a4.646 4.646 0 0 1-4.618-4.08l-2.076-17.293c-.331-2.753 1.831-5.178 4.617-5.178h21.59c2.73 0 4.873 2.33 4.63 5.037l-1.539 17.294a4.645 4.645 0 0 1-4.632 4.22Z"/>
  <defs>
    <linearGradient id="a" x1="1432.23" x2="509.371" y1="696.189" y2="-299.916" gradientUnits="userSpaceOnUse">
      <stop stop-color="#DAE3FE"/>
      <stop offset="1" stop-color="#E9EFFD"/>
    </linearGradient>
    <linearGradient id="b" x1="698.23" x2="193.696" y1="453.409" y2="-103.678" gradientUnits="userSpaceOnUse">
      <stop stop-color="#FF928E"/>
      <stop offset="1" stop-color="#FE7062"/>
    </linearGradient>
    <linearGradient id="c" x1="691.901" x2="191.347" y1="455.653" y2="-97.039" gradientUnits="userSpaceOnUse">
      <stop stop-color="#FFC9C7"/>
      <stop offset="1" stop-color="#FFB8B1"/>
    </linearGradient>
    <linearGradient id="d" x1="405.372" x2="348.008" y1="-104.746" y2="-52.794" gradientUnits="userSpaceOnUse">
      <stop stop-color="#FF928E"/>
      <stop offset="1" stop-color="#FE7062"/>
    </linearGradient>
    <linearGradient id="e" x1="186.777" x2="260.459" y1="38.148" y2="-139.039" gradientUnits="userSpaceOnUse">
      <stop stop-color="#4F52FF"/>
      <stop offset="1" stop-color="#4042E2"/>
    </linearGradient>
    <linearGradient id="f" x1="113.619" x2="229.259" y1="141.828" y2="141.828" gradientUnits="userSpaceOnUse">
      <stop stop-color="#DAE3FE"/>
      <stop offset="1" stop-color="#E9EFFD"/>
    </linearGradient>
    <linearGradient id="g" x1="654.806" x2="177.583" y1="468.812" y2="-58.12" gradientUnits="userSpaceOnUse">
      <stop stop-color="#FFF3F3"/>
      <stop offset="1" stop-color="#FFEFEE"/>
    </linearGradient>
    <linearGradient id="h" x1="637.062" x2="170.997" y1="475.108" y2="-39.503" gradientUnits="userSpaceOnUse">
      <stop stop-color="#FFF3F3"/>
      <stop offset="1" stop-color="#FFEFEE"/>
    </linearGradient>
    <linearGradient id="i" x1="566.105" x2="144.665" y1="500.28" y2="34.944" gradientUnits="userSpaceOnUse">
      <stop stop-color="#FFF3F3"/>
      <stop offset="1" stop-color="#FFEFEE"/>
    </linearGradient>
    <linearGradient id="j" x1="583.843" x2="151.247" y1="493.988" y2="16.334" gradientUnits="userSpaceOnUse">
      <stop stop-color="#FFF3F3"/>
      <stop offset="1" stop-color="#FFEFEE"/>
    </linearGradient>
    <linearGradient id="k" x1="601.581" x2="157.832" y1="487.694" y2="-2.278" gradientUnits="userSpaceOnUse">
      <stop stop-color="#FFF3F3"/>
      <stop offset="1" stop-color="#FFEFEE"/>
    </linearGradient>
    <linearGradient id="l" x1="654.43" x2="177.441" y1="468.946" y2="-57.725" gradientUnits="userSpaceOnUse">
      <stop stop-color="#FFF3F3"/>
      <stop offset="1" stop-color="#FFEFEE"/>
    </linearGradient>
    <linearGradient id="m" x1="636.686" x2="170.858" y1="475.241" y2="-39.109" gradientUnits="userSpaceOnUse">
      <stop stop-color="#FFF3F3"/>
      <stop offset="1" stop-color="#FFEFEE"/>
    </linearGradient>
    <linearGradient id="n" x1="565.729" x2="144.526" y1="500.413" y2="35.338" gradientUnits="userSpaceOnUse">
      <stop stop-color="#FFF3F3"/>
      <stop offset="1" stop-color="#FFEFEE"/>
    </linearGradient>
    <linearGradient id="o" x1="583.467" x2="151.109" y1="494.121" y2="16.728" gradientUnits="userSpaceOnUse">
      <stop stop-color="#FFF3F3"/>
      <stop offset="1" stop-color="#FFEFEE"/>
    </linearGradient>
    <linearGradient id="p" x1="601.21" x2="157.693" y1="487.826" y2="-1.888" gradientUnits="userSpaceOnUse">
      <stop stop-color="#FFF3F3"/>
      <stop offset="1" stop-color="#FFEFEE"/>
    </linearGradient>
    <linearGradient id="q" x1="352.99" x2="473.408" y1="451.83" y2="451.83" gradientUnits="userSpaceOnUse">
      <stop stop-color="#A22B25"/>
      <stop offset="1" stop-color="#C0423C"/>
    </linearGradient>
    <linearGradient id="r" x1="846.739" x2="587.062" y1="665.08" y2="324.665" gradientUnits="userSpaceOnUse">
      <stop stop-color="#FF928E"/>
      <stop offset="1" stop-color="#FE7062"/>
    </linearGradient>
    <linearGradient id="s" x1="175.053" x2="123.08" y1="413.378" y2="466.413" gradientUnits="userSpaceOnUse">
      <stop stop-color="#4F52FF"/>
      <stop offset="1" stop-color="#4042E2"/>
    </linearGradient>
    <linearGradient id="t" x1="311.195" x2="153.872" y1="403.606" y2="481.866" gradientUnits="userSpaceOnUse">
      <stop stop-color="#FEBBBA"/>
      <stop offset="1" stop-color="#FF928E"/>
    </linearGradient>
    <linearGradient id="u" x1="347.248" x2="321.89" y1="351.091" y2="377.577" gradientUnits="userSpaceOnUse">
      <stop stop-color="#FEBBBA"/>
      <stop offset="1" stop-color="#FF928E"/>
    </linearGradient>
    <linearGradient id="v" x1="378.017" x2="195.704" y1="349.415" y2="440.106" gradientUnits="userSpaceOnUse">
      <stop stop-color="#FEBBBA"/>
      <stop offset="1" stop-color="#FF928E"/>
    </linearGradient>
    <linearGradient id="w" x1="185.347" x2="-91.478" y1="375.457" y2="740.578" gradientUnits="userSpaceOnUse">
      <stop stop-color="#4F52FF"/>
      <stop offset="1" stop-color="#4042E2"/>
    </linearGradient>
    <linearGradient id="x" x1="114.083" x2="135.585" y1="419.183" y2="360.465" gradientUnits="userSpaceOnUse">
      <stop stop-color="#FEBBBA"/>
      <stop offset="1" stop-color="#FF928E"/>
    </linearGradient>
    <linearGradient id="y" x1="223.439" x2="147.173" y1="491.022" y2="547.1" gradientUnits="userSpaceOnUse">
      <stop stop-color="#FEBBBA"/>
      <stop offset="1" stop-color="#FF928E"/>
    </linearGradient>
    <linearGradient id="z" x1="216.886" x2="178.951" y1="265.279" y2="330.526" gradientUnits="userSpaceOnUse">
      <stop stop-color="#4F52FF"/>
      <stop offset="1" stop-color="#4042E2"/>
    </linearGradient>
    <linearGradient id="A" x1="216.518" x2="178.584" y1="265.063" y2="330.31" gradientUnits="userSpaceOnUse">
      <stop stop-color="#4F52FF"/>
      <stop offset="1" stop-color="#4042E2"/>
    </linearGradient>
    <linearGradient id="B" x1="178.653" x2="111.621" y1="310.325" y2="361.615" gradientUnits="userSpaceOnUse">
      <stop stop-color="#FEBBBA"/>
      <stop offset="1" stop-color="#FF928E"/>
    </linearGradient>
    <linearGradient id="C" x1="146.81" x2="213.309" y1="239.196" y2="324.813" gradientUnits="userSpaceOnUse">
      <stop stop-color="#09005D"/>
      <stop offset="1" stop-color="#1A0F91"/>
    </linearGradient>
    <linearGradient id="D" x1="153.893" x2="90.879" y1="325.745" y2="373.961" gradientUnits="userSpaceOnUse">
      <stop stop-color="#FEBBBA"/>
      <stop offset="1" stop-color="#FF928E"/>
    </linearGradient>
    <linearGradient id="E" x1="245.686" x2="270.296" y1="525.925" y2="525.925" gradientUnits="userSpaceOnUse">
      <stop stop-color="#A22B25"/>
      <stop offset="1" stop-color="#C0423C"/>
    </linearGradient>
    <linearGradient id="F" x1="1196.59" x2="864.784" y1="579.412" y2="144.434" gradientUnits="userSpaceOnUse">
      <stop stop-color="#FF928E"/>
      <stop offset="1" stop-color="#FE7062"/>
    </linearGradient>
    <linearGradient id="G" x1="815.289" x2="789.685" y1="198.825" y2="122.01" gradientUnits="userSpaceOnUse">
      <stop stop-color="#A22B25"/>
      <stop offset="1" stop-color="#C0423C"/>
    </linearGradient>
    <linearGradient id="H" x1="1204.86" x2="1272.38" y1="314.405" y2="617.186" gradientUnits="userSpaceOnUse">
      <stop stop-color="#4F52FF"/>
      <stop offset="1" stop-color="#4042E2"/>
    </linearGradient>
    <linearGradient id="I" x1="1303.21" x2="966.945" y1="509.272" y2="68.456" gradientUnits="userSpaceOnUse">
      <stop stop-color="#FF928E"/>
      <stop offset="1" stop-color="#FE7062"/>
    </linearGradient>
    <linearGradient id="J" x1="1147.87" x2="977.261" y1="82.777" y2="349.727" gradientUnits="userSpaceOnUse">
      <stop stop-color="#E1473D"/>
      <stop offset="1" stop-color="#E9605A"/>
    </linearGradient>
    <linearGradient id="K" x1="1121.2" x2="1159.29" y1="306.045" y2="-53.7" gradientUnits="userSpaceOnUse">
      <stop stop-color="#A22B25"/>
      <stop offset="1" stop-color="#C0423C"/>
    </linearGradient>
    <linearGradient id="L" x1="775.136" x2="750.136" y1="102.933" y2="250.045" gradientUnits="userSpaceOnUse">
      <stop stop-color="#A22B25"/>
      <stop offset="1" stop-color="#C0423C"/>
    </linearGradient>
    <linearGradient id="M" x1="824.636" x2="749.074" y1="158.071" y2="77.802" gradientUnits="userSpaceOnUse">
      <stop stop-color="#09005D"/>
      <stop offset="1" stop-color="#1A0F91"/>
    </linearGradient>
    <linearGradient id="N" x1="801.653" x2="806.123" y1="260.965" y2="157.106" gradientUnits="userSpaceOnUse">
      <stop stop-color="#A22B25"/>
      <stop offset="1" stop-color="#C0423C"/>
    </linearGradient>
    <linearGradient id="O" x1="426.459" x2="426.459" y1="313.359" y2="245.987" gradientUnits="userSpaceOnUse">
      <stop stop-color="#4F52FF"/>
      <stop offset="1" stop-color="#4042E2"/>
    </linearGradient>
    <linearGradient id="P" x1="342.713" x2="341.445" y1="207.077" y2="176.32" gradientUnits="userSpaceOnUse">
      <stop stop-color="#4F52FF"/>
      <stop offset="1" stop-color="#4042E2"/>
    </linearGradient>
    <linearGradient id="Q" x1="354.783" x2="361.319" y1="143.17" y2="234.027" gradientUnits="userSpaceOnUse">
      <stop stop-color="#4F52FF"/>
      <stop offset="1" stop-color="#4042E2"/>
    </linearGradient>
    <linearGradient id="R" x1="428.403" x2="427.135" y1="203.543" y2="172.786" gradientUnits="userSpaceOnUse">
      <stop stop-color="#4F52FF"/>
      <stop offset="1" stop-color="#4042E2"/>
    </linearGradient>
    <linearGradient id="S" x1="444.619" x2="451.176" y1="134.903" y2="226.051" gradientUnits="userSpaceOnUse">
      <stop stop-color="#4F52FF"/>
      <stop offset="1" stop-color="#4042E2"/>
    </linearGradient>
    <linearGradient id="T" x1="428.19" x2="418.992" y1="65.278" y2="132.727" gradientUnits="userSpaceOnUse">
      <stop stop-color="#4F52FF"/>
      <stop offset="1" stop-color="#4042E2"/>
    </linearGradient>
    <linearGradient id="U" x1="423.381" x2="414.267" y1="71.356" y2="138.196" gradientUnits="userSpaceOnUse">
      <stop stop-color="#CACBFF"/>
      <stop offset="1" stop-color="#C5C6F6"/>
    </linearGradient>
    <linearGradient id="V" x1="437.493" x2="403.357" y1="110.238" y2="428.843" gradientUnits="userSpaceOnUse">
      <stop stop-color="#4F52FF"/>
      <stop offset="1" stop-color="#4042E2"/>
    </linearGradient>
    <linearGradient id="W" x1="376.73" x2="535.683" y1="261.686" y2="-25.985" gradientUnits="userSpaceOnUse">
      <stop stop-color="#09005D"/>
      <stop offset="1" stop-color="#1A0F91"/>
    </linearGradient>
    <linearGradient id="X" x1="350.092" x2="350.092" y1="249.429" y2="269.999" gradientUnits="userSpaceOnUse">
      <stop stop-color="#4F52FF"/>
      <stop offset="1" stop-color="#4042E2"/>
    </linearGradient>
  </defs>
</svg>
