<svg xmlns="http://www.w3.org/2000/svg" width="3078" height="1959" fill="none" viewBox="0 0 3078 1959">
  <path fill="#DAA15A" d="m2603.88 1516.21 202.05 436.73 22.77-.08-174.71-465.01-50.11 28.36m-209 9.34-202.04 427.39-22.77-.08 174.71-437.01 50.1 9.7"/>
  <path fill="url(#a)" d="m1881.5 1859.34-102.7 89.87-121.07-85.21s41.21-13.82 111.86 5l72.31-60.76 39.6 51.1Z"/>
  <path fill="#3B61B6" d="M2475.99 1363.65s-226.98 116.34-307.17 151.15c-80.19 34.8-353 307.99-353 307.99s34.92 71.12 52.39 58.64c154.04-110.14 295.95-208.69 387.15-243.08 180.57-68.08 230.91-82.88 277.15-136.49 0 0-27.12-64.42-56.52-138.21Z"/>
  <path fill="url(#b)" d="m2122.34 1813.47-29.6 133.22-148.01 2.95s25.04-35.52 93.13-62.16l22.32-91.77 62.16 17.76"/>
  <path fill="#4877C5" d="M2481.49 1334.11s-211.13 22.77-288.09 64.21c-76.98 41.45-138.24 421.52-138.24 421.52s59.78 32.46 67.18 12.3c59.71-162.57 125.94-289.91 125.94-289.91 75.86-13.86 251.57 71.66 378.57-53.44 0 0-109.83-83.64-145.36-154.68Z"/>
  <path fill="#FAB9A5" d="M2845.3 1077.48s-15.24 25.24-24.86 56.85l-86.84-8.01s44.84-67.94 41.41-109.14l70.29 60.3Z"/>
  <path fill="#FAB9A5" d="M2826.63 937.118c-4.93-1.31-23.49-6.42-27.24-4.889-5.21 2.123.84 8.952-2.83 13.122-5.93 6.75-17.81 6.893-25.46 10.993-9.28 4.967-16.35 11.499-20.59 18.956-7.08 12.427 18.68 40.16 22.72 60.95 8.43 43.48 63.39 49.92 108.04 36.6 15.97-4.76 30.65-19.11 39.35-33.04 10.24-16.37 4.47-43.722-4.1-60.022-5.14-9.777-15.32-18.198-24.21-24.33-8.05-5.558-10.28-28.645-19.98-30.282 0 0-34.6 14.886-45.7 11.942"/>
  <path fill="url(#c)" d="M2951.31 1053.85c.1.09-1.5-7.3 11.1-19.16 41.67-39.224-2.9-115.955-48.3-129.317-23.23-6.838-38.08.367-46.41-22.713.61 1.653-9.38 5.889-10.37 6.726-5.45 4.612-8.04 7.857-8.22 15.475-.77 33.536 29.24 64.759 51.96 85.877 10.2 9.502-14.92 2.945-25.06 4.883-6.59 1.261-23.7 19.329-27.37 22.069 9.52 11.85 18 1.15 30.85 6.88 11.86 5.29 4.34 20.39-6.72 22.18-17.13 2.76-24.1-8.53-24.1-8.53-7.85 4.26-9.11 29.7-15.28 36.35 8.52 4.67 58.16 13.4 69.8 13.25 24.88-.29 40.14-14.05 48.12-33.97"/>
  <path fill="#F04064" d="M2842.49 1090.98c18.21 203.09-215.64 397.81-215.64 397.81s-152.7 5.75-145.36-154.68c0 0 11.88-29.18 106.41-114.85 63.16-57.23 107.52-142.64 151.96-140.94 121.38 4.64 102.63 12.66 102.63 12.66Z"/>
  <path fill="#0F0BD2" d="M2275.32 1500s140.82 52.53 328.51-18.67c187.69-71.19 238.89-403.63 238.89-403.63l21.48 10.89s-20.9 366.85-268.02 446.57c-188.92 60.94-320.86-11.63-320.86-11.63V1500Z"/>
  <path fill="#F7CE91" d="M2819.89 1293.86s22.5 77.92 23.74 116.76c1.26 38.84-15.34 170.7-15.34 170.7l35.76 4.52s31.79-157.16 32.54-208.45c.74-51.28-28.83-134.37-28.83-134.37l-47.87 50.84Z"/>
  <path fill="#F04064" d="M2817.66 1297.15c25.97 113.47 15.21 265.55 15.21 265.55l38.81 2.47c42.56-89.01 38.57-286.25 16.08-369.23-13.23-48.75-21.01-97.91-54.01-105.49-20.62-4.74-63.04 10.36-68.72 30.74-12.33 44.23 39.89 120.3 52.63 175.96"/>
  <path fill="#F7CE91" d="M2812.28 1600.93c-8.56 16.31-12.44 28.26-7.4 32.38 3.48 2.84 9.09-13 15.85-18.65 1.99 6.6 2.25 18.93-1.97 29.31-4.78 11.76-4.36 21.81 4.58 22.68 8.93.87 23.47.28 26.71-7.13 3.22-7.4 10.57-38.3 14.54-48.57 3.98-10.29-1.29-22.09.22-27.98 1.51-5.89-26.4-15.75-26.4-15.75-1.53 2.37-10.12 14.1-10.12 14.1s-7.25 8.67-9.74 10.25c-2.5 1.58-6.27 9.36-6.27 9.36Z"/>
  <path stroke="#5A5C5F" stroke-linecap="round" stroke-miterlimit="10" stroke-width="4" d="M2600.4 6.065V276.59"/>
  <path fill="#FAB30B" d="M2648.31 380.637c-2.02 26.125-24.83 45.67-50.96 43.653-26.12-2.016-45.68-24.827-43.65-50.958 2.01-26.125 24.83-45.673 50.95-43.656 26.13 2.017 45.68 24.827 43.66 50.961Z"/>
  <path fill="#04A390" d="M2824.44 397.128h-448.07l196.09-142.698h55.88l196.1 142.698Z"/>
  <path stroke="#5A5C5F" stroke-linecap="round" stroke-miterlimit="10" stroke-width="4" d="M491.033 6.065V276.59"/>
  <path fill="#FAB30B" d="M538.944 380.637c-2.016 26.125-24.827 45.67-50.961 43.653-26.125-2.016-45.67-24.827-43.653-50.958 2.016-26.125 24.827-45.673 50.958-43.656 26.125 2.017 45.673 24.827 43.656 50.961Z"/>
  <path fill="#04A390" d="M715.069 397.128H266.998L463.095 254.43h55.877l196.097 142.698Z"/>
  <path stroke="#646972" stroke-linecap="round" stroke-miterlimit="10" stroke-width="4" d="M6.065 1950.79H3070.02"/>
  <path fill="#5EC575" d="M1119.86 1009.52s9.45-23.139 26.62-43.763c17.18-20.615 42.78-54.943 42.78-54.943s-12.48 24.436-29.44 52.04c-16.95 27.608-39.96 46.666-39.96 46.666m17.76-40.234s19.01-14.941 30.43-46.558c11.42-31.62 21.82-55.692 21.82-55.692s-24.66 35.281-35.26 59.735c-10.6 24.445-16.99 42.515-16.99 42.515m-16.48 35.754s9.94-36.166 11.9-65.032c1.95-28.867 1.73-47.001 1.73-47.001s-12.54 52.38-16.32 74.627c-3.78 22.246 2.69 37.406 2.69 37.406Zm-8.51 24.01s3.18-37.247-7.29-70.565c-10.47-33.328-11.04-54.476-11.04-54.476s-5.03 34.886.94 64.959c5.97 30.07 17.39 60.082 17.39 60.082Zm3.08-8.23s26.46-22.591 39.83-27.91c13.38-5.313 32-20.8 32-20.8s-22.99 29.43-35.82 35.26c-12.84 5.83-36.01 13.45-36.01 13.45Zm-9.13 31.62s2.56-20.34-9.26-49.17c-11.82-28.813-14.56-43.066-14.56-43.066s-.7 39.132 7.08 53.816c7.78 14.68 16.74 38.42 16.74 38.42m2.47-14.81s15.21-10.15 29.86-12.21c14.66-2.06 18.58-4.05 18.58-4.05s-7.42 13.55-25.5 15.83c-18.08 2.29-22.94.43-22.94.43Z"/>
  <path fill="#5EC575" d="M1099.1 1071.85c3.29-12.79 7.52-32.56 11.88-45.77 9.62-29.155 32.52-66.722 32.52-66.722-13.98 31.014-24.19 48.452-31.23 75.202-2.78 10.61-7.6 25.32-10.2 34.93-.43 2.64-2.54 4.85-2.97 2.36Z"/>
  <path fill="#86D391" d="M1105.85 1019.94s-1.49-26.527-11.62-53.192c-10.13-26.668-23.99-70.027-23.99-70.027s4.1 28.882 11.59 62.494c7.49 33.616 24.02 60.725 24.02 60.725Zm-3.92-46.575s-13.95-21.594-14.49-57.33c-.54-35.729-2.67-63.534-2.67-63.534s12.59 43.999 14.79 72.241c2.19 28.245 2.37 48.623 2.37 48.623Zm4.19 41.635s2.51-39.791 10.54-69.489c8.02-29.691 14.51-47.837 14.51-47.837s-5.51 56.987-9.4 80.658c-3.9 23.668-15.65 36.668-15.65 36.668Zm.25 27.08s9.69-38.54 31.74-68.415c22.05-29.87 29.94-50.934 29.94-50.934s-7.02 36.803-23.42 64.966c-16.4 28.163-38.26 54.383-38.26 54.383Zm-.26-9.34s-18.78-31.86-30.38-41.829c-11.6-9.974-24.96-31.978-24.96-31.978s12.93 37.525 23.81 47.827c10.88 10.31 31.53 25.98 31.53 25.98Zm-1.75 34.94s4.46-21.33 26.31-46.21c21.85-24.876 29.53-38.261 29.53-38.261s-12.82 39.581-25.73 51.641c-12.89 12.07-30.11 32.83-30.11 32.83Zm2.64-15.74s-11.77-15.46-25.8-22.61c-14.03-7.14-17.26-10.49-17.26-10.49s2.76 16.18 20.14 24.73c17.39 8.55 22.92 8.37 22.92 8.37"/>
  <path fill="#5EC575" d="M1105.15 1089.77c1.13-13.99 3.71-35.32 3.9-50.1.41-32.65-9.61-78.326-9.61-78.326 3.33 36.018 7.56 57.076 5.38 86.396-.87 11.62-1.12 28.08-1.83 38.65-.48 2.79.87 5.74 2.16 3.38Zm-19.41-64.33s-9.45-23.14-26.63-43.757c-17.18-20.618-42.78-54.943-42.78-54.943s12.5 24.433 29.44 52.041c16.96 27.609 39.97 46.659 39.97 46.659Zm-17.76-40.227s-19.01-14.941-30.43-46.558c-11.42-31.623-21.82-55.695-21.82-55.695s24.66 35.277 35.26 59.728c10.6 24.455 16.99 42.525 16.99 42.525m16.48 35.757s-9.95-36.169-11.9-65.039c-1.96-28.872-1.73-46.997-1.73-46.997s12.54 52.377 16.32 74.624c3.78 22.242-2.69 37.412-2.69 37.412Z"/>
  <path fill="#5EC575" d="M1092.97 1044.97s-3.18-37.24 7.29-70.562c10.46-33.324 11.04-54.476 11.04-54.476s5.03 34.886-.95 64.96c-5.96 30.078-17.38 60.078-17.38 60.078Zm-3.08-8.22s-26.46-22.6-39.83-27.92c-13.38-5.31-32-20.803-32-20.803s22.99 29.433 35.82 35.263c12.83 5.83 36.01 13.46 36.01 13.46m9.13 31.61s-2.57-20.34 9.26-49.16c11.82-28.816 14.56-43.069 14.56-43.069s.7 39.129-7.08 53.809c-7.78 14.69-16.74 38.42-16.74 38.42m-2.47-14.81s-15.21-10.15-29.87-12.21c-14.66-2.05-18.57-4.04-18.57-4.04s7.41 13.54 25.5 15.82c18.07 2.29 22.94.43 22.94.43Z"/>
  <path fill="#5EC575" d="M1106.49 1087.77c-3.29-12.78-7.52-32.56-11.87-45.76-9.63-29.17-32.53-66.728-32.53-66.728 13.99 31.018 24.2 48.458 31.23 75.198 2.79 10.61 7.6 25.32 10.21 34.94.43 2.63 2.53 4.84 2.96 2.35Z"/>
  <path fill="#A64109" d="M1140.09 1177.07h-71.74l-22.16-126.35h118.65l-24.75 126.35"/>
  <path fill="#DAA15A" d="m1959.66 1211.79 118.3 739.7 22.78-.07-93.61-739.79-47.47.16Zm-815.54.34-154.075 740.44-30.68.07 120.795-740.36 63.96-.15Z"/>
  <path fill="#DAA15A" d="M2174.5 1225.52H901.581v-56.97H2174.5v56.97Z"/>
  <path fill="#F1B264" d="M2235.52 1206.36H840.555v-37.81H2235.52v37.81Z"/>
  <path fill="#A5ACB9" d="M1845.42 1148.61h-49.51l-49.5-315.895h37.64l61.37 315.895Z"/>
  <path fill="#D6DEEE" d="M1831.22 1148.61h-193.24l-49.51-315.895h193.24l49.51 315.895Z"/>
  <path fill="#D6DEEE" d="M1845.42 1141.45h-210.04v23.56h210.04v-23.56Z"/>
  <path fill="#A5ACB9" d="M2110.26 1141.45h-264.84v23.56h264.84v-23.56Zm-385.17-135.42c5.59 24.18 1.65 50.3-8.8 58.33-10.44 8.04-23.44-5.05-29.04-29.23-5.59-24.19-1.66-50.305 8.79-58.341 10.45-8.03 23.46 5.058 29.05 29.241"/>
  <path fill="#DA8300" d="M1424.5 1163.91h-27.41a22.94 22.94 0 0 1-14.94-5.53c-4.17-3.56-6.92-8.5-7.75-13.91l-10.96-70.53h94.7l-10.95 70.53a22.95 22.95 0 0 1-7.75 13.91 22.94 22.94 0 0 1-14.94 5.53"/>
  <path fill="#DA8300" d="M1448.86 1140.24c17.3.56 22.75-12.71 24.81-24.09 1.36-7.53.28-13.46-3.19-17.6-3.34-4-8.96-6.29-15.43-6.29-10.22 0-18.54 11.06-18.54 24.66 0 11.44 9.3 20.6 12.35 23.32Zm1.04 8.64c-1.01 0-2.01-.04-3.03-.12l-1.29-.09-1.02-.79c-.68-.52-16.67-13.04-16.67-30.96 0-18.35 12.18-33.29 27.16-33.29 9.03 0 17.07 3.42 22.06 9.38 3.56 4.26 7.33 12.01 5.05 24.67-3.61 19.98-15.3 31.2-32.26 31.2Z"/>
  <path fill="#595959" d="M1354.01 1170.11h120.02l19.14-21.2h-158.3l19.14 21.2Z"/>
  <path fill="#343434" d="M718.02 1951.25h-574.3V709.019h574.3V1951.25Z"/>
  <path fill="#6B6B6B" d="M651.911 893.55H209.835V763.291h442.076V893.55Z"/>
  <path fill="#04A38F" d="M483.743 844.208H378.006a4.926 4.926 0 0 1-3.479-1.44 4.912 4.912 0 0 1-1.44-3.479v-21.743a4.915 4.915 0 0 1 4.919-4.913h105.737a4.917 4.917 0 0 1 4.919 4.913v21.743a4.919 4.919 0 0 1-4.919 4.919Z"/>
  <path fill="#6B6B6B" d="M651.911 1059.31H209.835V929.057h442.076v130.253Z"/>
  <path fill="#04A38F" d="M483.743 1009.97H378.006c-.646 0-1.286-.13-1.883-.37a4.924 4.924 0 0 1-2.662-2.67 4.852 4.852 0 0 1-.374-1.88v-21.738a4.916 4.916 0 0 1 4.919-4.919h105.737a4.919 4.919 0 0 1 4.919 4.919v21.738c0 2.72-2.202 4.92-4.919 4.92Z"/>
  <path fill="#6B6B6B" d="M651.911 1225.07H209.835v-130.25h442.076v130.25Z"/>
  <path fill="#04A38F" d="M483.743 1175.73H378.006c-.646 0-1.286-.13-1.883-.37a4.924 4.924 0 0 1-2.662-2.67 4.852 4.852 0 0 1-.374-1.88v-21.73c0-2.72 2.198-4.92 4.919-4.92h105.737c2.717 0 4.919 2.2 4.919 4.92v21.73c0 2.72-2.202 4.92-4.919 4.92Z"/>
  <path fill="#6B6B6B" d="M651.911 1900.92H209.835v-638.47h442.076v638.47Z"/>
  <path fill="#04A38F" d="M483.743 1343.36H378.006c-.647 0-1.286-.13-1.884-.37a4.924 4.924 0 0 1-2.662-2.67 4.85 4.85 0 0 1-.373-1.88v-21.73c0-2.72 2.198-4.92 4.919-4.92h105.737c2.717 0 4.919 2.2 4.919 4.92v21.73a4.93 4.93 0 0 1-3.035 4.55c-.598.24-1.238.37-1.884.37Z"/>
  <path fill="#F04064" d="M1362.27 138.972c-.32-3.209-1.69-5.701-4.1-7.478-2.41-1.776-5.69-2.664-9.82-2.664-2.81 0-5.19.397-7.12 1.193-1.94.769-3.42 1.843-4.46 3.221-1 1.379-1.51 2.944-1.51 4.694-.05 1.458.25 2.731.92 3.818.69 1.087 1.63 2.028 2.82 2.824 1.19.768 2.57 1.445 4.14 2.028 1.56.557 3.23 1.034 5.01 1.432l7.32 1.75c3.55.795 6.81 1.856 9.78 3.182 2.97 1.325 5.54 2.956 7.72 4.892a20.472 20.472 0 0 1 5.05 6.841c1.22 2.625 1.84 5.634 1.87 9.028-.03 4.985-1.3 9.307-3.82 12.966-2.49 3.632-6.1 6.456-10.82 8.471-4.69 1.989-10.35 2.983-16.98 2.983-6.58 0-12.31-1.007-17.18-3.022-4.86-2.015-8.65-4.998-11.38-8.949-2.7-3.977-4.12-8.896-4.26-14.756h16.67c.18 2.731.97 5.011 2.35 6.841 1.4 1.803 3.27 3.169 5.6 4.097 2.36.901 5.03 1.352 8 1.352 2.91 0 5.45-.424 7.59-1.273 2.18-.848 3.86-2.028 5.06-3.54 1.19-1.511 1.79-3.248 1.79-5.21 0-1.829-.55-3.367-1.63-4.613-1.07-1.247-2.63-2.307-4.7-3.182-2.04-.875-4.55-1.671-7.52-2.387l-8.86-2.227c-6.87-1.67-12.29-4.282-16.27-7.835-3.98-3.553-5.95-8.339-5.93-14.358-.02-4.932 1.29-9.241 3.94-12.926 2.68-3.686 6.35-6.563 11.02-8.631 4.66-2.068 9.97-3.102 15.91-3.102 6.04 0 11.32 1.034 15.83 3.102 4.53 2.068 8.06 4.945 10.58 8.631 2.51 3.685 3.81 7.954 3.89 12.807h-16.5Zm46.98-23.427V197h-17.22v-81.455h17.22Zm68.74 26.33c-.55-1.936-1.34-3.646-2.34-5.131a14.506 14.506 0 0 0-3.7-3.818c-1.44-1.06-3.08-1.869-4.94-2.426-1.82-.557-3.85-.835-6.08-.835-4.16 0-7.82 1.034-10.98 3.102-3.13 2.068-5.57 5.078-7.32 9.028-1.75 3.925-2.62 8.724-2.62 14.398 0 5.674.86 10.5 2.58 14.477 1.73 3.978 4.17 7.014 7.32 9.108 3.16 2.069 6.88 3.103 11.18 3.103 3.9 0 7.22-.69 9.98-2.069 2.79-1.405 4.91-3.38 6.37-5.926 1.48-2.545 2.22-5.555 2.22-9.028l3.5.517h-21v-12.966h34.09v10.261c0 7.16-1.51 13.311-4.54 18.455-3.02 5.117-7.18 9.068-12.48 11.852-5.31 2.758-11.38 4.137-18.22 4.137-7.64 0-14.35-1.684-20.13-5.052-5.78-3.393-10.28-8.206-13.52-14.437-3.21-6.258-4.81-13.682-4.81-22.273 0-6.602.95-12.488 2.86-17.659 1.94-5.197 4.64-9.598 8.12-13.204a34.959 34.959 0 0 1 12.13-8.233c4.61-1.883 9.61-2.824 14.99-2.824 4.61 0 8.91.676 12.89 2.028 3.97 1.326 7.5 3.209 10.58 5.648a30.559 30.559 0 0 1 7.59 8.71c1.97 3.341 3.23 7.027 3.78 11.057h-17.5Zm99.88-26.33V197H1563l-35.44-51.267h-.59V197h-17.23v-81.455h15.12l35.16 51.228h.71v-51.228h17.14Zm58.5 0V197h-17.22v-81.455h17.22Zm82.86 0V197h-14.88l-35.44-51.267h-.59V197h-17.22v-81.455h15.11l35.16 51.228h.71v-51.228h17.15Zm61.19 0-1.55 57.035h-14.55l-1.6-57.035h17.7Zm-8.83 82.489c-2.62 0-4.88-.928-6.76-2.784-1.88-1.883-2.81-4.136-2.78-6.761-.03-2.599.9-4.826 2.78-6.682 1.88-1.856 4.14-2.784 6.76-2.784 2.52 0 4.74.928 6.65 2.784 1.9 1.856 2.87 4.083 2.9 6.682-.03 1.75-.49 3.354-1.39 4.812a10.343 10.343 0 0 1-3.46 3.46c-1.43.849-3 1.273-4.7 1.273Z"/>
  <path fill="#5D9AFF" d="M915.436 386.973c0-1.039-.161-1.967-.483-2.784-.297-.841-.853-1.595-1.67-2.263-.791-.693-1.917-1.361-3.377-2.004-1.435-.668-3.29-1.361-5.566-2.078a61.715 61.715 0 0 1-7.051-2.672c-2.177-.99-4.094-2.14-5.752-3.451-1.633-1.311-2.907-2.821-3.822-4.528-.916-1.731-1.373-3.735-1.373-6.011 0-2.227.47-4.256 1.41-6.086.965-1.831 2.325-3.402 4.082-4.713 1.756-1.336 3.822-2.363 6.197-3.08 2.4-.718 5.047-1.076 7.942-1.076 4.007 0 7.471.729 10.39 2.189 2.944 1.46 5.22 3.439 6.828 5.938 1.608 2.498 2.413 5.306 2.413 8.423h-10.168c0-1.682-.359-3.166-1.077-4.453-.692-1.286-1.756-2.301-3.191-3.043-1.41-.742-3.191-1.113-5.344-1.113-2.078 0-3.81.309-5.195.928-1.361.618-2.387 1.459-3.08 2.523-.668 1.064-1.002 2.251-1.002 3.563 0 .989.235 1.88.705 2.672.47.766 1.175 1.496 2.115 2.189.94.668 2.103 1.299 3.488 1.893 1.411.569 3.043 1.138 4.899 1.707 2.969.89 5.566 1.88 7.793 2.968 2.251 1.089 4.119 2.326 5.603 3.711 1.51 1.386 2.635 2.944 3.377 4.676.767 1.732 1.151 3.699 1.151 5.9 0 2.326-.458 4.404-1.373 6.235-.916 1.831-2.227 3.389-3.934 4.676-1.707 1.286-3.76 2.263-6.16 2.931-2.375.668-5.035 1.002-7.979 1.002-2.622 0-5.22-.346-7.793-1.039-2.548-.717-4.861-1.781-6.939-3.191a16.288 16.288 0 0 1-4.973-5.418c-1.237-2.202-1.855-4.775-1.855-7.719h10.242c0 1.707.272 3.167.816 4.379a7.892 7.892 0 0 0 2.375 2.932c1.04.742 2.252 1.286 3.637 1.632 1.386.347 2.882.52 4.49.52 2.079 0 3.786-.285 5.122-.854 1.36-.593 2.375-1.41 3.042-2.449.693-1.039 1.04-2.226 1.04-3.562Zm31.642-40.004V401h-10.205v-54.031h10.205Zm55.842 26.088v21.041c-.8 1.014-2.05 2.115-3.752 3.302-1.683 1.188-3.884 2.215-6.606 3.08-2.721.842-6.061 1.262-10.019 1.262-3.439 0-6.581-.569-9.426-1.707-2.845-1.163-5.294-2.857-7.348-5.084-2.053-2.226-3.637-4.948-4.75-8.164-1.113-3.216-1.67-6.89-1.67-11.021v-3.563c0-4.131.52-7.805 1.559-11.021 1.064-3.217 2.573-5.938 4.527-8.164a19.57 19.57 0 0 1 7.088-5.084c2.771-1.163 5.863-1.745 9.277-1.745 4.577 0 8.338.755 11.282 2.264 2.968 1.509 5.245 3.587 6.828 6.235 1.58 2.622 2.57 5.64 2.97 9.054h-9.947c-.272-1.88-.816-3.525-1.633-4.935-.816-1.435-1.979-2.549-3.488-3.34-1.484-.817-3.414-1.225-5.789-1.225-2.004 0-3.773.396-5.307 1.188-1.533.791-2.82 1.942-3.859 3.451-1.039 1.509-1.831 3.377-2.375 5.603-.519 2.227-.779 4.775-.779 7.645v3.637c0 2.894.297 5.467.89 7.718.594 2.227 1.448 4.107 2.561 5.641 1.138 1.509 2.536 2.66 4.193 3.451 1.683.767 3.588 1.151 5.715 1.151 1.93 0 3.526-.161 4.787-.483 1.287-.346 2.313-.754 3.08-1.224.767-.471 1.361-.928 1.782-1.374v-10.13h-10.725v-7.459h20.934Zm55.72-26.088V401h-10.24l-22.97-37.48V401h-10.21v-54.031h10.21l23.04 37.517v-37.517h10.17Zm45.51 0V401h-10.2v-54.031h10.2Zm57.1 0V401h-10.24l-22.97-37.48V401h-10.21v-54.031h10.21l23.04 37.517v-37.517h10.17Zm55.98 0V401h-10.17v-54.031h10.17Zm16.77 0v8.052h-43.53v-8.052H1234Zm52.16 25.642v2.784c0 4.082-.54 7.755-1.63 11.021-1.09 3.241-2.63 5.999-4.64 8.275-2 2.276-4.39 4.021-7.16 5.233-2.77 1.212-5.85 1.818-9.24 1.818-3.34 0-6.41-.606-9.2-1.818-2.78-1.212-5.17-2.957-7.2-5.233-2.03-2.276-3.6-5.034-4.72-8.275-1.11-3.266-1.67-6.939-1.67-11.021v-2.784c0-4.106.56-7.78 1.67-11.021 1.12-3.241 2.68-6 4.68-8.276 2-2.3 4.39-4.057 7.16-5.269 2.8-1.212 5.86-1.818 9.2-1.818 3.39 0 6.47.606 9.24 1.818 2.78 1.212 5.16 2.969 7.17 5.269 2.03 2.276 3.58 5.035 4.67 8.276 1.12 3.241 1.67 6.915 1.67 11.021Zm-10.31 2.784v-2.858c0-2.944-.28-5.529-.82-7.756-.54-2.251-1.35-4.144-2.41-5.677-1.07-1.534-2.38-2.685-3.94-3.452-1.55-.791-3.31-1.187-5.27-1.187-1.97 0-3.73.396-5.26 1.187-1.51.767-2.8 1.918-3.86 3.452-1.07 1.533-1.88 3.426-2.45 5.677-.55 2.227-.82 4.812-.82 7.756v2.858c0 2.919.27 5.504.82 7.755.57 2.252 1.38 4.157 2.45 5.715 1.08 1.534 2.4 2.697 3.93 3.489 1.53.791 3.29 1.187 5.27 1.187 1.98 0 3.73-.396 5.27-1.187 1.53-.792 2.82-1.955 3.86-3.489 1.06-1.558 1.87-3.463 2.41-5.715.54-2.251.82-4.836.82-7.755Zm73.26-28.426h10.21v35.885c0 4.131-.89 7.607-2.67 10.427-1.78 2.796-4.21 4.911-7.28 6.346-3.06 1.41-6.55 2.115-10.46 2.115-3.96 0-7.49-.705-10.58-2.115-3.09-1.435-5.51-3.55-7.27-6.346-1.76-2.82-2.64-6.296-2.64-10.427v-35.885h10.21v35.885c0 2.523.42 4.589 1.26 6.197.84 1.583 2.03 2.758 3.56 3.525 1.54.767 3.36 1.151 5.46 1.151 2.13 0 3.94-.384 5.45-1.151 1.54-.767 2.71-1.942 3.53-3.525.82-1.608 1.22-3.674 1.22-6.197v-35.885Zm50.83 40.004c0-1.039-.16-1.967-.48-2.784-.3-.841-.85-1.595-1.67-2.263-.79-.693-1.92-1.361-3.38-2.004-1.43-.668-3.29-1.361-5.56-2.078a60.784 60.784 0 0 1-7.05-2.672c-2.18-.99-4.1-2.14-5.76-3.451-1.63-1.311-2.9-2.821-3.82-4.528-.91-1.731-1.37-3.735-1.37-6.011 0-2.227.47-4.256 1.41-6.086.96-1.831 2.32-3.402 4.08-4.713 1.76-1.336 3.82-2.363 6.2-3.08 2.4-.718 5.04-1.076 7.94-1.076 4.01 0 7.47.729 10.39 2.189 2.94 1.46 5.22 3.439 6.83 5.938 1.61 2.498 2.41 5.306 2.41 8.423h-10.17c0-1.682-.36-3.166-1.07-4.453-.7-1.286-1.76-2.301-3.2-3.043-1.41-.742-3.19-1.113-5.34-1.113-2.08 0-3.81.309-5.2.928-1.36.618-2.38 1.459-3.08 2.523a6.63 6.63 0 0 0-1 3.563c0 .989.24 1.88.71 2.672.47.766 1.17 1.496 2.11 2.189.94.668 2.11 1.299 3.49 1.893 1.41.569 3.04 1.138 4.9 1.707 2.97.89 5.57 1.88 7.79 2.968 2.25 1.089 4.12 2.326 5.61 3.711 1.51 1.386 2.63 2.944 3.37 4.676.77 1.732 1.15 3.699 1.15 5.9 0 2.326-.45 4.404-1.37 6.235-.91 1.831-2.23 3.389-3.93 4.676-1.71 1.286-3.76 2.263-6.16 2.931-2.38.668-5.04 1.002-7.98 1.002-2.62 0-5.22-.346-7.79-1.039-2.55-.717-4.87-1.781-6.94-3.191a16.32 16.32 0 0 1-4.98-5.418c-1.23-2.202-1.85-4.775-1.85-7.719h10.24c0 1.707.27 3.167.82 4.379a7.928 7.928 0 0 0 2.37 2.932c1.04.742 2.25 1.286 3.64 1.632 1.38.347 2.88.52 4.49.52 2.08 0 3.78-.285 5.12-.854 1.36-.593 2.37-1.41 3.04-2.449.7-1.039 1.04-2.226 1.04-3.562Zm56.58 6.011V401h-28.72v-8.016h28.72Zm-25.6-46.015V401h-10.21v-54.031h10.21Zm21.85 22.302v7.831h-24.97v-7.831h24.97Zm3.64-22.302v8.052h-28.61v-8.052h28.61Zm430.21 40.004c0-1.039-.17-1.967-.49-2.784-.29-.841-.85-1.595-1.67-2.263-.79-.693-1.91-1.361-3.37-2.004-1.44-.668-3.29-1.361-5.57-2.078a62.2 62.2 0 0 1-7.05-2.672c-2.18-.99-4.1-2.14-5.75-3.451-1.64-1.311-2.91-2.821-3.83-4.528-.91-1.731-1.37-3.735-1.37-6.011 0-2.227.47-4.256 1.41-6.086.97-1.831 2.33-3.402 4.08-4.713 1.76-1.336 3.83-2.363 6.2-3.08 2.4-.718 5.05-1.076 7.94-1.076 4.01 0 7.47.729 10.39 2.189 2.95 1.46 5.22 3.439 6.83 5.938 1.61 2.498 2.41 5.306 2.41 8.423h-10.16c0-1.682-.36-3.166-1.08-4.453-.69-1.286-1.76-2.301-3.19-3.043-1.41-.742-3.19-1.113-5.35-1.113-2.07 0-3.81.309-5.19.928-1.36.618-2.39 1.459-3.08 2.523-.67 1.064-1 2.251-1 3.563 0 .989.23 1.88.7 2.672.47.766 1.18 1.496 2.12 2.189.94.668 2.1 1.299 3.49 1.893 1.41.569 3.04 1.138 4.89 1.707 2.97.89 5.57 1.88 7.8 2.968 2.25 1.089 4.12 2.326 5.6 3.711 1.51 1.386 2.64 2.944 3.38 4.676.76 1.732 1.15 3.699 1.15 5.9 0 2.326-.46 4.404-1.38 6.235-.91 1.831-2.22 3.389-3.93 4.676-1.71 1.286-3.76 2.263-6.16 2.931-2.37.668-5.03 1.002-7.98 1.002-2.62 0-5.22-.346-7.79-1.039-2.55-.717-4.86-1.781-6.94-3.191a16.186 16.186 0 0 1-4.97-5.418c-1.24-2.202-1.86-4.775-1.86-7.719h10.24c0 1.707.28 3.167.82 4.379.57 1.187 1.36 2.165 2.38 2.932 1.03.742 2.25 1.286 3.63 1.632 1.39.347 2.88.52 4.49.52 2.08 0 3.79-.285 5.12-.854 1.36-.593 2.38-1.41 3.05-2.449.69-1.039 1.04-2.226 1.04-3.562Zm56.58 6.011V401h-28.73v-8.016h28.73Zm-25.61-46.015V401h-10.21v-54.031h10.21Zm21.86 22.302v7.831h-24.98v-7.831h24.98Zm3.63-22.302v8.052h-28.61v-8.052h28.61Zm9.86 0h19.63c4.11 0 7.64.618 10.58 1.855 2.94 1.237 5.21 3.068 6.79 5.492 1.58 2.425 2.38 5.406 2.38 8.944 0 2.795-.5 5.22-1.49 7.273a14.21 14.21 0 0 1-4.19 5.158c-1.78 1.386-3.89 2.474-6.31 3.266l-3.19 1.633h-17.33l-.08-8.053h12.96c2.1 0 3.84-.371 5.23-1.113 1.38-.742 2.42-1.769 3.12-3.08.71-1.311 1.07-2.808 1.07-4.49 0-1.806-.35-3.365-1.04-4.676-.69-1.336-1.74-2.363-3.15-3.08-1.41-.718-3.19-1.077-5.35-1.077h-9.42V401h-10.21v-54.031ZM1983.45 401l-12.51-24.195 10.8-.037 12.65 23.712v.52h-10.94Zm38.73-10.576 13.47-43.455h11.32L2027.89 401h-7.53l1.82-10.576Zm-12.43-43.455 13.39 43.455 1.93 10.576h-7.61l-19-54.031h11.29Zm56.32 0V401h-10.21v-54.031h10.21Zm45.29 36.256h10.21c-.27 3.612-1.27 6.815-3.01 9.611-1.73 2.771-4.14 4.948-7.23 6.531-3.09 1.584-6.84 2.375-11.25 2.375-3.39 0-6.44-.594-9.16-1.781a19.814 19.814 0 0 1-6.94-5.158c-1.91-2.252-3.37-4.948-4.38-8.09-1.02-3.167-1.52-6.717-1.52-10.651v-4.119c0-3.933.52-7.483 1.56-10.65 1.04-3.167 2.52-5.863 4.45-8.09a19.865 19.865 0 0 1 7.01-5.195c2.75-1.212 5.82-1.819 9.21-1.819 4.4 0 8.12.817 11.17 2.45 3.04 1.608 5.4 3.822 7.08 6.642 1.69 2.821 2.7 6.061 3.05 9.723h-10.21c-.2-2.276-.69-4.206-1.48-5.789a7.822 7.822 0 0 0-3.49-3.6c-1.53-.841-3.58-1.261-6.12-1.261-1.98 0-3.73.371-5.24 1.113-1.48.742-2.72 1.855-3.71 3.34-.99 1.459-1.73 3.29-2.22 5.492-.5 2.177-.75 4.7-.75 7.57v4.193c0 2.747.23 5.208.67 7.385.45 2.177 1.14 4.02 2.08 5.53.94 1.509 2.15 2.659 3.64 3.451 1.48.791 3.25 1.187 5.3 1.187 2.5 0 4.53-.396 6.09-1.187 1.58-.792 2.78-1.955 3.6-3.489.84-1.533 1.37-3.438 1.59-5.714Zm56.58 9.759V401h-28.72v-8.016h28.72Zm-25.6-46.015V401h-10.21v-54.031h10.21Zm21.86 22.302v7.831h-24.98v-7.831h24.98Zm3.63-22.302v8.052h-28.61v-8.052h28.61Zm38.14 40.004c0-1.039-.16-1.967-.48-2.784-.3-.841-.86-1.595-1.67-2.263-.79-.693-1.92-1.361-3.38-2.004-1.43-.668-3.29-1.361-5.57-2.078a62.2 62.2 0 0 1-7.05-2.672c-2.17-.99-4.09-2.14-5.75-3.451-1.63-1.311-2.91-2.821-3.82-4.528-.92-1.731-1.37-3.735-1.37-6.011 0-2.227.47-4.256 1.41-6.086.96-1.831 2.32-3.402 4.08-4.713 1.75-1.336 3.82-2.363 6.2-3.08 2.4-.718 5.04-1.076 7.94-1.076 4 0 7.47.729 10.39 2.189 2.94 1.46 5.22 3.439 6.83 5.938 1.6 2.498 2.41 5.306 2.41 8.423h-10.17c0-1.682-.36-3.166-1.08-4.453-.69-1.286-1.75-2.301-3.19-3.043-1.41-.742-3.19-1.113-5.34-1.113-2.08 0-3.81.309-5.2.928-1.36.618-2.38 1.459-3.08 2.523a6.63 6.63 0 0 0-1 3.563c0 .989.24 1.88.71 2.672.47.766 1.17 1.496 2.11 2.189.94.668 2.1 1.299 3.49 1.893 1.41.569 3.04 1.138 4.9 1.707 2.97.89 5.56 1.88 7.79 2.968 2.25 1.089 4.12 2.326 5.6 3.711 1.51 1.386 2.64 2.944 3.38 4.676.77 1.732 1.15 3.699 1.15 5.9 0 2.326-.46 4.404-1.37 6.235-.92 1.831-2.23 3.389-3.93 4.676-1.71 1.286-3.77 2.263-6.16 2.931-2.38.668-5.04 1.002-7.98 1.002-2.63 0-5.22-.346-7.8-1.039-2.54-.717-4.86-1.781-6.94-3.191a16.395 16.395 0 0 1-4.97-5.418c-1.24-2.202-1.85-4.775-1.85-7.719h10.24c0 1.707.27 3.167.81 4.379a7.953 7.953 0 0 0 2.38 2.932c1.04.742 2.25 1.286 3.64 1.632 1.38.347 2.88.52 4.49.52 2.07 0 3.78-.285 5.12-.854 1.36-.593 2.37-1.41 3.04-2.449.69-1.039 1.04-2.226 1.04-3.562Z"/>
  <path fill="#12D5BD" d="M1523.94 368.29v9.475h-28.35v-9.475h28.35Zm-24.47-22.032V401h-12.26v-54.742h12.26Zm32.93 0V401h-12.22v-54.742h12.22Zm57.44 26.168v2.444c0 4.16-.58 7.895-1.73 11.204-1.13 3.308-2.75 6.128-4.85 8.459a21.137 21.137 0 0 1-7.45 5.377c-2.85 1.228-6.02 1.842-9.51 1.842-3.48 0-6.67-.614-9.55-1.842a21.954 21.954 0 0 1-7.52-5.377c-2.1-2.331-3.73-5.151-4.89-8.459-1.15-3.309-1.72-7.044-1.72-11.204v-2.444c0-4.161.57-7.896 1.72-11.204 1.16-3.334 2.77-6.166 4.86-8.497a21.004 21.004 0 0 1 7.48-5.339c2.88-1.254 6.06-1.88 9.55-1.88 3.48 0 6.66.626 9.55 1.88a20.77 20.77 0 0 1 7.44 5.339c2.11 2.331 3.74 5.163 4.89 8.497 1.15 3.308 1.73 7.043 1.73 11.204Zm-12.37 2.444v-2.519c0-2.783-.25-5.239-.75-7.37-.5-2.155-1.23-3.96-2.18-5.414-.96-1.453-2.13-2.544-3.54-3.271-1.4-.752-2.99-1.128-4.77-1.128-1.86 0-3.47.376-4.85 1.128-1.38.727-2.55 1.818-3.5 3.271-.93 1.454-1.64 3.259-2.14 5.414-.48 2.131-.72 4.587-.72 7.37v2.519c0 2.757.24 5.213.72 7.369.5 2.13 1.23 3.935 2.18 5.414.95 1.479 2.12 2.594 3.49 3.346 1.41.752 3.04 1.128 4.89 1.128 1.78 0 3.36-.376 4.74-1.128 1.4-.752 2.58-1.867 3.53-3.346.96-1.479 1.67-3.284 2.15-5.414.5-2.156.75-4.612.75-7.369Zm50.97 11.692c0-.927-.14-1.754-.41-2.481-.28-.752-.78-1.441-1.51-2.068-.73-.626-1.75-1.253-3.08-1.88-1.33-.651-3.07-1.316-5.23-1.992a71.232 71.232 0 0 1-7.03-2.707c-2.2-1.028-4.17-2.219-5.9-3.572-1.73-1.354-3.1-2.933-4.1-4.737-.98-1.805-1.47-3.911-1.47-6.317 0-2.331.52-4.436 1.55-6.316 1.02-1.88 2.46-3.484 4.32-4.813 1.85-1.353 4.04-2.381 6.54-3.083 2.51-.727 5.27-1.09 8.27-1.09 4.01 0 7.54.714 10.57 2.143 3.06 1.404 5.44 3.384 7.14 5.94 1.71 2.532 2.56 5.477 2.56 8.836h-12.18c0-1.479-.32-2.782-.94-3.91-.61-1.153-1.53-2.056-2.79-2.707-1.22-.652-2.77-.978-4.62-.978-1.8 0-3.32.276-4.55.827-1.2.527-2.12 1.253-2.74 2.181a5.422 5.422 0 0 0-.91 3.045c0 .878.23 1.68.68 2.407.48.701 1.15 1.366 2.03 1.992.9.602 2.01 1.178 3.31 1.73 1.3.551 2.79 1.078 4.47 1.579 2.94.927 5.53 1.955 7.79 3.083 2.28 1.128 4.19 2.406 5.75 3.835 1.55 1.429 2.72 3.045 3.5 4.85.8 1.805 1.2 3.847 1.2 6.128 0 2.432-.48 4.587-1.43 6.467-.93 1.88-2.28 3.484-4.06 4.813-1.76 1.303-3.86 2.293-6.32 2.97-2.45.677-5.2 1.015-8.23 1.015-2.76 0-5.48-.351-8.16-1.053-2.68-.727-5.11-1.83-7.29-3.308a16.873 16.873 0 0 1-5.19-5.64c-1.28-2.306-1.92-5.038-1.92-8.196h12.26c0 1.654.23 3.058.71 4.211.48 1.128 1.15 2.042 2.03 2.744.9.702 1.99 1.203 3.27 1.504 1.28.301 2.71.451 4.29.451 1.83 0 3.31-.25 4.44-.752 1.15-.526 2-1.24 2.55-2.143a5.67 5.67 0 0 0 .83-3.008Zm47.62-40.304V401h-12.22v-54.742h12.22Zm16.66 0v9.512h-45.19v-9.512h45.19Zm45.97 45.267V401h-29.14v-9.475h29.14Zm-24.97-45.267V401h-12.25v-54.742h12.25Zm21.21 22.032v9.174h-25.38v-9.174h25.38Zm3.8-22.032v9.512h-29.18v-9.512h29.18Zm44.39 45.267V401h-27.64v-9.475h27.64Zm-23.46-45.267V401h-12.26v-54.742h12.26Zm67.06 23.95v10.188h-37.52v-10.188h37.52Zm-13.16-14.551v39.854h-11.05v-39.854h11.05Z"/>
  <defs>
    <linearGradient id="a" x1="1703.28" x2="1846.46" y1="1801.96" y2="1907.07" gradientUnits="userSpaceOnUse">
      <stop stop-color="#30343F"/>
      <stop offset="1" stop-color="#192132"/>
    </linearGradient>
    <linearGradient id="b" x1="1944.72" x2="2122.34" y1="1872.68" y2="1872.68" gradientUnits="userSpaceOnUse">
      <stop stop-color="#30343F"/>
      <stop offset="1" stop-color="#192132"/>
    </linearGradient>
    <linearGradient id="c" x1="2947.74" x2="2821.16" y1="1066.01" y2="920.93" gradientUnits="userSpaceOnUse">
      <stop stop-color="#30343F"/>
      <stop offset="1" stop-color="#192132"/>
    </linearGradient>
  </defs>
</svg>
